<?xml version="1.0" encoding="UTF-8" standalone="no"?><!DOCTYPE svg PUBLIC "-//W3C//DTD SVG 1.1//EN" "http://www.w3.org/Graphics/SVG/1.1/DTD/svg11.dtd"><svg width="100%" height="100%" viewBox="0 0 770 771" version="1.1" xmlns="http://www.w3.org/2000/svg" xmlns:xlink="http://www.w3.org/1999/xlink" xml:space="preserve" xmlns:serif="http://www.serif.com/" style="fill-rule:evenodd;clip-rule:evenodd;stroke-linejoin:round;stroke-miterlimit:2;"><g><g><g><path d="M143.474,221.331l39.672,38.723l0.021,62.715c0.002,6.148 -1.225,12.067 -3.683,17.755c-2.457,5.688 -5.837,10.685 -10.14,14.991c-4.302,4.305 -9.297,7.689 -14.984,10.15c-5.686,2.461 -11.604,3.693 -17.752,3.695l-47.037,0.016c-13.219,0.005 -24.288,-4.449 -33.206,-13.361l-32.752,-31.808c-7.073,-4.302 -12.762,-10.064 -17.068,-17.287c-4.307,-7.223 -6.462,-15.292 -6.465,-24.208l-0.08,-234.259c-0.002,-6.764 1.225,-13.067 3.683,-18.909c2.457,-5.841 5.914,-10.915 10.37,-15.221c4.456,-4.305 9.605,-7.766 15.445,-10.381c5.84,-2.615 12.142,-3.924 18.905,-3.926l47.037,-0.016c8.915,-0.003 16.909,2.069 23.981,6.217c7.072,4.148 12.762,9.757 17.068,16.826l32.752,31.808c9.226,9.219 13.841,20.439 13.846,33.658l0.021,62.254l-62.254,0.022l-15.684,-15.213l0.029,83.006l38.274,-0.013l0.001,2.766Zm-9.22,6.46l-46.576,0.016c0.001,3.074 0.233,7.224 0.696,12.45c0.463,5.226 0.465,10.376 0.006,15.448c-0.46,5.073 -1.765,9.531 -3.916,13.375c-2.15,3.843 -5.839,5.766 -11.065,5.768c-4.611,0.001 -8.608,-1.073 -11.991,-3.224c-3.382,-2.151 -5.074,-5.839 -5.076,-11.066l-0.065,-190.451c-0.002,-3.689 1.381,-6.918 4.147,-9.685c2.766,-2.768 5.993,-4.153 9.682,-4.154c6.456,-0.002 10.991,1.61 13.605,4.837c2.615,3.227 4.23,7.223 4.847,11.988c0.616,4.765 0.618,9.838 0.005,15.218c-0.613,5.38 -0.919,10.222 -0.918,14.526l46.576,-0.016l-0.019,-54.414c-0.004,-10.76 -3.773,-19.982 -11.307,-27.665c-7.535,-7.683 -16.682,-11.523 -27.442,-11.519l-47.037,0.016c-10.76,0.004 -19.981,3.85 -27.664,11.538c-7.683,7.688 -11.523,16.912 -11.519,27.672l0.08,234.26c0.004,10.76 3.85,19.905 11.538,27.434c7.688,7.529 16.912,11.292 27.672,11.289l47.037,-0.016c10.452,-0.004 19.52,-3.85 27.203,-11.538c7.683,-7.689 11.523,-16.759 11.519,-27.212l-0.018,-54.875Z" style="fill:url(#_Linear1);fill-rule:nonzero;"/><path d="M218.218,325.43c-7.072,-3.994 -12.838,-9.756 -17.299,-17.287c-4.46,-7.53 -6.692,-15.753 -6.695,-24.669l-0.08,-233.798c-0.002,-6.764 1.226,-13.066 3.683,-18.908c2.457,-5.842 5.914,-10.916 10.37,-15.221c4.457,-4.306 9.605,-7.766 15.445,-10.381c5.84,-2.616 12.142,-3.924 18.906,-3.927l46.575,-0.016c8.915,-0.003 16.986,2.147 24.212,6.448c7.226,4.302 12.992,9.987 17.299,17.056l32.29,31.347c4.306,4.303 7.766,9.297 10.381,14.984c2.615,5.686 3.924,11.911 3.926,18.674l0.08,233.799c0.002,6.456 -1.225,12.528 -3.683,18.216c-2.457,5.689 -5.837,10.686 -10.14,14.991c-4.302,4.305 -9.297,7.689 -14.983,10.15c-5.687,2.462 -11.758,3.693 -18.214,3.696l-46.575,0.016c-12.912,0.004 -23.828,-4.45 -32.746,-13.362l-32.752,-31.808Zm63.155,-63.659c0.001,3.997 -1.304,7.302 -3.917,9.916c-2.612,2.614 -5.916,3.922 -9.913,3.923l-3.228,0.001c-3.996,0.001 -7.302,-1.304 -9.916,-3.916c-2.614,-2.612 -3.921,-5.917 -3.923,-9.913l-0.065,-190.452c-0.001,-3.996 1.304,-7.378 3.916,-10.146c2.612,-2.768 5.917,-4.153 9.913,-4.154l3.228,-0.001c3.997,-0.001 7.302,1.381 9.916,4.147c2.614,2.766 3.922,6.147 3.923,10.144l0.066,190.451Zm46.963,-212.141c-0.003,-10.76 -3.849,-19.982 -11.538,-27.665c-7.688,-7.683 -16.912,-11.522 -27.672,-11.519l-46.575,0.016c-10.76,0.004 -19.982,3.85 -27.665,11.538c-7.683,7.689 -11.523,16.913 -11.519,27.673l0.08,233.798c0.004,10.76 3.85,19.982 11.538,27.665c7.689,7.683 16.913,11.523 27.673,11.519l46.575,-0.016c10.76,-0.004 19.981,-3.85 27.664,-11.538c7.683,-7.688 11.523,-16.913 11.519,-27.672l-0.08,-233.799Z" style="fill:url(#_Linear2);fill-rule:nonzero;"/><path d="M391.168,331.883l-2.766,0.001l-0.114,-330.638l65.021,-0.023l0.001,2.767l39.672,38.723l0.076,224.114l10.607,-0.003l0.001,2.766l39.671,38.723l0.021,62.254l-112.518,0.038l-39.672,-38.722Zm53.013,-55.816l-0.091,-265.618l-46.576,0.016l0.107,312.193l96.84,-0.033l-0.016,-46.575l-50.264,0.017Z" style="fill:url(#_Linear3);fill-rule:nonzero;"/><path d="M557.216,331.877l-2.767,0.001l-0.113,-330.638l98.684,-0.034c8.915,-0.003 16.986,2.146 24.212,6.448c7.226,4.301 12.992,9.987 17.299,17.056l32.29,31.347c4.306,4.302 7.766,9.297 10.381,14.983c2.615,5.687 3.924,11.912 3.926,18.675l0.08,234.26c0.003,6.456 -1.225,12.528 -3.683,18.216c-2.457,5.688 -5.837,10.608 -10.14,14.76c-4.302,4.152 -9.297,7.458 -14.983,9.92c-5.687,2.461 -11.758,3.693 -18.214,3.695l-97.301,0.034l-39.671,-38.723Zm88.054,-70.123c-0,-0 -1.305,6.994 -3.917,9.916c-2.612,2.921 -5.916,4.382 -9.913,4.384l-21.212,0.007l-0.075,-218.581l21.212,-0.007c3.69,-0.002 6.918,1.381 9.686,4.147c2.768,2.766 4.152,5.993 4.153,9.682l0.066,190.452Zm46.963,-212.142c-0.003,-10.759 -3.849,-19.981 -11.538,-27.664c-7.688,-7.683 -16.912,-11.523 -27.672,-11.519l-89.461,0.031l0.106,312.192l89.462,-0.03c10.76,-0.004 19.981,-3.773 27.665,-11.308c7.683,-7.534 11.522,-16.682 11.519,-27.442l-0.081,-234.26Z" style="fill:url(#_Linear4);fill-rule:nonzero;"/><path d="M152.656,597.776c0.308,-0.001 0.462,0.153 0.462,0.461l-0.462,-0.461Zm-2.767,-2.305l2.767,2.305l-0.461,-0l-2.306,-2.305Zm-37.831,-48.868c0.002,4.611 1.387,9.222 4.155,13.833c5.229,5.224 10.149,10.602 14.763,16.134l18.913,18.901l-0.923,-0.922l3.229,3.227l0.923,0.461l4.151,3.687c8.919,8.605 16.608,18.21 23.067,28.814c6.46,10.604 9.692,22.823 9.697,36.657l0.019,56.259c0.002,6.149 -1.226,12.067 -3.683,17.756c-2.458,5.688 -5.838,10.685 -10.14,14.99c-4.303,4.306 -9.297,7.689 -14.984,10.15c-5.686,2.462 -11.604,3.693 -17.752,3.696l-47.037,0.016c-13.219,0.004 -24.134,-4.296 -32.745,-12.901l-33.213,-32.269c-7.073,-4.301 -12.685,-10.064 -16.838,-17.287c-4.153,-7.223 -6.231,-15.292 -6.234,-24.207l-0.022,-64.099l65.021,-0.022l0.001,2.767l12.916,12.446c-0.308,-3.074 -1.462,-6.379 -3.462,-9.913c-1.999,-3.535 -4.46,-7.07 -7.381,-10.604c-2.922,-3.535 -6.075,-6.992 -9.457,-10.373c-3.383,-3.38 -6.766,-6.761 -10.149,-10.141c-5.535,-4.917 -11.148,-10.218 -16.837,-15.904c-5.689,-5.685 -10.841,-11.755 -15.455,-18.21c-4.613,-6.454 -8.305,-13.37 -11.074,-20.747c-2.769,-7.378 -4.156,-15.524 -4.159,-24.439l-0.022,-65.021c-0.005,-13.527 4.526,-24.98 13.592,-34.36c9.066,-9.38 20.516,-14.072 34.35,-14.076l47.037,-0.017c8.915,-0.003 16.909,2.07 23.981,6.218c7.072,4.147 12.762,9.756 17.068,16.825l32.752,31.808c9.226,9.22 13.841,20.439 13.846,33.659l0.021,62.254l-62.254,0.021l-15.684,-15.212l0.003,10.145Zm-48.906,-75.611c-0.002,-3.996 1.457,-7.302 4.377,-9.916c2.92,-2.614 6.224,-3.922 9.913,-3.923c6.149,-0.002 10.453,1.611 12.914,4.838c2.46,3.227 3.999,7.3 4.615,12.218c0.617,4.919 0.696,10.068 0.236,15.449c-0.459,5.38 -0.688,10.068 -0.687,14.065l46.576,-0.016l-0.019,-54.415c-0.004,-10.76 -3.773,-19.982 -11.307,-27.665c-7.535,-7.683 -16.682,-11.522 -27.442,-11.519l-47.037,0.016c-10.76,0.004 -19.904,3.85 -27.434,11.538c-7.529,7.689 -11.292,16.913 -11.288,27.673l0.022,65.021c0.003,9.53 1.928,18.291 5.773,26.283c3.846,7.991 8.69,15.368 14.534,22.129c5.843,6.762 12.071,13.139 18.683,19.131c6.611,5.993 12.839,11.909 18.682,17.748c5.843,5.839 10.687,11.679 14.532,17.518c3.845,5.84 5.768,12.142 5.771,18.905c0.001,3.074 0.156,6.84 0.465,11.298c0.309,4.458 0.156,8.762 -0.457,12.912c-0.613,4.151 -1.919,7.763 -3.916,10.838c-1.997,3.075 -5.455,4.614 -10.374,4.615c-6.149,0.002 -10.453,-1.687 -12.914,-5.068c-2.46,-3.381 -3.999,-7.454 -4.615,-12.219c-0.617,-4.764 -0.695,-9.837 -0.236,-15.217c0.459,-5.38 0.688,-10.222 0.687,-14.526l-46.576,0.016l0.019,54.875c0.004,10.76 3.773,19.905 11.307,27.434c7.535,7.53 16.682,11.293 27.442,11.289l47.037,-0.016c10.452,-0.004 19.52,-3.85 27.203,-11.538c7.683,-7.688 11.523,-16.759 11.519,-27.211l-0.019,-56.259c-0.003,-9.531 -1.928,-18.292 -5.773,-26.284c-3.846,-7.991 -8.69,-15.368 -14.534,-22.129c-5.843,-6.762 -14.992,-15.981 -27.447,-27.659c-12.455,-11.678 -20.605,-20.437 -24.45,-26.277c-3.845,-5.84 -5.768,-11.988 -5.77,-18.444l-0.012,-35.508Z" style="fill:url(#_Linear5);fill-rule:nonzero;"/><path d="M348.134,402.395l39.672,38.722l0.112,327.872l-62.715,0.021l-18.913,-18.439l0.006,18.446l-62.715,0.021l-39.672,-38.722l-2.767,0.001l-0.113,-330.638l65.482,-0.023l0.001,2.767l16.145,15.673l-0.006,-18.445l65.482,-0.023l0.001,2.767Zm-9.22,6.459l-47.037,0.016l0.048,140.187l-34.585,0.012l-0.048,-140.187l-47.037,0.016l0.107,312.193l47.036,-0.016l-0.042,-125.431l34.585,-0.011l0.043,125.43l47.037,-0.016l-0.107,-312.193Z" style="fill:url(#_Linear6);fill-rule:nonzero;"/><path d="M422.969,723.835c-7.072,-3.994 -12.839,-9.756 -17.299,-17.287c-4.46,-7.53 -6.692,-15.753 -6.695,-24.669l-0.08,-233.798c-0.002,-6.764 1.225,-13.066 3.683,-18.908c2.457,-5.842 5.914,-10.916 10.37,-15.222c4.456,-4.305 9.605,-7.765 15.445,-10.381c5.84,-2.615 12.142,-3.923 18.905,-3.926l46.576,-0.016c8.915,-0.003 16.986,2.146 24.212,6.448c7.226,4.302 12.992,9.987 17.298,17.056l32.291,31.347c4.305,4.302 7.766,9.297 10.381,14.983c2.615,5.687 3.924,11.912 3.926,18.675l0.08,233.799c0.002,6.456 -1.225,12.528 -3.683,18.216c-2.457,5.689 -5.837,10.685 -10.14,14.991c-4.302,4.305 -9.297,7.689 -14.983,10.15c-5.687,2.461 -11.758,3.693 -18.214,3.695l-46.576,0.016c-12.912,0.005 -23.827,-4.449 -32.745,-13.361l-32.752,-31.808Zm63.154,-63.659c0.002,3.996 -1.304,7.302 -3.916,9.916c-2.612,2.614 -5.916,3.921 -9.913,3.923l-3.228,0.001c-3.997,0.001 -7.302,-1.304 -9.916,-3.916c-2.614,-2.613 -3.922,-5.917 -3.923,-9.914l-0.065,-190.451c-0.002,-3.996 1.304,-7.379 3.916,-10.146c2.612,-2.768 5.917,-4.153 9.913,-4.154l3.228,-0.001c3.997,-0.002 7.302,1.381 9.916,4.147c2.614,2.766 3.922,6.147 3.923,10.143l0.065,190.452Zm46.964,-212.141c-0.003,-10.76 -3.849,-19.982 -11.538,-27.665c-7.688,-7.683 -16.912,-11.523 -27.672,-11.519l-46.576,0.016c-10.759,0.004 -19.981,3.85 -27.664,11.538c-7.683,7.688 -11.523,16.913 -11.519,27.673l0.08,233.798c0.004,10.76 3.85,19.982 11.538,27.665c7.688,7.683 16.912,11.522 27.672,11.519l46.576,-0.016c10.76,-0.004 19.981,-3.85 27.664,-11.538c7.683,-7.689 11.523,-16.913 11.519,-27.673l-0.08,-233.798Z" style="fill:url(#_Linear7);fill-rule:nonzero;"/><path d="M729.537,399.61l0.001,2.767l39.671,38.722l0.022,62.254l-35.508,0.013l0.091,265.617l-62.715,0.021l-39.672,-38.722l-2.767,0.001l-0.08,-233.337l-32.752,-32.269l-2.767,0.001l-0.022,-65.021l136.498,-0.047Zm-127.272,9.267l0.016,46.575l35.508,-0.012l0.091,265.617l47.036,-0.016l-0.091,-265.617l35.508,-0.013l-0.016,-46.575l-118.052,0.041Z" style="fill:url(#_Linear8);fill-rule:nonzero;"/></g></g></g><defs><linearGradient id="_Linear1" x1="0" y1="0" x2="1" y2="0" gradientUnits="userSpaceOnUse" gradientTransform="matrix(-1.4147e-13,369.393,-369.393,-1.41359e-13,791.689,-0.189403)"><stop offset="0" style="stop-color:#00704a;stop-opacity:1"/><stop offset="0.65" style="stop-color:#066646;stop-opacity:1"/><stop offset="1" style="stop-color:#2c2c2c;stop-opacity:1"/></linearGradient><linearGradient id="_Linear2" x1="0" y1="0" x2="1" y2="0" gradientUnits="userSpaceOnUse" gradientTransform="matrix(-1.41526e-13,369.393,-369.393,-1.41331e-13,792.615,1.10008)"><stop offset="0" style="stop-color:#00704a;stop-opacity:1"/><stop offset="0.65" style="stop-color:#066646;stop-opacity:1"/><stop offset="1" style="stop-color:#2c2c2c;stop-opacity:1"/></linearGradient><linearGradient id="_Linear3" x1="0" y1="0" x2="1" y2="0" gradientUnits="userSpaceOnUse" gradientTransform="matrix(-1.41526e-13,369.393,-369.393,-1.41304e-13,794.018,1.15584)"><stop offset="0" style="stop-color:#00704a;stop-opacity:1"/><stop offset="0.65" style="stop-color:#066646;stop-opacity:1"/><stop offset="1" style="stop-color:#2c2c2c;stop-opacity:1"/></linearGradient><linearGradient id="_Linear4" x1="0" y1="0" x2="1" y2="0" gradientUnits="userSpaceOnUse" gradientTransform="matrix(-1.41526e-13,369.393,-369.393,-1.41331e-13,796.36,1.20608)"><stop offset="0" style="stop-color:#00704a;stop-opacity:1"/><stop offset="0.65" style="stop-color:#066646;stop-opacity:1"/><stop offset="1" style="stop-color:#2c2c2c;stop-opacity:1"/></linearGradient><linearGradient id="_Linear5" x1="0" y1="0" x2="1" y2="0" gradientUnits="userSpaceOnUse" gradientTransform="matrix(-1.41526e-13,369.393,-369.393,-1.41331e-13,-24.5638,400.978)"><stop offset="0" style="stop-color:#00704a;stop-opacity:1"/><stop offset="0.65" style="stop-color:#066646;stop-opacity:1"/><stop offset="1" style="stop-color:#2c2c2c;stop-opacity:1"/></linearGradient><linearGradient id="_Linear6" x1="0" y1="0" x2="1" y2="0" gradientUnits="userSpaceOnUse" gradientTransform="matrix(-1.4147e-13,369.393,-369.393,-1.41331e-13,-25.4657,399.805)"><stop offset="0" style="stop-color:#00704a;stop-opacity:1"/><stop offset="0.65" style="stop-color:#066646;stop-opacity:1"/><stop offset="1" style="stop-color:#2c2c2c;stop-opacity:1"/></linearGradient><linearGradient id="_Linear7" x1="0" y1="0" x2="1" y2="0" gradientUnits="userSpaceOnUse" gradientTransform="matrix(-1.41526e-13,369.393,-369.393,-1.41331e-13,-24.0626,399.855)"><stop offset="0" style="stop-color:#00704a;stop-opacity:1"/><stop offset="0.65" style="stop-color:#066646;stop-opacity:1"/><stop offset="1" style="stop-color:#2c2c2c;stop-opacity:1"/></linearGradient><linearGradient id="_Linear8" x1="0" y1="0" x2="1" y2="0" gradientUnits="userSpaceOnUse" gradientTransform="matrix(-1.41526e-13,369.393,-369.393,-1.41331e-13,-22.1978,399.917)"><stop offset="0" style="stop-color:#00704a;stop-opacity:1"/><stop offset="0.65" style="stop-color:#066646;stop-opacity:1"/><stop offset="1" style="stop-color:#2c2c2c;stop-opacity:1"/></linearGradient></defs></svg>