<?xml version="1.0" encoding="UTF-8" standalone="no"?>
<!DOCTYPE svg PUBLIC "-//W3C//DTD SVG 1.1//EN" "http://www.w3.org/Graphics/SVG/1.1/DTD/svg11.dtd">
<svg width="100%" height="100%" viewBox="0 0 1322 1370" version="1.1" xmlns="http://www.w3.org/2000/svg" xmlns:xlink="http://www.w3.org/1999/xlink" xml:space="preserve" xmlns:serif="http://www.serif.com/" style="fill-rule:evenodd;clip-rule:evenodd;stroke-linejoin:round;stroke-miterlimit:2;">
    <g transform="matrix(1,0,0,1,-32104.4,-1164.49)">
        <g id="Page-2" serif:id="Page 2" transform="matrix(4.16667,0,0,4.16667,29200.8,0)">
            <rect x="0" y="0" width="3321.01" height="1770.91" style="fill:none;"/>
            <g id="Backgrounds">
            </g>
            <g id="Illustrations">
                <g transform="matrix(1,0,0,1,860.316,488.811)">
                    <path d="M0,-130.337C6.869,-139.203 12.847,-147.16 19.086,-154.907C25.811,-163.257 32.93,-171.292 39.616,-179.672C56.069,-200.297 77.825,-206.467 103.062,-203.214C108.287,-202.54 113.545,-201.71 118.617,-200.325C144.077,-193.375 155.434,-175.036 153.349,-148.307C151.734,-127.598 143.746,-108.514 135.373,-89.717C121.608,-58.819 102.477,-31.402 80.515,-5.868C64.857,12.336 49.303,30.64 33.199,48.444C23.703,58.943 13.259,68.587 3.165,78.54C0.345,81.32 -2.586,80.945 -5.821,77.429C-13.693,68.871 -21.553,60.3 -29.272,51.605C-67.266,8.81 -100.021,-37.885 -131.308,-85.665C-141.547,-101.301 -147.505,-118.304 -147.202,-137.19C-147.153,-140.188 -147.036,-143.304 -146.212,-146.153C-139.226,-170.32 -126.999,-190.993 -104.169,-203.196C-88.59,-211.524 -72.834,-211.657 -56.918,-201.871C-34.562,-188.125 -19.774,-168.324 -8.1,-145.571C-5.636,-140.768 -3.035,-136.035 0,-130.337" style="fill:rgb(0,98,66);fill-rule:nonzero;"/>
                </g>
                <g transform="matrix(1,0,0,1,863.506,500.162)">
                    <path d="M0,53.044C0,53.044 -47.424,-20.464 -137.512,9.459C-77.569,73.508 -58.629,23.558 0,53.044" style="fill:rgb(2,187,121);fill-rule:nonzero;"/>
                </g>
                <g transform="matrix(0.246397,-0.969169,-0.969169,-0.246397,801.239,471.131)">
                    <clipPath id="_clip1">
                        <path d="M-55.844,63.441C-83.723,19.904 -76.736,-0.077 -69.19,-22.262C-63.932,-37.722 -58.401,-54.252 -64.203,-80.57C-64.203,-80.57 -23.089,-36.333 -38.548,24.48C-41.695,36.859 -47.185,49.922 -55.844,63.441Z" clip-rule="nonzero"/>
                    </clipPath>
                    <g clip-path="url(#_clip1)">
                        <path d="M-52.568,-89.144C-52.568,-89.144 -29.851,-58.251 -60.698,-17.801C-91.545,22.647 -52.568,83.387 -52.568,83.387L-124.436,-66.408L-52.568,-89.144Z" style="fill:rgb(30,213,171);fill-rule:nonzero;"/>
                    </g>
                </g>
                <g transform="matrix(1,0,0,1,803.536,363.231)">
                    <path d="M0,119.332C-34.713,91.923 -29.14,54.222 3.918,0C6.045,55.819 55.729,58.946 0,119.332" style="fill:rgb(2,187,121);fill-rule:nonzero;"/>
                </g>
                <g transform="matrix(1,0,0,1,791.376,488.655)">
                    <clipPath id="_clip2">
                        <path d="M12.16,-6.092C67.889,-66.478 18.205,-69.605 16.078,-125.424C-16.98,-71.203 -22.553,-33.501 12.16,-6.092Z" clip-rule="nonzero"/>
                    </clipPath>
                    <g clip-path="url(#_clip2)">
                        <path d="M0,-148.652C0,-148.652 -17.424,-111.131 4.439,-74.564C26.302,-37.998 20.606,0 20.606,0C20.606,0 62.463,-15.04 60.349,-18.459C58.234,-21.878 58.891,-132.893 58.891,-132.893L0,-148.652Z" style="fill:rgb(30,213,171);fill-rule:nonzero;"/>
                    </g>
                </g>
                <g transform="matrix(1,0,0,1,817.567,405.374)">
                    <path d="M0,96.356C-28.303,86.534 -28.753,49.494 -16.458,0C-21.573,46.968 -18.793,82.877 0,96.356" style="fill:rgb(0,100,62);fill-rule:nonzero;"/>
                </g>
                <g transform="matrix(1,0,0,1,776.383,443.963)">
                    <path d="M0,53.125C-31.142,-2.306 -38,27.585 -79.532,4.058C-52.631,55.431 -49.694,32.819 0,53.125" style="fill:rgb(2,187,121);fill-rule:nonzero;"/>
                </g>
            </g>
        </g>
    </g>
</svg>
