<?xml version="1.0" encoding="utf-8"?>
<svg version="1.1" xmlns="http://www.w3.org/2000/svg" xmlns:xlink="http://www.w3.org/1999/xlink" viewBox="0 0 500 500" xml:space="preserve">
<style type="text/css">
	.st0{
        fill:none;
        stroke:#8a6e4b; /* Default coffee-brown color */
        stroke-width:2;
        stroke-linecap:round;
        stroke-linejoin:round;
    }
</style>
<g class="st0">
    <path d="M150,80 C140,70 160,50 170,60 C180,70 160,90 150,80z"/> <path d="M350,420 C340,410 360,390 370,400 C380,410 360,430 350,420z"/> <path d="M80,300 C70,290 90,270 100,280 C110,290 90,310 80,300z"/> <path d="M430,150 C420,140 440,120 450,130 C460,140 440,160 430,150z"/> <path d="M250,250 a20,20 0 0,1 40,0 v10 a20,20 0 0,1 -40,0z M290,255 h10 a10,10 0 0,1 0,20 h-10"/> <path d="M60,450 a20,20 0 0,1 40,0 v10 a20,20 0 0,1 -40,0z M100,455 h10 a10,10 0 0,1 0,20 h-10"/> <path d="M-10,180 C-20,170 0,150 10,160 C20,170 0,190 -10,180z"/> <path d="M490,180 C480,170 500,150 510,160 C520,170 500,190 490,180z"/> <path d="M480,20 a20,20 0 0,1 40,0 v10 a20,20 0 0,1 -40,0z M520,25 h10 a10,10 0 0,1 0,20 h-10"/> <path d="M-20,20 a20,20 0 0,1 40,0 v10 a20,20 0 0,1 -40,0z M20,25 h10 a10,10 0 0,1 0,20 h-10"/> <path d="M255,240 C260,230 270,235 275,225"/>
    <path d="M65,440 C70,430 80,435 85,425"/>
    <path d="M485,10 C490,0 500,5 505,-5"/>
    <path d="M-15,10 C-10,0 0,5 5,-5"/>

</g>
</svg>
