<?xml version="1.0" encoding="UTF-8" standalone="no"?>
<!DOCTYPE svg PUBLIC "-//W3C//DTD SVG 1.1//EN" "http://www.w3.org/Graphics/SVG/1.1/DTD/svg11.dtd">
<svg width="100%" height="100%" viewBox="0 0 13080 3126" version="1.1" xmlns="http://www.w3.org/2000/svg" xmlns:xlink="http://www.w3.org/1999/xlink" xml:space="preserve" xmlns:serif="http://www.serif.com/" style="fill-rule:evenodd;clip-rule:evenodd;stroke-linejoin:round;stroke-miterlimit:2;">
    <g transform="matrix(1,0,0,1,-323.808,-3839.16)">
        <clipPath id="_clip1">
            <rect x="323.808" y="3839.16" width="13080" height="3126"/>
        </clipPath>
        <g clip-path="url(#_clip1)">
            <g id="Page-1" serif:id="Page 1" transform="matrix(4.16667,0,0,4.16667,0,0)">
                <rect x="0" y="0" width="3321.01" height="1770.91" style="fill:none;"/>
                <g transform="matrix(1,0,0,1,0,822.011)">
                    <g id="Backgrounds">
                        <rect x="77.714" y="99.388" width="3139.14" height="750.123" style="fill:rgb(204,230,223);"/>
                    </g>
                </g>
                <g id="Illustrations">
                    <g transform="matrix(1,0,0,1,865.167,1463.69)">
                        <path d="M0,-139.155C-44.736,-130.626 -73.546,-118.22 -101.313,-93.112C-104.223,-90.479 -106.804,-88.302 -109.128,-86.469L-100.075,75.033C-68.675,75.579 -41.06,50.11 -31.496,33.372C-20.955,14.924 5.513,0.358 36.929,-3.138C56.448,-5.308 73.569,-23.915 83.743,-37.697L92.454,-214.734C85.914,-206.235 75.2,-191.514 68.334,-177.917C57.884,-157.217 44.736,-147.684 0,-139.155" style="fill:rgb(226,175,157);fill-rule:nonzero;"/>
                    </g>
                    <g transform="matrix(1,0,0,1,865.058,1527.85)">
                        <path d="M0,22.056C-8.379,34.197 -22.566,31.116 -38.283,39.113C-16.557,43.733 8.571,45.542 32.835,39.134C54.403,33.44 65.581,28.156 71.308,24.484C74.927,22.164 77.204,18.252 77.491,13.963L80,-23.486C73.154,-20.372 61.204,-15.626 48.172,-13.654C28.009,-10.602 12.792,3.52 0,22.056" style="fill:rgb(226,175,157);fill-rule:nonzero;"/>
                    </g>
                    <g transform="matrix(1,0,0,1,963.415,1286.32)">
                        <path d="M0,-130.728C-9.151,-128.519 -26.155,-124.981 -49.386,-122.608C-85.299,-118.934 -148.485,-120.945 -175.664,-124.376C-192.174,-126.462 -209.2,-131.435 -220.034,-135.02L-212.225,4.292C-194.035,-7.118 -166.522,-17.132 -134.401,-21.21C-82.823,-27.757 -63.997,-64.56 -46.97,-90.022C-34.307,-108.967 -12.233,-116.669 -1.757,-119.368L-1.23,-130.142L0,-130.728Z" style="fill:rgb(226,175,157);fill-rule:nonzero;"/>
                    </g>
                    <g transform="matrix(1,0,0,1,858.3,1113.63)">
                        <path d="M0,27.388C29.998,26.3 79.591,26.597 95.168,21.474C105.838,17.964 110.757,16.27 112.772,14.824C111.298,8.923 101.973,5.262 82.095,3.963C60.646,2.555 -18.411,-1.083 -72.419,1.051C-107.728,2.447 -119.125,6.75 -122.788,9.563C-113.948,13.988 -96.9,20.348 -85.117,21.835C-71.526,23.552 -29.998,28.471 0,27.388" style="fill:rgb(241,241,241);fill-rule:nonzero;"/>
                    </g>
                    <g transform="matrix(1,0,0,1,914.029,1126.87)">
                        <path d="M0,36.839C23.231,34.468 40.237,30.925 49.386,28.719L55.9,25.615C55.9,25.615 57.528,9.775 57.261,3.025C57.239,2.529 57.159,2.057 57.042,1.587C55.03,3.03 50.106,4.727 39.436,8.236C23.864,13.358 -25.732,13.065 -55.727,14.151C-85.727,15.234 -127.258,10.314 -140.848,8.6C-152.63,7.111 -169.678,0.753 -178.52,-3.674C-180.459,-2.185 -180.236,-1.113 -180.236,-1.113L-179.347,21.287L-170.299,24.434L-170.648,24.424L-170.648,24.428C-159.814,28.012 -142.788,32.985 -126.278,35.066C-99.099,38.501 -35.914,40.513 0,36.839" style="fill:rgb(251,199,176);fill-rule:nonzero;"/>
                    </g>
                    <g transform="matrix(1,0,0,1,916.444,1347.87)">
                        <path d="M0,-151.577C-17.023,-126.115 -35.852,-89.31 -87.43,-82.763C-119.553,-78.685 -147.065,-68.672 -165.256,-57.263L-160.403,29.344C-158.08,27.515 -155.497,25.337 -152.589,22.705C-124.82,-2.406 -96.013,-14.814 -51.276,-23.339C-6.539,-31.872 6.607,-41.405 17.058,-62.1C23.924,-75.697 34.638,-90.422 41.176,-98.919L45.212,-180.921C34.736,-178.218 12.664,-170.52 0,-151.577" style="fill:rgb(251,199,176);fill-rule:nonzero;"/>
                    </g>
                    <g transform="matrix(1,0,0,1,902.094,1532.4)">
                        <path d="M0,-71.856C-31.416,-68.36 -57.884,-53.794 -68.423,-35.347C-77.985,-18.608 -105.601,6.86 -137.006,6.314C-136.214,10.469 -133.512,13.997 -129.706,15.842C-120.082,20.506 -99.878,29.333 -75.317,34.559C-59.603,26.563 -45.416,29.648 -37.035,17.503C-24.248,-1.032 -9.029,-15.155 11.136,-18.202C24.169,-20.177 36.116,-24.923 42.961,-28.04L46.818,-106.415C36.643,-92.634 19.519,-74.027 0,-71.856" style="fill:rgb(251,199,176);fill-rule:nonzero;"/>
                    </g>
                    <g transform="matrix(1,0,0,1,842.952,1037.66)">
                        <path d="M0,66.88L0.842,88.144C0.842,88.144 7.73,91.365 12.23,91.188C16.731,91.011 18.891,88.668 18.891,88.668L13.796,-20.556C13.796,-20.556 15.896,-24.485 6.894,-24.13C-2.106,-23.771 -4.266,-21.433 -4.266,-21.433L0,66.88Z" style="fill:rgb(251,199,176);fill-rule:nonzero;"/>
                    </g>
                    <g transform="matrix(1,0,0,1,1213.42,1448.32)">
                        <path d="M0,-130.908C42.09,-123.037 69.216,-111.468 95.402,-87.953C98.149,-85.487 100.584,-83.448 102.773,-81.735L94.799,70.136C65.275,70.753 39.229,46.9 30.183,31.196C20.213,13.888 -4.721,0.279 -34.268,-2.904C-52.627,-4.881 -68.788,-22.317 -78.399,-35.24L-87.174,-201.661C-80.996,-193.691 -70.875,-179.885 -64.375,-167.123C-54.481,-147.699 -42.09,-138.779 0,-130.908" style="fill:rgb(151,209,184);fill-rule:nonzero;"/>
                    </g>
                    <g transform="matrix(1,0,0,1,1214.27,1523.37)">
                        <path d="M0,5.937C7.919,17.327 21.297,28.885 36.099,36.351C15.688,40.768 -7.931,42.553 -30.765,36.61C-68.547,26.775 -72.474,18.159 -72.474,18.159L-75.362,-36.616C-68.917,-33.709 -57.668,-29.288 -45.408,-27.477C-26.441,-24.676 -12.086,-11.447 0,5.937" style="fill:rgb(151,209,184);fill-rule:nonzero;"/>
                    </g>
                    <g transform="matrix(1,0,0,1,1120.49,1280.38)">
                        <path d="M0,-121.478C8.609,-119.432 24.609,-116.163 46.457,-114.006C80.236,-110.671 139.634,-112.771 165.177,-116.089C180.691,-118.104 196.681,-122.834 206.856,-126.24L199.978,4.762C182.837,-5.905 156.938,-15.229 126.723,-18.956C78.21,-24.939 60.385,-59.479 44.295,-83.363C32.325,-101.132 11.549,-108.298 1.69,-110.804L1.156,-120.933L0,-121.478Z" style="fill:rgb(151,209,184);fill-rule:nonzero;"/>
                    </g>
                    <g transform="matrix(1,0,0,1,1219.27,1118.95)">
                        <path d="M0,25.907C-28.207,24.987 -74.833,25.427 -89.492,20.662C-99.536,17.397 -104.168,15.819 -106.066,14.469C-104.699,8.916 -95.945,5.444 -77.262,4.153C-57.102,2.76 17.217,-0.921 67.999,0.907C101.202,2.102 111.934,6.11 115.388,8.743C107.088,12.933 91.083,18.968 80.009,20.407C67.238,22.066 28.207,26.828 0,25.907" style="fill:rgb(151,209,184);fill-rule:nonzero;"/>
                    </g>
                    <g transform="matrix(1,0,0,1,1166.95,1131.03)">
                        <path d="M0,35.347C-21.849,33.19 -37.848,29.921 -46.457,27.875L-52.593,24.98C-52.593,24.98 -54.176,10.092 -53.948,3.744C-53.931,3.279 -53.854,2.831 -53.746,2.392C-51.849,3.743 -47.217,5.321 -37.173,8.585C-22.513,13.35 24.113,12.91 52.32,13.83C80.526,14.751 119.557,9.989 132.329,8.33C143.403,6.891 159.407,0.856 167.707,-3.334C169.536,-1.94 169.327,-0.932 169.327,-0.932L168.569,20.133L160.071,23.12L160.399,23.111L160.399,23.112C150.224,26.518 134.233,31.249 118.72,33.264C93.176,36.582 33.778,38.681 0,35.347" style="fill:rgb(171,217,192);fill-rule:nonzero;"/>
                    </g>
                    <g transform="matrix(198.288,0,0,-198.288,1122.18,1268.08)">
                        <path d="M0.02,0.108C0.052,0.068 0.103,-0.002 0.135,-0.066C0.185,-0.164 0.248,-0.209 0.46,-0.249C0.672,-0.288 0.809,-0.347 0.941,-0.465C0.955,-0.478 0.967,-0.488 0.978,-0.497L1,-0.086C0.914,-0.032 0.783,0.015 0.631,0.034C0.386,0.064 0.296,0.238 0.215,0.358C0.154,0.448 0.05,0.484 0,0.497L0.02,0.108Z" style="fill:url(#_Linear2);fill-rule:nonzero;"/>
                    </g>
                    <g transform="matrix(173.198,0,0,-173.198,1135.02,1486.4)">
                        <path d="M0.022,-0.002C0.06,-0.019 0.125,-0.044 0.195,-0.055C0.305,-0.071 0.388,-0.147 0.458,-0.248C0.503,-0.313 0.581,-0.38 0.666,-0.423C0.853,-0.383 0.994,-0.304 0.994,-0.304L1,-0.185C0.83,-0.189 0.679,-0.051 0.627,0.04C0.569,0.14 0.425,0.218 0.255,0.237C0.149,0.248 0.055,0.349 -0,0.423L0.022,-0.002Z" style="fill:url(#_Linear3);fill-rule:nonzero;"/>
                    </g>
                    <g transform="matrix(1,0,0,1,1233.58,1029.19)">
                        <path d="M0,81.318L-0.72,101.312C-0.72,101.312 -7.185,104.365 -11.417,104.212C-15.649,104.06 -17.689,101.868 -17.689,101.868L-13.326,-19.363C-13.326,-19.363 -15.312,-23.047 -6.848,-22.742C1.616,-22.438 3.655,-20.246 3.655,-20.246L0,81.318Z" style="fill:rgb(241,241,242);fill-rule:nonzero;"/>
                    </g>
                    <g transform="matrix(1,0,0,1,1641.19,1455.66)">
                        <path d="M0,-135.764C-43.651,-127.601 -71.783,-115.603 -98.94,-91.216C-101.789,-88.658 -104.315,-86.544 -106.584,-84.768L-98.315,72.736C-67.696,73.376 -40.684,48.638 -31.302,32.352C-20.962,14.402 4.897,0.288 35.539,-3.012C54.579,-5.063 71.339,-23.146 81.306,-36.549L90.407,-209.14C84,-200.875 73.504,-186.557 66.762,-173.322C56.501,-153.178 43.651,-143.927 0,-135.764" style="fill:rgb(20,58,50);fill-rule:nonzero;"/>
                    </g>
                    <g transform="matrix(1,0,0,1,1640.31,1533.49)">
                        <path d="M0,6.157C-8.212,17.969 -22.087,29.956 -37.438,37.699C-16.27,42.28 8.225,44.131 31.906,37.967C71.089,27.768 75.162,18.832 75.162,18.832L78.157,-37.974C71.473,-34.959 59.806,-30.374 47.092,-28.496C27.421,-25.591 12.535,-11.872 0,6.157" style="fill:rgb(20,58,50);fill-rule:nonzero;"/>
                    </g>
                    <g transform="matrix(1,0,0,1,1737.56,1281.49)">
                        <path d="M0,-125.983C-8.929,-123.861 -25.521,-120.47 -48.18,-118.234C-83.211,-114.776 -144.812,-116.953 -171.303,-120.394C-187.391,-122.484 -203.975,-127.39 -214.527,-130.922L-207.394,4.939C-189.618,-6.124 -162.758,-15.794 -131.423,-19.658C-81.11,-25.864 -62.624,-61.684 -45.938,-86.454C-33.524,-104.882 -11.977,-112.314 -1.752,-114.913L-1.198,-125.418L0,-125.983Z" style="fill:rgb(20,58,50);fill-rule:nonzero;"/>
                    </g>
                    <g transform="matrix(1,0,0,1,1635.12,1114.08)">
                        <path d="M0,26.868C29.253,25.913 77.608,26.37 92.811,21.429C103.228,18.043 108.031,16.406 110,15.006C108.582,9.246 99.504,5.646 80.128,4.307C59.219,2.863 -17.856,-0.955 -70.521,0.94C-104.955,2.18 -116.085,6.337 -119.667,9.067C-111.059,13.412 -94.461,19.672 -82.976,21.164C-69.731,22.884 -29.253,27.823 0,26.868" style="fill:rgb(20,58,50);fill-rule:nonzero;"/>
                    </g>
                    <g transform="matrix(1,0,0,1,1689.38,1126.6)">
                        <path d="M0,36.658C22.659,34.421 39.252,31.03 48.18,28.909L54.544,25.906C54.544,25.906 56.185,10.466 55.948,3.883C55.931,3.401 55.852,2.936 55.74,2.481C53.771,3.881 48.968,5.518 38.551,8.904C23.349,13.845 -25.007,13.389 -54.26,14.343C-83.513,15.298 -123.991,10.359 -137.236,8.639C-148.721,7.147 -165.319,0.887 -173.927,-3.458C-175.823,-2.012 -175.607,-0.966 -175.607,-0.966L-174.821,20.879L-166.008,23.977L-166.347,23.968L-166.347,23.97C-155.795,27.502 -139.211,32.408 -123.122,34.497C-96.632,37.939 -35.031,40.116 0,36.658" style="fill:rgb(10,50,42);fill-rule:nonzero;"/>
                    </g>
                    <g transform="matrix(1,0,0,1,1691.62,1342.43)">
                        <path d="M0,-147.397C-16.686,-122.627 -35.172,-86.806 -85.485,-80.601C-116.82,-76.736 -143.68,-67.066 -161.456,-56.004L-157.021,28.459C-154.752,26.683 -152.226,24.568 -149.377,22.01C-122.22,-2.376 -94.088,-14.375 -50.437,-22.537C-6.786,-30.7 6.064,-39.951 16.325,-60.096C23.067,-73.331 33.563,-87.648 39.97,-95.914L44.186,-175.856C33.961,-173.256 12.414,-165.825 0,-147.397" style="fill:rgb(10,50,42);fill-rule:nonzero;"/>
                    </g>
                    <g transform="matrix(1,0,0,1,1676.73,1537.66)">
                        <path d="M0,-85.009C-30.642,-81.709 -56.501,-67.595 -66.841,-49.645C-76.223,-33.358 -103.235,-8.62 -133.854,-9.26L-132.735,12.052C-132.735,12.052 -107.512,26.253 -73.857,33.536C-58.505,25.792 -44.631,13.806 -36.419,1.993C-23.884,-16.035 -8.998,-29.755 10.673,-32.66C23.388,-34.538 35.055,-39.123 41.738,-42.138L45.767,-118.545C35.8,-105.142 19.04,-87.059 0,-85.009" style="fill:rgb(10,50,42);fill-rule:nonzero;"/>
                    </g>
                    <g transform="matrix(1,0,0,1,1620.28,1020.99)">
                        <path d="M0,84.334L0.746,105.069C0.746,105.069 7.452,108.235 11.841,108.077C16.229,107.919 18.345,105.646 18.345,105.646L13.82,-20.081C13.82,-20.081 15.88,-23.901 7.102,-23.586C-1.675,-23.27 -3.791,-20.996 -3.791,-20.996L0,84.334Z" style="fill:rgb(10,50,42);fill-rule:nonzero;"/>
                    </g>
                    <g transform="matrix(1,0,0,1,2964.86,1463.81)">
                        <path d="M0,-167.871C0,-167.871 2.438,-162.385 2.438,-157.204C2.438,-153.242 -14.934,-5.452 -14.934,-5.452C-14.934,-1.185 -19.2,3.082 -19.2,3.082L-186.494,3.082C-186.494,3.082 -190.761,-1.185 -190.761,-5.452C-190.761,-5.452 -208.133,-153.242 -208.133,-157.204C-208.133,-162.385 -205.695,-167.871 -205.695,-167.871L-205.695,-170.953L0,-170.953L0,-167.871Z" style="fill:rgb(169,215,190);fill-rule:nonzero;"/>
                    </g>
                    <g transform="matrix(1,0,0,1,2784.03,1467.15)">
                        <path d="M0,37.823L-5.672,-0.265L161.622,-0.265L155.831,38.088L0,37.823Z" style="fill:rgb(241,241,241);fill-rule:nonzero;"/>
                    </g>
                    <g transform="matrix(1,0,0,1,2745.65,1292.86)">
                        <path d="M0,-69.277C0,-63.516 4.404,-62.173 4.404,-62.173L4.546,-10.458C4.555,-7.283 6.228,-4.345 8.955,-2.719L13.514,0L219.208,0L223.767,-2.719C226.494,-4.345 228.167,-7.283 228.176,-10.458L228.318,-62.173C228.318,-62.173 232.722,-63.516 232.722,-69.277L0,-69.277Z" style="fill:rgb(241,241,241);fill-rule:nonzero;"/>
                    </g>
                    <g transform="matrix(1,0,0,1,2742.69,1215.95)">
                        <path d="M245.362,7.628L-6.734,7.628C-6.734,7.628 -7.739,0 1.369,0L237.26,0C246.368,0 245.362,7.628 245.362,7.628Z" style="fill:rgb(241,241,241);fill-rule:nonzero;"/>
                    </g>
                    <g transform="matrix(0,-1,-1,0,2862.01,1321.16)">
                        <path d="M-54.012,-54.012C-83.842,-54.012 -108.024,-29.83 -108.024,0.001C-108.024,29.83 -83.842,54.012 -54.012,54.012C-24.181,54.012 0.001,29.83 0.001,0.001C0.001,-29.83 -24.181,-54.012 -54.012,-54.012" style="fill:rgb(1,99,65);fill-rule:nonzero;"/>
                    </g>
                    <g transform="matrix(-0.898343,-0.439295,-0.439295,0.898343,2784.9,1281.97)">
                        <path d="M-13.25,-79.971C-36.697,-62.068 -53.267,-13.932 -73.693,-23.921L-13.25,5.636C-13.25,5.636 19.329,-64.04 41.937,-52.984L-13.25,-79.971Z" style="fill:white;fill-rule:nonzero;"/>
                    </g>
                    <g transform="matrix(220.036,0,0,-220.036,1972.03,1338.9)">
                        <path d="M0.373,0.864C0.288,0.862 0.205,0.853 0.127,0.817C0.102,0.806 0.083,0.791 0.086,0.759C0.086,0.749 0.083,0.739 0.082,0.729C0.082,0.72 0.078,0.716 0.069,0.713C0.022,0.698 -0.005,0.654 0.001,0.606L0.001,0.589C-0,0.564 0.005,0.554 0.028,0.545C0.04,0.54 0.046,0.533 0.047,0.52C0.051,0.463 0.055,0.406 0.06,0.349C0.066,0.277 0.072,0.205 0.078,0.134C0.084,0.064 0.09,-0.006 0.095,-0.075C0.101,-0.147 0.106,-0.218 0.112,-0.29C0.115,-0.335 0.121,-0.38 0.124,-0.426C0.128,-0.47 0.129,-0.514 0.132,-0.558C0.137,-0.632 0.142,-0.706 0.147,-0.78C0.148,-0.787 0.153,-0.794 0.158,-0.798C0.17,-0.805 0.182,-0.811 0.195,-0.814C0.246,-0.827 0.298,-0.842 0.35,-0.85C0.411,-0.86 0.474,-0.864 0.532,-0.87C0.574,-0.865 0.611,-0.86 0.648,-0.855C0.711,-0.848 0.769,-0.825 0.828,-0.802C0.837,-0.798 0.841,-0.792 0.841,-0.781C0.844,-0.738 0.847,-0.695 0.85,-0.651C0.855,-0.588 0.859,-0.525 0.864,-0.462C0.872,-0.369 0.881,-0.277 0.889,-0.184C0.894,-0.121 0.899,-0.058 0.904,0.005C0.913,0.101 0.923,0.198 0.932,0.294C0.939,0.367 0.945,0.44 0.95,0.512C0.951,0.528 0.956,0.536 0.97,0.541C0.989,0.547 0.998,0.56 0.997,0.58C0.997,0.585 0.999,0.589 0.999,0.593C0.999,0.615 1.002,0.637 0.998,0.658C0.991,0.694 0.959,0.707 0.929,0.719C0.916,0.724 0.912,0.729 0.912,0.742C0.909,0.791 0.903,0.805 0.857,0.824C0.83,0.835 0.802,0.841 0.774,0.849C0.695,0.87 0.614,0.869 0.533,0.869L0.484,0.869C0.447,0.869 0.41,0.865 0.373,0.864Z" style="fill:url(#_Linear4);fill-rule:nonzero;"/>
                    </g>
                    <g transform="matrix(1,0,0,1,1989.52,1272.3)">
                        <path d="M0,-26.363C-0.506,-31.857 -1.285,-37.326 -1.772,-42.821C-2.164,-47.23 -0.497,-48.54 3.87,-47.484C7.329,-46.648 10.733,-45.469 14.233,-44.925C24.052,-43.4 33.873,-41.653 43.758,-40.861C58.926,-39.647 74.143,-38.698 89.35,-38.496C103.573,-38.306 117.856,-38.639 132.025,-39.831C147.493,-41.132 162.862,-43.686 178.274,-45.69C179.108,-45.798 179.945,-45.908 180.783,-45.943C184.811,-46.112 185.683,-45.078 185.212,-40.96C184.23,-32.383 183.183,-23.812 182.38,-15.217C181.798,-8.977 181.837,-2.669 181.103,3.547C180.286,10.474 178.665,12.397 171.964,13.434C157.37,15.693 142.752,17.972 128.066,19.373C112.253,20.881 96.353,22.074 80.486,22.131C67.696,22.177 54.867,20.639 42.116,19.225C31.153,18.01 20.276,15.975 9.361,14.305C9.123,14.268 8.878,14.277 8.643,14.231C0.808,12.971 0.994,-15.571 0,-26.363" style="fill:rgb(165,125,80);fill-rule:nonzero;"/>
                    </g>
                    <g transform="matrix(-0.99825,0.0591362,0.0591362,0.99825,2097.96,1436.28)">
                        <path d="M1.273,-120.486C-29.554,-118.677 -54.057,-93.92 -55.21,-64.623C-56.674,-27.389 -27.009,-3.913 1.273,-3.146C39.922,-2.099 62.756,-33.666 62.085,-63.507C61.365,-95.549 34.135,-121.068 1.273,-120.486" style="fill:rgb(1,99,65);fill-rule:nonzero;"/>
                    </g>
                    <g transform="matrix(1,0,0,1,2191.71,1221.13)">
                        <path d="M0,-29.54C-0.206,-21.817 -4.407,-18.044 -9.584,-16.046C-18.573,-12.577 -27.777,-9.46 -37.13,-7.176C-60.616,-1.442 -84.628,0 -108.693,-0.441C-125.3,-0.745 -141.905,-1.949 -158.477,-3.19C-172.371,-4.23 -186.014,-7.073 -199.216,-11.495C-204.774,-13.356 -210.102,-16.212 -215.087,-19.33C-217.3,-20.715 -218.406,-23.868 -220.465,-26.878C-218.067,-27.098 -216.9,-27.206 -215.542,-27.331C-210.738,-18.682 -201.925,-16.14 -193.388,-13.593C-172.823,-7.459 -151.535,-5.499 -130.255,-4.543C-114.927,-3.855 -99.508,-4.54 -84.157,-5.228C-72.367,-5.757 -60.539,-6.71 -48.881,-8.482C-39.937,-9.841 -31.261,-12.898 -22.41,-14.959C-16.384,-16.361 -11.012,-18.862 -6.512,-23.096C-5.482,-24.065 -4.87,-25.469 -3.879,-26.491C-2.946,-27.453 -1.766,-28.176 0,-29.54" style="fill:rgb(217,214,211);fill-rule:nonzero;"/>
                    </g>
                    <g transform="matrix(1,0,0,1,2003.79,1182.09)">
                        <path d="M0,-9.853C0.891,-9.514 1.957,-9.382 2.644,-8.803C8.842,-3.578 16.668,-2.985 24.069,-1.524C34.278,0.492 44.688,0.424 55.022,-0.542C66.91,-1.653 78.851,-2.714 90.083,-7.287C99.876,-11.273 109.61,-15.405 119.433,-19.316C130.422,-23.692 141.475,-26.797 153.649,-23.998C158.285,-22.933 162.052,-20.832 165.862,-18.498C166.925,-17.847 167.571,-16.239 168.036,-14.937C169.417,-11.07 170.615,-7.138 171.878,-3.229C171.989,-2.885 172.113,-2.526 172.124,-2.171C172.295,3.345 172.513,8.861 172.537,14.377C172.54,15.231 171.628,16.088 171.139,16.944C170.538,16.138 169.546,15.396 169.403,14.517C168.732,10.396 168.484,6.203 167.728,2.102C166.797,-2.954 165.665,-7.986 164.328,-12.95C163.414,-16.343 160.422,-17.544 157.307,-18.223C149.497,-19.927 141.482,-22.343 133.658,-19.923C124.192,-16.996 115.014,-13.055 105.878,-9.164C92.228,-3.352 78.36,1.473 63.397,2.378C54.918,2.891 46.432,3.935 37.963,3.807C28.096,3.657 18.264,2.357 8.978,-1.426C6.524,-2.426 3.938,-3.295 1.783,-4.766C0.482,-5.653 -0.107,-7.584 -1.015,-9.046C-0.677,-9.315 -0.338,-9.584 0,-9.853" style="fill:rgb(217,214,211);fill-rule:nonzero;"/>
                    </g>
                    <g transform="matrix(1,0,0,1,2132.47,1170.98)">
                        <path d="M0,4.964C9.271,5.252 18.499,5.018 27.42,1.998C18.116,1.323 8.748,-0.044 0,4.964M3.649,9.777C0.983,9.304 -1.542,9.224 -3.768,8.369C-6.541,7.304 -6.72,4.074 -4.245,2.666C5.521,-2.887 16.022,-4.813 27.042,-2.766C29.368,-2.334 32.841,-0.418 33.191,1.333C33.848,4.615 30.077,5.957 27.51,6.42C19.565,7.851 11.518,8.713 3.649,9.777" style="fill:rgb(217,214,211);fill-rule:nonzero;"/>
                    </g>
                    <g transform="matrix(1,0,0,1,1986,1206.3)">
                        <path d="M0,-11.776C2.926,-13.814 5.265,-13.658 7.882,-11.977C14.032,-8.024 21.117,-6.749 28.171,-5.678C38.99,-4.035 49.857,-2.703 60.69,-1.137C61.687,-0.993 62.578,-0.115 63.519,0.423C62.62,0.985 61.716,2.038 60.823,2.028C55.899,1.973 50.934,1.99 46.064,1.356C38.291,0.345 30.581,-1.15 22.846,-2.455C14.675,-3.835 7.208,-6.939 0,-11.776" style="fill:rgb(217,214,211);fill-rule:nonzero;"/>
                    </g>
                    <g transform="matrix(1,0,0,1,1997.06,1530.41)">
                        <g>
                            <clipPath id="_clip5">
                                <path d="M57.041,-381.613C38.425,-381.212 20.139,-379.284 2.965,-371.358C-2.512,-368.831 -6.71,-365.523 -6.192,-358.602C-6.029,-356.431 -6.775,-354.206 -6.908,-351.994C-7.029,-349.982 -7.85,-349.122 -9.875,-348.468C-20.09,-345.164 -26.071,-335.508 -24.879,-324.789C-24.743,-323.573 -24.791,-322.329 -24.847,-321.101C-25.097,-315.59 -23.863,-313.516 -18.792,-311.401C-16.298,-310.36 -14.832,-308.838 -14.637,-305.935C-13.79,-293.385 -12.842,-280.842 -11.832,-268.304C-10.56,-252.514 -9.186,-236.733 -7.867,-220.947C-6.587,-205.621 -5.278,-190.298 -4.062,-174.967C-2.815,-159.252 -1.731,-143.525 -0.452,-127.813C0.363,-117.797 1.538,-107.811 2.301,-97.792C3.038,-88.122 3.405,-78.423 4.022,-68.742C5.063,-52.422 6.122,-36.102 7.351,-19.796C7.454,-18.445 8.621,-16.728 9.8,-15.997C12.282,-14.458 14.99,-13.02 17.8,-12.318C29.139,-9.483 40.449,-6.294 51.965,-4.465C65.468,-2.321 79.175,-1.456 91.935,-0.126C101.172,-1.283 109.344,-2.361 117.53,-3.319C131.398,-4.943 144.252,-9.913 157.06,-15.078C159.191,-15.937 159.954,-17.28 160.086,-19.569C160.637,-29.136 161.387,-38.692 162.077,-48.252C163.078,-62.13 163.964,-76.018 165.13,-89.883C166.846,-110.266 168.815,-130.629 170.581,-151.008C171.783,-164.868 172.694,-178.751 173.965,-192.603C175.913,-213.85 178.142,-235.07 180.095,-256.317C181.563,-272.283 182.965,-288.259 183.979,-304.259C184.2,-307.746 185.366,-309.463 188.377,-310.47C192.546,-311.864 194.599,-314.699 194.33,-319.173C194.271,-320.139 194.715,-321.126 194.721,-322.106C194.751,-326.861 195.459,-331.77 194.529,-336.341C192.925,-344.223 185.911,-347.016 179.359,-349.627C176.611,-350.722 175.748,-351.861 175.568,-354.89C174.934,-365.543 173.673,-368.718 163.437,-372.87C157.64,-375.222 151.449,-376.656 145.37,-378.252C127.863,-382.849 109.998,-382.813 92.15,-382.776C88.805,-382.77 85.459,-382.763 82.118,-382.787C81.892,-382.789 81.667,-382.79 81.442,-382.79C73.312,-382.79 65.18,-381.788 57.041,-381.613Z"/>
                            </clipPath>
                            <g clip-path="url(#_clip5)">
                                <path d="M0,-88.046C-5.234,-103.461 -7.156,-114.698 -11.059,-126.03C-10.31,-146.935 -9.347,-171.505 -8.622,-189.635C9.801,-15.996 115.147,-85.368 195.007,45.677C229.081,101.589 103.094,17.113 75.744,-0.211C51.216,-15.748 20.933,-26.401 0,-88.046" style="fill:rgb(238,236,232);fill-rule:nonzero;"/>
                            </g>
                        </g>
                    </g>
                    <g transform="matrix(220.036,0,0,-220.036,2348.15,1356.66)">
                        <path d="M0.373,0.864C0.288,0.862 0.205,0.853 0.127,0.817C0.102,0.806 0.083,0.791 0.086,0.759C0.086,0.749 0.083,0.739 0.082,0.729C0.082,0.72 0.078,0.716 0.069,0.713C0.022,0.698 -0.005,0.654 0.001,0.606L0.001,0.589C-0,0.564 0.005,0.554 0.028,0.545C0.04,0.54 0.046,0.533 0.047,0.52C0.051,0.463 0.055,0.406 0.06,0.349C0.066,0.277 0.072,0.205 0.078,0.134C0.084,0.064 0.09,-0.006 0.095,-0.075C0.101,-0.147 0.106,-0.218 0.112,-0.29C0.115,-0.335 0.121,-0.38 0.124,-0.426C0.128,-0.47 0.129,-0.514 0.132,-0.558C0.137,-0.632 0.142,-0.706 0.147,-0.78C0.148,-0.787 0.153,-0.794 0.158,-0.798C0.17,-0.805 0.182,-0.811 0.195,-0.814C0.246,-0.827 0.298,-0.842 0.35,-0.85C0.411,-0.86 0.474,-0.864 0.532,-0.87C0.574,-0.865 0.611,-0.86 0.648,-0.855C0.711,-0.848 0.769,-0.825 0.828,-0.802C0.837,-0.798 0.841,-0.792 0.841,-0.781C0.844,-0.738 0.847,-0.695 0.85,-0.651C0.855,-0.588 0.859,-0.525 0.864,-0.462C0.872,-0.369 0.881,-0.277 0.889,-0.184C0.894,-0.121 0.899,-0.058 0.904,0.005C0.913,0.101 0.923,0.198 0.932,0.294C0.939,0.367 0.945,0.44 0.95,0.512C0.951,0.528 0.956,0.536 0.97,0.541C0.989,0.547 0.998,0.56 0.997,0.58C0.997,0.585 0.999,0.589 0.999,0.593C0.999,0.615 1.002,0.637 0.998,0.658C0.991,0.694 0.959,0.707 0.929,0.719C0.916,0.724 0.912,0.729 0.912,0.742C0.909,0.791 0.903,0.805 0.857,0.824C0.83,0.835 0.802,0.841 0.774,0.849C0.695,0.87 0.614,0.869 0.533,0.869L0.484,0.869C0.447,0.869 0.41,0.865 0.373,0.864Z" style="fill:url(#_Linear6);fill-rule:nonzero;"/>
                    </g>
                    <g transform="matrix(1,0,0,1,2365.64,1290.07)">
                        <path d="M0,-26.363C-0.506,-31.857 -1.285,-37.326 -1.772,-42.821C-2.164,-47.23 -0.497,-48.54 3.87,-47.484C7.329,-46.648 10.733,-45.469 14.233,-44.925C24.052,-43.4 33.873,-41.653 43.758,-40.861C58.927,-39.647 74.143,-38.698 89.35,-38.496C103.573,-38.306 117.856,-38.639 132.025,-39.831C147.493,-41.133 162.862,-43.686 178.274,-45.69C179.108,-45.798 179.945,-45.908 180.783,-45.943C184.811,-46.112 185.683,-45.078 185.212,-40.96C184.23,-32.383 183.183,-23.812 182.38,-15.217C181.798,-8.977 181.837,-2.669 181.104,3.547C180.286,10.474 178.665,12.397 171.964,13.434C157.37,15.693 142.752,17.972 128.066,19.373C112.253,20.881 96.353,22.074 80.486,22.131C67.696,22.177 54.867,20.639 42.116,19.225C31.154,18.01 20.276,15.975 9.361,14.305C9.124,14.268 8.878,14.277 8.643,14.231C0.808,12.971 0.994,-15.571 0,-26.363" style="fill:rgb(165,125,80);fill-rule:nonzero;"/>
                    </g>
                    <g transform="matrix(1,0,0,1,2383.35,1523.04)">
                        <path d="M0,-28.554C-0.408,-32.988 -1.037,-37.4 -1.43,-41.835C-1.746,-45.393 -0.401,-46.45 3.123,-45.598C5.914,-44.923 8.661,-43.971 11.485,-43.533C19.409,-42.302 27.333,-40.892 35.311,-40.253C47.551,-39.274 59.83,-38.508 72.102,-38.344C83.578,-38.191 95.104,-38.46 106.538,-39.422C119.02,-40.472 131.422,-42.533 143.858,-44.15C144.531,-44.237 145.207,-44.326 145.883,-44.354C149.133,-44.491 149.837,-43.656 149.457,-40.333C148.665,-33.412 147.82,-26.495 147.172,-19.56C146.702,-14.525 146.733,-9.434 146.142,-4.418C145.482,1.172 144.703,3.504 138.739,6.359C128.651,12.403 115.539,13.844 103.688,14.975C90.927,16.192 79.671,17.896 66.04,16.273C55.719,16.31 45.173,13.342 34.883,12.201C26.037,11.22 17.033,9.28 7.554,4.263C7.362,4.233 7.164,4.241 6.974,4.203C0.652,3.187 0.802,-19.845 0,-28.554" style="fill:rgb(165,125,80);fill-rule:nonzero;"/>
                    </g>
                    <g transform="matrix(1,0,0,1,2567.84,1238.89)">
                        <path d="M0,-29.54C-0.206,-21.817 -4.407,-18.043 -9.584,-16.046C-18.574,-12.577 -27.777,-9.46 -37.13,-7.176C-60.616,-1.442 -84.629,0 -108.693,-0.441C-125.301,-0.745 -141.905,-1.949 -158.478,-3.19C-172.371,-4.23 -186.014,-7.073 -199.216,-11.495C-204.774,-13.356 -210.102,-16.212 -215.087,-19.33C-217.301,-20.714 -218.406,-23.868 -220.465,-26.878C-218.067,-27.098 -216.9,-27.206 -215.542,-27.331C-210.739,-18.682 -201.926,-16.14 -193.388,-13.593C-172.823,-7.459 -151.535,-5.499 -130.255,-4.543C-114.927,-3.855 -99.508,-4.54 -84.157,-5.228C-72.367,-5.757 -60.539,-6.71 -48.881,-8.482C-39.937,-9.841 -31.261,-12.898 -22.41,-14.959C-16.384,-16.361 -11.012,-18.862 -6.512,-23.096C-5.482,-24.065 -4.871,-25.469 -3.879,-26.491C-2.947,-27.453 -1.766,-28.176 0,-29.54" style="fill:rgb(217,214,211);fill-rule:nonzero;"/>
                    </g>
                    <g transform="matrix(1,0,0,1,2379.92,1199.86)">
                        <path d="M0,-9.853C0.891,-9.514 1.957,-9.382 2.644,-8.803C8.842,-3.578 16.668,-2.985 24.069,-1.524C34.278,0.492 44.688,0.424 55.022,-0.542C66.91,-1.653 78.851,-2.714 90.083,-7.287C99.876,-11.273 109.611,-15.405 119.433,-19.316C130.422,-23.692 141.476,-26.797 153.649,-23.998C158.285,-22.933 162.052,-20.832 165.862,-18.498C166.925,-17.847 167.571,-16.239 168.036,-14.937C169.417,-11.07 170.615,-7.138 171.878,-3.229C171.989,-2.885 172.113,-2.526 172.124,-2.171C172.295,3.345 172.514,8.861 172.537,14.377C172.54,15.231 171.628,16.088 171.139,16.944C170.538,16.138 169.546,15.396 169.403,14.517C168.732,10.396 168.484,6.203 167.728,2.102C166.797,-2.954 165.665,-7.986 164.328,-12.95C163.414,-16.343 160.422,-17.544 157.307,-18.223C149.497,-19.927 141.483,-22.343 133.658,-19.923C124.192,-16.996 115.014,-13.055 105.878,-9.164C92.228,-3.352 78.36,1.473 63.397,2.378C54.918,2.891 46.432,3.935 37.963,3.806C28.095,3.657 18.264,2.357 8.978,-1.426C6.524,-2.426 3.938,-3.295 1.783,-4.766C0.482,-5.653 -0.106,-7.584 -1.015,-9.046L0,-9.853Z" style="fill:rgb(217,214,211);fill-rule:nonzero;"/>
                    </g>
                    <g transform="matrix(1,0,0,1,2508.59,1188.74)">
                        <path d="M0,4.964C9.271,5.252 18.499,5.018 27.42,1.998C18.116,1.323 8.748,-0.044 0,4.964M3.649,9.777C0.983,9.304 -1.542,9.224 -3.768,8.369C-6.541,7.304 -6.72,4.074 -4.245,2.666C5.521,-2.887 16.023,-4.813 27.042,-2.766C29.368,-2.334 32.841,-0.418 33.191,1.333C33.848,4.615 30.077,5.957 27.51,6.42C19.565,7.851 11.518,8.713 3.649,9.777" style="fill:rgb(217,214,211);fill-rule:nonzero;"/>
                    </g>
                    <g transform="matrix(1,0,0,1,2362.12,1224.06)">
                        <path d="M0,-11.776C2.927,-13.814 5.265,-13.658 7.882,-11.977C14.032,-8.024 21.117,-6.749 28.171,-5.678C38.99,-4.035 49.857,-2.703 60.69,-1.137C61.687,-0.993 62.578,-0.114 63.519,0.423C62.62,0.985 61.716,2.038 60.823,2.028C55.899,1.973 50.934,1.99 46.065,1.356C38.292,0.345 30.581,-1.15 22.847,-2.455C14.676,-3.835 7.208,-6.939 0,-11.776" style="fill:rgb(217,214,211);fill-rule:nonzero;"/>
                    </g>
                    <g transform="matrix(1,0,0,1,2373.18,1502.74)">
                        <g>
                            <clipPath id="_clip7">
                                <path d="M57.042,-336.175C38.425,-335.775 20.14,-333.846 2.965,-325.922C-2.511,-323.394 -6.711,-320.086 -6.192,-313.165C-6.03,-310.993 -6.776,-308.769 -6.908,-306.556C-7.029,-304.545 -7.85,-303.685 -9.874,-303.03C-20.09,-299.727 -26.072,-290.071 -24.879,-279.352C-24.742,-278.136 -24.792,-276.891 -24.846,-275.664C-25.097,-270.152 -23.863,-268.079 -18.792,-265.964C-16.298,-264.922 -14.832,-263.401 -14.636,-260.498C-13.79,-247.948 -12.842,-235.404 -11.832,-222.866C-10.56,-207.077 -9.186,-191.296 -7.866,-175.51C-6.586,-160.184 -5.278,-144.861 -4.062,-129.53C-2.814,-113.815 -1.731,-98.088 -0.452,-82.375C0.362,-72.36 1.538,-62.374 2.302,-52.355C3.038,-42.684 9.782,-31.068 10.961,-30.337C13.443,-28.798 16.151,-27.361 18.961,-26.659C30.3,-23.824 41.609,-20.635 53.126,-18.806C66.628,-16.662 136.903,-15.208 158.222,-29.419C160.352,-30.278 161.115,-31.621 161.246,-33.91C161.246,-33.91 163.963,-30.581 165.13,-44.446C166.845,-64.829 168.814,-85.192 170.581,-105.571C171.784,-119.43 172.695,-133.315 173.964,-147.166C175.914,-168.413 178.142,-189.633 180.095,-210.879C181.563,-226.845 182.965,-242.822 183.978,-258.821C184.2,-262.309 185.365,-264.027 188.378,-265.033C192.546,-266.426 194.599,-269.261 194.33,-273.736C194.271,-274.702 194.716,-275.689 194.722,-276.668C194.751,-281.424 195.459,-286.333 194.529,-290.904C192.926,-298.786 185.911,-301.579 179.36,-304.189C176.61,-305.285 175.748,-306.424 175.568,-309.453C174.934,-320.106 173.674,-323.281 163.438,-327.433C157.64,-329.785 151.449,-331.218 145.369,-332.815C127.864,-337.412 109.999,-337.376 92.151,-337.339C88.804,-337.333 85.459,-337.326 82.117,-337.35C81.888,-337.352 81.662,-337.352 81.432,-337.352C73.306,-337.352 65.177,-336.35 57.042,-336.175Z"/>
                            </clipPath>
                            <g clip-path="url(#_clip7)">
                                <path d="M0,-88.046C-5.234,-103.461 -7.156,-114.698 -11.059,-126.03C-10.31,-146.935 -9.347,-171.505 -8.622,-189.635C9.801,-15.996 115.147,-85.368 195.008,45.677C229.081,101.589 103.094,17.113 75.744,-0.211C51.216,-15.748 20.933,-26.401 0,-88.046" style="fill:rgb(238,236,232);fill-rule:nonzero;"/>
                            </g>
                        </g>
                    </g>
                    <g transform="matrix(-0.99825,0.0591277,0.0591277,0.99825,2465.25,1456.19)">
                        <path d="M1.274,-120.486C-29.552,-118.677 -54.057,-93.921 -55.21,-64.623C-56.674,-27.389 -27.01,-3.913 1.274,-3.146C39.922,-2.099 62.756,-33.665 62.085,-63.507C61.365,-95.548 34.136,-121.068 1.274,-120.486" style="fill:rgb(1,99,65);fill-rule:nonzero;"/>
                    </g>
                    <g transform="matrix(1,0,0,1,468.914,1461.17)">
                        <path d="M0,-142.418C-45.784,-133.689 -75.27,-120.992 -103.688,-95.296C-106.666,-92.601 -109.308,-90.373 -111.686,-88.497L-102.422,76.792C-70.285,77.351 -42.023,51.284 -32.235,34.154C-21.447,15.274 5.642,0.366 37.795,-3.212C57.771,-5.432 75.294,-24.476 85.706,-38.581L94.621,-219.769C87.928,-211.07 76.963,-196.005 69.936,-182.089C59.241,-160.904 45.785,-151.147 0,-142.418" style="fill:rgb(5,167,95);fill-rule:nonzero;"/>
                    </g>
                    <g transform="matrix(1,0,0,1,468.802,1526.84)">
                        <path d="M0,22.574C-8.576,35 -23.095,31.846 -39.181,40.03C-16.945,44.76 8.772,46.61 33.605,40.052C55.678,34.225 67.119,28.817 72.98,25.059C76.683,22.685 79.014,18.681 79.308,14.292L81.875,-24.036C74.869,-20.848 62.639,-15.991 49.301,-13.973C28.666,-10.85 13.092,3.603 0,22.574" style="fill:rgb(5,167,95);fill-rule:nonzero;"/>
                    </g>
                    <g transform="matrix(1,0,0,1,569.464,1279.64)">
                        <path d="M0,-133.793C-9.365,-131.532 -26.768,-127.911 -50.544,-125.483C-87.299,-121.723 -151.966,-123.78 -179.782,-127.292C-196.68,-129.427 -214.105,-134.516 -225.193,-138.186L-217.201,4.393C-198.584,-7.284 -170.427,-17.534 -137.552,-21.707C-84.765,-28.407 -65.497,-66.074 -48.071,-92.133C-35.112,-111.522 -12.52,-119.405 -1.798,-122.166L-1.258,-133.193L0,-133.793Z" style="fill:rgb(5,167,95);fill-rule:nonzero;"/>
                    </g>
                    <g transform="matrix(1,0,0,1,461.886,1102.91)">
                        <path d="M0,28.029C30.701,26.916 81.457,27.219 97.399,21.977C108.32,18.384 113.354,16.65 115.416,15.171C113.908,9.131 104.364,5.384 84.02,4.054C62.068,2.614 -18.843,-1.109 -74.117,1.075C-110.254,2.504 -121.918,6.908 -125.667,9.786C-116.619,14.315 -99.172,20.824 -87.113,22.346C-73.203,24.104 -30.701,29.138 0,28.029" style="fill:rgb(5,167,95);fill-rule:nonzero;"/>
                    </g>
                    <g transform="matrix(1,0,0,1,518.921,1116.45)">
                        <path d="M0,37.703C23.776,35.276 41.18,31.65 50.544,29.393L57.211,26.215C57.211,26.215 58.876,10.005 58.603,3.097C58.581,2.588 58.499,2.105 58.379,1.625C56.32,3.101 51.281,4.838 40.36,8.429C24.423,13.671 -26.335,13.371 -57.034,14.483C-87.737,15.591 -130.241,10.556 -144.15,8.802C-156.209,7.278 -173.656,0.771 -182.705,-3.76C-184.69,-2.236 -184.461,-1.138 -184.461,-1.138L-183.552,21.786L-174.292,25.007L-174.649,24.996L-174.649,25.001C-163.561,28.669 -146.136,33.758 -129.239,35.889C-101.422,39.404 -36.755,41.463 0,37.703" style="fill:rgb(6,195,115);fill-rule:nonzero;"/>
                    </g>
                    <g transform="matrix(495.9,0,0,-495.9,247.418,1265.07)">
                        <path d="M0.552,0.156C0.517,0.104 0.478,0.028 0.372,0.014C0.306,0.006 0.249,-0.015 0.211,-0.038L0.221,-0.217C0.226,-0.213 0.232,-0.209 0.238,-0.203C0.295,-0.151 0.354,-0.126 0.447,-0.108C0.539,-0.091 0.566,-0.071 0.588,-0.028C0.602,-0 0.624,0.03 0.637,0.048L0.646,0.217C0.624,0.211 0.579,0.196 0.552,0.156Z" style="fill:url(#_Linear8);fill-rule:nonzero;"/>
                    </g>
                    <g transform="matrix(495.9,0,0,-495.9,247.418,1494.73)">
                        <path d="M0.523,0.074C0.458,0.067 0.403,0.037 0.382,-0.001C0.362,-0.036 0.305,-0.088 0.24,-0.087C0.242,-0.096 0.247,-0.103 0.255,-0.107C0.275,-0.116 0.317,-0.135 0.367,-0.145C0.4,-0.129 0.429,-0.135 0.446,-0.11C0.473,-0.072 0.504,-0.043 0.546,-0.037C0.573,-0.033 0.597,-0.023 0.612,-0.016L0.619,0.145C0.598,0.117 0.563,0.079 0.523,0.074Z" style="fill:url(#_Linear9);fill-rule:nonzero;"/>
                    </g>
                    <g transform="matrix(1,0,0,1,446.178,1025.16)">
                        <path d="M0,68.447L0.862,90.209C0.862,90.209 7.911,93.507 12.517,93.325C17.123,93.143 19.334,90.746 19.334,90.746L14.12,-21.038C14.12,-21.038 16.269,-25.06 7.055,-24.697C-2.155,-24.329 -4.366,-21.937 -4.366,-21.937L0,68.447Z" style="fill:rgb(51,129,103);fill-rule:nonzero;"/>
                    </g>
                </g>
            </g>
        </g>
    </g>
    <defs>
        <linearGradient id="_Linear2" x1="0" y1="0" x2="1" y2="0" gradientUnits="userSpaceOnUse" gradientTransform="matrix(1,0,0,1,0,-6.35439e-08)"><stop offset="0" style="stop-color:rgb(151,209,184);stop-opacity:1"/><stop offset="1" style="stop-color:rgb(244,245,245);stop-opacity:1"/></linearGradient>
        <linearGradient id="_Linear3" x1="0" y1="0" x2="1" y2="0" gradientUnits="userSpaceOnUse" gradientTransform="matrix(1,0,0,1,0,1.38685e-06)"><stop offset="0" style="stop-color:rgb(151,209,184);stop-opacity:1"/><stop offset="1" style="stop-color:rgb(244,245,245);stop-opacity:1"/></linearGradient>
        <linearGradient id="_Linear4" x1="0" y1="0" x2="1" y2="0" gradientUnits="userSpaceOnUse" gradientTransform="matrix(1,0,0,1,0,-0.000269924)"><stop offset="0" style="stop-color:rgb(241,241,241);stop-opacity:1"/><stop offset="0.61" style="stop-color:white;stop-opacity:1"/><stop offset="1" style="stop-color:rgb(241,241,241);stop-opacity:1"/></linearGradient>
        <linearGradient id="_Linear6" x1="0" y1="0" x2="1" y2="0" gradientUnits="userSpaceOnUse" gradientTransform="matrix(1,0,0,1,0,-0.000272148)"><stop offset="0" style="stop-color:rgb(241,241,241);stop-opacity:1"/><stop offset="0.61" style="stop-color:white;stop-opacity:1"/><stop offset="1" style="stop-color:rgb(241,241,241);stop-opacity:1"/></linearGradient>
        <linearGradient id="_Linear8" x1="0" y1="0" x2="1" y2="0" gradientUnits="userSpaceOnUse" gradientTransform="matrix(1,0,0,1,0,1.55677e-06)"><stop offset="0" style="stop-color:rgb(5,167,95);stop-opacity:1"/><stop offset="1" style="stop-color:rgb(251,199,176);stop-opacity:1"/></linearGradient>
        <linearGradient id="_Linear9" x1="0" y1="0" x2="1" y2="0" gradientUnits="userSpaceOnUse" gradientTransform="matrix(1,0,0,1,0,9.46159e-07)"><stop offset="0" style="stop-color:rgb(5,167,95);stop-opacity:1"/><stop offset="1" style="stop-color:rgb(251,199,176);stop-opacity:1"/></linearGradient>
    </defs>
</svg>
