<?xml version="1.0" encoding="UTF-8" standalone="no"?><!DOCTYPE svg PUBLIC "-//W3C//DTD SVG 1.1//EN" "http://www.w3.org/Graphics/SVG/1.1/DTD/svg11.dtd"><svg width="100%" height="100%" viewBox="0 0 142717 65950" version="1.1" xmlns="http://www.w3.org/2000/svg" xmlns:xlink="http://www.w3.org/1999/xlink" xml:space="preserve" xmlns:serif="http://www.serif.com/" style="fill-rule:evenodd;clip-rule:evenodd;stroke-linejoin:round;stroke-miterlimit:2;"><g id="Warstwa-1" serif:id="Warstwa 1"><g><g><path d="M48702.1,35202.5c-626.517,-2264.01 189.78,-4903.9 1953.24,-6316.32c1763.46,-1412.41 4353.38,-1500.79 6196.84,-211.333c-1105.56,-2868.22 163.899,-6539.6 2744.93,-7939.03c2581.08,-1399.38 6087.24,-317.117 7581.63,2340.19c-1418.77,-2921.3 -739.406,-6707.6 1249.69,-9216.53c1989.05,-2508.94 5078.44,-3817.92 8142.32,-4009.68c2338.92,-146.3 4781.88,344.363 6679.65,1819.13c1897.76,1474.81 3139.92,4044.26 2752.27,6524.54c1884.63,-1662.85 4731.3,-1937.9 6862.23,-662.891c2130.88,1274.96 3409.94,4018.67 3083.36,6613.81c1550.06,-1370.35 3906.67,-1573.16 5639.78,-485.392c1733.11,1087.82 2724.6,3391.87 2372.14,5513.62c2246.03,-2359.58 5815.3,-3293.57 8736.6,-2051.4c12076.7,5134.86 6963.02,11883.6 2475.67,15573c-3707.62,3048.54 -8591.19,1993.76 -10085.3,-722.984c-1778.75,2999.46 -6499.04,3138.61 -8428.38,248.461c482.334,1603.98 -3847.43,6568.03 -7996.25,7049.37c-6777.29,786.228 -12701.9,-3369.56 -16074.9,-9728.37c-4080.73,3270.37 -8894.85,5699.16 -13978.8,6016.33c-5083.99,317.164 -9639.53,-1404.93 -12794.5,-5696.01c-1480.88,818.744 -3366.6,4720.43 -6350.25,1735.74c-2400.4,-2401.24 2400.85,-8472.32 9238.04,-6394.29" style="fill:#067b44;fill-rule:nonzero;"/></g><g><path d="M81420,42868.8c-181.251,-322.139 -769.96,106.616 -856.868,242.268c-86.908,135.653 256.076,380.83 335.421,571.646c370.968,487.04 -158.273,600.195 -444.502,1156.83c-59.498,115.713 -122.88,215.051 -253.18,234.72c-108.943,37.128 -220.044,67.009 -324.63,118.819c-184.621,141.406 -381.97,129.783 -584.497,59.057c-74.297,-31.67 -148.551,-63.81 -223.582,-93.361c-137.937,-27.387 -214.003,-155.524 -321.177,-232.885c-520.599,-372.456 -640.587,-960.574 -674.931,-1572.17c-58.333,-1038.97 333.819,-1929.57 874.437,-2737.78c353.063,-527.791 692.793,-1065.32 1039.99,-1596.45c341.413,-497.205 467.917,-1094.31 590.106,-1676.08c177.286,-843.92 220.777,-1704.97 -70.285,-2540.42c-284.115,-815.498 -775.374,-1489.97 -1269.13,-2161.66c-30.72,-46.822 -59.757,-94.255 -84.48,-144.888c-13.634,-54.398 -28.433,-108.514 -46.986,-161.17c-32.187,-73.786 -19.976,-151.1 -15.403,-227.521c6.774,-429.818 0.734,-860.06 1.036,-1291.06c-4.487,-112.467 -10.096,-224.745 61.181,-319.235c29.727,-66.021 50.437,-135.101 64.33,-206.862c14.022,-101.22 94.489,-147.948 147.559,-216.415c372.91,-519.604 847.644,-917.141 1319.31,-1322.77c507.353,-436.266 917.109,-959.163 1035.03,-1684.92c132.458,-815.45 -55.615,-1581.87 -341.801,-2320.1c-356.73,-920.105 -393.534,-1806.66 115.07,-2678.34c144.754,-248.038 279.413,-507.557 345.037,-797.193c103.939,-458.711 130.042,-909.282 -117.097,-1336.04c-261.119,-450.9 -671.868,-569.155 -1114.63,-622.564c-1264.95,26.305 -2527.61,-109.031 -3793.9,-91.95c-973.198,13.129 -1946.66,-0.564 -2919.94,4.612c-279.326,1.506 -558.351,-111.196 -838.626,-2.635c-182.809,53.033 -366.74,94.773 -539.151,182.346c-1515.5,769.946 -2210.19,2153.85 -2417.72,3884.08c-11.606,96.843 -20.537,176.087 -30.633,241.12c-172.498,-28.281 -349.784,-20.188 -531.385,27.293c-3.926,0.988 -7.809,1.882 -11.692,2.87c-245.846,12.941 -492.165,-9.364 -738.528,-6.211c-404.234,5.176 -810.884,75.197 -1185.86,241.496c-348.188,154.441 -692.017,322.811 -1027.86,507.18c-227.811,125.031 -451.565,261.496 -657.241,426.666c-189.411,152.088 -384.689,308.317 -552.268,490.475c-95.223,103.525 -183.758,216.415 -266.814,333.634c-287.61,207.851 -570.431,422.666 -798.069,701.055c-1406.21,1719.79 -2313.52,3672.19 -2243.5,6046.31c7.378,250.578 -79.259,323.328 -296.8,359.797c-427.403,71.574 -849.844,168.041 -1263.4,327.423c-912.147,351.515 -1708.62,906.458 -2455.52,1559.99c-691.197,604.776 -1310,1279.53 -1811.48,2085.61c-797.422,1281.74 -1423.43,2655.94 -1934.92,4095.75c-85.127,239.661 -209.559,458.805 -281.57,705.008c-434.651,1486.39 -640.155,3020.45 -804.8,4563.21c-10.743,100.796 3.97,225.78 -87.413,279.283c-121.715,71.339 -187.21,-62.774 -264.484,-130.865c-208.826,-183.946 -395.173,-417.066 -707.636,-354.574c-169.218,77.267 -146.35,201.498 -77.058,343.892c23.946,49.127 100.53,101.22 37.364,159.053c-25.283,23.152 -77.188,-42.681 -112.956,-74.35c-77.921,-68.892 -160.546,-113.784 -254.301,-39.905c-103.076,81.268 -99.754,197.357 -63.986,311.517c65.366,208.651 34.344,401.302 -60.231,589.719c-71.191,141.688 -78.31,291.235 -35.164,445.535c12.943,46.304 40.039,120.466 -0.82,138.018c-72.96,31.34 -93.972,-56.233 -108.21,-109.172c-56.823,-211.474 -181.04,-316.223 -382.833,-325.54c-150.968,-6.965 -253.914,-120.701 -362.469,-217.403c-462.998,-412.408 -853.727,-907.871 -1296.92,-1341.97c-93.584,-34.398 -190.791,-25.646 -273.804,20.517c-461.229,256.696 -886.648,566.566 -1207.78,1020.52c-43.276,61.174 -61.656,137.077 -56.521,217.262c36.803,225.262 211.76,284.883 366.74,371.656c78.482,43.904 220.259,83.573 174.481,193.546c-49.833,119.571 -159.467,5.741 -240.969,-22.164c-210.552,-72.139 -395.562,-304.977 -645.506,-120.701c-352.846,642.045 -668.674,1304.09 -880.65,2019.4c-63.338,213.686 -169.218,422.007 -98.761,660.68c356.644,435.795 610.946,938.175 814.206,1473.73c54.277,142.959 108.123,288.976 218.275,390.243c312.29,287.048 381.064,632.681 303.962,1067.06c-52.163,294.059 -184.664,406.478 -422.613,394.902c-234.023,-11.387 -468.737,-25.928 -702.458,-49.504c-93.411,-9.411 -219.224,-45.551 -253.094,66.774c-96.603,320.176 -319.064,240.461 -521.288,219.333c-244.982,-25.505 -490.396,34.822 -736.371,-25.364c-123.354,-30.163 -232.556,42.069 -279.801,179.805c-47.158,137.453 -111.445,171.899 -240.106,104.419c-335.977,-176.322 -646.757,-83.385 -842.898,231.991c-229.45,368.927 -487.031,479.793 -857.956,304.835c-54.105,-25.504 -118.09,-0.47 -169.434,31.764c-275.184,172.699 -393.102,5.129 -446.43,-257.402c-111.877,-550.755 -303.272,-1076.01 -425.763,-1623.14c-35.898,-160.418 -61.397,-339.14 -268.756,-343.234c-202.915,39.716 -319.193,209.168 -441.986,362.056c-305.775,380.55 -509.898,831.356 -713.288,1279.76c-97.639,215.286 -188.072,282.06 -403.543,143.242c-431.89,-278.295 -891.868,-287.519 -1357.93,-82.021c-828.832,365.586 -1451.86,979.727 -1883.32,1831.13c-47.46,93.172 -58.247,255.237 -193.725,233.92c-98.372,-15.482 -111.748,-153.547 -145.833,-246.202c-201.06,-547.932 -369.76,-1117.37 -632.95,-1628.55c-575.566,-1118.07 -1406.12,-1985.57 -2409.7,-2649.45c-260.169,-172.134 -545.363,-307.893 -866.369,-279.189c-287.351,59.716 -339.126,322.011 -401.256,568.355c-358.111,1417.17 -736.932,2827.7 -1139.48,4230.61c-60.405,211.332 -90.607,427.418 64.718,615.787c0,0 22372.5,2522.08 27720.3,892.598c4245.63,-1293.65 6485.72,-2491.8 6413.27,-2614.67c-608.4,-1031.87 -1821.31,-736.845 -2183.52,-1924.89c-351.984,-1154.4 -776.884,-2277.84 -752.938,-3523.06c1.467,-76.703 -5.264,-154.065 -19.416,-229.215c-153.642,-814.274 57.212,-1568.74 317.036,-2315.72c40.643,-66.162 80.467,-132.842 116.882,-202.015c249.124,-356.928 484.226,-719.219 897.952,-892.86c277.687,-116.513 281.311,-403.937 186.606,-656.68c-126.504,-337.681 1786.33,-1515.19 1851.13,-1325.6c454.499,1329.55 953.826,2640.56 1386.62,3978.72c47.892,110.16 67.61,234.297 138.11,333.446c183.37,369.444 150.45,793.569 251.238,1185.13c309.658,1203.06 669.063,2398.12 554.252,3678.44c-13.677,152.7 39.22,278.719 204.598,298.953c227.465,-13.835 396.812,-156.558 547.909,-317.635c481.81,-513.768 807.734,-1139.81 953.697,-1848.02c383.178,-1858.89 252.273,-3662.12 -589.934,-5367.13c-109.59,-276.225 -191.395,-564.449 -322.256,-830.65c-24.076,-67.433 -51.56,-132.795 -79.734,-198.157c-55.097,-125.125 -95.18,-255.849 -128.618,-389.209c-18.682,-83.243 -57.988,-160.84 -59.023,-248.931c-2.373,-70.35 -13.591,-139.477 -29.685,-207.615c-68.041,-205.734 -55.787,-417.866 -42.24,-629.858c2.201,-74.162 14.972,-148.23 6.257,-222.909c-13.505,-156.465 28.648,-297.212 75.073,-446.147c338.091,-1084.57 943.126,-1966.75 1691.15,-2753.92c882.29,-928.481 1667.46,-1926.75 2259.46,-3126.09c801.823,-1624.55 1073.6,-3295.45 707.506,-5086.2c-386.63,-1891.6 100.055,-3518.5 1211.71,-4971.52c497.947,-650.892 1022.82,-1273.6 1572.75,-1873.01c290.976,-317.07 253.569,-441.394 -122.62,-572.401c-311.729,-108.56 -424.038,-290.153 -360.872,-635.645c89.873,-491.699 342.664,-867.872 736.241,-1124.99c199.722,-130.489 421.578,-203.992 631.655,-45.927c200.197,150.676 89.355,370.95 61.958,567.366c-3.538,25.222 -1.295,51.009 2.071,76.797c9.967,37.457 28.519,68.326 56.521,92.796c217.067,62.209 361.045,-99.808 500.967,-221.168c762.344,-661.386 1579.1,-1245.03 2320.3,-1936.82c24.766,-22.211 49.186,-44.14 72.356,-68.28c11.52,-11.482 23.514,-21.693 35.12,-33.269c23.472,-20.94 46.684,-41.457 68.861,-63.998c55.356,-49.127 107.865,-101.125 156.965,-158.017c27.656,-30.822 55.183,-60.939 83.832,-90.867c27.01,-25.27 53.587,-50.069 80.165,-76.468c16.309,-15.246 32.532,-29.081 48.971,-44.468c0.086,-1.694 26.233,-10.4 26.233,-10.4c-0,0 26.405,7.67 26.577,4.612c21.315,30.587 27.657,69.362 32.834,106.019c87.759,601.153 -45.173,1139.53 -393.188,1619.75c-160.373,221.215 -304.782,456.03 -428.438,704.585c-154.765,310.999 -239.33,684.396 -47.072,953.656c455.965,638.705 170.253,1025.61 -279.974,1434.39c-179.142,162.676 -294.557,224.039 -465.76,19.105c-95.481,-114.254 -205.719,-331.563 -358.973,-206.25c-156.62,128.089 -13.85,327.893 42.8,490.71c8.328,23.858 18.381,47.48 30.677,69.221c281.656,498.945 70.371,910.929 -205.245,1300.28c-269.834,381.115 -585.575,197.593 -892.084,58.257c-21.659,-9.835 -44.785,-15.905 -66.401,-25.882c-991.363,-457.158 -1562.92,123.337 -1897.17,772.394c-680.583,1321.69 -710.311,2706.29 -236.267,4115.93c27.7,68.609 64.503,132.748 83.703,205.215c11.132,35.575 23.428,70.68 38.572,104.467c20.797,51.715 42.887,102.725 68.214,151.994c116.969,268.507 292.745,495.745 436.981,744.63c408.074,704.16 839.662,1399.47 1043.01,2216.2c153.124,614.941 -72.658,1263.01 -514.989,1558.15c-440.951,294.247 -969.833,-11.482 -1002.71,-571.884c-18.639,-317.022 116.364,-523.838 332.352,-717.336c274.451,-245.779 221.123,-503.98 -117.098,-616.164c-560.464,-185.969 -1049.87,-14.306 -1460.14,415.701c-816.061,855.402 -965.001,2442.92 -566.505,3523.72c130.473,353.869 299.691,696.773 600.245,935.116c326.657,259.002 322.256,271.99 74.858,623.223c-508.905,722.513 -1053.8,1413.03 -1579.87,2119.96c-582.599,782.84 -562.838,800.298 16.913,1592.55c87.025,143.806 166.414,293.541 297.404,398.337c51.517,55.01 108.469,103.996 144.582,173.687c15.144,25.976 30.548,51.622 47.806,75.95c40.298,62.257 80.898,124.278 116.149,189.875c15.144,26.211 30.806,52.186 48.582,76.421c17.215,25.316 35.077,50.209 54.795,73.267c19.157,24.329 38.918,48.281 60.491,70.162c77.144,81.88 144.84,171.288 179.659,284.366c36.544,80.514 86.551,151.664 137.506,222.579c783.054,1090.17 1584.75,2164.2 2316.24,3298.27c329.418,510.71 679.072,1007.44 1029.81,1501.54c196.616,46.022 355.695,-64.515 473.526,-197.215c361.217,-406.761 795.265,-711.408 1191.86,-1067.63c704.917,-633.199 1404.96,-1268.28 2218.47,-1734.1c94.834,-54.304 182.766,-115.996 223.15,-231.567c179.358,-308.318 467.788,-530.756 582.038,-892.86c394.181,-1249.6 43.486,-2622.59 -131.861,-3309.09" style="fill:#06392c;fill-rule:nonzero;"/></g><g><path d="M95330.4,58260.7c-63.727,37.293 -6379.81,4382.47 -11205.6,4690.41c-8742.65,557.887 -14966.3,243.694 -19399.6,-616.758c-4640.77,-900.729 -7319.58,-2400.05 -8872.15,-4124.23c-1837.34,-2040.41 24195.5,-3637.65 23655.7,-4540.96c-302.323,-505.769 -669.063,-947.916 -1018.33,-1408.98c-141.95,-187.381 -273.071,-382.809 -347.497,-616.306c-13.764,-97.219 -777.799,-247.986 -716.963,-314.148c525.775,-571.413 1889.15,-1020.81 2494.4,-1489.36c57.556,-44.516 128.143,-63.527 199.722,-71.433c108.167,-5.176 216.247,-6.682 324.284,1.365c54.58,4.658 107.045,18.352 156.879,42.822c1141.12,369.82 1676.22,1401.92 2219.34,2422.4c141.044,265.025 268.41,538.567 417.479,799.075c609.134,1064.47 1483.57,1597.02 2637.94,1573.3c93.756,-1.93 187.512,-1.365 281.138,4.847c107.563,-2.447 203.821,-60.516 309.054,-75.292c287.956,-115.525 562.363,-264.036 828.746,-426.383c503.944,-307.094 991.449,-256.649 1470.24,55.245c444.575,289.589 894.974,555.837 1389.9,741.43c643.133,241.167 1246.1,192.557 1835.56,-161.829c80.64,-45.457 165.033,-81.832 248.563,-119.901c552.44,-338.293 1102.03,-678.092 1743.01,-792.722c736.543,-131.76 1421.66,-0.565 2065.57,409.019c71.104,45.222 234.756,70.303 234.756,70.303c0,0 -30.59,-189.828 -72.183,-278.954c-468.607,-1003.68 -1514.77,-1593.07 -2550.27,-1463.89c-569.698,71.103 -1143.71,120.983 -1711.99,-35.246c-35.854,-9.741 -69.896,-23.999 -102.989,-41.457c-577.852,-175.429 -937.56,-651.504 -1303.01,-1120.71c-490.698,-629.999 -1625.74,-1128.8 -2417.12,-559.79c-440.476,316.74 -993.39,314.67 -1508.47,279.142c-398.02,-27.387 -720.363,-278.295 -970.739,-631.27c-301.805,-425.489 -620.869,-834.885 -1061.35,-1104.57c-565.728,-346.245 -1176.59,-296.412 -1788.61,-251.802c-472.533,34.446 -919.913,202.58 -1381.32,295.283c-171.289,34.398 -353.192,86.961 -480.645,-113.831c-20.796,-202.392 136.988,-259.614 250.074,-328.835c963.404,-589.718 1950.37,-1126.31 2959.81,-1619.56c627.816,-306.764 1292.43,-460.97 1936.34,-697.055c299.605,3.247 448.458,253.449 612.498,463.935c198.687,254.955 397.805,504.451 662.333,682.091c1180,792.628 2135.85,-120.795 2397.31,-999.631c78.007,-262.202 73.089,-566.99 315.353,-747.971c577.637,-111.996 1132.62,49.739 1655.85,258.719c1030.62,411.655 2033.16,924.529 2859.62,1723.93c1846.9,1786.42 5625.65,7384.81 747.389,10239.5Z" style="fill:#06392c;fill-rule:nonzero;"/></g><g><path d="M121605,33782c393.49,-538.896 556.97,-1198.87 790.864,-1819.13c248.779,-659.739 518.268,-1313.74 740.469,-1980.54c248.089,-744.347 573.322,-1447.9 835.347,-2182.36c77.447,881.565 12.469,1765.25 33.74,2647.47c5.566,147.006 -0.992,290.529 -103.42,404.972c-183.974,450.524 -379.425,896.059 -549.118,1352.89c-218.145,587.413 -392.972,1194.82 -627.168,1774.05c-385.293,952.951 -776.928,1901.95 -1289.29,2789.3c-523.101,905.847 -1119.51,1754.71 -1705.86,2606.58c-549.808,798.746 -1163.6,1545.35 -1870.85,2211.87c-986.315,929.469 -2048.05,1727.27 -3133.25,2500.28c-309.572,220.509 -584.152,483.746 -916.85,685.15c-530.219,320.929 -1051.29,668.774 -1579.23,1000.1c-390.082,244.838 -825.855,344.222 -1242.08,507.416c-384.344,150.723 -768.773,298.011 -1161.62,415.842c-485.003,145.406 -982.734,244.414 -1461.61,409.537c-503.598,173.64 -1025.49,201.874 -1537.55,304.365c-128.704,-33.976 -176.553,-162.253 -248.391,-259.52c-532.722,-721.524 -1418.94,-673.714 -1868.6,104.137c-82.366,142.442 -175,273.166 -303.531,370.433c-524.223,136.889 -1044.61,77.597 -1568.83,-16.376c-1602.22,-287.189 -3154.26,-837.708 -4757.35,-1101.37c-751.471,-123.618 -1517.18,-214.297 -2278.79,-252.084c-764.674,-37.928 -1516.36,-209.921 -2322.8,-207.474c250.074,167.805 482.759,300.741 707.851,442.853c1291.49,815.639 2230.94,2016.3 3128.29,3283.45c1421.57,2007.45 3273.13,3025.15 5643.48,2755.47c1315.26,-149.641 2477.95,-671.221 3470.09,-1637.54c182.895,-178.158 301.675,-432.595 541.308,-543.085c352.027,16.564 526.768,189.64 594.895,588.495c-902.353,1083.91 -1989.89,1910.89 -3278.4,2266.92c-1482.71,409.772 -2998.98,428.689 -4431.12,-331.234c-463.429,-245.92 -902.741,-545.767 -1354.52,-818.227c-67.351,-40.61 -144.582,-132.089 -218.102,-60.421c-73.478,71.621 -6.904,169.405 28.39,245.92c431.674,935.963 633.252,1948.39 808.381,2965.39c77.447,449.817 267.856,1143.13 123.613,1371.76c-144.244,228.626 -844.036,322.913 -989.076,-0c-413.223,-919.988 -514.774,-3834.01 -1490.26,-5519.93c-519.692,-898.129 -1086.93,-1750.57 -1786.97,-2502.21c-758.03,-813.945 -1665.47,-1350.63 -2604.76,-1849.39c-729.51,-387.373 -1502.9,-564.072 -2306.06,-615.882c-73.478,-58.962 -103.249,-148.276 -90.305,-235.896c70.328,-475.464 54.882,-963.116 172.195,-1431.52c111.23,-153.217 272.725,-219.897 434.393,-194.063c467.356,74.633 930.311,-24.422 1395.12,-12.282c181.428,1.083 362.943,0.989 544.371,-0.517c752.464,-44.657 1492.33,72.326 2230.38,209.591c197.694,36.752 393.533,68.327 594.895,27.435c127.28,-25.835 260.773,-37.128 385.983,-0.894c1179.69,341.257 2392.44,506.38 3582.96,794.133c520.641,125.831 1035.03,300.459 1575,367.28c436.463,53.974 867.447,185.216 1312.07,237.967c990.499,117.454 1976.81,270.248 2976.63,270.484c414.934,0.047 812.35,-141.454 1224.22,-149.689c266.684,52.798 517.923,-42.633 772.742,-99.666c1082.44,-233.544 2155.05,-518.286 3196.38,-915.353c619.402,-236.179 1198.07,-590.047 1799.4,-880.106c843.372,-406.855 1589.49,-986.644 2361.68,-1523.8c543.595,-378.15 1101.77,-731.83 1603.47,-1174.59c400.006,-353.068 757.815,-757.711 1098.06,-1179.06c62.087,-76.891 110.367,-171.805 191.999,-223.238c953.394,-600.918 1415.06,-1647.37 1974.01,-2601.45c290.889,-496.592 543.724,-1019.44 956.371,-1416.93c190.23,-99.902 370.105,-218.015 549.98,-339.563c462.74,-312.741 596.276,-789.946 620.093,-1341.45c7.119,-164.794 -88.32,-356.692 76.627,-494.711" style="fill:#ba9d3f;fill-rule:nonzero;"/></g><g><path d="M73186.7,44550.7c15.835,18.917 26.362,40.845 31.54,65.833c52.249,66.773 66.315,166.393 149.328,206.768l6.428,8.847c-4.142,45.268 25.068,63.479 55.227,80.891l3.495,5.646c50.006,131.619 158.647,210.157 239.071,314.247c600.677,843.873 1224.05,1670.01 1795.6,2536.75c556.15,843.261 1196.91,1623.09 1645.8,2548.84c72.83,177.923 -60.879,257.543 -149.199,347.939c-634.891,649.763 -1167.31,1389.26 -1705.08,2135.21c-426.109,591.083 -802.125,1224.94 -1260.12,1792.26c-363.159,449.818 2143.25,1443.61 720.27,1981.22c-139.512,52.708 -16.568,185.011 -3825.91,1723.92c-5613.11,2267.6 -3827.12,-1823.38 -3827.12,-1823.38c-98.372,-139.477 -35.25,-272.225 26.362,-393.538c424.081,-834.555 735.637,-1711.6 862.098,-2660.37c22.695,-170.252 104.844,-280.742 261.507,-319.799c826.847,-558.802 1216.28,-1407.85 1416.26,-2416.66c192.992,-973.515 171.634,-1943.08 60.491,-2914.66c-45.131,-394.573 -133.494,-792.157 -331.792,-1142.92c-177.89,-314.717 -189.712,-705.572 -388.442,-1010.93c-16.266,-19.152 -21.746,-43.151 -31.022,-64.562c-89.657,-206.722 -130.332,-512.33 -130.332,-512.33c0,0 -56.317,-80.965 -121.252,-271.122c-19.156,-52.045 -38.313,-104.09 -57.47,-156.135c-23.86,-159.241 -5.738,-306.153 104.672,-425.819c102.471,-95.902 227.896,-155.617 356.083,-124.842c278.291,66.821 552.871,72.232 834.182,31.058c174.611,-25.552 286.877,69.785 323.162,268.695c18.294,100.137 31.842,200.886 49.144,301.024c31.841,184.181 142.812,296.082 299.346,336.692c192.171,49.881 221.511,-140.935 287.179,-268.083c40.039,-77.55 76.627,-157.877 98.329,-244.885c6.515,-26.211 12.944,-61.033 -3.409,-71.621c-42.024,-27.199 -55.183,19.153 -65.754,47.481c-72.787,194.345 -157.267,426.76 -386.932,345.633c-240.193,-84.843 -268.195,-367.844 -288.214,-607.176c-26.967,-322.34 125.468,-482.946 431.415,-444.641c183.5,22.964 215.819,-369.783 360.832,-379.853c113.258,-33.928 206.881,117.981 307.627,40.572c115.458,-56.516 233.419,-75.338 355.479,-28.752c290.372,275.142 286.877,379.138 -13.677,600.353c-89.873,66.162 -257.107,89.408 -204.9,259.472c41.549,135.195 26.448,365.257 178.02,376.88c136.556,10.446 78.612,-207.663 125.77,-312.223c95.18,-211.051 170.771,-442.666 358.93,-588.777c158.087,-2.73 234.843,102.725 279.888,249.59c20.925,87.338 -2.805,191.616 79.431,257.166c45.131,38.399 96,65.08 148.638,89.079c129.394,49.739 278.204,2.353 398.107,96.608c54.795,35.199 106.829,73.691 140.914,134.395" style="fill:#fafbfa;fill-rule:nonzero;"/></g><g><path d="M75648.6,56102.8c-173.735,381.121 -1296.48,-620.868 -1925.64,-306.891c-939.236,468.711 -692.611,87.1 643.229,-1644.74c902.748,-1170.36 1077.83,-3385.28 2504.07,-3738.79c167.694,-41.565 725.294,-161.135 849.079,-322.634c289.984,-378.15 701.984,-588.118 1018.07,-911.964c468.392,-479.888 1017.21,-831.921 1502.34,-1276.7c302.971,-277.825 647.965,-451.794 993.175,-637.575c76.627,-138.724 207.489,-205.357 328.642,-278.343c1092.19,-657.95 2149.1,-1399.76 3388.03,-1713.53c152.564,2.447 268.67,91.149 361.52,207.756c222.546,279.377 471.498,531.132 697.323,806.651c91.944,112.184 205.331,223.097 119.083,400.972c-317.468,202.345 -676.657,315.235 -1023.33,384.127c-497.04,98.725 -926.428,359.609 -1368.03,572.683c-778.265,375.515 -1518.95,844.014 -2272.84,1278.87c-174.223,100.513 -338.005,222.438 -506.619,334.481c-210.422,320.034 -1118.68,1129.28 -1445.64,1243.3c-211.906,165.795 -1707.3,484.021 -2224.68,932.981c-1053.28,913.992 -382.856,1916.44 -1637.78,4669.35Z" style="fill:#ba9d3f;fill-rule:nonzero;"/></g><g><path d="M73519.4,57763.4c-2439.78,-371.884 598.005,-1887.99 1012.16,-2520.01c478.192,-729.683 1218.5,-2795.65 2148.22,-3645.86c331.42,-303.077 932.043,-692.741 1194.66,-363.218c353.425,443.471 976.523,1349.25 1362.16,1780.67c195.106,218.204 291.925,575.037 494.107,817.427c429.387,514.804 718.637,1143.01 1187.07,1633.39c284.806,298.106 1174.21,1694.07 -815.626,2436.02c-1209.79,451.096 -2991.98,408.898 -6582.75,-138.425Z" style="fill:#fafbfa;fill-rule:nonzero;"/></g><g><path d="M64837.3,56577.3c-246.233,-522.238 -591.616,-975.679 -856.014,-1487.75c-327.649,-634.563 -636.531,-1264.52 -873.919,-1955.45c-262.543,-764.159 -455.793,-1547.56 -701.423,-2314.22c-67.48,-210.674 -63.51,-420.642 -84.091,-634.187c-41.679,-432.218 -37.968,-866.178 -84.609,-1299.67c-78.957,-733.525 83.962,-1437.26 403.63,-2092.53c204.899,-13.835 243.385,172.416 295.98,316.128c466.537,1274.02 997.662,2519.48 1525.42,3761.45c712.641,1677.02 1159.29,3436.81 1615.99,5200.08c45.648,176.276 95.611,348.786 -39.953,506.145l-1201.01,-0Z" style="fill:#067b44;fill-rule:nonzero;"/></g><g><path d="M68318.6,53203.4c-109.763,135.336 -167.535,273.778 -168.959,473.864c-3.711,528.45 -235.533,999.491 -379.08,1492.51c-144.754,497.157 -433.745,921.658 -601.928,1407.33l-918.446,-0c-355.392,-1152.43 -640.457,-2304.14 -506.187,-3553.37c150.795,-1402.53 585.489,-2707.99 1000.16,-4025.54c84.178,-267.472 185.053,-527.556 319.841,-768.44c60.274,-107.808 99.019,-280.789 280.016,-208.886c251.972,152.229 158.13,433.583 194.07,658.139c129.352,808.251 380.763,1581.49 554.684,2376.99c137.678,629.717 122.965,1259.1 99.494,1892.35c-4.875,131.1 -18.812,229.402 126.331,255.048" style="fill:#067b44;fill-rule:nonzero;"/></g><g><path d="M123984,27626c21.314,10.823 40.342,7.294 57.126,-10.635l-0,2926.99c-19.891,9.176 -38.573,20.705 -56.004,34.681c-4.487,-925.375 -9.017,-1850.85 -13.461,-2776.78c4.142,-58.351 8.241,-116.325 12.339,-174.252" style="fill:#c8cfce;fill-rule:nonzero;"/></g><g><path d="M86957.1,28381.6c-251.325,-1055.39 1.898,-1834.47 740.34,-2239.02c406.434,-222.674 856.014,-247.191 1298.39,-296.695c43.362,-43.621 93.929,-70.491 152.866,-78.208c121.067,-9.929 213.658,-96.561 321.955,-142.065c171.504,-179.476 85.299,-412.361 100.961,-619.882c37.494,-495.839 121.887,-607.27 583.246,-610.894c587.56,-4.658 1175.73,-31.151 1762.51,16c270.956,-25.929 542.085,1.27 812.61,5.27c102.859,14.682 202.613,51.998 306.853,63.009c33.697,3.718 65.539,14.918 95.482,32.47c208.438,67.15 416.66,174.911 626.564,4.564c496.005,-128.042 999,-46.351 1497.98,-48.139c628.98,-2.212 1253.3,134.442 1884.83,105.502c50.48,-2.306 90.692,13.082 118.133,60.891c164.256,316.459 55.011,653.716 59.455,981.374c11.65,852.861 -122.966,1688.64 -344.39,2498.73c-438.405,1604.12 -1397.54,2662.86 -2889.05,3122.32c-53.89,42.964 -115.761,51.904 -180.091,50.21c-261.033,3.294 -522.065,6.588 -783.055,9.835c-75.98,-33.975 -163.393,-4.658 -237.129,-50.868c-46.166,-8.753 -92.332,-17.506 -138.455,-26.211c-94.274,38.681 -189.238,43.01 -285.324,8.235c-61.569,-20.893 -120.161,-49.834 -178.063,-80.468c-209.732,-124.136 -429.733,-227.426 -632.864,-365.679c-55.528,-36.47 -111.23,-72.327 -168.01,-106.584c-304.48,-247.991 -624.493,-478.288 -840.654,-831.262c-96.215,-157.076 -241.056,-179.24 -394.784,-189.028c-723.945,99.478 -1430.5,-34.681 -2117.9,-242.861c-385.206,-116.654 -742.626,-352.551 -1033.86,-672.962c-87.37,-96.137 -204.468,-187.146 -138.541,-357.586" style="fill:#a4ba3f;fill-rule:nonzero;"/></g><g><path d="M118387,15579.1c-23.088,-9.842 -46.175,-19.683 -69.199,-29.659c52.845,-82.374 57.914,-16.705 69.199,29.659" style="fill:#139152;fill-rule:nonzero;"/></g><g><path d="M118300,15569.7c-2.659,35.44 -5.318,70.879 -7.981,106.17c-32.515,-33.522 -57.539,-67.3 7.981,-106.17" style="fill:#139152;fill-rule:nonzero;"/></g><g><path d="M99707.2,20525.9c-0,-0 14.152,-7.577 14.109,-7.671c-0.087,-0.141 -14.109,7.671 -14.109,7.671" style="fill:#0a5133;fill-rule:nonzero;"/></g><g><path d="M100361,19731.4c-20.322,33.316 -40.6,66.633 -60.879,99.949c20.322,-33.363 40.6,-66.633 60.879,-99.949" style="fill:#0a5133;fill-rule:nonzero;"/></g><g><path d="M99928.7,20279.2c-0,0 13.289,-12.94 13.332,-13.317c0.043,-0.376 -13.332,13.317 -13.332,13.317" style="fill:#0a5133;fill-rule:nonzero;"/></g><g><path d="M99991.9,20207.3c0,0 13.16,-6.588 12.728,-6.493c-0.474,0.047 4.229,8.47 4.229,8.47l-16.957,-1.977Z" style="fill:#0a5133;fill-rule:nonzero;"/></g><g><path d="M82142.2,35704.4c12.685,22.446 25.327,44.845 38.012,67.291c6.385,50.586 51.3,56.28 80.035,81.173c21.573,18.306 42.887,36.564 64.978,54.634c47.202,38.257 90.606,80.279 131.595,126.442c508.431,709.148 966.165,1457.21 1441.42,2191.82c531.212,930.881 1102.94,1829.58 1763.67,2658.44c17.086,31.763 30.418,65.315 41.031,100.137c19.2,71.386 61.699,129.454 94.317,193.263c409.498,735.36 843.977,1453.12 1277.38,2171.54c54.019,89.502 81.718,250.531 205.935,222.72c96.215,-21.505 86.939,-170.252 104.456,-266.86c152.823,-843.59 305.646,-1687.23 449.666,-2532.56c137.593,-807.639 281.398,-1613.68 437.802,-2417.27c16.481,-72.561 35.164,-144.512 43.922,-218.909c18.035,-169.028 54.019,-333.681 98.157,-496.357c11.434,-54.586 23.212,-109.078 32.316,-164.276c37.667,-297.682 67.308,-597.106 163.782,-881.471c16.266,-51.198 34.646,-101.831 50.998,-153.029c18.769,-67.48 36.415,-135.43 51.517,-204.181c9.19,-51.903 18.941,-103.666 26.966,-155.899c21.573,-177.782 50.696,-353.634 104.37,-523.697c40.772,-99.526 58.635,-203.898 55.313,-312.929c3.537,-55.01 12.08,-109.031 22.177,-162.912c8.111,-54.868 17.56,-109.36 25.887,-164.181c45.174,-1127.86 586.827,-1835.46 1536.86,-2240.9c456.871,-194.957 876.983,-489.393 1324.75,-714.325c143.977,-72.374 312.376,-193.169 449.277,-14.258c121.758,159.193 48.712,338.434 -33.481,501.909c-153.815,305.918 -336.796,583.931 -597.743,795.169c-72.269,58.492 -209.171,110.114 -186.907,201.169c27.009,110.349 163.134,40.281 250.634,54.539c145.143,23.67 312.592,-33.363 411.482,145.124c1051.42,221.356 2027.86,-31.293 2961.01,-556.92c271.646,-153.029 547.132,-296.929 860.673,-302.67c124.649,-2.259 290.933,-48.422 355.22,89.785c68.257,146.911 -72.787,256.413 -161.149,351.092c-496.221,531.838 -1053.58,977.985 -1653.26,1360.09c-941.874,600.07 -1981.99,744.865 -3046.96,759.123c-328.901,4.376 -659.873,7.058 -986.444,-27.811c-217.8,-23.293 -268.324,73.691 -269.144,273.495c-2.243,573.296 -15.921,1146.64 -10.571,1719.84c16.784,1799.88 41.075,3599.72 60.663,5399.55c6.213,569.343 6.688,1138.73 9.881,1708.26c10.959,563.931 -101.436,1113.89 -156.62,1670.15c-42.973,131.713 -101.91,260.084 -126.374,395.891c-151.83,843.731 -579.535,1459.61 -1343.17,1676.97c-778.567,221.592 -1381.75,-199.615 -1876.59,-828.485c-182.723,-232.179 -365.748,-463.37 -592.609,-647.08c-17.042,-200.463 -167.924,-304.883 -283.468,-416.878c-304.567,-295.095 -522.54,-681.291 -854.288,-945.187c-177.33,-31.904 -272.984,-177.31 -385.422,-310.341c-810.582,-958.833 -1572.37,-1966.51 -2426.31,-2881.91c-681.921,-941.61 -1426.7,-1823.51 -2168.08,-2708.74c-94.015,-112.278 -202.829,-222.203 -135.953,-401.02c585.36,-1115.11 815.026,-2314.92 671.479,-3586.68c-71.363,-631.928 -365.229,-1177.23 -694.691,-1692.92c-240.495,-376.409 -492.424,-744.159 -739.262,-1115.72c-22.824,-21.693 -28.648,-40.328 -17.603,-55.857c9.924,-13.976 19.675,-21.034 29.339,-21.034c771.966,456.923 1424.59,1066.78 1974.96,1812.35c242.523,328.505 501.743,642.375 753.413,962.927c150.881,76.844 249.901,201.028 290.76,378.386" style="fill:#8bc7ae;fill-rule:nonzero;"/></g><g><path d="M71867.5,43624.4c-119.989,-52.751 -240.279,-133.03 -358.111,4.753c-58.247,67.856 -127.884,51.386 -193.725,23.952c-94.921,-39.575 -90.649,-178.863 -181.73,-225.12c6.774,96.043 127.669,174.11 37.709,285.306c-159.121,75.338 -141.906,288.553 -260.773,396.408c-48.237,43.716 -101.652,77.315 -159.036,46.398c-72.183,-38.822 -52.897,-94.773 -6.817,-151.241c30.763,-37.74 60.922,-95.714 -5.479,-119.007c-35.855,-12.611 -93.152,6.635 -126.461,32.987c-209.042,165.217 -310.101,694.833 -71.849,798.97c185.268,81.032 156.951,-193.672 195.726,-226.36c89.522,-75.469 163.086,-209.189 314.442,-274.316c89.873,-38.681 154.031,42.398 204.511,112.655c114.294,158.958 26.665,281.4 -63.553,408.172c-49.705,69.832 -64.978,177.828 -124.519,228.32c-100.142,85.032 42.153,397.632 -245.63,299.33c-228.198,-77.974 -457.174,-167.288 -507.654,-451.089c-98.243,-552.166 -88.622,-562.095 -612.111,-464.358c-113.689,21.27 -198.773,15.011 -296.886,-45.127c-170.858,-104.702 -336.926,-87.385 -482.932,65.597c-86.939,36.94 -173.274,61.551 -254.388,-15.435c-80.597,-77.879 -103.55,-169.17 -53.976,-277.165c104.759,-168.935 419.594,-193.169 337.229,-450.289c-22.134,-69.032 -245.716,217.121 -415.84,265.825c-69.638,-213.827 -237.493,-1009.93 -165.439,-1231.53c49.315,-83.761 521.047,-1079.39 930.631,-1716.03c497.126,-772.723 1151.52,-1373.92 1730.8,-2056.44c1178.92,-1389.03 2025.83,-2973.06 2313.39,-4859.76c125.555,-823.874 43.189,-1656.55 -135.995,-2465.97c-336.754,-1520.98 -51.948,-2901.86 711.259,-4200.68c528.968,-900.153 1203.9,-1661.06 1873.61,-2429.32c129.697,-148.747 260.17,-296.742 387.796,-447.606c38.701,-45.787 86.334,-96.608 57.34,-167.9c-29.339,-71.997 -92.03,-58.821 -150.881,-59.527c-518.915,-6.447 -690.334,-242.484 -571.769,-796.204c129.956,-606.894 504.073,-1005.18 985.84,-1283.15c202.268,-116.748 448.976,-108.09 622.164,92.891c227.249,263.66 70.025,524.544 -46.382,777.193c-25.327,75.009 17.776,78.867 66.919,76.42c933.288,-770.134 1889.66,-1507.47 2784.76,-2331.86l35.25,0.094l4.228,-38.21c15.36,0.282 22.997,-7.953 22.824,-24.752c29.857,-2.73 48.626,-20.423 57.859,-50.916c73.391,-21.458 125.468,-71.574 161.97,-142.771c27.656,-44.139 84.911,-43.198 112.395,-87.667c33.351,-38.116 66.66,-76.279 100.055,-114.396c26.923,1.6 41.377,-11.529 41.29,-41.739l22.523,-14.729c22.22,-5.459 44.569,-10.211 67.005,-14.305c240.625,383.561 200.111,1154.17 -90.951,1622.05c-138.369,222.344 -292.27,433.301 -429.517,656.445c-458.253,745.194 -470.075,1009.7 22.22,1724.31c185.958,269.919 144.581,400.925 -90.779,551.461c-225.61,144.323 -413.683,336.269 -548.945,584.73c-134.96,247.896 -283.253,274.718 -450.659,33.222c-42.283,-60.986 -88.794,-121.972 -143.805,-168.135c-81.761,-68.656 -75.031,-301.494 -218.491,-212.603c-85.342,52.939 34.603,202.251 74.945,304.082c18.553,46.916 42.412,91.338 62.259,137.736c259.825,607.223 195.365,1059.16 -238.898,1547c-193.682,217.592 -423.65,318.388 -695.641,148.041c-81.416,-50.962 -167.19,-93.596 -250.376,-141.265c-889.624,-509.909 -1554.11,-83.62 -1940.66,756.865c-507.352,1103.06 -586.999,2274.26 -313.756,3470.26c45.001,196.886 127.323,383.609 192.387,575.036c14.885,49.128 9.794,106.773 51.991,144.183c13.979,28.469 27.915,56.892 41.894,85.361c-9.19,31.623 1.165,50.539 31.065,56.751c375.801,719.313 833.881,1384.13 1176.98,2125.47c306.163,661.433 583.116,1323.01 241.228,2072.58c-209.732,459.747 -669.796,922.553 -1214.73,612.588c-299.777,-170.487 -432.58,-418.007 -438.491,-763.264c-5.609,-326.811 86.292,-602.8 381.237,-757.053c97.553,-51.057 257.279,-63.433 215.384,-244.79c-31.799,-137.548 -154.247,-174.064 -270.913,-213.404c-657.198,-221.544 -1322.55,215.145 -1668.75,842.367c-448.846,813.098 -549.549,1662.57 -350.474,2566.68c135.004,613.011 364.195,1167.39 930.829,1451.1c206.453,103.384 142.986,217.168 44.872,352.645c-392.541,541.908 -765.925,1102.03 -1182.41,1621.07c-333,415.042 -639.508,851.119 -961.29,1274.73c-118.479,155.947 -90.564,267.472 4.918,403.467c141.907,202.063 278.593,408.454 417.523,613.011c-72.399,140.136 -1.64,367.421 -215.686,421.348c-71.968,-6.776 -125.339,-47.668 -167.838,-108.513c-27.311,-75.244 -55.529,-150.159 -71.795,-229.497c5.41,-30.241 -55.194,58.496 -76.76,70.747c-296.25,168.285 -237.938,-103.973 -115.239,-405.793c-114.595,-35.387 -461.571,727.236 -561.639,806.437c-252.719,200.02 -638.34,-698.724 131.173,-1027.75" style="fill:#8bc7ae;fill-rule:nonzero;"/></g><g><path d="M73003.3,19353.5c-102.04,-547.79 -13.116,-1096.76 -7.033,-1645.11c5.696,-512.874 15.749,-1025.8 30.548,-1538.43c2.675,-92.278 -53.588,-230.061 70.112,-265.119c90.174,-25.552 127.021,94.444 174.697,163.806c387.234,563.978 779.517,1124 1156.7,1695.84c126.029,191.099 301.029,323.423 434.953,502.004c41.42,55.198 79.173,146.018 164.343,105.219c76.756,-36.704 66.703,-130.206 65.366,-203.756c-11.002,-600.494 -22.695,-1201.04 -40.039,-1801.34c-13.635,-473.016 -38.875,-945.61 -50.783,-1418.63c-2.028,-79.856 -33.179,-194.11 54.493,-233.45c26.578,-11.905 108.512,84.561 145.833,145.406c613.103,998.737 1223.23,1999.64 1833.44,3000.45c19.458,31.905 29.641,70.727 50.265,101.408c131.724,195.757 269.575,453.112 488.022,454.618c197.091,1.411 206.497,-308.647 300.641,-478.099c188.504,-339.422 355.522,-692.961 536.864,-1037.23c113.776,-215.945 65.625,-309.165 -148.379,-426.148c-408.203,-223.098 -788.836,-507.322 -1174.56,-776.958c-66.746,-46.634 -206.496,-74.303 -165.55,-198.016c29.253,-88.232 147.947,-51.621 225.437,-46.257c422.01,29.317 846.22,44.375 1264.39,106.631c350.949,52.233 535.484,-92.749 671.868,-436.406c172.411,-434.383 391.592,-846.838 593.126,-1267.29c26.19,-54.68 69.638,-144.135 101.522,-142.347c87.802,4.988 80.381,106.584 87.716,176.746c53.285,509.156 112.611,1017.94 150.191,1528.55c21.098,286.341 115.889,392.878 396.942,378.479c515.722,-26.399 1033.73,-2.823 1550.66,7.106c71.407,1.364 187.771,-66.727 209.43,57.033c18.596,105.972 -103.636,125.171 -169.779,167.334c-405.614,258.39 -810.365,519.133 -1224.78,759.782c-146.221,84.891 -200.153,172.088 -187.77,356.975c51.257,764.958 85.86,1531.28 126.546,2297.13c-643.52,-5.223 -1288.08,12.47 -1930.43,-20.234c-1638.55,-83.385 -3278.01,-28.893 -4916.86,-56.657c-288.948,-4.894 -577.982,-149.076 -868.138,-13.035" style="fill:#fafbfa;fill-rule:nonzero;"/></g><g><path d="M47705,45314.2c54.838,-106.617 109.634,-213.234 164.472,-319.81c566.333,-632.436 1261.89,-957.966 2142.32,-844.5c713.33,92 1243.16,447.808 1605.11,1045.12c29.728,49.028 57.428,99.517 91.081,145.956c45.864,63.227 72.701,183.208 154.29,166.795c102.773,-20.671 87.025,-147.459 101.738,-232.778c36.458,-211.689 9.794,-433.86 114.423,-634.232c99.278,-168.591 178.322,-344.156 197.565,-540.227c0.906,-64.354 7.723,-127.957 24.852,-190.265c14.41,-61.765 44.138,-119.396 51.904,-183.124c19.977,-94.506 55.399,-183.417 102.644,-268.276c35.337,-56.294 76.627,-106.158 147.171,-122.946c274.968,122.236 392.972,380.531 529.313,609.551c150.622,253.075 260.213,530.12 374.852,801.779c96.042,227.517 360.872,307.197 461.617,544.236c67.567,158.902 118.781,285.648 43.966,445.887c-28.52,61.139 -55.702,131.048 -53.587,196.07c11.476,355.641 -124.045,486.271 -494.409,483.348c-195.278,-1.587 -376.879,-67.946 -587.733,-35.915c-177.329,26.936 -391.247,-144.578 -313.282,219.874c19.545,91.374 -116.796,55.459 -197.824,52.787c-271.387,-9.104 -544.846,-139.525 -816.579,9.48c-30.158,16.537 -95.568,1.002 -129.437,-21.299c-259.954,-171.013 -389.823,-115.178 -386.328,196.279c0.776,67.737 1.208,146.374 -84.307,168.048c-85.127,21.591 -113.603,-59.301 -163.739,-103.819c-319.624,-283.685 -925.392,-113.967 -982.863,300.516c-28.864,208.265 -120.29,250.611 -259.479,189.681c-172.583,-75.547 -399.056,174.479 -530.953,-101.23c-25.154,-52.62 -88.104,36.124 -133.493,63.686c-281.7,171.097 -452.428,110.752 -527.674,-190.056c-145.143,-580.234 -390.686,-1133.12 -499.802,-1722.95c-14.842,-80.224 -74.556,-109.374 -145.833,-127.665" style="fill:#0a5133;fill-rule:nonzero;"/></g><g><path d="M67247.4,47705c-329.117,170.441 -435.04,541.579 -546.745,852.579c-418.687,1166.12 -739.477,2369.88 -989.982,3592.66c-68.343,333.634 -67.911,683.973 -99.753,1026.6c-4.66,50.21 -13.375,99.949 -20.192,149.877c-72.787,-13.035 -86.594,-80.985 -95.784,-139.712c-100.228,-641.622 -228.889,-1280.37 -288.516,-1926.61c-116.537,-1262.63 -112.999,-2533.78 -67.049,-3798.96c51.645,-1422.67 169.822,-2843.23 438.276,-4242.38c191.222,104.326 220.087,324.787 284.676,507.604c467.615,1323.62 924.659,2651.66 1385.07,3978.34" style="fill:#067b44;fill-rule:nonzero;"/></g><g><path d="M68496.2,43893.6c20.585,-320.301 350.739,-294.212 484.764,-504.536c55.834,-87.594 150.937,54.803 144.85,169.709c-14.87,277.788 -256.822,503.101 -550.989,519.284c-26.202,-61.506 -52.442,-122.992 -78.625,-184.457" style="fill:#fafbfa;fill-rule:nonzero;"/></g><g><path d="M73774.5,45334.5c-132.544,-56.986 -219.742,-154.959 -239.071,-314.294c107.563,79.621 189.712,182.111 239.071,314.294" style="fill:#8bc7ae;fill-rule:nonzero;"/></g><g><path d="M73470.3,44924.6c-94.058,-30.963 -151.571,-93.314 -149.371,-206.815c76.671,45.927 136.988,105.784 149.371,206.815" style="fill:#8bc7ae;fill-rule:nonzero;"/></g><g><path d="M73164.1,44570.9c1.381,-26.494 2.718,-52.987 4.056,-79.48c64.934,31.576 122.577,69.692 121.326,160.7c-41.765,-27.058 -83.574,-54.163 -125.382,-81.22" style="fill:#8bc7ae;fill-rule:nonzero;"/></g><g><path d="M80284.9,20449.9c-37.45,29.223 -74.944,58.492 -112.395,87.715c18.725,-57.786 58.679,-83.244 112.395,-87.715" style="fill:#0a5133;fill-rule:nonzero;"/></g><g><path d="M75507.1,31998.1c-48.496,-34.728 -66.186,-82.632 -51.991,-144.183c45.691,35.905 57.902,86.162 51.991,144.183" style="fill:#0e663e;fill-rule:nonzero;"/></g><g><path d="M73532.1,45014.4c-40.859,-8.8 -60.749,-34.587 -55.27,-80.938c43.448,6.729 60.447,34.869 55.27,80.938" style="fill:#8bc7ae;fill-rule:nonzero;"/></g><g><path d="M80515.8,20264.7c-20.753,13.694 -43.103,18.494 -67.005,14.306c17.517,-31.717 38.874,-41.787 67.005,-14.306" style="fill:#0a5133;fill-rule:nonzero;"/></g><g><path d="M79123.1,32550.9c-3.927,25.599 -7.853,51.151 -11.736,76.797c-20.408,-33.552 -40.773,-67.15 -61.095,-100.937c24.335,7.952 48.583,16.046 72.831,24.14" style="fill:#0a5133;fill-rule:nonzero;"/></g><g><path d="M75580.1,32140.2c-10.398,-18.917 -20.796,-37.881 -31.108,-56.797c21.875,11.481 32.23,30.398 31.108,56.797" style="fill:#0e663e;fill-rule:nonzero;"/></g><g><path d="M79929.7,20756c-0.605,28.422 -13.807,41.128 -39.522,38.163c7.852,-19.246 21.012,-31.951 39.522,-38.163" style="fill:#0a5133;fill-rule:nonzero;"/></g><g><path d="M80010.6,20680.3c-19.286,16.987 -38.615,34.022 -57.901,51.009c19.329,-17.034 38.615,-34.022 57.901,-51.009" style="fill:#0a5133;fill-rule:nonzero;"/></g><g><path d="M80426.2,20293.8c-1.381,28.658 -15.188,42.587 -41.334,41.787c7.939,-20.753 21.745,-34.681 41.334,-41.787" style="fill:#0a5133;fill-rule:nonzero;"/></g><g><path d="M106896,48487.8c548.082,-134.301 1102.42,-209.169 1662.37,-268.366c960.297,-101.502 1875.46,-67.433 2670.86,637.622c354.615,314.293 558.005,722.371 654.738,1190.26c67.265,325.117 192.776,441.253 517.751,463.417c982.086,67.103 1903.51,357.822 2726.09,992.95c414.243,319.846 829.263,619.881 1094.18,1106.92c-121.542,228.462 -351.207,218.156 -524.352,200.557c-660.39,-67.056 -1325.66,-54.586 -1978.67,-251.002c-1580.22,-475.37 -3090.5,-1101.84 -4424.48,-2170.22c-686.02,-549.39 -1463.9,-899.212 -2269.39,-1180.33c-100.832,-35.199 -201.232,-68.233 -289.767,-134.348c-120.248,-252.32 -52.336,-443.512 160.675,-587.459" style="fill:#067b44;fill-rule:nonzero;"/></g><g><path d="M107565,50937.1c-191.352,-176.134 -274.019,-489.345 -568.317,-535.743c-236.785,-320.223 -537.598,-580.966 -734.774,-938.975c12.167,-267.049 175.345,-359.28 385.508,-397.114c1647.31,471.793 3011.62,1481.16 4293.57,2659.99c714.754,657.245 1426.7,1321.88 2213.21,1880.54c105.492,74.915 232.772,148.935 153.902,330.858c-663.713,50.209 -1264.74,-241.544 -1872.53,-448.642c-903.647,-307.893 -1717.51,-827.45 -2476.4,-1447.33c-459.547,-375.374 -866.758,-830.038 -1394.17,-1103.58" style="fill:#067b44;fill-rule:nonzero;"/></g><g><path d="M116448,52799.1c454.455,298.435 815.154,724.912 1198.89,1109.84c324.414,325.494 748.926,537.579 977.426,976.621c27.614,52.939 104.931,94.726 68.99,160.464c-46.209,84.515 -121.585,39.105 -186.303,10.541c-259.739,-114.725 -498.292,-275.095 -758.289,-394.479c-454.499,-208.603 -931.606,-249.449 -1404.4,-312.458c-685.588,-91.337 -1376.31,-137.077 -2064.83,-202.251c-1165.11,-323.658 -1982.98,-1241.83 -2887.32,-2010.51c-96.518,-82.068 -197.867,-190.205 -138.542,-358.057c30.634,-25.458 64.374,-41.41 102.256,-48.986c500.406,126.489 980.662,327.61 1458.33,520.685c1104.4,446.383 2230.64,624.635 3399.98,487.134c87.068,-10.211 161.107,17.364 233.808,61.457" style="fill:#067b44;fill-rule:nonzero;"/></g><g><path d="M106645,49102.5c-137.505,104.137 -297.577,180.464 -373.902,360.08c-237.863,341.21 -780.94,437.113 -1208.34,194.722c-608.184,-344.928 -1011.51,-1210.59 -665.05,-2108.62c113.517,-202.251 221.295,-408.69 341.974,-605.718c168.226,-274.53 389.607,-433.489 713.158,-378.714c126.115,21.363 258.228,-3.294 387.364,0.894c507.093,16.423 824.431,289.4 987.436,844.484c11.304,360.127 162.272,709.761 69.033,1078.03c-87.111,167.146 -138.325,348.174 -175.129,534.802c-3.969,51.151 -25.37,82.491 -76.541,80.044" style="fill:#e65a2e;fill-rule:nonzero;"/></g><g><path d="M106645,49102.7c25.543,-26.681 51.042,-53.363 76.541,-80.044c935.661,193.639 1777.48,638.987 2559.24,1206.35c998.05,724.395 2010.51,1396.13 3174.07,1772.07c593.731,191.804 1168.82,454.005 1785.85,554.801c658.018,107.479 1317.46,196.699 1981.82,54.963c118.306,1.318 208.999,41.975 225.826,188.087c-1084.52,183.051 -2148.84,118.16 -3192.71,-279.801c-662.98,-252.743 -1334.46,-478.805 -2002.14,-716.819c-12.814,-15.294 -28.692,-21.693 -47.633,-19.341c-0.043,-0.188 22.953,13.835 23.04,13.365c0.043,-0.471 25.758,4.47 25.758,4.47c187.21,302.765 454.542,517.862 717.17,726.842c706.255,562.143 1352.15,1234.02 2222.36,1512.27c35.25,11.294 57.513,70.586 85.774,107.432c-44.958,6.446 -89.916,13.034 -134.874,19.622c-22.868,-15.717 -47.633,-21.034 -74.254,-15.905c-254.173,-71.385 -508.302,-142.818 -762.431,-214.297c-10.916,-99.761 -71.924,-152.277 -145.531,-202.016c-949.942,-642.187 -1774.76,-1461.97 -2636.95,-2227.25c-1099.36,-975.727 -2262.83,-1817.39 -3640.61,-2252.9c-92.419,-29.223 -175.086,-73.268 -240.323,-151.9" style="fill:#139152;fill-rule:nonzero;"/></g><g><path d="M114070,54151.2c24.852,5.318 49.661,10.682 74.383,15.953c-24.852,-5.318 -49.617,-10.635 -74.383,-15.953" style="fill:#067b44;fill-rule:nonzero;"/></g><g><path d="M80105.7,49829.3c247.226,-254.814 564.176,-386.432 850.707,-571.978c372.953,157.688 705.608,-62.021 1049.05,-144.935c636.402,-153.688 1282.3,-227.568 1922.92,-140.748c681.058,92.279 1220.55,530.474 1591.52,1137.51c476.977,780.581 1103.07,992.102 1908.99,817.897c351.423,-75.95 670.918,-220.509 986.659,-388.408c480.128,-255.331 932.253,-89.785 1383.69,102.066c450.961,191.616 803.722,531.556 1075.89,948.434c267.116,409.066 618.97,647.222 1037.7,802.651c-68.386,158.535 -213.4,141.641 -334.726,163.993c-1218.27,224.18 -2448.44,391.609 -3678.96,265.119c-818.52,-84.137 -1569.86,-464.405 -2286.82,-936.857c-961.29,-633.481 -1899.5,-1324.42 -2980.17,-1719.37c-675.319,-246.814 -1369.58,-337.21 -2076.14,-352.598c-49.834,-1.082 -87.069,32.799 -121.111,69.174c-109.72,-17.317 -219.483,-34.634 -329.203,-51.951" style="fill:#067b44;fill-rule:nonzero;"/></g><g><path d="M86177.6,54708c-1647.01,185.687 -2690.66,-714.702 -3370.51,-2245.7c-211.458,-476.169 -494.581,-898.364 -758.504,-1335.99c-359.492,-596.071 -871.202,-973.656 -1478.05,-1212.33c164.601,-219.333 391.247,-128.09 575.523,-94.02c919.74,170.064 1768.63,546.143 2604.33,1005.8c1013.84,557.625 1638.98,1458.2 2127.78,2512.75c147.214,317.588 236.223,667.127 336.538,1007.73c35.422,120.371 58.851,251.613 -37.106,361.774" style="fill:#067b44;fill-rule:nonzero;"/></g><g><path d="M91974.5,52413c530.694,176.416 1075.28,118.395 1602.7,36.892c1192.16,-184.228 2433.51,568.872 2857.68,1791.84c41.938,120.937 102.472,272.272 5.868,357.774c-90.218,79.856 -188.935,-46.821 -273.501,-110.678c-926.774,-699.878 -1902.56,-761.193 -2926.8,-280.553c-334.424,156.935 -658.751,331.469 -970.049,536.026c-775.461,-529.909 -1557.91,-1043.44 -2451.07,-1313.78c-125.08,-37.834 -270.223,-108.843 -255.683,-273.495c15.187,-171.194 176.639,-181.734 303.057,-199.475c640.932,-89.926 1266.07,-262.907 1894.36,-419.748c83.962,-20.988 153.858,-59.668 213.443,-124.795" style="fill:#067b44;fill-rule:nonzero;"/></g><g><path d="M92040.8,54821.8c-448.846,385.774 -976.995,455.559 -1501.99,337.211c-671.306,-151.335 -1281.04,-493.534 -1859.29,-899.494c-414.114,-290.718 -843.588,-323.894 -1292.69,-61.41c-298.008,174.205 -585.964,381.538 -927.463,453.582c-69.724,-53.174 -122.75,-123.524 -146.179,-211.191c-175.388,-656.492 -484.01,-1243.43 -796.774,-1828.54c-58.204,-108.89 -149.501,-226.768 -48.971,-348.175c105.233,-127.195 240.711,-65.362 360.441,-11.717c369.371,165.405 729.51,353.774 1101.38,514.05c480.257,207.004 991.363,204.18 1489.4,277.73c1256.88,185.593 2379.71,735.266 3447.35,1446.16c103.205,68.75 231.09,150.111 174.784,331.798" style="fill:#067b44;fill-rule:nonzero;"/></g><g><path d="M92040.8,54821.6c-635.15,-584.636 -1385.41,-923.54 -2152.33,-1244.7c-772.268,-323.422 -1573.92,-417.536 -2383.98,-513.721c-612.801,-72.797 -1148.46,-416.313 -1703.27,-684.585c-88.923,-43.01 -196.227,-173.122 -280.75,-60.28c-70.845,94.538 71.062,165.029 113.647,248.837c338.263,665.104 715.358,1311.81 825.251,2084.34c-84.351,75.48 -178.236,94.914 -281.872,56.704c-271.129,-1168.66 -728.864,-2226.22 -1538.06,-3075.13c-401.343,-421.065 -915.901,-648.727 -1388.91,-940.575c-655.774,-404.596 -1396.11,-575.271 -2121.05,-776.957c-184.794,-51.434 -372.478,-35.764 -558.955,-1.506c-45.087,-10.87 -90.131,-21.835 -135.305,-32.799c-42.887,-150.535 34.732,-169.734 146.739,-173.264c1052.15,-33.175 2054.69,189.075 2979.7,740.536c919.999,548.496 1815.66,1145.46 2737,1690.99c909.601,538.614 1901.7,630.187 2918.52,570.283c461.92,-27.199 926.385,-65.55 1382.26,-118.819c435.687,-50.915 872.841,-150.111 1313.53,-199.098c21.573,3.529 42.067,10.588 61.656,21.082c-64.547,327.234 -353.797,357.915 -549.075,372.126c-426.583,31.011 -822.835,178.44 -1230.91,276.79c-132.587,31.951 -253.266,1.082 -378.087,12.517c-64.633,5.882 -172.368,47.292 -178.883,88.09c-13.548,85.173 83.487,114.819 147.041,132.278c770.326,211.38 1453.71,630.187 2136.8,1051.68c155.713,96.09 314.922,179.099 348.921,397.867c-63.684,70.962 -147.775,70.162 -229.623,77.314" style="fill:#139152;fill-rule:nonzero;"/></g><g><path d="M104397,47548.9c112.223,235.097 29.944,482.663 9.406,714.184c-46.986,529.673 219.785,895.353 545.019,1165.55c357.204,296.789 798.198,340.552 1218.7,66.492c28.994,-18.87 66.747,-21.835 100.357,-32.234c297.62,261.589 640.371,481.816 725.973,938.457c-1037.87,1387.9 -2413.49,2056.81 -4014.55,2265.04c-1446.08,188.134 -2793.09,-139.43 -4000.36,-998.408c-794.014,-564.919 -1459.02,-1294.54 -2019.01,-2159.54c-923.883,-1427.05 -2097.54,-2576.7 -3558.97,-3342.69c-63.554,-33.316 -129.654,-63.48 -187.253,-106.678c-34.862,-26.164 -79.993,-76.421 -77.835,-112.843c5.048,-84.749 78.741,-79.385 135.478,-74.632c351.336,29.552 703.665,50.774 1053.45,95.29c1232.72,156.888 2469.97,260.79 3704.63,392.55c636.66,67.95 1266.29,244.978 1890.91,409.725c919.611,242.484 1834.48,497.627 2768.76,676.35c571.381,109.266 1133.01,143.43 1705.3,103.384" style="fill:#06392c;fill-rule:nonzero;"/></g><g><path d="M74032.1,49379.8c60.663,-337.493 -104.542,-461.582 -378.907,-516.403c-352.286,-70.397 -628.376,-480.923 -604.344,-868.249c4.66,-74.632 -11.822,-177.734 70.371,-197.639c95.266,-23.011 87.759,87.667 114.25,152.982c116.106,286.53 187.857,581.013 559.343,653.951c333.13,65.409 517.578,-49.268 650.467,-346.716c46.512,-104.137 102.342,-278.53 183.586,-247.99c141.087,53.033 12.599,216.65 25.37,332.881c18.768,171.758 -90.477,297.4 -203.045,383.326c-186.649,142.442 -246.621,317.917 -224.229,557.626c54.321,581.059 -37.839,1080 -639.723,1278.49c-122.405,40.375 -154.463,162.911 -102.946,283.283c127.539,298.106 229.19,616.964 607.364,660.303c377.311,43.199 450.098,-307.658 623.932,-527.65c75.506,-95.572 26.621,-363.656 192.172,-297.635c166.068,66.256 17.906,273.589 -16.007,397.726c-63.381,231.896 -189.367,444.829 -347.928,615.975c-273.761,295.565 -589.546,124.796 -839.921,-15.011c-234.584,-131.006 -357.981,-96.702 -602.618,2.777c-425.03,172.746 -528.71,472.122 -617.849,883.024c-60.102,276.836 -188.461,557.202 -513.35,618.093c-345.9,64.798 -610.125,-80.796 -780.12,-386.855c-142.468,-256.508 -234.239,-272.742 -395.13,-25.74c-193.768,297.494 -487.678,352.739 -780.422,243.049c-272.208,-102.019 -347.842,-395.937 -407.297,-675.644c-16.87,-79.244 1.639,-171.852 83.099,-183.099c71.492,-9.882 63.899,84.797 85.126,141.454c34.862,93.172 78.267,184.133 128.834,268.365c197.91,329.588 344.779,339.564 626.78,95.479c206.625,-178.863 294.557,-431.089 384.43,-674.326c64.589,-174.817 64.977,-356.551 -187.728,-441.63c-282.864,-95.291 -462.049,-870.366 -285.41,-1101.37c12.469,-16.282 48.496,-35.246 53.932,-29.787c22.609,22.823 49.791,52.845 53.285,83.244c10.312,88.749 -5.004,183.616 16.741,267.754c63.77,246.579 124.648,516.403 404.493,566.613c297.706,53.41 554.553,-41.081 718.206,-342.81c35.897,-66.162 59.498,-141.971 102.428,-201.639c186.649,-259.613 143.891,-452.171 -110.453,-631.787c-247.097,-174.487 -358.499,-432.877 -277.687,-762.276c16.74,-68.233 -5.911,-177.876 95.05,-168.558c81.718,7.529 89.571,105.69 99.063,180.887c18.984,150.676 9.535,307.517 130.646,424.642c158.82,153.594 341.758,264.413 545.924,181.216c218.275,-88.984 354.099,-286.153 399.229,-546.331c13.936,-80.421 -30.331,-212.98 81.546,-222.486c131.767,-11.152 109.029,138.207 135.392,227.85c28.648,97.361 39.262,201.969 74.469,295.989c100.789,269.166 263.406,452.359 556.021,435.042c279.758,-16.565 420.5,-199.946 475.424,-478.005c22.134,-111.949 25.974,-228.133 38.141,-342.387" style="fill:#8bc7ae;fill-rule:nonzero;"/></g><g><path d="M89170.3,26686.7c82.106,-0 166.155,12.517 245.974,-2.212c315.526,-58.209 447.768,93.267 480.387,429.725c41.937,432.359 136.858,855.684 271.215,1266.91c80.035,244.837 49.919,408.548 -238.77,377.82c-603.006,-64.186 -1220.77,-26.116 -1794.91,-293.447c-436.162,-203.051 -593.428,-535.556 -523.791,-1081.7c38.745,-303.753 365.705,-566.331 757.21,-614.094c139.189,-16.987 276.565,-51.668 415.797,-67.573c128.229,-14.635 257.84,-14.87 386.803,-21.506c0.043,2.024 0.043,4.047 0.086,6.071" style="fill:#0a5133;fill-rule:nonzero;"/></g><g><path d="M79188.7,23417.9c-0.647,12.846 -0.216,25.787 -1.942,38.398c-20.02,146.865 36.976,376.315 -108.684,410.572c-166.112,39.058 -162.056,-203.568 -221.813,-329.681c-91.513,-193.122 -174.482,-391.043 -262.241,-586.283c-35.983,-79.997 -89.398,-163.052 -14.065,-243.237c66.876,-71.15 157.007,-49.975 234.239,-24.941c342.448,110.82 374.851,414.102 374.506,735.172" style="fill:#0a5133;fill-rule:nonzero;"/></g><g><path d="M70270.7,43162.3c82.063,65.457 189.022,114.208 241.617,201.781c67.178,111.854 -44.958,173.169 -115.2,235.426c-35.466,31.481 -81.243,57.927 -101.824,98.866c-46.554,92.75 11.779,301.73 -187.167,217.78c-170.167,-71.856 -37.839,-217.685 -38.356,-329.634c-0.734,-169.217 -37.451,-363.28 200.93,-424.219" style="fill:#fafbfa;fill-rule:nonzero;"/></g><g><path d="M77105.4,23126c-25.715,40.704 -67.955,92.702 -103.637,61.692c-64.028,-55.716 -11.52,-102.396 36.717,-138.113c22.307,25.458 44.613,50.916 66.92,76.421" style="fill:#06392c;fill-rule:nonzero;"/></g><g><path d="M79503.3,18325.9c-377.353,72.468 -754.405,32.516 -1129.47,48.328c-75.29,3.2 -182.55,36.704 -225.092,-58.116c-49.273,-109.831 64.071,-148.229 118.823,-202.015c305.042,-299.753 619.489,-588.354 920.043,-893.283c141.82,-143.9 220.648,-113.784 333.69,43.198c231.909,322.199 486.168,625.199 729.079,938.081c42.24,54.445 125.943,107.902 73.866,191.381c-44.182,70.774 -130.215,38.257 -196.443,29.363c-209.732,-28.187 -418.645,-64.373 -624.494,-96.937" style="fill:#067b44;fill-rule:nonzero;"/></g><g><path d="M72414.8,52103.2c-25.413,257.307 -112.783,492.827 -260.774,696.584c-77.231,106.302 -202.57,136.795 -319.711,135.854c-377.353,-3.153 -820.073,-855.685 -619.1,-1206.64c96.302,-168.134 320.315,-148.841 451.824,-276.177c242.048,-234.391 315.871,52.516 387.493,176.228c102.903,177.593 408.721,166.676 360.268,474.147" style="fill:#fafbfa;fill-rule:nonzero;"/></g><g><path d="M72517,51578.4c-270.469,-1.897 -472.104,-330.927 -474.119,-773.803c-1.211,-266.7 387.353,-613.501 695.067,-620.342c122.061,-2.681 576.907,413.386 576.788,527.688c-0.552,519.851 -322.762,869.848 -797.736,866.457" style="fill:#fafbfa;fill-rule:nonzero;"/></g><g><path d="M21316.2,49100.3c-441.943,-1545.76 133.882,-3348.1 1377.78,-4312.42c1243.94,-964.356 3070.78,-1024.66 4371.11,-144.327c-779.819,-1958.24 115.588,-4464.85 1936.21,-5420.31c1820.63,-955.419 4293.79,-216.491 5347.89,1597.75c-1000.77,-1994.49 -521.547,-4579.57 881.513,-6292.54c1403.06,-1712.97 3582.23,-2606.67 5743.41,-2737.55c1649.81,-99.936 3373.06,235.075 4711.66,1241.99c1338.64,1006.87 2214.85,2761.19 1941.39,4454.57c1329.37,-1135.29 3337.33,-1323.09 4840.49,-452.57c1503.03,870.477 2405.34,2743.73 2175.03,4515.55c1093.1,-935.624 2755.47,-1074.11 3978.09,-331.419c1222.62,742.686 1921.89,2315.8 1673.37,3764.38c1583.97,-1610.95 4302.54,-2607.48 6162.57,-1400.56c7292.57,4731.95 6573.94,16921.2 3081.12,16842.2c-4968.44,-112.292 -10057.8,3780.31 -14437.1,1094.49c-3285.49,-2015 -8591.66,3501.95 -16720,534.208c-10086.6,-3682.73 -10391.6,-2540.09 -14775.7,-1628.7c-3518.42,731.424 -5566.57,1046.48 -8341.33,-1441.28c-6044.85,-5419.62 1229.66,-11302.3 6052.47,-9883.52" style="fill:#06392c;fill-rule:nonzero;"/></g><g><path d="M124756,28719.5c6.644,-370.95 142.683,-709.761 222.201,-1062.64c364.497,-179.664 453.981,-592.4 640.458,-917.705c345.555,-602.8 749.918,-1157.04 1255.72,-1594.53c537.727,-465.158 1202.43,-577.719 1859.41,-440.783c844.796,176.04 1421.96,-162.817 1872.88,-911.823c196.659,-326.623 326.053,-676.444 437.542,-1039.77c169.52,-552.449 594.68,-788.158 1036.58,-1004.9c441.382,-216.462 910.938,-252.602 1374.33,-172.181c454.714,78.914 857.093,-27.905 1252.22,-244.65c55.787,164.276 -56.91,265.26 -127.324,375.28c-707.29,1104.85 -1460.01,2179.21 -2405.21,3047.83c-628.722,577.719 -1404.01,895.73 -2215.5,1122.31c-1088.05,303.8 -2197.51,549.391 -3213.2,1113.23c-634.762,352.363 -1180.47,829.097 -1685.8,1367.95c-35.595,38.022 -39.522,90.773 -39.608,142.677c-88.233,73.267 -176.467,146.488 -264.7,219.709" style="fill:#067b44;fill-rule:nonzero;"/></g><g><path d="M132202,27415.7c-1032.96,1411.38 -2353.26,1592.17 -3831.01,1048.01c-459.633,-169.263 -934.195,-244.884 -1405.35,-346.339c-641.837,-138.112 -1247.39,-4.706 -1828.82,300.082c-28.045,-281.73 190.489,-394.149 341.931,-513.626c755.829,-596.26 1596.79,-993.044 2483.13,-1320.98c1075.24,-397.867 2102.37,-252.931 3134.59,105.878c310.909,108.09 601.885,283.848 894.932,444.594c103.55,56.751 205.805,130.537 210.595,282.389" style="fill:#067b44;fill-rule:nonzero;"/></g><g><path d="M134764,21297.4c487.333,-289.212 831.076,-753.523 1147.46,-1220.94c715.099,-1056.52 2077.65,-1494.34 3174.72,-967.162c108.512,52.139 249.944,111.148 238.122,246.249c-11.002,126.16 -163.048,114.113 -264.096,135.147c-1107.3,230.438 -1831.28,946.505 -2234.87,2080.2c-131.724,370.104 -244.896,744.771 -329.332,1130.31c-890.099,231.85 -1774.33,480.593 -2577.1,985.938c-112.438,70.774 -260.601,133.924 -358.067,7.2c-101.35,-131.76 4.961,-264.79 81.977,-375.562c390.384,-561.625 715.358,-1169.18 1053.19,-1767.88c45.131,-79.997 68.861,-161.499 67.998,-253.496" style="fill:#067b44;fill-rule:nonzero;"/></g><g><path d="M136386,22934c-62.302,619.552 -386.802,1079.35 -832.197,1404.79c-569.482,416.172 -1220.64,650.657 -1891.38,815.921c-480.43,118.349 -803.118,429.254 -946.232,962.551c-94.965,353.962 -161.193,723.266 -353.408,1039.39c-83.66,16.988 -166.845,8.941 -240.582,-34.257c-552.267,-323.705 -1152.43,-494.992 -1754.31,-661.809c-112.006,-31.011 -253.05,-42.634 -262.024,-205.922c-9.406,-171.005 125.985,-233.073 244.982,-288.6c367.085,-171.429 742.67,-319.564 1108.16,-496.499c471.973,-228.555 828.358,-628.116 1225.52,-963.962c1002.32,-847.684 2148.79,-1335.9 3361.97,-1668.17c117.313,-32.14 260.169,-74.585 339.514,96.561" style="fill:#067b44;fill-rule:nonzero;"/></g><g><path d="M136386,22934.1c-827.494,84.326 -1575,430.477 -2322.54,801.945c-752.809,374.056 -1376.27,931.728 -2006.93,1494.48c-477.107,425.724 -1077.18,601.623 -1641.48,845.19c-90.477,39.01 -250.764,31.293 -236.224,176.134c12.21,121.407 157.741,60.421 242.394,86.02c672.083,203.051 1359.27,362.951 1941.52,818.933c-9.751,118.49 -62.778,205.169 -160.417,259.002c-954.386,-608.165 -1966.8,-993.326 -3089.16,-958.833c-556.624,17.128 -1066.22,257.825 -1588.59,421.207c-724.204,226.579 -1354.74,682.891 -1994.76,1105.46c-163.135,107.714 -284.418,264.743 -392.714,433.772c-38.745,27.434 -77.49,54.821 -116.321,82.255c-128.489,-72.138 -86.637,-146.018 -10.441,-235.614c715.746,-841.708 1563.74,-1465.83 2572.79,-1798.89c1003.44,-331.235 2021.69,-609.624 3024.22,-943.964c989.723,-330.104 1744.99,-1037.7 2418.5,-1870.7c305.991,-378.385 606.459,-766.605 891.135,-1158.54c272.035,-374.62 513.565,-784.251 790.389,-1161.41c17.431,-14.258 36.415,-25.27 57.039,-33.128c168.744,279.565 -13.936,526.05 -141.518,687.926c-278.679,353.633 -459.978,765.193 -681.705,1151.53c-72.054,125.548 -176.812,197.828 -256.804,302.906c-41.42,54.398 -89.873,167.241 -67.739,200.886c46.166,70.256 133.579,15.529 189.54,-21.646c678.166,-451.088 1431.02,-689.196 2185.47,-925.187c171.937,-53.786 337.832,-119.431 504.721,7.435c1.769,99.29 -57.686,164.135 -110.368,232.838" style="fill:#139152;fill-rule:nonzero;"/></g><g><path d="M125466,29236.6c-137.506,104.137 -297.534,180.464 -373.902,360.08c-237.863,341.21 -780.94,437.112 -1208.34,194.722c-608.184,-344.928 -1011.51,-1210.59 -665.05,-2108.62c113.516,-202.251 221.295,-408.69 341.974,-605.718c168.225,-274.53 389.607,-433.489 713.158,-378.714c126.115,21.363 258.228,-3.294 387.363,0.894c507.094,16.422 824.432,289.4 987.437,844.484c11.304,360.127 162.271,709.761 69.033,1078.03c-87.068,167.146 -138.326,348.174 -175.086,534.802c-4.012,51.151 -25.413,82.491 -76.584,80.044" style="fill:#e65a2e;fill-rule:nonzero;"/></g><g><path d="M119274,40176.5c91.211,-357.444 300.425,-648.539 458.08,-968.715c394.094,-74.82 575.091,-450.194 829.997,-714.513c472.447,-489.816 990.758,-916.576 1580.61,-1202.73c627.039,-304.271 1296.49,-232.509 1901.44,78.726c777.877,400.173 1414.28,228.979 2022.2,-373.773c265.088,-262.814 470.333,-566.425 661.383,-887.966c290.458,-488.875 756.088,-601.576 1233.54,-691.267c476.935,-89.643 939.933,3.012 1370.27,206.91c422.398,200.086 836.469,206.062 1268.66,103.572c16.438,174.299 -115.761,241.45 -209.128,328.834c-937.474,877.66 -1912.01,1713.39 -3025.95,2297.56c-740.901,388.549 -1564.43,485.675 -2402.1,484.451c-1123.13,-1.647 -2253.68,-65.503 -3366.2,204.369c-695.296,168.605 -1332.73,481.91 -1945.23,866.366c-43.189,27.105 -59.067,77.126 -71.018,127.383c-102.17,46.963 -204.382,93.879 -306.552,140.794" style="fill:#067b44;fill-rule:nonzero;"/></g><g><path d="M126783,40938.6c-1322.98,1085.93 -2642.9,902.035 -3949.62,-26.823c-406.391,-288.835 -848.679,-491.133 -1281.82,-717.477c-589.933,-308.318 -1206.88,-343.752 -1839.61,-206.722c37.235,-280.459 274.537,-329.869 448.501,-404.407c868.268,-371.939 1773.38,-527.509 2706.67,-604.118c1132.28,-92.89 2093.87,326.764 3011.45,954.927c276.393,189.216 518.01,438.571 765.063,673.856c87.284,83.15 169.434,182.393 139.361,330.764" style="fill:#067b44;fill-rule:nonzero;"/></g><g><path d="M130663,35710.2c538.072,-147.524 977.082,-503.745 1390.33,-870.366c934.021,-828.721 2353.61,-882.225 3295.57,-73.362c93.152,79.997 216.593,175.57 174.31,303.188c-39.522,119.195 -183.974,66.209 -286.662,59.057c-1124.99,-77.927 -1989.84,418.713 -2639.79,1406.86c-212.192,322.576 -407.47,654.657 -577.335,1005.09c-914.994,-17.552 -1828.18,-17.081 -2721.12,254.014c-125.036,37.975 -282.95,58.821 -348.402,-90.397c-67.998,-155.146 65.322,-255.048 165.248,-341.398c506.446,-437.771 960.039,-937.752 1424.07,-1425.68c62,-65.221 103.55,-137.689 123.785,-227.003" style="fill:#067b44;fill-rule:nonzero;"/></g><g><path d="M131860,37735.9c-201.966,583.036 -621.344,940.058 -1127.06,1134.17c-646.628,248.131 -1330.84,298.2 -2018.19,275.848c-492.251,-16 -875.861,197.31 -1136.33,674.891c-172.886,316.929 -321.48,656.586 -579.881,910.459c-84.868,-6.306 -163.566,-36.705 -225.135,-98.632c-460.841,-463.652 -1002.88,-792.722 -1547.64,-1117.89c-101.35,-60.515 -235.318,-110.113 -206.669,-270.718c29.987,-168.135 175.302,-191.428 303.186,-212.886c394.699,-66.162 792.331,-107.478 1186.68,-179.476c509.294,-92.984 945.758,-382.996 1407.2,-600.305c1164.42,-548.355 2386.27,-709.384 3637.11,-701.291c120.938,0.753 269.014,-1.505 306.724,185.828" style="fill:#067b44;fill-rule:nonzero;"/></g><g><path d="M131860,37736c-820.634,-143.336 -1623.66,-11.388 -2432.52,145.076c-814.551,157.594 -1545.79,528.074 -2285.18,901.565c-559.343,282.577 -1180.69,289.73 -1782.87,372.174c-96.518,13.176 -249.987,-37.834 -269.015,106.349c-15.921,120.889 138.973,101.407 215.082,149.217c604.431,379.374 1233.41,721.102 1693.04,1320.98c-36.544,112.137 -107.735,181.64 -214.607,207.239c-785.212,-848.485 -1677.6,-1496.79 -2772.42,-1768.54c-542.948,-134.818 -1091.46,-40.28 -1634.71,-24.046c-753.111,22.446 -1468.04,292.93 -2184.43,528.121c-182.637,59.95 -335.977,179.004 -479.523,313.305c-43.793,16.047 -87.543,31.999 -131.423,48.045c-107.951,-104.796 -50.523,-164.981 43.707,-231.002c885.612,-620.541 1849.49,-994.362 2902.77,-1042.55c1047.54,-47.951 2097.19,-40.657 3144.51,-91.855c1033.95,-50.539 1927.11,-530.426 2769.79,-1153.98c382.79,-283.284 762.517,-577.484 1127.79,-879.684c349.093,-288.788 676.656,-619.834 1030.97,-909.799c20.106,-9.082 41.032,-14.588 62.778,-16.564c99.537,316.599 -133.709,505.674 -294.298,627.74c-350.733,266.672 -620.395,615.929 -923.365,929.799c-98.502,101.972 -216.463,143.476 -317.985,223.52c-52.552,41.41 -125.253,137.501 -111.532,176.135c28.649,80.561 125.813,51.339 188.504,30.54c759.885,-252.461 1543.37,-278.295 2327.93,-301.683c178.84,-5.364 354.487,-23.811 487.117,144.418c-20.969,96.608 -93.367,143.289 -160.114,195.475" style="fill:#139152;fill-rule:nonzero;"/></g><g><path d="M116783,43334.4c197.22,-168.229 437.715,-240.932 659.312,-355.374c263.362,143.429 520.943,7.388 777.791,-27.67c475.985,-64.985 953.912,-70.726 1417.82,40.846c493.243,118.63 860.976,480.122 1094.57,952.668c300.339,607.647 745.777,809.522 1347.27,742.23c262.284,-29.316 505.454,-111.337 747.373,-210.721c367.862,-151.1 688.738,4.047 1007.46,178.393c318.33,174.205 555.417,449.724 728.604,775.499c169.952,319.752 412.777,520.591 709.793,665.856c-60.059,111.055 -165.249,87.809 -255.553,95.055c-906.754,73.08 -1818.68,103.667 -2712.37,-81.173c-594.421,-122.96 -1121.02,-457.817 -1616.63,-857.708c-664.447,-536.167 -1308.4,-1112.71 -2075.36,-1483c-479.307,-231.427 -982.302,-349.634 -1499.06,-413.819c-36.415,-4.518 -65.841,17.552 -93.066,41.598c-79.302,-20.893 -158.647,-41.787 -237.949,-62.68" style="fill:#067b44;fill-rule:nonzero;"/></g><g><path d="M120925,47363.8c-1218.48,12.705 -1926.51,-725.149 -2328.28,-1897.86c-124.951,-364.738 -305.818,-695.266 -471.671,-1035.68c-225.869,-463.699 -577.033,-778.699 -1006.68,-999.019c134.443,-148.371 294.773,-64.563 427.662,-25.788c663.152,193.499 1261.54,532.638 1844.92,931.964c707.721,484.499 1109.11,1191.2 1400.9,2000.49c87.845,243.708 131.034,506.522 183.111,763.594c18.38,90.867 27.268,188.746 -49.963,262.296" style="fill:#067b44;fill-rule:nonzero;"/></g><g><path d="M125317,46116.3c377.742,169.029 780.422,167.241 1172.01,147.053c885.094,-45.692 1747.24,599.036 1981.04,1526.9c23.127,91.761 57.989,207.192 -18.207,262.578c-71.148,51.763 -135.478,-48.468 -193.423,-101.596c-635.021,-582.189 -1346.11,-700.208 -2126.88,-424.736c-254.905,89.973 -503.555,193.545 -744.525,320.129c-534.836,-446.336 -1075.84,-881.189 -1713.24,-1146.17c-89.269,-37.081 -191.136,-99.996 -170.124,-219.521c21.875,-124.325 140.871,-119.948 234.627,-123.478c475.295,-17.881 944.204,-97.831 1414.45,-165.734c62.864,-9.035 116.494,-32.14 164.257,-75.433" style="fill:#067b44;fill-rule:nonzero;"/></g><g><path d="M125213,47886.1c-353.149,249.073 -744.525,260.649 -1121.79,134.63c-482.328,-161.17 -907.574,-457.582 -1305.68,-798.322c-285.107,-244.037 -597.742,-300.505 -943.298,-141.782c-229.363,105.313 -453.42,235.661 -708.153,262.86c-47.719,-44.139 -82.149,-99.667 -93.799,-165.64c-87.198,-494.193 -276.392,-947.352 -468.693,-1399.52c-35.812,-84.138 -95.267,-177.311 -13.98,-258.767c85.084,-85.314 180.479,-29.834 264.83,18.4c260.256,148.888 512.271,313.87 774.641,459.135c338.867,187.616 713.546,223.85 1073.86,315.046c909.213,230.109 1697.36,716.96 2434.85,1317.74c71.32,58.115 159.898,127.336 107.217,256.225" style="fill:#067b44;fill-rule:nonzero;"/></g><g><path d="M125213,47886.1c-428.568,-475.934 -956.975,-780.44 -1498.71,-1073.18c-545.493,-294.812 -1126.97,-423.843 -1714.44,-554.943c-444.445,-99.197 -815.284,-391.044 -1204.89,-629.152c-62.476,-38.163 -132.89,-141.548 -201.923,-65.174c-57.859,63.95 41.636,126.207 67.61,190.816c205.935,512.686 441.554,1014.74 473.439,1589.02c-66.574,49.033 -136.556,56.233 -210.077,20.47c-125.123,-876.625 -393.922,-1685.77 -933.418,-2368.38c-267.547,-338.575 -630.275,-543.932 -958.485,-793.193c-455.016,-345.539 -986.703,-526.05 -1505.19,-728.112c-132.199,-51.528 -270.697,-54.069 -409.497,-42.963c-32.36,-11.341 -64.676,-22.776 -97.079,-34.164c-21.918,-113.501 36.157,-121.783 118.436,-115.995c773.044,54.492 1493.62,292.412 2136.67,765.758c639.551,470.758 1258.26,975.256 1899.02,1443.99c632.561,462.758 1353.75,604.117 2102.54,636.398c340.205,14.635 682.913,21.364 1020.31,16.423c322.429,-4.658 649,-44.61 974.967,-47.527c15.575,4.188 30.159,10.917 43.836,20.093c-67.912,234.908 -281.743,235.755 -425.764,231.52c-314.49,-9.176 -614.138,69.174 -919.265,110.631c-99.193,13.506 -185.7,-18.164 -277.86,-19.105c-47.719,-0.517 -129.265,21.693 -136.6,51.151c-15.316,61.362 53.933,90.35 99.409,107.902c551.102,212.603 1025.45,570.613 1499.45,930.599c108.08,82.067 219.483,154.817 230.615,317.634c-51.085,47.246 -112.697,40.375 -173.102,39.481" style="fill:#139152;fill-rule:nonzero;"/></g><g><path d="M117318,21165.8c14.233,-49.039 28.466,-98.078 42.699,-147.116c10.468,-52.868 23.946,-104.737 40.981,-155.54c171.814,-511.37 342.325,-1023.37 516.786,-1533.52c26.196,-76.584 51.624,-145.084 24.359,-218.721c291.564,-914.013 374.877,-1836.07 343.655,-2761.8c-2.639,-78.185 -11.877,-151.327 32.928,-223.139c217.107,-16.811 190.983,242.286 227.216,416.228c182.167,873.487 122.545,1807.3 78.774,2738.86c-59.487,1265.69 -122.051,2533.28 -52.446,3777.02c75.931,1357.07 531.683,2417.61 1142.19,3368.8c476.65,742.661 929.022,1514.5 1277.24,2399.94c367.262,933.877 498.51,1970.73 514.736,3076.15c17.388,1184.27 -171.267,2379.44 -237.133,3567.37c-5.235,94.462 -24.941,181.888 -89.751,246.306c-157.614,93.228 -307.541,106.259 -447.104,9.734c-164.454,-237.974 -171.176,-552.551 -152.051,-884.602c50.853,-881.663 154.974,-1767.65 113.727,-2641.25c-36.828,-779.663 -349.192,-1316.45 -707.04,-1800.64c-390.704,-528.607 -889.01,-874.404 -1367.49,-1254.1c-443.583,-351.979 -907.27,-684.499 -1166.6,-1335.98c-324.743,-815.685 -330.989,-1688.62 -31.153,-2637.1c125.236,-396.07 289.676,-775.894 295.471,-1215.32c8.723,-661.703 -231.241,-1168.88 -378.47,-1734.18c-87.182,-334.67 -206.766,-660.301 -21.537,-1057.41" style="fill:#067b44;fill-rule:nonzero;"/></g><g><path d="M121192,35671.7c-48.616,-806.374 136.674,-1625.82 184.693,-2438.69c105.994,-1794.46 -0.092,-3473.7 -711.346,-4905.22c-458.018,-921.816 -1003.29,-1741 -1487.27,-2631.23c-342.472,-630.011 -562.519,-1346.89 -650.331,-2148.81c-175.563,-1602.99 -27.716,-3269.22 43.601,-4918.14c30.994,-717.25 7.912,-1410.25 -109.389,-2079.73c-27.161,-154.933 -39.483,-325.427 -142.46,-423.909c-7.599,-132.862 -15.241,-265.684 -22.85,-398.499c219.74,6.337 267.2,255.087 329.701,461.594c188.941,624.378 214.878,1316.02 204.325,2015.81c-16.374,1084.92 -93.016,2177.98 -111.782,3253.53c122.947,-543.246 224.213,-1103.64 399.027,-1647.16c150.312,-467.314 181.335,-953.102 215.975,-1435.34c12.572,-174.982 -11.669,-370.931 152.6,-485.493c40.349,132.742 80.699,265.484 121.026,398.172c62.399,775.765 -143.05,1532.01 -358.132,2273.61c-215.02,741.324 -337.45,1488.03 -408.889,2244c-82.107,868.72 135.282,1600.14 380.748,2313.83c16.536,48.193 34.911,136.801 87.139,95.497c40.505,-32.035 24.015,-122.063 22.257,-184.396c-18.496,-650.85 66.977,-1299.14 252.916,-1936.79c59.212,-203.12 107.157,-499.485 356.44,-406.221l9.616,183.147c-16.35,302.071 -95.379,595.557 -164.103,888.755c-122.46,522.207 -146.747,1032.28 -113.413,1546.43c30.378,468.85 125.8,887.265 342.308,1222.72c473.188,733.217 915.358,1499.04 1282.04,2449.84c37.226,-499.364 90.164,-911.586 134.262,-1322.51c68.327,-636.493 268.515,-1230.94 445.996,-1832.78c50.815,-172.283 121.289,-403.595 317.62,-303.421c10.189,19.844 14.063,42.766 11.58,68.808c2.402,155.401 -18.477,305.414 -64.656,461.311c-437.271,1476.19 -590.448,2970.58 -489.29,4439.03c111.933,1625.52 -67.058,3272.95 -192.775,4919.92c-11.478,150.172 -26.807,330.436 -197.428,334.885c-31.302,-10.781 -54.542,-34.982 -69.762,-72.565" style="fill:#139152;fill-rule:nonzero;"/></g><g><path d="M119940,22688.2c-198.541,45.583 -234.917,273.311 -289.109,469.12c-210.363,759.822 -256.352,1519.42 -223.153,2276.81c2.61,59.207 51.316,125.187 -1.032,174.172c-73.852,69.079 -94.031,-38.249 -121.557,-88.328c-330.089,-600.058 -528.407,-1301.96 -562.98,-2084.09c-44.529,-1006.96 162.433,-2005.35 454.931,-2998.5c176.663,-599.839 320.909,-1221.03 345.663,-1851.64c4.157,-106.652 5.248,-206.112 64.791,-297.064c130.033,141.988 50.882,431.347 171.84,579.768c38.639,445.443 -3.343,910.084 55.568,1354.24c41.586,313.284 -56.37,658.053 -52.168,994.464c6.366,513.647 15.599,1014.38 157.206,1471.05" style="fill:#067b44;fill-rule:nonzero;"/></g><g><path d="M119487,17890.5c-127.031,306.212 -65.188,618.597 -89.725,921.71c-50.705,626.871 -272.255,1197.03 -402.384,1795.14c-89.355,410.807 -176.833,822.02 -269.159,1232.13c-14.477,64.252 -4.795,182.151 -86.266,168.508c-43.089,-7.207 -23.957,-106.564 -21.521,-170.608c36.155,-953.567 76.803,-1907.79 104.827,-2860.25c28.091,-954.227 59.913,-1910.46 -187.357,-2780.86c-53.822,-189.411 -123.228,-349.295 -238.284,-468.771c-15.469,-12.144 -17.133,-29.401 -5.003,-51.723c-20.759,-34.039 -18.076,-69.424 7.96,-106.075l3.963,-19.595l14.457,-0.673c30.74,-13.993 53.783,-4.112 69.111,29.739c425.159,712.539 901.568,1374.52 1099.38,2311.32" style="fill:#067b44;fill-rule:nonzero;"/></g><g><path d="M121468,36716.6c-420.97,-71.874 43.802,-385.362 88.325,-471.711c153.248,-297.211 -110.619,-430.14 -323.463,-539.423c99.873,-3.468 125.935,-71.978 133.792,-203.815c103.067,-1728.8 341.9,-3471.32 169.62,-5169.63c-51.91,-511.949 -4.487,-1070.22 36.423,-1616.56c80.168,-1070.95 258.012,-2114.82 632.828,-3126.26c369.947,645.348 366.652,1444.43 269.4,2276.67c-57.275,490.229 -126.155,980.762 -203.717,1469.76c-37.938,239.149 -3.694,431.829 76.553,614.859c105.086,239.691 198.44,491.118 312.644,721.42c323.689,652.77 357.087,1423.49 215.116,2229c-191.419,1085.99 -422.325,2168.86 -814.521,3198.52c-56.382,148.105 -329.635,345.288 -479.564,409.995" style="fill:#067b44;fill-rule:nonzero;"/></g><g><path d="M122194,25520.4c-172.275,32.004 -213.744,233.039 -267.079,399.144c-318.111,990.274 -495.533,2000.94 -531.06,3030.48c-3.715,107.687 38.127,267.874 -69.823,306.695c-110.834,39.826 -86.529,-153.217 -121.322,-241.329c-279.119,-706.651 -580.989,-1399.11 -994.126,-1955.65c-684.858,-922.576 -800.977,-2067.51 -487.324,-3415.69c60.629,-260.517 52.836,-552.007 226.021,-772.684c150.758,392.556 405.886,669.534 577.632,1038.87c47.048,136.96 -31.752,278.282 -36.099,418.043c-24.805,797.34 539.174,1223.41 1081.72,813.627c78.081,-58.974 152.138,-142.929 242.932,-105.282c142.944,137.274 292.439,265.197 378.526,483.778" style="fill:#067b44;fill-rule:nonzero;"/></g><g><path d="M120731,36085.8c-333.801,221.711 -397.783,-105.103 -574.309,120.631c-106.778,-38.983 -198.217,-95.839 -259.041,-232.027c-234.917,-525.943 -478.082,-1044.09 -717.805,-1565.49c-37.667,-81.967 -56.909,-199.614 -112.648,-243.156c-234.384,-183.114 -149.471,-406.111 5.485,-649.509c-18.808,-144.43 48.008,-261.028 118.976,-353.556c245.534,-320.07 324.256,-718.704 394.441,-1119.38c165.611,-945.441 -464.505,-1672.33 -1142.02,-1324.58c-233.852,120.045 -453.28,277.944 -647.643,511.869c-74.731,89.985 -146.958,197.555 -254.276,193.779c-277.31,-437.898 -452.524,-971.314 -658.772,-1476.42c-261.495,-640.486 -359.944,-1383.25 -526.876,-2082.2c-63.055,-264.034 -41.145,-578.339 -68.902,-865.754c-100.052,-1036.27 -50.444,-2106.53 190.489,-3147.12c194.517,-840.027 297.78,-1730.15 692.965,-2511.4c41.967,-83 65.179,-168.48 146.688,-175.579c-18.356,406.076 40.526,764.852 147.506,1131.03c153.36,524.682 374.19,1012.99 354.267,1656.61c-12.972,417.172 -138.057,782.744 -270.588,1135.24c-301.067,800.796 -320.227,1575.15 -148.718,2307.55c130.163,555.673 453.539,925.489 802.401,1250.19c461.593,429.639 995.071,712.801 1438,1178.56c454.725,478.197 863.725,1010.92 1072.64,1773.36c101.821,371.534 111.079,791.495 95.923,1200.29c-26.293,708.338 -90.546,1421.89 -149.437,2133.7c-22.52,271.933 279.972,416.986 157.033,829.613" style="fill:#0a5133;fill-rule:nonzero;"/></g><g><path d="M117402,20871.5c31.409,65.84 18.982,118.036 -40.971,155.493c-42.562,-69.243 -26.019,-120.202 40.971,-155.493" style="fill:#0a5133;fill-rule:nonzero;"/></g></g></g></svg>