<?xml version="1.0" encoding="UTF-8" standalone="no"?>
<!DOCTYPE svg PUBLIC "-//W3C//DTD SVG 1.1//EN" "http://www.w3.org/Graphics/SVG/1.1/DTD/svg11.dtd">
<svg width="100%" height="100%" viewBox="0 0 11012 1786" version="1.1" xmlns="http://www.w3.org/2000/svg" xmlns:xlink="http://www.w3.org/1999/xlink" xml:space="preserve" xmlns:serif="http://www.serif.com/" style="fill-rule:evenodd;clip-rule:evenodd;stroke-linejoin:round;stroke-miterlimit:2;">
    <g id="Page-1" serif:id="Page 1" transform="matrix(3.69323,0,0,3.69323,-368.712,-819.889)">
        <clipPath id="_clip1">
            <rect x="99.835" y="221.998" width="2981.67" height="483.588"/>
        </clipPath>
        <g clip-path="url(#_clip1)">
            <g>
                <rect x="0" y="0" width="3321.01" height="1770.91" style="fill:none;"/>
                <g transform="matrix(1,0,0,1,17.6639,-863.646)">
                    <g id="Backgrounds">
                        <rect x="77.714" y="935.151" width="3139.14" height="750.123" style="fill:rgb(204,230,223);"/>
                    </g>
                </g>
                <g id="Illustrations">
                    <g transform="matrix(0.329376,-0.944199,-0.944199,-0.329376,443.21,524.935)">
                        <path d="M-92.13,-5.024C-93.745,0.087 -95.129,5.446 -96.172,11.078C-106.133,64.871 -92.13,97.597 -92.13,97.597L-7.074,129.714C-51.645,84.438 -88.596,32.473 -92.13,-5.024" style="fill:white;fill-rule:nonzero;"/>
                    </g>
                    <g transform="matrix(1,0,0,1,500.329,438.614)">
                        <path d="M0,93.99L5.676,-6.717C48.414,-6.717 46.439,11.863 44.801,21.432C41.388,41.37 37.648,72.812 0,93.99M-184.668,-57.742L-183.622,-16.564C-162.303,21.676 -90.515,138.938 -22.588,163.87C-10.49,158.974 -3.4,154.321 -3.4,154.321L-1.502,120.636C65.889,88.531 65.169,38.722 67.464,25.31C70.425,8.011 65.886,-29.79 6.977,-29.79L9.009,-65.846C9.266,-67.354 8.7,-68.689 6.994,-69.88C3.709,-50.021 -57.969,-43.553 -119.226,-45.862C-162.123,-47.479 -176.722,-56.54 -181.689,-62.827C-184.582,-59.892 -184.668,-57.742 -184.668,-57.742" style="fill:white;fill-rule:nonzero;"/>
                    </g>
                    <g transform="matrix(0.578503,0.81568,0.81568,-0.578503,380.912,359.708)">
                        <path d="M27.064,-18.961C0.929,-53.016 -14.907,-59.682 -22.909,-60.096C-24.647,-50.295 -20.634,-24.463 27.064,37.689C59.005,79.309 73.364,95.334 80.491,97.89C94.79,83.721 64.385,29.67 27.064,-18.961" style="fill:rgb(171,217,192);fill-rule:nonzero;"/>
                    </g>
                    <g transform="matrix(0.580509,-0.814254,-0.814254,-0.580509,512.609,501.559)">
                        <path d="M-102.42,-30.196C-115.361,-21.958 -132.587,-8.257 -146.361,12.326C-153.464,49.314 -132.537,109.544 -102.42,165.487L-48.982,205.669C-67.743,166.113 -121.55,39.587 -102.42,-30.196" style="fill:rgb(241,241,241);fill-rule:nonzero;"/>
                    </g>
                    <g transform="matrix(-0.999896,0.0143942,0.0143942,0.999896,411.595,538.98)">
                        <path d="M0.738,-102.536C-29.723,-102.493 -53.378,-76.236 -50.256,-45.936C-47.581,-19.992 -25.343,0.043 0.738,0.005C31.199,-0.038 54.854,-26.294 51.732,-56.595C49.058,-82.539 26.819,-102.574 0.738,-102.536" style="fill:rgb(1,99,65);fill-rule:nonzero;"/>
                    </g>
                    <g transform="matrix(202.592,0,0,-202.592,741.148,369.265)">
                        <path d="M0,0.013C0.026,-0.02 0.104,-0.068 0.331,-0.077C0.656,-0.089 0.983,-0.055 1,0.05C0.967,0.073 0.854,0.086 0.576,0.097C0.531,0.098 0.489,0.099 0.451,0.099C0.135,0.099 0.033,0.046 0,0.013Z" style="fill:url(#_Linear2);fill-rule:nonzero;"/>
                    </g>
                    <g transform="matrix(1,0,0,1,933.263,376.602)">
                        <path d="M0,0.682C-5.632,4.357 -11.379,6.543 -17.26,8.339C-31.623,12.726 -46.389,14.915 -61.316,16.231C-76.027,17.528 -90.766,17.827 -105.493,17.067C-125.517,16.034 -145.385,13.774 -164.571,7.477C-170.105,5.661 -175.474,3.476 -180.817,-0.136C-179.4,-0.986 -178.35,-1.691 -177.235,-2.272C-169.266,-6.426 -160.715,-8.905 -152.006,-10.867C-136.831,-14.286 -121.431,-15.886 -105.906,-16.582C-93.354,-17.145 -80.812,-17.045 -68.298,-16.133C-49.057,-14.731 -30.004,-12.172 -11.794,-5.319C-7.782,-3.809 -3.872,-2.066 0,0.682" style="fill:rgb(161,125,80);fill-rule:nonzero;"/>
                    </g>
                    <g transform="matrix(0.329378,-0.944198,-0.944198,-0.329378,874.901,526.797)">
                        <path d="M-98.922,-5.394C-100.656,0.094 -102.142,5.848 -103.262,11.895C-113.956,69.653 -98.922,104.792 -98.922,104.792L-7.595,139.276C-55.452,90.663 -95.126,34.867 -98.922,-5.394" style="fill:rgb(241,241,241);fill-rule:nonzero;"/>
                    </g>
                    <g transform="matrix(1,0,0,1,936.23,434.112)">
                        <path d="M0,100.919L6.095,-7.212C51.983,-7.212 49.862,12.738 48.104,23.012C44.439,44.42 40.423,78.179 0,100.919M-198.281,-61.998L-197.158,-17.784C-174.268,23.274 -97.187,149.18 -24.254,175.951C-11.263,170.694 -3.651,165.697 -3.651,165.697L-1.613,129.529C70.746,95.058 69.973,41.577 72.437,27.176C75.617,8.602 70.743,-31.986 7.491,-31.986L9.673,-70.7C9.95,-72.319 9.342,-73.752 7.509,-75.032C3.982,-53.708 -62.242,-46.763 -128.015,-49.243C-174.075,-50.979 -189.75,-60.707 -195.082,-67.458C-198.189,-64.307 -198.281,-61.998 -198.281,-61.998" style="fill:rgb(241,241,241);fill-rule:nonzero;"/>
                    </g>
                    <g transform="matrix(0.580509,-0.814254,-0.814254,-0.580509,949.415,501.698)">
                        <path d="M-109.971,-32.422C-123.866,-23.576 -142.361,-8.866 -157.15,13.235C-164.777,52.95 -142.307,117.62 -109.971,177.686L-52.593,220.83C-72.737,178.357 -130.511,42.505 -109.971,-32.422" style="fill:white;fill-rule:nonzero;"/>
                    </g>
                    <g transform="matrix(256.74,0,0,-256.74,1119.54,467.104)">
                        <path d="M0.362,0.755C0.293,0.749 0.225,0.736 0.159,0.713C0.119,0.699 0.08,0.682 0.042,0.664C0.018,0.652 -0.003,0.634 0,0.601C0.007,0.545 0.012,0.488 0.019,0.431C0.029,0.336 0.039,0.241 0.049,0.146C0.057,0.076 0.066,0.007 0.074,-0.063C0.082,-0.138 0.088,-0.213 0.096,-0.288C0.104,-0.36 0.113,-0.432 0.121,-0.505C0.128,-0.564 0.133,-0.624 0.139,-0.683C0.14,-0.69 0.147,-0.698 0.154,-0.703C0.16,-0.708 0.169,-0.71 0.177,-0.712C0.273,-0.743 0.37,-0.759 0.471,-0.76L0.522,-0.76C0.607,-0.756 0.689,-0.743 0.768,-0.709C0.79,-0.7 0.811,-0.691 0.808,-0.661C0.807,-0.66 0.808,-0.658 0.808,-0.657C0.816,-0.606 0.824,-0.555 0.832,-0.504C0.838,-0.463 0.844,-0.421 0.85,-0.38C0.862,-0.308 0.874,-0.237 0.884,-0.165C0.894,-0.098 0.902,-0.03 0.912,0.037C0.923,0.107 0.934,0.176 0.945,0.245C0.957,0.324 0.97,0.402 0.982,0.481C0.988,0.521 0.992,0.562 0.999,0.602C1.003,0.621 0.995,0.631 0.983,0.641C0.953,0.666 0.917,0.68 0.881,0.693C0.795,0.726 0.704,0.74 0.614,0.752C0.569,0.758 0.523,0.761 0.478,0.761C0.439,0.761 0.401,0.759 0.362,0.755Z" style="fill:url(#_Linear3);fill-rule:nonzero;"/>
                    </g>
                    <g transform="matrix(1,0,0,1,1238.96,328.32)">
                        <path d="M0,306.393C-9.148,305.75 -19.051,305.647 -28.763,304.228C-41.874,302.311 -54.652,298.82 -66.793,293.231C-72.043,290.814 -74.962,286.862 -75.764,281.38C-77.751,267.79 -79.659,254.186 -81.396,240.562C-82.918,228.619 -84.427,216.664 -85.469,204.673C-86.952,187.592 -88.021,170.475 -89.232,153.371C-90.818,130.963 -92.091,108.529 -94.027,86.152C-95.556,68.477 -97.824,50.864 -99.887,33.238C-100.612,27.039 -101.83,20.898 -102.581,14.701C-103.029,10.999 -103.175,7.24 -103.143,3.509C-103.118,0.552 -101.421,0 -98.668,1.037C-91.766,3.639 -84.854,6.322 -77.751,8.263C-69.613,10.486 -61.325,12.328 -52.991,13.627C-44.029,15.025 -34.959,15.995 -25.901,16.443C-12.584,17.102 0.764,17.341 14.098,17.339C20.535,17.339 26.966,16.295 33.41,15.882C38.995,15.525 44.633,15.729 50.18,15.096C66.046,13.285 82.002,11.968 97.408,7.275C104.253,5.19 111.229,3.537 118.097,1.522C122.099,0.348 124.296,1.975 123.898,6.366C123.58,9.861 122.959,13.329 122.485,16.811C121.031,27.496 119.888,38.233 118.06,48.852C115.257,65.135 111.829,81.31 108.962,97.582C106.945,109.034 105.412,120.571 103.679,132.073C102.242,141.612 100.817,151.153 99.409,160.697C98.239,168.63 97.067,176.562 95.958,184.503C93.675,200.835 91.286,217.154 89.218,233.514C87.314,248.57 85.895,263.688 83.974,278.742C83.555,282.028 82.001,285.194 80.773,288.338C80.433,289.21 79.517,290.083 78.648,290.488C69.638,294.675 60.306,297.743 50.411,299.222C43.48,300.258 36.708,302.387 29.771,303.343C20.135,304.671 10.411,305.359 0,306.393" style="fill:rgb(167,125,80);fill-rule:nonzero;"/>
                    </g>
                    <g transform="matrix(1,0,0,1,1237.64,337.442)">
                        <path d="M0,-39.561C15.343,-39.199 35.501,-39.183 55.602,-38.108C72.763,-37.19 90.035,-35.808 106.347,-29.778C111.353,-27.928 115.736,-24.322 120.251,-21.291C121.034,-20.766 121.644,-18.811 121.268,-18.025C120.78,-17.004 119.296,-16.334 118.111,-15.801C116.744,-15.186 115.227,-14.909 113.79,-14.441C109.473,-13.035 105.25,-11.198 100.835,-10.262C85.458,-7.002 70.069,-3.737 54.573,-1.14C48.519,-0.126 42.17,-0.86 35.955,-0.829C23.862,-0.768 11.717,0 -0.312,-0.848C-19.483,-2.201 -38.872,-0.904 -57.812,-5.24C-68.053,-7.585 -78.335,-9.766 -88.516,-12.347C-90.614,-12.879 -92.329,-14.881 -94.251,-16.159C-94.866,-16.568 -95.554,-16.917 -96.257,-17.139C-99.838,-18.268 -100.256,-19.823 -97.706,-22.588C-93.231,-27.442 -87.273,-29.298 -81.098,-30.262C-66.588,-32.527 -52.059,-34.733 -37.48,-36.476C-26.648,-37.771 -15.724,-38.302 0,-39.561" style="fill:rgb(167,125,80);fill-rule:nonzero;"/>
                    </g>
                    <g>
                        <g>
                            <g>
                                <clipPath id="_clip4">
                                    <path d="M1135.82,331.829C1135.79,335.559 1135.93,339.319 1136.38,343.02C1137.13,349.218 1138.35,355.358 1139.07,361.558C1141.14,379.184 1143.4,396.797 1144.93,414.471C1146.87,436.849 1148.14,459.283 1149.73,481.691C1150.94,498.794 1152.01,515.911 1153.49,532.992C1154.53,544.983 1156.04,556.939 1157.57,568.882C1159.3,582.506 1161.21,596.109 1163.2,609.699C1164,615.181 1166.92,619.133 1172.17,621.551C1184.31,627.14 1197.09,630.631 1210.2,632.547C1219.91,633.966 1229.81,634.071 1238.96,634.712C1249.37,633.679 1259.1,632.991 1268.73,631.663C1275.67,630.706 1282.44,628.578 1289.37,627.542C1299.27,626.063 1308.6,622.995 1317.61,618.807C1318.48,618.403 1319.39,617.529 1319.73,616.658C1320.96,613.514 1322.52,610.347 1322.93,607.061C1324.86,592.007 1326.27,576.89 1328.18,561.834C1330.25,545.474 1332.63,529.155 1334.92,512.822C1336.03,504.882 1337.2,496.949 1338.37,489.017C1339.78,479.473 1341.2,469.932 1342.64,460.392C1344.37,448.891 1345.91,437.354 1347.92,425.902C1350.79,409.629 1354.22,393.455 1357.02,377.172C1358.85,366.553 1359.99,355.815 1361.44,345.131C1361.92,341.649 1362.54,338.181 1362.86,334.686C1363.26,330.294 1361.06,328.668 1357.06,329.842C1350.19,331.856 1343.21,333.509 1336.37,335.594C1320.96,340.287 1305.01,341.605 1289.14,343.415C1283.59,344.048 1277.96,343.845 1272.37,344.202C1265.93,344.614 1259.5,345.658 1253.06,345.659C1239.72,345.661 1226.38,345.422 1213.06,344.763C1204,344.316 1194.93,343.344 1185.97,341.947C1177.64,340.647 1169.35,338.806 1161.21,336.583C1154.11,334.642 1147.19,331.958 1140.29,329.357C1139.46,329.043 1138.72,328.874 1138.1,328.874C1136.67,328.875 1135.84,329.767 1135.82,331.829Z"/>
                                </clipPath>
                                <g clip-path="url(#_clip4)">
                                    <g transform="matrix(1,0,0,1,1119.44,639.752)">
                                        <path d="M0,-337.852C6.477,-313.487 90.028,-165.138 135.84,-138.831C164.372,-122.447 160.622,-69.42 228.734,-5.039L203.991,18.127C202.499,15.91 159.405,-37.181 157.658,-40.19C141.004,-68.876 118.662,-89.459 79.982,-114.196C41.302,-138.933 32.544,-150.932 30.447,-169.297C29.069,-181.364 24.51,-195.82 21.545,-204.318L-29.638,-338.933C-21.323,-331.704 -4.818,-355.979 0,-337.852" style="fill:rgb(145,101,61);fill-rule:nonzero;"/>
                                    </g>
                                    <g transform="matrix(1,0,0,1,1175.67,639.002)">
                                        <path d="M0,-103.152C37.788,-88.706 67.553,-64.713 77.149,-42.299C85.855,-21.962 115.074,13.512 153.571,23.845L148.174,45.645C148.174,45.645 113.898,51.378 70.351,46.874C52.561,33.293 37.418,15.822 29.339,0.566C17.008,-22.718 0.92,-42.358 -23.19,-52.451C-38.774,-58.975 -52.538,-67.943 -60.35,-73.485L-51.078,-154.53C-41.098,-136.987 -23.48,-112.128 0,-103.152" style="fill:rgb(145,101,61);fill-rule:nonzero;"/>
                                    </g>
                                </g>
                            </g>
                        </g>
                    </g>
                    <g transform="matrix(1,0,0,1,1171.76,395.114)">
                        <path d="M0,2.739C0.436,9.122 0.943,14.65 1.121,20.188C1.182,22.072 0.509,24.008 0.014,25.878C-1.642,32.13 -11.942,35.85 -15.686,29.258C-17.373,26.287 -19.35,23.124 -19.775,19.863C-20.863,11.513 -21.468,3.067 -21.669,-5.354C-21.845,-12.694 -21.054,-20.053 -20.993,-27.406C-20.964,-31.028 -18.472,-32.513 -15.961,-32.802C-13.279,-33.111 -9.822,-32.675 -7.807,-31.129C-5.795,-29.584 -4.508,-26.379 -4.019,-23.698C-2.371,-14.659 -1.22,-5.53 0,2.739" style="fill:white;fill-rule:nonzero;"/>
                    </g>
                    <g transform="matrix(1,0,0,1,1184.93,468.133)">
                        <path d="M0,-2.427C1.387,4.033 -2.917,8.759 -5.219,13.978C-6.272,16.365 -13.882,16.643 -15.971,14.387C-18.264,11.912 -20.456,9.005 -21.613,5.887C-24.141,-0.925 -24.282,-7.88 -19.851,-14.168C-18.9,-15.518 -17.369,-16.864 -15.837,-17.33C-10.115,-19.07 -2.652,-14.654 -1.245,-8.919C-0.721,-6.782 -0.409,-4.593 0,-2.427" style="fill:white;fill-rule:nonzero;"/>
                    </g>
                    <g transform="matrix(1,0,0,1,1201.98,334.07)">
                        <path d="M0,-44.428C-2.766,-44.052 -6.02,-43.787 -9.199,-43.148C-22.901,-40.392 -36.716,-38.031 -50.204,-34.451C-55.575,-33.025 -60.352,-29.03 -65.119,-25.793C-67.945,-23.873 -67.151,-21.188 -65.36,-18.609C-62.148,-13.986 -57.029,-12.43 -52.247,-10.729C-37.41,-5.454 -21.95,-2.722 -6.362,-0.915C2.009,0.055 10.466,0.502 18.895,0.699C35.363,1.083 51.875,1.883 68.301,1.097C84.972,0.3 101.58,-2.036 118.178,-4.012C130.724,-5.506 142.898,-8.522 154.242,-14.388C162.232,-18.519 163.022,-24.038 155.67,-28.805C151.394,-31.578 146.605,-34.105 141.697,-35.256C128.818,-38.277 115.842,-41.28 102.731,-42.815C86.003,-44.775 69.119,-45.617 52.276,-46.302C42.034,-46.719 31.74,-46.019 21.475,-45.653C14.468,-45.404 7.471,-44.865 0,-44.428M78.758,5.167C54.602,5.167 35.944,6.018 17.402,4.919C0.208,3.899 -16.984,1.46 -33.94,-1.646C-43.735,-3.44 -53.17,-7.509 -62.533,-11.153C-65.607,-12.349 -68.238,-15.167 -70.544,-17.719C-73.259,-20.723 -71.915,-27.553 -68.349,-29.9C-57.319,-37.159 -45.137,-41.372 -32.125,-43.401C-24.204,-44.636 -16.329,-46.168 -8.415,-47.446C-4.477,-48.082 -0.506,-48.737 3.468,-48.882C20.307,-49.498 37.158,-50.446 53.995,-50.294C76.202,-50.094 98.444,-49.246 120.242,-44.362C130.087,-42.157 139.981,-39.83 149.452,-36.441C154.561,-34.612 159.209,-30.855 163.351,-27.168C166.67,-24.212 166.418,-19.383 162.962,-16.445C159.058,-13.127 154.749,-9.488 150,-8.112C136.332,-4.153 122.459,-0.685 108.464,1.866C96.876,3.978 84.999,4.512 78.758,5.167" style="fill:white;fill-rule:nonzero;"/>
                    </g>
                    <g transform="matrix(1,0,0,1,1224.73,510.042)">
                        <path d="M0,-61.195C-2.039,-60.751 -3.614,-60.469 -5.156,-60.061C-17.367,-56.838 -29.574,-53.599 -41.775,-50.34C-43.65,-49.839 -46.221,-49.743 -47.132,-48.489C-47.948,-47.365 -47.038,-44.881 -46.685,-43.036C-45.649,-37.633 -44.735,-32.191 -43.36,-26.871C-41.24,-18.672 -38.598,-10.605 -36.566,-2.387C-35.942,0.136 -34.857,0.237 -32.971,-0.244C-29.751,-1.065 -26.537,-1.908 -23.328,-2.771C-12.56,-5.67 -1.808,-8.634 8.978,-11.463C13.116,-12.548 13.239,-12.633 12.14,-16.723C10.442,-23.047 8.888,-29.409 7.16,-35.724C4.868,-44.098 2.466,-52.441 0,-61.195M-36.395,4.535C-37.129,3.664 -38.466,2.73 -38.864,1.494C-40.696,-4.19 -42.323,-9.943 -43.918,-15.701C-46.342,-24.454 -48.706,-33.224 -51.034,-42.003C-51.646,-44.31 -52.297,-46.666 -52.389,-49.021C-52.425,-49.958 -51.162,-51.568 -50.208,-51.827C-34.801,-56 -19.368,-60.086 -3.896,-64.01C2.885,-65.73 2.758,-65.499 4.627,-58.331C8.426,-43.759 12.362,-29.221 16.407,-14.716C17.288,-11.555 16.921,-9.799 13.427,-8.898C4.964,-6.713 -3.424,-4.237 -11.857,-1.932C-18.742,-0.051 -25.647,1.756 -32.545,3.589C-33.542,3.854 -34.549,4.083 -36.395,4.535" style="fill:white;fill-rule:nonzero;"/>
                    </g>
                    <g transform="matrix(1,0,0,1,1239.2,505.711)">
                        <path d="M0,16.106C1.224,16.952 2.209,17.744 3.292,18.364C13.958,24.473 24.708,30.44 35.268,36.727C37.648,38.144 38.657,37.741 39.874,35.648C46.182,24.793 52.496,13.942 58.917,3.153C60.385,0.686 59.963,-0.705 57.453,-2.053C50.788,-5.633 44.19,-9.343 37.631,-13.115C32.59,-16.014 27.648,-19.086 22.427,-22.222C14.907,-9.372 7.552,3.2 0,16.106M64.556,-0.932C64.046,0.371 63.842,1.168 63.448,1.858C57.287,12.642 51.1,23.412 44.922,34.187C44.07,35.674 43.283,37.202 42.384,38.661C39.693,43.025 38.571,43.151 34.189,40.547C26.785,36.146 19.263,31.945 11.806,27.632C6.943,24.819 2.024,22.084 -2.661,18.997C-3.5,18.445 -3.992,16.013 -3.497,15.019C-0.574,9.149 2.595,3.395 5.858,-2.297C10.146,-9.776 14.691,-17.109 18.923,-24.618C20.29,-27.045 21.727,-26.86 23.677,-25.733C36.115,-18.543 48.574,-11.39 60.975,-4.137C62.366,-3.323 63.433,-1.956 64.556,-0.932" style="fill:white;fill-rule:nonzero;"/>
                    </g>
                    <g transform="matrix(1,0,0,1,1234.7,597.701)">
                        <path d="M0,-50.961C-1.143,-50.452 -1.89,-50.176 -2.584,-49.802C-13.007,-44.195 -23.344,-38.422 -33.891,-33.061C-36.746,-31.61 -36.996,-30.474 -35.614,-27.899C-31.049,-19.398 -26.534,-10.865 -22.262,-2.214C-21.028,0.285 -19.83,0.259 -17.73,-0.795C-12.927,-3.205 -8.088,-5.545 -3.206,-7.79C3.341,-10.801 9.941,-13.694 17.122,-16.908C11.317,-28.454 5.686,-39.653 0,-50.961M-41.228,-31.534C-40.393,-32.581 -39.641,-34.311 -38.33,-35.04C-26.484,-41.631 -14.548,-48.062 -2.619,-54.504C0.511,-56.194 1.894,-55.798 3.576,-52.473C9.277,-41.202 14.901,-29.892 20.515,-18.578C21.684,-16.221 21.126,-14.44 18.579,-13.277C5.843,-7.462 -6.886,-1.633 -19.562,4.31C-21.53,5.233 -22.668,4.705 -23.529,3.073C-29.212,-7.694 -34.856,-18.481 -40.496,-29.27C-40.752,-29.759 -40.846,-30.331 -41.228,-31.534" style="fill:white;fill-rule:nonzero;"/>
                    </g>
                    <g transform="matrix(1,0,0,1,1256.75,443.333)">
                        <path d="M0,-48.859C-0.358,-47.661 -0.634,-46.913 -0.803,-46.143C-3.332,-34.582 -5.679,-22.976 -8.477,-11.48C-9.234,-8.369 -8.535,-7.439 -5.68,-6.812C3.745,-4.743 13.161,-2.615 22.508,-0.225C25.209,0.465 25.969,-0.462 26.536,-2.742C27.833,-7.956 29.208,-13.153 30.682,-18.32C32.659,-25.249 34.76,-32.143 36.995,-39.687C24.452,-42.797 12.285,-45.813 0,-48.859M-12.095,-4.917C-12.345,-6.232 -13.169,-7.93 -12.869,-9.399C-10.16,-22.682 -7.27,-35.929 -4.394,-49.178C-3.64,-52.654 -2.439,-53.446 1.18,-52.558C13.447,-49.548 25.693,-46.454 37.936,-43.349C40.487,-42.702 41.475,-41.119 40.699,-38.429C36.822,-24.976 32.96,-11.519 29.219,1.972C28.638,4.067 27.496,4.587 25.697,4.179C13.825,1.483 1.962,-1.256 -9.9,-3.999C-10.437,-4.123 -10.933,-4.424 -12.095,-4.917" style="fill:white;fill-rule:nonzero;"/>
                    </g>
                    <g transform="matrix(1,0,0,1,2177.66,453.492)">
                        <path d="M0,69.604C0.912,69.395 1.331,69.361 1.7,69.206C12.59,64.631 23.487,60.074 34.344,55.423C35.674,54.853 36.94,53.928 37.973,52.902C44.528,46.39 47.958,38.367 48.57,29.243C49.37,17.324 45.82,6.984 36.661,-1.098C35.151,-2.429 33.542,-3.036 31.454,-2.962C21.456,-2.603 11.453,-2.4 1.452,-2.12C0.844,-2.103 0.242,-1.909 -0.657,-1.743C-0.438,21.962 -0.221,45.577 0,69.604M-0.647,-28.721C4.485,-28.849 9.475,-28.957 14.465,-29.102C21.069,-29.295 27.672,-29.676 34.275,-29.682C41.438,-29.689 47.826,-27.105 53.579,-22.949C61.326,-17.351 66.717,-9.871 70.12,-1.046C77.714,18.645 76.995,38.013 66.856,56.674C61.709,66.146 54.105,72.938 43.809,76.852C29.67,82.228 15.72,88.101 1.691,93.768C1.303,93.925 0.946,94.156 0.414,94.438C0.353,95.226 0.23,96.051 0.236,96.876C0.258,100.181 0.382,103.487 0.35,106.791C0.32,109.784 0.684,112.351 2.667,115.036C5.905,119.419 5.95,124.608 3.75,129.657C2.097,133.447 -0.553,136.493 -3.675,139.148C-10.181,144.68 -17.729,148.368 -25.619,151.407C-39.02,156.568 -52.964,159.553 -67.145,161.499C-88.142,164.381 -109.206,164.729 -130.29,162.683C-145.607,161.197 -160.675,158.413 -175.096,152.812C-181.174,150.451 -187.082,147.68 -192.103,143.444C-194.441,141.471 -196.667,139.227 -198.431,136.742C-202.653,130.794 -202.611,123.892 -198.39,117.929C-196.939,115.88 -196.425,113.889 -196.494,111.436C-197.338,81.594 -198.117,51.75 -198.883,21.906C-199.326,4.639 -199.748,-12.629 -200.088,-29.898C-200.13,-32.053 -200.487,-33.885 -202.182,-35.306C-202.344,-35.441 -202.467,-35.622 -202.604,-35.786C-210.599,-45.322 -210.41,-55.623 -202.052,-64.901C-196.219,-71.378 -188.861,-75.628 -181.029,-79.14C-167.7,-85.116 -153.646,-88.59 -139.269,-90.734C-109.819,-95.125 -80.422,-94.798 -51.169,-89.014C-37.529,-86.317 -24.277,-82.371 -12.032,-75.562C-7.161,-72.853 -2.653,-69.639 1.138,-65.525C5.889,-60.37 8.814,-54.508 7.634,-47.237C6.835,-42.311 4.298,-38.247 0.852,-34.806C-0.875,-33.082 -1.436,-31.354 -0.647,-28.721" style="fill:rgb(243,191,167);fill-rule:nonzero;"/>
                    </g>
                    <g transform="matrix(1,0,0,1,2081.65,425.461)">
                        <path d="M0,-56.944C19.437,-56.514 38.707,-54.71 57.598,-49.855C64.107,-48.182 70.564,-46.261 76.489,-43.049C79.735,-41.29 82.966,-39.255 85.646,-36.748C90.969,-31.767 90.873,-26.018 85.861,-20.749C82.872,-17.607 79.181,-15.481 75.301,-13.67C65.565,-9.126 55.22,-6.605 44.71,-4.767C19.377,-0.337 -6.123,0.338 -31.726,-1.678C-46.307,-2.827 -60.759,-4.809 -74.766,-9.147C-80.031,-10.777 -85.143,-12.977 -90.187,-15.226C-93.699,-16.792 -96.84,-19.083 -99.208,-22.21C-101.696,-25.496 -102.326,-28.815 -100.536,-32.922C-99.115,-36.182 -96.956,-38.353 -94.236,-40.237C-88.829,-43.984 -82.742,-46.253 -76.529,-48.21C-65.412,-51.713 -53.979,-53.688 -42.433,-55.034C-28.338,-56.678 -14.189,-57.282 0,-56.944" style="fill:rgb(231,158,132);fill-rule:nonzero;"/>
                    </g>
                    <g transform="matrix(1,0,0,1,2162.08,408.459)">
                        <path d="M0,0.66C-5.454,4.218 -11.02,6.336 -16.714,8.075C-30.623,12.323 -44.922,14.443 -59.377,15.718C-73.623,16.974 -87.895,17.263 -102.157,16.527C-121.547,15.527 -140.787,13.338 -159.367,7.241C-164.725,5.482 -169.925,3.365 -175.099,-0.132C-173.726,-0.955 -172.71,-1.638 -171.63,-2.201C-163.913,-6.223 -155.633,-8.624 -147.199,-10.524C-132.504,-13.835 -117.591,-15.384 -102.557,-16.058C-90.402,-16.603 -78.257,-16.506 -66.138,-15.623C-47.506,-14.265 -29.055,-11.788 -11.421,-5.151C-7.536,-3.689 -3.75,-2.001 0,0.66" style="fill:rgb(161,125,80);fill-rule:nonzero;"/>
                    </g>
                    <g transform="matrix(163,0,0,-163,1964.79,539.475)">
                        <path d="M0.086,0.393C0.089,0.253 0.093,0.113 0.097,-0.026C0.196,-0.196 0.307,-0.348 0.418,-0.459C0.447,-0.464 0.477,-0.468 0.507,-0.471C0.623,-0.482 0.739,-0.481 0.855,-0.468C0.527,-0.268 0.231,0.185 0.085,0.429C0.085,0.417 0.086,0.405 0.086,0.393Z" style="fill:url(#_Linear5);fill-rule:nonzero;"/>
                    </g>
                    <g transform="matrix(265.87,0,0,-265.87,1944.45,495.895)">
                        <path d="M0.125,0.272C0.125,0.237 0.126,0.202 0.127,0.167C0.282,-0.013 0.535,-0.258 0.728,-0.427C0.746,-0.422 0.763,-0.417 0.781,-0.41C0.81,-0.399 0.839,-0.385 0.863,-0.364C0.875,-0.354 0.885,-0.343 0.891,-0.329C0.634,-0.23 0.313,0.1 0.231,0.24L0.121,0.287C0.124,0.282 0.124,0.278 0.125,0.272Z" style="fill:url(#_Linear6);fill-rule:nonzero;"/>
                    </g>
                    <g transform="matrix(1,0,0,1,1986.35,603.719)">
                        <path d="M0,-30.794C1.082,-30.18 2.064,-29.761 2.886,-29.132C5.896,-26.829 9.32,-25.429 12.879,-24.251C20.66,-21.675 28.431,-19.069 36.185,-16.412C46.009,-13.045 56.116,-10.759 66.427,-10.023C86.224,-8.609 105.996,-8.626 125.618,-12.558C135.014,-14.44 144.548,-15.744 153.608,-18.948C162.635,-22.14 171.534,-25.704 180.433,-29.246C182.961,-30.252 185.294,-31.75 187.984,-33.162C188.462,-31.008 187.541,-29.713 186.65,-28.49C184.424,-25.437 181.529,-23.117 178.38,-21.058C170.287,-15.767 161.42,-12.164 152.335,-9.058C130.368,-1.548 107.863,2.368 84.554,1.457C69.278,0.86 54.232,-0.783 39.492,-5.106C27.067,-8.75 15.525,-13.925 5.72,-22.534C3.966,-24.074 2.38,-25.814 0.808,-27.546C0.141,-28.281 -0.789,-29.055 0,-30.794" style="fill:rgb(231,158,132);fill-rule:nonzero;"/>
                    </g>
                    <g transform="matrix(1,0,0,1,2174.6,444.123)">
                        <path d="M0,-25.303C-1.799,-22.603 -4.432,-20.902 -7.261,-19.392C-9.787,-18.044 -12.339,-16.71 -14.718,-15.127C-20.123,-11.53 -26.198,-9.567 -32.302,-7.682C-41.089,-4.968 -50.203,-3.919 -59.253,-2.541C-76.796,0.132 -94.417,0.68 -112.136,0.103C-131.75,-0.536 -150.522,-4.708 -168.635,-12.119C-173.167,-13.973 -177.748,-15.707 -182.255,-17.618C-184.195,-18.441 -186.004,-19.573 -188.079,-20.673C-186.826,-21.895 -185.654,-21.351 -184.629,-21.153C-176.896,-19.659 -169.135,-18.276 -161.458,-16.527C-138.164,-11.22 -114.59,-9.234 -90.732,-9.894C-74.939,-10.331 -59.282,-11.831 -43.781,-14.883C-35.115,-16.589 -26.461,-18.358 -17.804,-20.116C-12.991,-21.093 -8.284,-22.386 -3.896,-24.688C-2.805,-25.26 -1.57,-25.559 -0.402,-25.983C-0.268,-25.756 -0.134,-25.53 0,-25.303" style="fill:rgb(231,158,132);fill-rule:nonzero;"/>
                    </g>
                    <g transform="matrix(1,0,0,1,2241.55,429.767)">
                        <path d="M0,60.086C0.057,57.334 0.197,54.581 0.158,51.831C-0.073,35.578 -6.553,22.387 -19.392,12.406C-20.698,11.391 -22.347,10.619 -23.957,10.226C-31.079,8.488 -38.223,6.821 -45.404,5.35C-49.134,4.586 -52.959,4.292 -56.739,3.766C-57.695,3.633 -58.678,3.465 -58.671,1.906C-56.302,1.584 -53.918,1.246 -51.53,0.938C-42.158,-0.269 -32.839,0.218 -23.573,1.915C-17.154,3.09 -12.024,6.557 -7.469,11.087C-0.264,18.254 3.133,27.158 4.442,36.994C4.89,40.364 5.01,43.785 5.151,47.188C5.328,51.442 4.379,55.439 2,59.026C1.675,59.515 1.217,59.915 0.821,60.355C0.547,60.266 0.274,60.176 0,60.086" style="fill:rgb(231,158,132);fill-rule:nonzero;"/>
                    </g>
                    <g transform="matrix(1,0,0,1,2174.59,451.987)">
                        <path d="M0,-22.998C-2.1,-14.567 0.285,-7.36 5.861,-1.008C4.225,-0.618 2.931,-0.309 1.633,0C-4.115,-6.002 -5.265,-18.143 0,-22.998" style="fill:rgb(231,158,132);fill-rule:nonzero;"/>
                    </g>
                    <g transform="matrix(1,0,0,1,2177.44,536.938)">
                        <path d="M0,-14.799C0.397,-13.972 1.011,-13.282 1.013,-12.59C1.022,-8.505 0.89,-4.42 0.798,0C-2.562,-3.213 -2.845,-10.08 0,-14.799" style="fill:rgb(231,158,132);fill-rule:nonzero;"/>
                    </g>
                    <g transform="matrix(1,0,0,1,2397.62,613.644)">
                        <path d="M0,-296.879C-0.984,-290.134 6.356,-236.307 7.852,-215.368C9.347,-194.43 25.677,-18.649 26.547,-11.965C28.126,0.166 29.373,3.683 33.86,6.3C38.347,8.918 59.824,13.835 87.493,13.835C115.162,13.835 138.843,7.478 142.582,5.609C146.321,3.739 146.944,-2.617 147.692,-10.843C148.439,-19.069 162.274,-156.665 163.77,-167.135C165.265,-177.604 178.352,-288.279 179.1,-291.271C179.847,-294.262 179.1,-299.533 179.1,-299.533C179.1,-299.533 149.187,-310.714 98.71,-308.096C65.03,-306.35 1.569,-307.634 0,-296.879" style="fill:rgb(5,167,95);fill-rule:nonzero;"/>
                    </g>
                    <g transform="matrix(205.663,0,0,-205.663,2384.61,288.008)">
                        <path d="M0.102,0.082C0.073,0.068 0.08,0.071 0.072,0.038C0.065,0.006 0.064,-0.032 0.056,-0.055C0.033,-0.061 0.014,-0.067 0.003,-0.082C-0.008,-0.096 0.011,-0.14 0.025,-0.14C0.048,-0.14 0.384,-0.107 0.524,-0.108C0.623,-0.109 0.735,-0.11 0.934,-0.127C0.986,-0.132 1.001,-0.14 1,-0.117C0.999,-0.069 0.999,-0.069 0.967,-0.06C0.958,-0.057 0.95,-0.053 0.948,-0.045C0.94,-0.007 0.948,0.053 0.921,0.07C0.881,0.095 0.671,0.14 0.511,0.14L0.51,0.14C0.275,0.14 0.131,0.097 0.102,0.082Z" style="fill:url(#_Linear7);fill-rule:nonzero;"/>
                    </g>
                    <g transform="matrix(1,0,0,1,2389.62,285.285)">
                        <path d="M0,32.032C4.679,31.975 73.784,25.302 102.699,25.551C122.903,25.725 146.072,25.8 186.952,29.378C197.717,30.32 200.618,32.054 200.501,27.298C200.263,17.566 200.18,17.823 193.682,15.58C148.444,-0.035 22.376,7.066 6.289,14.617C1.644,15.777 -2.243,17.076 -4.487,20.067C-6.73,23.058 -2.866,32.067 0,32.032" style="fill:rgb(235,238,235);fill-rule:nonzero;"/>
                    </g>
                    <g transform="matrix(1,0,0,1,2415.76,538.119)">
                        <g>
                            <g>
                                <clipPath id="_clip8">
                                    <path d="M80.567,-232.57C46.886,-230.824 -16.575,-232.109 -18.143,-221.352C-19.128,-214.609 -11.787,-160.781 -10.292,-139.842C-8.796,-118.904 7.534,56.876 8.403,63.562C9.982,75.693 11.229,79.209 15.716,81.825C20.203,84.444 41.681,89.361 69.349,89.361C97.019,89.361 120.699,83.004 124.438,81.135C128.177,79.265 128.801,72.909 129.548,64.683C130.296,56.457 144.13,-81.14 145.626,-91.609C147.122,-102.078 160.208,-212.754 160.956,-215.745C161.704,-218.736 160.956,-224.007 160.956,-224.007C160.956,-224.007 136.982,-232.967 95.745,-232.967C90.918,-232.967 85.857,-232.844 80.567,-232.57Z"/>
                                </clipPath>
                                <g clip-path="url(#_clip8)">
                                    <path d="M0,-7.233C-8.299,-22.027 -14.166,-35.293 -18.234,-47.101C-17.453,-68.884 -16.449,-94.485 -15.694,-113.377C-2.386,-78.922 50.604,42.442 148.203,77.263C147.356,77.472 146.535,77.7 145.648,77.881C123.281,82.43 126.144,106.144 101.726,105.581C82.524,94.325 30.601,47.316 0,-7.233" style="fill:rgb(6,195,115);fill-rule:nonzero;"/>
                                </g>
                            </g>
                        </g>
                    </g>
                    <g transform="matrix(1,0,0,1,1527.26,579.817)">
                        <path d="M0,-24.271C0.668,-20.04 5.567,-10.688 10.02,-5.344C14.474,0 32.072,13.881 50.324,16.923C71.7,20.486 105.222,19.968 135.829,18.259C179.696,15.81 196.173,0.891 201.072,-10.02C205.971,-20.931 210.424,-35.182 210.424,-35.182C211.983,-39.413 214.655,-44.757 210.424,-44.311C206.193,-43.866 130.485,-23.826 113.117,-24.716C95.749,-25.607 51.882,-24.716 42.753,-28.502C33.623,-32.287 -2.753,-38.926 -2.184,-35.495C-1.614,-32.064 0,-24.271 0,-24.271" style="fill:rgb(224,170,86);fill-rule:nonzero;"/>
                    </g>
                    <g transform="matrix(1,0,0,1,1807.05,467.424)">
                        <path d="M0,5.845C-1.647,15.729 -6.118,24.147 -25.051,34.904C-39.747,43.254 -52.439,48.598 -58.618,47.596C-64.797,46.594 -61.457,32.232 -61.123,26.553C-60.789,20.875 -56.992,-6.16 -56.113,-12.191C-54.443,-23.647 -30.061,-22.546 -19.706,-21.544C-9.352,-20.542 2.338,-8.183 0,5.845M15.197,-7.849C13.052,-36.887 -24.883,-40.916 -33.902,-41.918C-42.92,-42.92 -50.435,-46.594 -50.936,-52.439C-51.223,-55.788 -50.873,-62.892 -51.155,-65.431C-51.823,-71.444 -60.065,-80.833 -71.811,-82.336C-82.65,-83.723 -146.128,-89.514 -173.683,-89.013C-201.239,-88.512 -255.849,-85.542 -266.37,-84.021C-276.892,-82.5 -288.415,-81.498 -291.922,-76.488C-295.429,-71.478 -297.433,-62.749 -296.932,-52.439C-296.202,-37.427 -291.241,3.674 -289.077,9.185C-286.912,14.696 -282.904,75.318 -281.401,80.329C-279.898,85.339 -266.871,85.84 -258.855,87.343C-250.839,88.846 -197.732,95.359 -172.682,94.357C-147.631,93.355 -106.325,89.013 -71.978,76.32C-57.402,70.934 -22.879,54.276 -12.358,46.26C-1.837,38.244 17.368,21.543 15.197,-7.849" style="fill:rgb(237,240,237);fill-rule:nonzero;"/>
                    </g>
                    <g transform="matrix(1,0,0,1,1633.9,410.92)">
                        <path d="M0,-27.516C12.525,-27.502 107.181,-22.989 108.684,-19.983C110.187,-16.977 105.678,-12.468 93.153,-9.963C80.627,-7.458 21.007,0.057 -1.538,0.057C-33.102,0.057 -84.785,-5.448 -90.347,-6.106C-110.258,-8.46 -124.286,-17.979 -110.258,-19.482C-96.229,-20.985 -52.641,-27.573 0,-27.516" style="fill:rgb(230,222,214);fill-rule:nonzero;"/>
                    </g>
                    <g transform="matrix(1,0,0,1,1574.34,472.684)">
                        <path d="M0,1.839C1.183,1.839 1.185,0 0,0C-1.183,0 -1.185,1.839 0,1.839" style="fill:rgb(224,170,86);fill-rule:nonzero;"/>
                    </g>
                    <g transform="matrix(1,0,0,1,1566.32,514.101)">
                        <path d="M0,1.839C1.183,1.839 1.185,0 0,0C-1.183,0 -1.185,1.839 0,1.839" style="fill:rgb(224,170,86);fill-rule:nonzero;"/>
                    </g>
                    <g transform="matrix(1,0,0,1,1540.27,511.429)">
                        <path d="M0,1.839C1.183,1.839 1.185,0 0,0C-1.183,0 -1.185,1.839 0,1.839" style="fill:rgb(224,170,86);fill-rule:nonzero;"/>
                    </g>
                    <g transform="matrix(1,0,0,1,1550.89,534.141)">
                        <path d="M0,1.839C1.183,1.839 1.185,0 0,0C-1.183,0 -1.185,1.839 0,1.839" style="fill:rgb(224,170,86);fill-rule:nonzero;"/>
                    </g>
                    <g transform="matrix(1,0,0,1,1571,531.469)">
                        <path d="M0,1.839C1.183,1.839 1.185,0 0,0C-1.183,0 -1.185,1.839 0,1.839" style="fill:rgb(224,170,86);fill-rule:nonzero;"/>
                    </g>
                    <g transform="matrix(1,0,0,1,1562.31,541.489)">
                        <path d="M0,1.839C1.183,1.839 1.185,0 0,0C-1.183,0 -1.185,1.839 0,1.839" style="fill:rgb(224,170,86);fill-rule:nonzero;"/>
                    </g>
                    <g transform="matrix(1,0,0,1,1547.62,522.117)">
                        <path d="M0,1.839C1.183,1.839 1.185,0 0,0C-1.183,0 -1.185,1.839 0,1.839" style="fill:rgb(224,170,86);fill-rule:nonzero;"/>
                    </g>
                    <g transform="matrix(1,0,0,1,1543.55,528.797)">
                        <path d="M0,1.839C1.183,1.839 1.185,0 0,0C-1.183,0 -1.185,1.839 0,1.839" style="fill:rgb(224,170,86);fill-rule:nonzero;"/>
                    </g>
                    <g transform="matrix(1,0,0,1,1543.55,544.161)">
                        <path d="M0,1.839C1.183,1.839 1.185,0 0,0C-1.183,0 -1.185,1.839 0,1.839" style="fill:rgb(224,170,86);fill-rule:nonzero;"/>
                    </g>
                    <g transform="matrix(1,0,0,1,1657.17,548.169)">
                        <path d="M0,1.839C1.183,1.839 1.185,0 0,0C-1.183,0 -1.185,1.839 0,1.839" style="fill:rgb(224,170,86);fill-rule:nonzero;"/>
                    </g>
                    <g transform="matrix(1,0,0,1,1604.4,540.821)">
                        <path d="M0,1.839C1.183,1.839 1.185,0 0,0C-1.183,0 -1.185,1.839 0,1.839" style="fill:rgb(224,170,86);fill-rule:nonzero;"/>
                    </g>
                    <g transform="matrix(1,0,0,1,1604.4,522.117)">
                        <path d="M0,1.839C1.183,1.839 1.185,0 0,0C-1.183,0 -1.185,1.839 0,1.839" style="fill:rgb(224,170,86);fill-rule:nonzero;"/>
                    </g>
                    <g transform="matrix(1,0,0,1,1630.45,536.813)">
                        <path d="M0,1.839C1.183,1.839 1.185,0 0,0C-1.183,0 -1.185,1.839 0,1.839" style="fill:rgb(224,170,86);fill-rule:nonzero;"/>
                    </g>
                    <g transform="matrix(1,0,0,1,1595.71,542.157)">
                        <path d="M0,1.839C1.183,1.839 1.185,0 0,0C-1.183,0 -1.185,1.839 0,1.839" style="fill:rgb(224,170,86);fill-rule:nonzero;"/>
                    </g>
                    <g transform="matrix(1,0,0,1,1577.68,543.493)">
                        <path d="M0,1.839C1.183,1.839 1.185,0 0,0C-1.183,0 -1.185,1.839 0,1.839" style="fill:rgb(224,170,86);fill-rule:nonzero;"/>
                    </g>
                    <g transform="matrix(1,0,0,1,1634.46,550.841)">
                        <path d="M0,1.839C1.183,1.839 1.185,0 0,0C-1.183,0 -1.185,1.839 0,1.839" style="fill:rgb(224,170,86);fill-rule:nonzero;"/>
                    </g>
                    <g transform="matrix(1,0,0,1,1693.24,536.813)">
                        <path d="M0,1.839C1.183,1.839 1.185,0 0,0C-1.183,0 -1.185,1.839 0,1.839" style="fill:rgb(224,170,86);fill-rule:nonzero;"/>
                    </g>
                    <g transform="matrix(1,0,0,1,1695.91,507.421)">
                        <path d="M0,1.839C1.183,1.839 1.185,0 0,0C-1.183,0 -1.185,1.839 0,1.839" style="fill:rgb(224,170,86);fill-rule:nonzero;"/>
                    </g>
                    <g transform="matrix(1,0,0,1,1722.64,501.409)">
                        <path d="M0,1.839C1.183,1.839 1.185,0 0,0C-1.183,0 -1.185,1.839 0,1.839" style="fill:rgb(224,170,86);fill-rule:nonzero;"/>
                    </g>
                    <g transform="matrix(1,0,0,1,1722.64,473.352)">
                        <path d="M0,1.839C1.183,1.839 1.185,0 0,0C-1.183,0 -1.185,1.839 0,1.839" style="fill:rgb(224,170,86);fill-rule:nonzero;"/>
                    </g>
                    <g transform="matrix(1,0,0,1,1737.33,470.68)">
                        <path d="M0,1.839C1.183,1.839 1.185,0 0,0C-1.183,0 -1.185,1.839 0,1.839" style="fill:rgb(224,170,86);fill-rule:nonzero;"/>
                    </g>
                    <g transform="matrix(1,0,0,1,1736.66,512.097)">
                        <path d="M0,1.839C1.183,1.839 1.185,0 0,0C-1.183,0 -1.185,1.839 0,1.839" style="fill:rgb(224,170,86);fill-rule:nonzero;"/>
                    </g>
                    <g transform="matrix(1,0,0,1,1758.04,515.437)">
                        <path d="M0,1.839C1.183,1.839 1.185,0 0,0C-1.183,0 -1.185,1.839 0,1.839" style="fill:rgb(224,170,86);fill-rule:nonzero;"/>
                    </g>
                    <g transform="matrix(1,0,0,1,1681.89,519.445)">
                        <path d="M0,1.839C1.183,1.839 1.185,0 0,0C-1.183,0 -1.185,1.839 0,1.839" style="fill:rgb(224,170,86);fill-rule:nonzero;"/>
                    </g>
                    <g transform="matrix(1,0,0,1,1651.83,504.08)">
                        <path d="M0,1.839C1.183,1.839 1.185,0 0,0C-1.183,0 -1.185,1.839 0,1.839" style="fill:rgb(224,170,86);fill-rule:nonzero;"/>
                    </g>
                    <g transform="matrix(1,0,0,1,1642.47,514.769)">
                        <path d="M0,1.839C1.183,1.839 1.185,0 0,0C-1.183,0 -1.185,1.839 0,1.839" style="fill:rgb(224,170,86);fill-rule:nonzero;"/>
                    </g>
                    <g transform="matrix(1,0,0,1,1659.84,538.149)">
                        <path d="M0,1.839C1.183,1.839 1.185,0 0,0C-1.183,0 -1.185,1.839 0,1.839" style="fill:rgb(224,170,86);fill-rule:nonzero;"/>
                    </g>
                    <g transform="matrix(1,0,0,1,1671.87,547.501)">
                        <path d="M0,1.839C1.183,1.839 1.185,0 0,0C-1.183,0 -1.185,1.839 0,1.839" style="fill:rgb(224,170,86);fill-rule:nonzero;"/>
                    </g>
                    <g transform="matrix(1,0,0,1,1695.25,538.149)">
                        <path d="M0,1.839C1.183,1.839 1.185,0 0,0C-1.183,0 -1.185,1.839 0,1.839" style="fill:rgb(224,170,86);fill-rule:nonzero;"/>
                    </g>
                    <g transform="matrix(1,0,0,1,1530.25,475.356)">
                        <path d="M0,1.839C1.183,1.839 1.185,0 0,0C-1.183,0 -1.185,1.839 0,1.839" style="fill:rgb(224,170,86);fill-rule:nonzero;"/>
                    </g>
                    <g transform="matrix(1,0,0,1,1524.24,449.971)">
                        <path d="M0,1.839C1.183,1.839 1.185,0 0,0C-1.183,0 -1.185,1.839 0,1.839" style="fill:rgb(224,170,86);fill-rule:nonzero;"/>
                    </g>
                    <g transform="matrix(1,0,0,1,1710.61,528.797)">
                        <path d="M0,1.839C1.183,1.839 1.185,0 0,0C-1.183,0 -1.185,1.839 0,1.839" style="fill:rgb(224,170,86);fill-rule:nonzero;"/>
                    </g>
                    <g transform="matrix(1,0,0,1,1723.97,534.141)">
                        <path d="M0,1.839C1.183,1.839 1.185,0 0,0C-1.183,0 -1.185,1.839 0,1.839" style="fill:rgb(224,170,86);fill-rule:nonzero;"/>
                    </g>
                    <g transform="matrix(1,0,0,1,1728.65,520.113)">
                        <path d="M0,1.839C1.183,1.839 1.185,0 0,0C-1.183,0 -1.185,1.839 0,1.839" style="fill:rgb(224,170,86);fill-rule:nonzero;"/>
                    </g>
                    <g transform="matrix(1,0,0,1,2886.43,611.694)">
                        <path d="M0,-29.376C-0.053,-25.588 -0.125,-22.89 -0.231,-21.777C-0.935,-14.515 -1.528,-8.905 -5.069,-7.262C-8.606,-5.609 -31.029,0 -57.224,0C-83.42,0 -103.756,-4.337 -108.006,-6.645C-112.246,-8.958 -114.237,-11.98 -114.926,-22.76C-114.969,-23.492 -115.022,-25.208 -115.066,-27.689C-103.307,-25.376 -83.906,-22.495 -59.258,-22.177C-35.482,-21.868 -14.057,-25.868 0,-29.376" style="fill:rgb(246,181,155);fill-rule:nonzero;"/>
                    </g>
                    <g transform="matrix(1,0,0,1,2913.7,576.752)">
                        <path d="M0,-260.418C-0.53,-240.275 -4.038,-125.474 -5.219,-87.121C-5.469,-79.001 -8.298,-71.185 -13.295,-64.795L-23.217,-52.092C-25.858,-48.71 -27.289,-44.546 -27.265,-40.252C-27.183,-24.066 -27.13,-5.026 -27.28,5.566C-41.336,9.074 -62.761,13.074 -86.538,12.765C-111.186,12.447 -130.587,9.561 -142.34,7.252C-142.524,-2.482 -142.683,-23.767 -142.789,-41.375C-142.817,-45.755 -144.345,-49.972 -147.111,-53.355L-156.349,-64.617C-161.679,-71.112 -164.719,-79.189 -164.984,-87.598C-166.3,-129.185 -170.242,-256.794 -169.471,-261.777C-167.987,-271.261 -107.9,-270.128 -76.008,-271.665C-38.248,-273.492 -12.635,-267.714 -3.561,-265.208C-1.412,-264.615 0.062,-262.644 0,-260.418" style="fill:rgb(242,206,189);fill-rule:nonzero;"/>
                    </g>
                    <g transform="matrix(1,0,0,1,2831.11,330.203)">
                        <path d="M0,-20.519C8.853,-20.509 75.729,-17.141 76.794,-14.9C77.854,-12.659 74.669,-9.301 65.816,-7.431C56.969,-5.561 14.842,0.043 -1.084,0.043C-23.386,0.043 -59.908,-4.062 -63.836,-4.554C-77.907,-6.308 -87.82,-13.406 -77.907,-14.524C-67.994,-15.647 -37.197,-20.562 0,-20.519" style="fill:rgb(232,226,218);fill-rule:nonzero;"/>
                    </g>
                    <g transform="matrix(1,0,0,1,2749.2,315.43)">
                        <path d="M0,2.814C0,2.814 -0.444,5.503 9.185,8.283C11.348,8.977 13.806,9.56 16.432,9.975C24.692,11.555 37.096,12.982 55.735,13.748C64.525,14.365 73.449,14.813 80.822,14.813C87.988,14.813 100.46,13.681 112.81,12.264L87.391,12.264C24.817,12.264 2.631,-10.693 2.631,-10.693C-0.728,-11.999 0,2.814 0,2.814" style="fill:rgb(1,1,1);fill-rule:nonzero;"/>
                    </g>
                    <g transform="matrix(1,0,0,1,2836.59,304.736)">
                        <path d="M0,22.957L25.425,22.957C40.532,21.222 55.47,19.063 60.342,18.037C64.241,17.213 67.04,16.1 68.862,14.919C56.598,12.751 2.429,10.066 -5.474,10.057C-34.479,8.91 -81.396,1.306 -84.755,0C-84.755,0 -62.573,22.957 0,22.957" style="fill:rgb(39,41,41);fill-rule:nonzero;"/>
                    </g>
                    <g transform="matrix(1,0,0,1,2900.5,323.171)">
                        <path d="M0,-1.325C-15.71,-3.421 -64.477,-5.816 -71.941,-5.826C-90.099,-5.845 -106.719,-4.684 -120.14,-3.363C-106.917,0.954 -88.557,4.52 -63.913,4.52L-38.489,4.52C-23.382,2.785 -8.438,0.632 -3.566,-0.4C-2.25,-0.674 -1.07,-0.988 0,-1.325" style="fill:rgb(75,76,75);fill-rule:nonzero;"/>
                    </g>
                    <g transform="matrix(1,0,0,1,2905.53,479.335)">
                        <path d="M0,-135.074L41.38,-135.074C47.731,-135.074 52.883,-129.923 52.883,-123.571L52.883,-48.777C52.883,-34.229 44.96,-20.828 32.205,-13.821C20.967,-7.638 8.722,-3.528 -0.506,-0.661C-2.631,0 -4.78,-1.595 -4.78,-3.817L-4.78,-16.534C-4.78,-19.213 -2.891,-21.507 -0.27,-22.052C4.607,-23.059 12.288,-25.218 19.449,-28.803C28.412,-33.289 33.843,-42.696 33.626,-52.719L32.412,-109.25C32.334,-112.869 29.366,-115.755 25.747,-115.721L0.381,-115.591C-2.462,-115.567 -4.78,-117.866 -4.78,-120.709L-4.78,-130.294C-4.78,-132.934 -2.641,-135.074 0,-135.074" style="fill:rgb(246,181,155);fill-rule:nonzero;"/>
                    </g>
                </g>
            </g>
        </g>
    </g>
    <defs>
        <linearGradient id="_Linear2" x1="0" y1="0" x2="1" y2="0" gradientUnits="userSpaceOnUse" gradientTransform="matrix(1,0,0,1,0,0.00988047)"><stop offset="0" style="stop-color:rgb(241,241,241);stop-opacity:1"/><stop offset="0.61" style="stop-color:white;stop-opacity:1"/><stop offset="1" style="stop-color:rgb(241,241,241);stop-opacity:1"/></linearGradient>
        <linearGradient id="_Linear3" x1="0" y1="0" x2="1" y2="0" gradientUnits="userSpaceOnUse" gradientTransform="matrix(1,0,0,1,0,0.000337481)"><stop offset="0" style="stop-color:rgb(241,241,241);stop-opacity:1"/><stop offset="0.61" style="stop-color:white;stop-opacity:1"/><stop offset="1" style="stop-color:rgb(241,241,241);stop-opacity:1"/></linearGradient>
        <linearGradient id="_Linear5" x1="0" y1="0" x2="1" y2="0" gradientUnits="userSpaceOnUse" gradientTransform="matrix(1,0,0,1,0,-0.053332)"><stop offset="0" style="stop-color:rgb(242,177,151);stop-opacity:1"/><stop offset="1" style="stop-color:rgb(236,234,227);stop-opacity:1"/></linearGradient>
        <linearGradient id="_Linear6" x1="0" y1="0" x2="1" y2="0" gradientUnits="userSpaceOnUse" gradientTransform="matrix(1,0,0,1,0,-0.140637)"><stop offset="0" style="stop-color:rgb(242,177,151);stop-opacity:1"/><stop offset="1" style="stop-color:rgb(236,234,227);stop-opacity:1"/></linearGradient>
        <linearGradient id="_Linear7" x1="0" y1="0" x2="1" y2="0" gradientUnits="userSpaceOnUse" gradientTransform="matrix(1,0,0,1,0,0.000164588)"><stop offset="0" style="stop-color:rgb(241,241,241);stop-opacity:1"/><stop offset="0.61" style="stop-color:white;stop-opacity:1"/><stop offset="1" style="stop-color:rgb(241,241,241);stop-opacity:1"/></linearGradient>
    </defs>
</svg>
