<?xml version="1.0" encoding="UTF-8" standalone="no"?>
<!DOCTYPE svg PUBLIC "-//W3C//DTD SVG 1.1//EN" "http://www.w3.org/Graphics/SVG/1.1/DTD/svg11.dtd">
<svg width="100%" height="100%" viewBox="0 0 1263 1263" version="1.1" xmlns="http://www.w3.org/2000/svg" xmlns:xlink="http://www.w3.org/1999/xlink" xml:space="preserve" xmlns:serif="http://www.serif.com/" style="fill-rule:evenodd;clip-rule:evenodd;stroke-linejoin:round;stroke-miterlimit:2;">
    <g transform="matrix(1.44937,0,0,-1.4496,578.752,266.812)">
        <g>
            <g>
                <clipPath id="_clip1">
                    <rect x="-399.313" y="-687.216" width="871.413" height="871.275"/>
                </clipPath>
                <g clip-path="url(#_clip1)">
                    <rect x="-399.314" y="-687.212" width="871.408" height="871.268" style="fill:rgb(126,92,60);"/>
                    <g transform="matrix(1,0,0,1,170.559,-654.138)">
                        <path d="M0,24.735C0.208,22.711 12.821,2.947 20.791,-5.037C28.759,-13.026 49.089,-26.204 52.759,-24.453C56.43,-22.696 70.323,-9.311 76.39,-2.776C82.458,3.758 108.572,34.761 109.928,36.276C111.285,37.788 126.852,50.939 118.238,50.465C109.621,49.998 97.413,44.346 95.338,41.798C93.258,39.245 79.682,20.116 75.051,15.652C70.42,11.187 57.955,-12.09 48.706,-9.049C39.456,-6.012 28.06,5.884 25.669,9.076C23.28,12.267 9.02,31.984 4.953,31.429C0.882,30.878 -0.238,27.047 0,24.735" style="fill:rgb(118,75,52);fill-rule:nonzero;"/>
                    </g>
                    <g transform="matrix(1,0,0,1,195.846,-630.538)">
                        <path d="M0,2.625C1.992,0.63 12.664,-16.292 15.614,-19.562C18.562,-22.835 25.975,-26.749 28.852,-22.608C31.729,-18.462 39.797,-5.941 42.033,-2.276C44.27,1.388 50.024,13.667 50.024,13.667L57.372,25.146C57.372,25.146 55.701,29.374 51.87,26.507C48.037,23.64 43.169,17.503 39.651,12.877C36.139,8.257 23.594,-15.583 23.594,-15.583C23.594,-15.583 18.092,-14.222 15.304,-9.832C12.515,-5.442 7.419,2.699 5.265,3.58C3.112,4.458 -1.986,8.611 -1.986,8.611L0,2.625Z" style="fill:rgb(118,75,52);fill-rule:nonzero;"/>
                    </g>
                    <g transform="matrix(1,0,0,1,303.468,-742.265)">
                        <path d="M0,133.64C0,133.64 -24.031,113.16 -34.014,99.211C-43.997,85.261 -58.693,62.301 -63.736,43.082C-68.781,23.865 -77.824,-7.315 -79.664,-12.182L-81.5,-17.042C-81.5,-17.042 -47.088,35.374 -38.918,57.177C-30.748,78.983 -2.579,107.796 -0.661,109.23C1.253,110.664 28.093,150.682 28.093,150.682L0,133.64Z" style="fill:rgb(118,75,52);fill-rule:nonzero;"/>
                    </g>
                    <g transform="matrix(1,0,0,1,299.204,-804.427)">
                        <path d="M0,158.229C0,158.229 -23,129.057 -28.68,113.349C-34.354,97.64 -32.216,84.795 -32.957,59.828C-33.698,34.863 -42.658,4.24 -42.658,4.24C-42.658,4.24 -25.035,0 -19.77,0.949C-14.505,1.901 -21.414,33.098 -21.244,46.179C-21.07,59.258 -19.436,102.333 -16.394,115.57C-13.351,128.809 0,158.229 0,158.229" style="fill:rgb(118,75,52);fill-rule:nonzero;"/>
                    </g>
                    <g transform="matrix(1,0,0,1,342.803,-673.929)">
                        <path d="M0,77.306C0,77.306 -42.821,5.398 -49.86,-15.809C-49.86,-15.809 -33.608,-37.525 -13.195,-46.16C-13.195,-46.16 -8.679,9.033 -3.87,30.57C0.934,52.099 13.658,96.996 20.688,110.232C27.723,123.466 8.953,99.952 0,77.306" style="fill:rgb(118,75,52);fill-rule:nonzero;"/>
                    </g>
                    <g transform="matrix(1,0,0,1,335.903,-532.918)">
                        <path d="M0,-190.927C0,-190.927 19.571,-161.832 28.879,-101.057C38.188,-40.282 37.323,-26.483 36.379,-13.244C35.434,0 52.715,-117.594 50.948,-129.874C49.183,-142.156 36.562,-162.564 34.561,-168.546C32.56,-174.526 3.675,-185.19 0,-190.927" style="fill:rgb(118,75,52);fill-rule:nonzero;"/>
                    </g>
                    <g transform="matrix(-0.982586,0.185808,0.185808,0.982588,372.354,-589.085)">
                        <path d="M14.118,-114.49C14.118,-114.49 17.136,-33.325 15.626,-16.321L14.118,0.682C14.118,0.682 3.185,-38.574 2.614,-51.531C2.041,-64.492 7.536,-93.531 14.118,-114.49" style="fill:rgb(118,75,52);fill-rule:nonzero;"/>
                    </g>
                    <g transform="matrix(1,0,0,1,234.717,-898.916)">
                        <path d="M0,213.904C0,213.904 -13.46,152.013 -20.921,131.814C-28.385,111.613 -54.164,69.733 -65.028,52.295C-75.892,34.864 -95.492,4.252 -96.558,2.126C-97.624,0 -65.744,84.311 -62.65,95.262C-59.555,106.216 -23.767,164.893 -17.579,181.482C-11.397,198.066 0,213.904 0,213.904" style="fill:rgb(118,75,52);fill-rule:nonzero;"/>
                    </g>
                    <g transform="matrix(1,0,0,1,207.93,67.2454)">
                        <path d="M0,191.413C0,191.413 7.246,158.883 15.447,139.337C23.646,119.794 36.631,71.965 38.027,35.979C39.429,0 37.398,1.63 37.398,1.63C37.398,1.63 14.585,51.348 9.092,89.551C3.599,127.755 -5.089,132.732 -3.834,154.565C-2.584,176.397 -0.8,183.109 0,191.413" style="fill:rgb(118,75,52);fill-rule:nonzero;"/>
                    </g>
                    <g transform="matrix(1,0,0,1,162.004,287.796)">
                        <path d="M0,-109.889L13.343,-37.94C13.343,-37.94 12.459,-33.222 13.937,-20.253C15.411,-7.283 15.656,0 15.656,0C15.656,0 -15.112,-16.677 -28.291,-21.446C-41.471,-26.21 -86.818,-27.299 -86.818,-27.299C-86.818,-27.299 -80.28,-34.286 -66.754,-34.739C-53.227,-35.192 -6.199,-30.517 -4.604,-29.529C-3.008,-28.539 3.479,-21.465 3.479,-21.465C3.479,-21.465 -0.947,-44.756 -1.276,-54.637C-1.605,-64.522 -0.24,-101.545 0,-109.889" style="fill:rgb(118,75,52);fill-rule:nonzero;"/>
                    </g>
                    <g transform="matrix(1,0,0,1,232.177,82.3958)">
                        <path d="M0,210.145C0,210.145 2.214,151.734 5.724,132.174C9.235,112.61 25.881,70.388 32.93,52.79C39.98,35.194 52.834,4.208 53.456,2.104C54.079,0 38.762,81.764 37.721,92.212C36.681,102.665 13.66,161.769 10.726,177.838C7.788,193.912 0,210.145 0,210.145" style="fill:rgb(118,75,52);fill-rule:nonzero;"/>
                    </g>
                    <g transform="matrix(0.986843,0.16166,0.161659,-0.986845,252.179,239.888)">
                        <path d="M17.221,-1.488C17.221,-1.488 19.861,73.315 17.985,93.464C16.112,113.61 9.027,195.702 17.221,211.478C17.221,211.478 33.274,119.847 36.778,98.607C40.284,77.367 20.918,11.985 17.221,-1.488" style="fill:rgb(118,75,52);fill-rule:nonzero;"/>
                    </g>
                    <g transform="matrix(1,0,0,1,263.265,116.07)">
                        <path d="M0,151.693C0,151.693 27.53,104.594 34.967,82.665C42.401,60.737 55.091,19.249 56.08,9.625C57.067,0 59.68,56.676 57.704,75.923C55.728,95.173 36.002,104.169 29.354,118.399C22.707,132.628 0,151.693 0,151.693" style="fill:rgb(118,75,52);fill-rule:nonzero;"/>
                    </g>
                    <g transform="matrix(1,0,0,1,257.335,126.156)">
                        <path d="M0,72.277C0.961,70.228 0.285,44.141 -2.729,31.954C-5.744,19.767 -17.556,-4.47 -22.062,-4.91C-26.565,-5.347 -47.498,-0.56 -57.035,2.189C-66.573,4.933 -109.27,19.495 -111.435,20.164C-113.6,20.828 -135.986,24.42 -127.5,28.921C-119.02,33.419 -104.135,35.042 -100.688,33.802C-97.245,32.56 -73.316,22.119 -66.341,20.525C-59.364,18.927 -34.109,3.889 -27.038,12.098C-19.962,20.309 -15.929,38.193 -15.483,42.609C-15.04,47.025 -12.767,74.009 -8.565,75.817C-4.369,77.624 -1.104,74.619 0,72.277" style="fill:rgb(118,75,52);fill-rule:nonzero;"/>
                    </g>
                    <g transform="matrix(1,0,0,1,232.368,149.256)">
                        <path d="M0,36.08C-0.753,33.034 -1.213,10.772 -2.146,5.957C-3.078,1.147 -7.896,-6.844 -13.016,-4.545C-18.14,-2.242 -33.019,5.059 -37.259,7.271C-41.494,9.479 -54.032,17.882 -54.032,17.882L-67.626,24.608C-67.626,24.608 -68.467,29.598 -63.162,29.066C-57.862,28.53 -49.696,25.477 -43.691,23.085C-37.689,20.696 -12.037,5.177 -12.037,5.177C-12.037,5.177 -7.573,9.63 -7.437,15.417C-7.302,21.202 -7.116,31.89 -5.567,33.965C-4.019,36.037 -1.541,42.924 -1.541,42.924L0,36.08Z" style="fill:rgb(118,75,52);fill-rule:nonzero;"/>
                    </g>
                    <g transform="matrix(1,0,0,1,118.696,45.1856)">
                        <path d="M0,96.737C0,96.737 34.662,91.012 52.191,83.447C69.719,75.88 96.915,62.429 112.758,47.006C128.599,31.577 155.127,7.042 159.671,3.46L164.216,-0.12C164.216,-0.12 101.309,30.092 81.003,46.19C60.694,62.285 17.293,73.583 14.642,73.849C11.988,74.113 -36.574,96.857 -36.574,96.857L0,96.737Z" style="fill:rgb(118,75,52);fill-rule:nonzero;"/>
                    </g>
                    <g transform="matrix(1,0,0,1,144.326,-32.1523)">
                        <path d="M0,140.708C0,140.708 38.679,126.103 53.109,114.388C67.545,102.669 72.879,89.194 87.917,65.821C102.96,42.443 129.087,18.395 129.087,18.395C129.087,18.395 114.723,4.229 109.156,2.113C103.59,0 92.266,33.707 84.591,46.083C76.915,58.451 50.623,98.577 40.119,109.451C29.619,120.325 0,140.708 0,140.708" style="fill:rgb(118,75,52);fill-rule:nonzero;"/>
                    </g>
                    <g transform="matrix(1,0,0,1,232.974,-84.0515)">
                        <path d="M0,142.626C0,142.626 32.395,118.841 55.355,107.603C78.309,96.367 128.061,63.248 157.893,31.685C187.721,0.126 184.585,0 184.585,0C184.585,0 124.409,27.029 89.102,57.357C53.791,87.684 41.953,85.308 25.762,106.125C9.568,126.94 5.865,134.452 0,142.626" style="fill:rgb(118,75,52);fill-rule:nonzero;"/>
                    </g>
                    <g transform="matrix(1,0,0,1,74.2943,48.741)">
                        <path d="M0,82.046C0,82.046 82.116,38.077 101.006,21.894C101.006,21.894 97.978,-8.138 83.476,-28.087C83.476,-28.087 47.476,21.939 30.533,39.708C13.583,57.476 -24.326,92.974 -38.629,101.553C-52.93,110.133 -21.539,98.493 0,82.046" style="fill:rgb(118,75,52);fill-rule:nonzero;"/>
                    </g>
                    <g transform="matrix(1,0,0,1,255.365,61.0017)">
                        <path d="M0,-112.2L-44.991,-36.282C-44.991,-36.282 -49.538,-32.7 -58.49,-19.753C-67.446,-6.806 -73.006,0 -73.006,0C-73.006,0 -87.703,-39.562 -95.884,-54.351C-104.069,-69.139 -144.381,-106.118 -144.381,-106.118C-144.381,-106.118 -132.897,-107.275 -120.255,-96.949C-107.616,-86.623 -68.627,-45.053 -67.961,-42.891C-67.298,-40.725 -67.024,-29.152 -67.024,-29.152C-67.024,-29.152 -52.559,-53.812 -45.012,-63.046C-37.467,-72.283 -6.841,-104.814 0,-112.2" style="fill:rgb(118,75,52);fill-rule:nonzero;"/>
                    </g>
                    <g transform="matrix(1,0,0,1,193.354,-86.2252)">
                        <path d="M0,88.124C0,88.124 -45.227,33.349 -62.512,16.802C-79.794,0.253 -86.153,-0.89 -115.965,-0.116C-145.775,0.659 -131.424,7.522 -116.181,11.87C-100.934,16.216 -60.333,33.982 -47.514,46.071C-34.695,58.162 -8.834,89.014 0,88.124" style="fill:rgb(118,75,52);fill-rule:nonzero;"/>
                    </g>
                    <g transform="matrix(1,0,0,1,153.922,172.08)">
                        <path d="M0,-158.623C0,-158.623 -35.367,-142.121 -79.135,-89.526C-122.908,-36.931 -130.005,-23.277 -136.707,-10.112C-143.41,3.056 -92.364,-118.975 -83.627,-129.67C-74.893,-140.363 -51.141,-152.573 -45.801,-157.128C-40.462,-161.679 -6.801,-155.26 0,-158.623" style="fill:rgb(118,75,52);fill-rule:nonzero;"/>
                    </g>
                    <g transform="matrix(-0.745841,-0.666124,-0.666122,0.74584,32.0208,91.4514)">
                        <path d="M-42.691,-111.889C-42.691,-111.889 -46.047,-21.557 -44.37,-2.633L-42.691,16.289C-42.691,16.289 -30.522,-27.396 -29.883,-41.819C-29.248,-56.243 -35.364,-88.559 -42.691,-111.889" style="fill:rgb(118,75,52);fill-rule:nonzero;"/>
                    </g>
                    <g transform="matrix(1,0,0,1,228.094,-39.2915)">
                        <path d="M0,147.876C0,147.876 48.369,96.597 67.082,81.625C85.799,66.648 134.424,41.523 154.793,31.143C175.158,20.761 211.424,2.832 213.658,1.413C215.895,0 137.088,62.076 127.852,70.735C118.612,79.402 50.8,114.794 35.379,127.054C19.953,139.316 0,147.876 0,147.876" style="fill:rgb(118,75,52);fill-rule:nonzero;"/>
                    </g>
                    <g transform="matrix(0.63659,0.771199,0.771197,-0.636591,272.829,-12.2703)">
                        <path d="M99.031,-46.666C99.031,-46.666 102.215,43.542 99.954,67.842C97.694,92.137 89.153,191.135 99.032,210.158C99.032,210.158 118.393,99.658 122.618,74.043C126.845,48.429 103.487,-30.419 99.031,-46.666" style="fill:rgb(118,75,52);fill-rule:nonzero;"/>
                    </g>
                    <g transform="matrix(1,0,0,1,39.8394,-7.80491)">
                        <path d="M0,-75.452C-1.358,-74.194 -8.869,-54.174 -10.332,-43.991C-11.792,-33.808 -10.277,-11.768 -6.987,-10.049C-3.703,-8.328 13.668,-5.526 21.756,-4.68C29.842,-3.834 66.75,-1.762 68.6,-1.598C70.446,-1.439 88.552,2.721 83.497,-3.307C78.438,-9.331 67.632,-15.146 64.634,-15.262C61.638,-15.382 40.251,-14.808 34.461,-15.744C28.673,-16.678 4.87,-13.024 2.024,-21.434C-0.824,-29.844 1.612,-44.667 2.633,-48.158C3.652,-51.651 10.228,-72.844 7.596,-75.507C4.963,-78.173 1.561,-76.891 0,-75.452" style="fill:rgb(118,75,52);fill-rule:nonzero;"/>
                    </g>
                    <g transform="matrix(1,0,0,1,54.7721,-35.327)">
                        <path d="M0,-30.305C-0.366,-27.759 -6.864,-10.713 -7.636,-6.771C-8.408,-2.826 -7.203,4.725 -2.609,4.55C1.989,4.38 15.531,3.413 19.432,3.036C23.331,2.659 35.437,0.135 35.437,0.135L47.829,-0.789C47.829,-0.789 49.999,-4.322 45.812,-5.546C41.622,-6.773 34.48,-6.966 29.184,-6.996C23.891,-7.029 -0.364,-3.13 -0.364,-3.13C-0.364,-3.13 -2.384,-7.888 -0.706,-12.324C0.968,-16.76 4.114,-24.933 3.579,-26.984C3.038,-29.036 3.275,-35.03 3.275,-35.03L0,-30.305Z" style="fill:rgb(118,75,52);fill-rule:nonzero;"/>
                    </g>
                    <g transform="matrix(1,0,0,1,275.985,19.0356)">
                        <path d="M0,91.724C0,91.724 62.379,70.811 86.536,56.803C110.693,42.797 155.143,15.199 163.678,7.244C172.212,-0.712 129.603,52.82 112.529,68.728C95.456,84.638 70.407,77.15 53.078,84.793C35.751,92.436 0,91.724 0,91.724" style="fill:rgb(118,75,52);fill-rule:nonzero;"/>
                    </g>
                    <g transform="matrix(1,0,0,1,-399.896,-807.345)">
                        <path d="M0,105.725C0,105.725 72.667,19.824 86.685,-6.75C86.685,-6.75 69.929,-39.127 44.769,-55.084C44.769,-55.084 26.588,17.104 15.459,44.598C4.328,72.088 -22.461,128.814 -34.706,144.812C-46.953,160.809 -16.879,133.773 0,105.725" style="fill:rgb(118,75,52);fill-rule:nonzero;"/>
                    </g>
                    <g transform="matrix(1,0,0,1,-362.65,-623.453)">
                        <path d="M0,-245.352C0,-245.352 -32.376,-211.09 -58.146,-132.561C-83.913,-54.025 -85.81,-35.538 -87.482,-17.769C-89.157,0 -86.097,-159.748 -81.042,-175.641C-75.987,-191.54 -54.741,-215.814 -50.771,-223.305C-46.798,-230.787 -6.142,-238.548 0,-245.352" style="fill:rgb(118,75,52);fill-rule:nonzero;"/>
                    </g>
                    <g transform="matrix(1,0,0,1,-516.564,-404.757)">
                        <path d="M0,-109.693C0,-109.693 16.473,-73.82 29.86,-57.062C43.255,-40.307 65.886,-14.814 87.293,-2.212C108.703,10.392 143.152,31.872 148.381,35.739L153.607,39.602C153.607,39.602 102.232,-19.627 78.771,-36.869C55.314,-54.115 30.214,-97.806 29.145,-100.599C28.072,-103.394 -10.954,-149.295 -10.954,-149.295L0,-109.693Z" style="fill:rgb(118,75,52);fill-rule:nonzero;"/>
                    </g>
                    <g transform="matrix(1,0,0,1,-472.812,-392.867)">
                        <path d="M0,-103.683C0,-103.683 27.286,-66.089 44.257,-53.917C61.229,-41.742 77.412,-39.954 107.2,-30.576C136.989,-21.195 170.788,0 170.788,0C170.788,0 181.891,-19.766 182.534,-26.423C183.177,-33.081 143.295,-35.373 127.608,-40.026C111.931,-44.683 60.655,-61.295 45.761,-69.454C30.866,-77.619 0,-103.683 0,-103.683" style="fill:rgb(118,75,52);fill-rule:nonzero;"/>
                    </g>
                    <g transform="matrix(1,0,0,1,-392.39,-254.018)">
                        <path d="M0,-161.258C0,-161.258 35.376,-133.188 54.351,-111.633C73.329,-90.083 123.955,-45.97 166.998,-22.986C210.028,0 209.244,-3.439 209.244,-3.439C209.244,-3.439 162.124,-60.652 118.8,-89.94C75.478,-119.229 74.549,-132.76 47.189,-144.147C19.834,-155.531 10.599,-157.321 0,-161.258" style="fill:rgb(118,75,52);fill-rule:nonzero;"/>
                    </g>
                    <g transform="matrix(1,0,0,1,-517.643,-523.26)">
                        <path d="M0,-42.609C0,-42.609 71.974,33.368 95.105,49.048C95.105,49.048 126.755,36.873 144.082,15.247C144.082,15.247 79.206,-8.955 54.928,-22.056C30.653,-35.164 -19.044,-65.738 -32.583,-78.697C-46.117,-91.657 -24.201,-61.086 0,-42.609" style="fill:rgb(118,75,52);fill-rule:nonzero;"/>
                    </g>
                    <g transform="matrix(1,0,0,1,-266.79,-578.186)">
                        <path d="M0,154.674L-95.599,128.395C-95.599,128.395 -100.828,124.529 -117.509,118.656C-134.194,112.787 -143.216,108.777 -143.216,108.777C-143.216,108.777 -104.693,81.133 -91.087,67.885C-77.488,54.637 -49.344,0 -49.344,0C-49.344,0 -44.69,12.102 -52.14,28.856C-59.585,45.615 -93.091,100.182 -95.239,101.543C-97.391,102.9 -109.85,106.624 -109.85,106.624C-109.85,106.624 -78.838,115.002 -66.598,120.447C-54.352,125.887 -10.028,149.447 0,154.674" style="fill:rgb(118,75,52);fill-rule:nonzero;"/>
                    </g>
                    <g transform="matrix(1,0,0,1,-342.7,-658.898)">
                        <path d="M0,183.894C0,183.894 45.979,118.659 58.792,95.025C71.61,71.394 70.964,64.162 61.295,32.082C51.625,0 48.442,17.593 48.241,35.401C48.049,53.209 40.819,102.473 31.507,119.946C22.201,137.416 -3.577,174.583 0,183.894" style="fill:rgb(118,75,52);fill-rule:nonzero;"/>
                    </g>
                    <g transform="matrix(1,0,0,1,-366.9,-621.867)">
                        <path d="M0,107.552C0,107.552 -28.358,74.113 -98.32,42.245C-168.288,10.382 -185.185,6.736 -201.44,3.368C-217.696,0 -70.324,19.189 -56.146,25.489C-41.966,31.791 -21.702,53.918 -15.182,58.357C-8.673,62.797 -5.66,101.177 0,107.552" style="fill:rgb(118,75,52);fill-rule:nonzero;"/>
                    </g>
                    <g transform="matrix(0.445987,-0.89504,-0.895037,-0.445989,-403.367,-599.812)">
                        <path d="M-64.448,-39.892C-64.448,-39.892 -68.219,61.596 -66.333,82.858L-64.447,104.119C-64.447,104.119 -50.777,55.036 -50.062,38.835C-49.346,22.629 -56.216,-13.682 -64.448,-39.892" style="fill:rgb(118,75,52);fill-rule:nonzero;"/>
                    </g>
                    <g transform="matrix(1,0,0,1,-448.029,-215.56)">
                        <path d="M0,-190.196C0,-190.196 69.896,-152.96 91.664,-137.111C113.433,-121.261 155.066,-76.002 172.35,-56.999C189.628,-38 219.803,-4.007 222,-2.006C224.196,0 133.577,-67.022 121.458,-74.473C109.326,-81.92 50.893,-144.936 33.037,-158.019C15.181,-171.101 0,-190.196 0,-190.196" style="fill:rgb(118,75,52);fill-rule:nonzero;"/>
                    </g>
                    <g transform="matrix(-0.576141,0.81735,0.817348,0.576143,-156.962,-297.696)">
                        <path d="M117.923,-227.398C117.923,-227.398 121.497,-126.045 118.958,-98.745C116.421,-71.451 106.823,39.779 117.923,61.152C117.923,61.152 139.675,-63.001 144.422,-91.775C149.169,-120.556 122.928,-209.142 117.923,-227.398" style="fill:rgb(118,75,52);fill-rule:nonzero;"/>
                    </g>
                    <g transform="matrix(1,0,0,1,-295.866,-550.785)">
                        <path d="M0,-115.81C-1.768,-116.91 -25.687,-119.123 -37.154,-117.691C-48.627,-116.258 -72.062,-108.088 -72.953,-104.014C-73.847,-99.947 -71.736,-80.29 -70.262,-71.277C-68.783,-62.259 -60.101,-21.644 -59.729,-19.594C-59.354,-17.542 -58.5,3.313 -53.467,-3.954C-48.434,-11.22 -45.334,-24.656 -46.092,-27.939C-46.854,-31.221 -53.807,-54.227 -54.508,-60.781C-55.207,-67.33 -66.217,-92.044 -57.945,-97.623C-49.673,-103.198 -32.883,-104.949 -28.802,-104.872C-24.714,-104.803 0.204,-103.955 2.312,-107.596C4.418,-111.235 2.024,-114.546 0,-115.81" style="fill:rgb(118,75,52);fill-rule:nonzero;"/>
                    </g>
                    <g transform="matrix(1,0,0,1,-310.542,-584.939)">
                        <path d="M0,-60.254C-2.872,-59.892 -23.271,-61.888 -27.772,-61.558C-32.276,-61.228 -40.104,-57.688 -38.552,-52.755C-37.006,-47.827 -31.949,-33.436 -30.382,-29.316C-28.823,-25.203 -22.499,-12.832 -22.499,-12.832L-17.832,0.328C-17.832,0.328 -13.357,1.634 -13.271,-3.271C-13.18,-8.174 -15.089,-15.97 -16.621,-21.721C-18.155,-27.467 -29.566,-52.598 -29.566,-52.598C-29.566,-52.598 -25.005,-56.198 -19.701,-55.692C-14.396,-55.192 -4.61,-54.201 -2.544,-55.391C-0.479,-56.58 6.09,-58.099 6.09,-58.099L0,-60.254Z" style="fill:rgb(118,75,52);fill-rule:nonzero;"/>
                    </g>
                    <g transform="matrix(1,0,0,1,-436.208,-193.934)">
                        <path d="M0,-159.27C0,-159.27 41.136,-97.86 63.47,-75.825C85.808,-53.795 128.881,-13.789 140.028,-6.895C151.177,0 80.542,-30.332 58.239,-44.121C35.942,-57.914 36.643,-87.28 23.23,-103.801C9.812,-120.315 0,-159.27 0,-159.27" style="fill:rgb(118,75,52);fill-rule:nonzero;"/>
                    </g>
                    <g transform="matrix(1,0,0,1,28.8953,-653.931)">
                        <path d="M0,-133.067C0,-133.067 20.734,-66.744 30.282,-45.371C39.825,-24 45.166,-20.613 72.457,-10.308C99.749,0 89.277,-11.515 77.077,-21.086C64.871,-30.65 34.651,-61.738 27.508,-77.428C20.36,-93.11 8.329,-130.609 0,-133.067" style="fill:rgb(118,75,52);fill-rule:nonzero;"/>
                    </g>
                    <g transform="matrix(1,0,0,1,136.503,-755.945)">
                        <path d="M0,102.787C1.696,102.148 15.894,86.789 20.977,78.104C26.064,69.417 32.826,48.894 30.485,46.121C28.146,43.349 13.443,34.398 6.432,30.641C-0.585,26.889 -33.248,11.382 -34.864,10.553C-36.479,9.724 -51.345,-0.729 -48.989,6.598C-46.632,13.923 -38.989,23.181 -36.317,24.394C-33.647,25.608 -14.064,32.985 -9.162,35.973C-4.266,38.958 18.646,44.439 18.118,53.105C17.587,61.778 9.908,74.308 7.692,77.09C5.482,79.879 -8.303,96.649 -6.901,100.032C-5.499,103.418 -1.945,103.516 0,102.787" style="fill:rgb(118,75,52);fill-rule:nonzero;"/>
                    </g>
                    <g transform="matrix(1,0,0,1,129.485,-715.975)">
                        <path d="M0,41.337C1.271,39.163 13.45,26.121 15.608,22.835C17.768,19.547 19.467,12.265 15.236,10.726C11.01,9.182 -1.615,5.055 -5.292,3.958C-8.96,2.857 -20.857,0.675 -20.857,0.675L-32.426,-3.069C-32.426,-3.069 -35.696,-0.668 -32.353,1.988C-29.014,4.648 -22.614,7.457 -17.828,9.444C-13.044,11.429 10.367,16.853 10.367,16.853C10.367,16.853 10.439,21.909 7.28,25.308C4.126,28.707 -1.741,34.948 -2.013,37.007C-2.286,39.064 -4.717,44.406 -4.717,44.406L0,41.337Z" style="fill:rgb(118,75,52);fill-rule:nonzero;"/>
                    </g>
                    <g transform="matrix(1,0,0,1,-653.169,-214.478)">
                        <path d="M0,30.791C0,30.791 71.624,7.084 96.862,2.497C122.101,-2.089 180.673,-1.031 205.135,-0.456C229.592,0.121 272.865,1.668 275.689,1.471C278.515,1.274 172.735,19.682 159.63,23.14C146.521,26.605 64.663,25.459 43.904,29.169C23.145,32.88 0,30.791 0,30.791" style="fill:rgb(118,75,52);fill-rule:nonzero;"/>
                    </g>
                    <g transform="matrix(0.193875,0.981029,0.981026,-0.193876,-494.004,-313.629)">
                        <path d="M133.338,-112.02C133.338,-112.02 136.743,-15.47 134.326,10.536C131.907,36.538 122.765,142.497 133.338,162.858C133.338,162.858 154.06,44.588 158.583,17.173C163.104,-10.24 138.109,-94.631 133.338,-112.02" style="fill:rgb(118,75,52);fill-rule:nonzero;"/>
                    </g>
                    <g transform="matrix(1,0,0,1,97.6272,-529.096)">
                        <path d="M0,60.493C0,60.493 3.301,55.725 5.499,50.593C7.697,45.462 10.266,35.563 9.899,32.263C9.534,28.964 9.166,21.999 4.399,17.231C-0.366,12.466 -14.299,5.132 -16.865,3.3C-19.433,1.466 -21.266,-4.766 -28.23,-0.734C-35.196,3.3 -42.896,8.798 -45.461,13.566C-48.028,18.331 -51.694,25.663 -46.562,33.729C-41.43,41.795 -23.83,56.458 -18.332,58.293C-12.831,60.127 -2.565,65.259 0,60.493" style="fill:rgb(118,75,52);fill-rule:nonzero;"/>
                    </g>
                    <g transform="matrix(1,0,0,1,91.0264,-464.934)">
                        <path d="M0,2.199C0,2.199 -20.531,-3.666 -23.83,-6.965C-27.129,-10.267 -39.961,-19.432 -43.262,-21.266C-46.559,-23.098 -62.691,-23.098 -63.79,-20.531C-64.892,-17.965 -64.891,-12.832 -59.393,-9.531C-53.893,-6.233 -41.792,1.467 -37.396,7.331C-32.995,13.197 -27.495,25.297 -19.797,24.929C-12.098,24.563 -9.165,23.83 -4.765,19.431C-0.364,15.031 2.566,5.499 0,2.199" style="fill:rgb(118,75,52);fill-rule:nonzero;"/>
                    </g>
                    <g transform="matrix(1,0,0,1,101.659,-486.935)">
                        <path d="M0,23.834C0,23.834 2.2,16.5 8.798,6.969C15.396,-2.564 17.597,-9.164 29.696,-10.996C41.794,-12.83 50.228,-11.729 56.095,-6.596C61.96,-1.464 66.357,7.336 63.425,9.535C60.492,11.733 56.459,9.902 50.96,11.733C45.461,13.568 39.962,18.334 37.395,23.1C34.828,27.865 34.83,35.932 27.13,36.299C19.432,36.664 9.533,33.364 5.499,31.531C1.467,29.7 0,23.834 0,23.834" style="fill:rgb(118,75,52);fill-rule:nonzero;"/>
                    </g>
                    <g transform="matrix(-0.853288,0.521431,0.52143,0.853291,158.051,-399.732)">
                        <path d="M21.853,-69.573C21.853,-69.573 -9.221,-40.27 -8.162,-33.616C-7.101,-26.96 -5.904,-3.201 21.853,-7.701C49.607,-12.204 59.568,-40.201 46.028,-50.403C32.488,-60.604 34.801,-70.182 21.853,-69.573" style="fill:rgb(118,75,52);fill-rule:nonzero;"/>
                    </g>
                    <g transform="matrix(1,0,0,1,140.52,-465.668)">
                        <path d="M0,19.43C0,19.43 -2.198,-1.834 13.932,-4.765C30.062,-7.699 32.996,-8.433 34.097,-13.931C35.196,-19.432 41.427,-34.463 49.129,-21.632C56.827,-8.8 60.857,29.696 52.061,40.695C43.264,51.692 25.666,53.893 19.8,51.692C13.932,49.494 14.665,34.096 10.267,26.762C5.868,19.432 0,25.296 0,19.43" style="fill:rgb(118,75,52);fill-rule:nonzero;"/>
                    </g>
                    <g transform="matrix(1,0,0,1,118.527,-551.461)">
                        <path d="M0,49.496C0,49.496 20.163,51.329 24.561,39.597C28.961,27.864 27.862,8.433 15.396,3.302C2.933,-1.832 -14.667,-1.833 -23.833,4.402C-32.998,10.634 -42.898,13.933 -30.432,22.731C-17.968,31.531 -1.469,50.962 0,49.496" style="fill:rgb(118,75,52);fill-rule:nonzero;"/>
                    </g>
                    <g transform="matrix(1,0,0,1,172.417,-553.289)">
                        <path d="M0,60.493C0,60.493 -23.83,46.196 -24.562,42.528C-25.297,38.862 -23.097,20.532 -24.198,14.299C-25.297,8.065 -17.965,1.468 -5.498,0.733C6.968,0 39.228,26.396 39.963,40.327C40.696,54.261 14.666,46.561 8.799,51.694C2.933,56.827 0,60.493 0,60.493" style="fill:rgb(118,75,52);fill-rule:nonzero;"/>
                    </g>
                    <g transform="matrix(1,0,0,1,81.4947,-567.59)">
                        <path d="M0,19.796C0,19.796 -12.831,0.366 -16.863,-4.399C-20.896,-9.168 -34.829,-16.499 -34.829,-16.499L-67.458,-1.468C-67.458,-1.468 -65.259,16.13 -62.692,19.429C-60.126,22.73 -37.76,34.829 -34.093,35.562C-30.429,36.295 -7.331,27.13 -7.331,27.13L0,19.796Z" style="fill:rgb(118,75,52);fill-rule:nonzero;"/>
                    </g>
                    <g transform="matrix(1,0,0,1,90.6621,-620.018)">
                        <path d="M0,64.525C0,64.525 27.861,51.326 30.429,48.028C32.994,44.729 32.26,27.862 31.163,26.03C30.062,24.197 10.63,-1.101 10.63,-1.101C10.63,-1.101 -18.698,0.366 -24.2,5.866C-29.698,11.364 -35.565,23.83 -35.197,25.663C-34.831,27.495 -21.999,43.994 -21.999,43.994L-9.168,65.626L0,64.525Z" style="fill:rgb(118,75,52);fill-rule:nonzero;"/>
                    </g>
                    <g transform="matrix(1,0,0,1,41.5346,-523.233)">
                        <path d="M0,5.869C0,5.869 0.366,20.167 -3.667,23.465C-7.7,26.765 -17.232,29.699 -18.697,30.431C-20.166,31.164 -41.43,22.365 -43.63,20.898C-45.828,19.432 -49.129,-0.732 -46.194,-8.064C-43.262,-15.397 -33.364,-25.295 -33.364,-25.295C-33.364,-25.295 -5.867,-6.598 -4.033,-6.231C-2.202,-5.864 1.583,-0.299 0,5.869" style="fill:rgb(118,75,52);fill-rule:nonzero;"/>
                    </g>
                    <g transform="matrix(-0.793634,-0.608389,-0.608387,0.79364,57.3932,-412.761)">
                        <path d="M-10.371,-32.116C-12.331,-32.791 -30.194,-15.897 -27.973,-10.961C-25.75,-6.025 -15.646,-4.745 -10.371,-4.396C-5.094,-4.048 6.699,-9.791 5.981,-11.264C5.264,-12.737 -5.987,-30.601 -10.371,-32.116" style="fill:rgb(118,75,52);fill-rule:nonzero;"/>
                    </g>
                    <g transform="matrix(1,0,0,1,60.9644,-439.636)">
                        <path d="M0,4.032C0,4.032 -6.599,-16.499 -25.297,-21.999C-43.995,-27.498 -56.825,-29.33 -57.927,-27.498C-59.025,-25.664 -59.025,-3.667 -56.092,5.866C-53.159,15.397 -46.194,33.362 -35.563,26.395C-24.931,19.43 -0.365,6.597 0,4.032" style="fill:rgb(118,75,52);fill-rule:nonzero;"/>
                    </g>
                    <g transform="matrix(1,0,0,1,14.4049,-490.597)">
                        <path d="M0,2.565C2.198,4.764 5.864,16.497 4.032,16.864C2.197,17.231 -28.597,19.43 -36.663,17.231C-44.729,15.032 -54.995,8.432 -54.262,4.764C-53.528,1.1 -42.896,-16.865 -42.896,-16.865L0,2.565Z" style="fill:rgb(118,75,52);fill-rule:nonzero;"/>
                    </g>
                    <g transform="matrix(1,0,0,1,-6.12749,-438.538)">
                        <path d="M0,-23.098C0,-23.098 1.1,7.332 -4.764,14.665C-10.633,21.997 -27.861,26.031 -28.963,27.13C-30.063,28.23 -77.357,19.064 -77.357,19.064C-77.357,19.064 -69.292,-38.129 -59.025,-44.729C-48.76,-51.328 -36.295,-35.928 -28.598,-31.897C-20.898,-27.864 0,-23.098 0,-23.098" style="fill:rgb(118,75,52);fill-rule:nonzero;"/>
                    </g>
                    <g transform="matrix(1,0,0,1,149.321,-627.351)">
                        <path d="M0,70.393C0,70.393 -16.498,66.361 -21.264,66.726C-26.029,67.094 -18.7,39.964 -18.332,32.265C-17.965,24.566 -32.997,6.601 -32.997,6.601C-32.997,6.601 -31.528,0 -21.264,0C-10.998,0 12.097,26.765 13.199,29.331C14.297,31.898 26.396,43.997 19.064,51.329C11.731,58.66 0,70.393 0,70.393" style="fill:rgb(118,75,52);fill-rule:nonzero;"/>
                    </g>
                    <g transform="matrix(1,0,0,1,54.7321,-357.148)">
                        <path d="M0,-60.492C0,-60.492 5.867,-49.494 14.3,-43.262C22.731,-37.029 25.663,-23.83 25.663,-23.83L4.033,0C4.033,0 -6.967,-0.002 -12.465,-5.498C-17.965,-10.998 -34.463,-35.564 -31.895,-40.328C-29.33,-45.096 -9.898,-59.392 -9.898,-59.392L0,-60.492Z" style="fill:rgb(118,75,52);fill-rule:nonzero;"/>
                    </g>
                    <g transform="matrix(1,0,0,1,0.104873,-370.713)">
                        <path d="M0,-50.96C0,-50.96 1.836,-43.995 9.9,-33.728C17.967,-23.464 19.433,-6.6 17.231,-3.667C15.031,-0.733 -2.566,0 -8.432,-1.466C-14.299,-2.933 -41.063,-29.696 -41.063,-29.696C-41.063,-29.696 -26.029,-38.128 -20.896,-41.064C-15.764,-43.995 0,-50.96 0,-50.96" style="fill:rgb(118,75,52);fill-rule:nonzero;"/>
                    </g>
                    <g transform="matrix(1,0,0,1,206.514,-469.334)">
                        <path d="M0,-26.765C2.933,-28.962 15.396,-33.363 21.265,-31.163C27.13,-28.964 23.829,2.932 23.829,2.932L5.499,6.598C5.499,6.598 -11,-15.766 -12.1,-19.798C-13.197,-23.831 0,-26.765 0,-26.765" style="fill:rgb(118,75,52);fill-rule:nonzero;"/>
                    </g>
                    <g transform="matrix(1,0,0,1,206.147,-422.775)">
                        <path d="M0,-39.227C0,-39.227 32.629,-20.529 28.965,-15.397C25.298,-10.264 13.196,3.3 13.196,3.3C13.196,3.3 4.399,4.034 1.467,4.035C-1.468,4.035 -3.667,-19.43 -3.667,-24.563C-3.667,-29.696 -6.23,-43.262 0,-39.227" style="fill:rgb(118,75,52);fill-rule:nonzero;"/>
                    </g>
                    <g transform="matrix(1,0,0,1,-106.733,-546.218)">
                        <path d="M0,-62.91C0,-62.91 -3.846,-58.57 -6.645,-53.739C-9.441,-48.906 -13.174,-39.387 -13.203,-36.065C-13.234,-32.744 -13.703,-25.786 -9.54,-20.484C-5.379,-15.181 7.576,-6.236 9.904,-4.11C12.232,-1.984 13.309,4.424 20.707,1.254C28.104,-1.919 36.406,-6.459 39.523,-10.883C42.641,-15.308 47.156,-22.149 43.026,-30.769C38.896,-39.391 23.177,-56.056 17.937,-58.534C12.695,-61.011 3.117,-67.334 0,-62.91" style="fill:rgb(118,75,52);fill-rule:nonzero;"/>
                    </g>
                    <g transform="matrix(1,0,0,1,-99.4805,-602.303)">
                        <path d="M0,-11.855C0,-11.855 19.682,-3.575 22.564,0.095C25.445,3.765 37.088,14.4 40.146,16.615C43.201,18.828 59.219,20.757 60.617,18.337C62.016,15.923 62.629,10.83 57.566,6.893C52.5,2.96 41.407,-6.129 37.74,-12.479C34.075,-18.83 30.062,-31.499 22.372,-32.055C14.686,-32.612 11.687,-32.235 6.793,-28.392C1.898,-24.551 -2.152,-15.437 0,-11.855" style="fill:rgb(118,75,52);fill-rule:nonzero;"/>
                    </g>
                    <g transform="matrix(1,0,0,1,-110.08,-599.84)">
                        <path d="M0,-15.226C0,-15.226 -3.061,-8.208 -10.752,0.465C-18.443,9.141 -21.414,15.429 -33.646,15.803C-45.877,16.174 -54.117,14.077 -59.329,8.278C-64.539,2.482 -67.854,-6.781 -64.68,-8.613C-61.504,-10.447 -57.719,-8.146 -52.041,-9.306C-46.361,-10.468 -40.332,-14.545 -37.215,-18.968C-34.098,-23.395 -33.133,-31.4 -25.445,-30.845C-17.758,-30.288 -8.324,-25.83 -4.539,-23.525C-0.755,-21.225 0,-15.226 0,-15.226" style="fill:rgb(118,75,52);fill-rule:nonzero;"/>
                    </g>
                    <g transform="matrix(1,0,0,1,-146.646,-625.192)">
                        <path d="M0,-11.268C0,-11.268 -0.358,10.106 -16.726,11.089C-33.092,12.072 -36.09,12.451 -37.84,17.779C-39.59,23.107 -47.574,37.285 -53.686,23.625C-59.793,9.965 -59.197,-28.737 -49.146,-38.606C-39.095,-48.473 -21.359,-48.553 -15.799,-45.667C-10.237,-42.784 -12.807,-27.582 -9.314,-19.777C-5.825,-11.969 0.701,-17.093 0,-11.268" style="fill:rgb(118,75,52);fill-rule:nonzero;"/>
                    </g>
                    <g transform="matrix(1,0,0,1,-131.471,-530.021)">
                        <path d="M0,-48.483C0,-48.483 -19.8,-52.713 -25.57,-41.59C-31.34,-30.47 -32.571,-11.045 -20.81,-4.462C-9.045,2.126 8.424,4.23 18.27,-0.862C28.115,-5.955 38.337,-8.047 27.014,-18.274C15.689,-28.499 1.633,-49.762 0,-48.483" style="fill:rgb(118,75,52);fill-rule:nonzero;"/>
                    </g>
                    <g transform="matrix(1,0,0,1,-183.88,-533.297)">
                        <path d="M0,-60.749C0,-60.749 21.948,-43.705 22.238,-39.977C22.528,-36.248 18.151,-18.312 18.499,-11.994C18.847,-5.674 10.778,0 -1.685,-0.762C-14.149,-1.525 -43.025,-31.588 -42.086,-45.508C-41.148,-59.428 -16.227,-48.671 -9.789,-53.066C-3.353,-57.46 0,-60.749 0,-60.749" style="fill:rgb(118,75,52);fill-rule:nonzero;"/>
                    </g>
                    <g transform="matrix(1,0,0,1,-100.186,-501.115)">
                        <path d="M0,-27.458C0,-27.458 10.417,-6.634 13.851,-1.421C17.285,3.795 30.24,12.742 30.24,12.742L64.432,1.716C64.432,1.716 64.354,-16.017 62.199,-19.599C60.046,-23.183 39.287,-37.868 35.736,-39.034C32.184,-40.2 8.157,-33.861 8.157,-33.861L0,-27.458Z" style="fill:rgb(118,75,52);fill-rule:nonzero;"/>
                    </g>
                    <g transform="matrix(1,0,0,1,-110.205,-456.091)">
                        <path d="M0,-65.935C0,-65.935 -29.242,-56.164 -32.186,-53.193C-35.127,-50.224 -36.414,-33.392 -35.543,-31.441C-34.67,-29.49 -18.402,-2.051 -18.402,-2.051C-18.402,-2.051 10.893,0 17.011,-4.802C23.128,-9.605 30.44,-21.28 30.297,-23.144C30.151,-25.007 19.385,-42.92 19.385,-42.92L9.23,-65.931L0,-65.935Z" style="fill:rgb(118,75,52);fill-rule:nonzero;"/>
                    </g>
                    <g transform="matrix(1,0,0,1,-56.8716,-541.783)">
                        <path d="M0,-12.227C0,-12.227 1.345,-26.465 5.744,-29.259C10.142,-32.053 19.955,-33.828 21.5,-34.376C23.043,-34.93 43.102,-23.653 45.109,-21.934C47.12,-20.215 47.984,0.201 44.197,7.128C40.406,14.059 29.395,22.703 29.395,22.703C29.395,22.703 4.332,0.851 2.555,0.268C0.779,-0.317 -2.311,-6.293 0,-12.227" style="fill:rgb(118,75,52);fill-rule:nonzero;"/>
                    </g>
                    <g transform="matrix(0.715193,0.698924,0.698924,-0.715197,-96.0045,-656.663)">
                        <path d="M13.141,-4.82C11.18,-5.496 -6.682,11.395 -4.462,16.334C-2.241,21.27 7.864,22.549 13.141,22.899C18.418,23.247 30.211,17.505 29.494,16.031C28.775,14.558 17.524,-3.307 13.141,-4.82" style="fill:rgb(118,75,52);fill-rule:nonzero;"/>
                    </g>
                    <g transform="matrix(1,0,0,1,-66.3888,-621.184)">
                        <path d="M0,-16.32C0,-16.32 4.098,4.853 22.003,12.547C39.908,20.243 52.429,23.598 53.741,21.909C55.052,20.219 57.684,-1.619 55.91,-11.435C54.137,-21.248 49.369,-39.918 37.98,-34.273C26.592,-28.627 0.669,-18.824 0,-16.32" style="fill:rgb(118,75,52);fill-rule:nonzero;"/>
                    </g>
                    <g transform="matrix(1,0,0,1,-168.619,-453.927)">
                        <path d="M0,-73.656C0,-73.656 15.898,-67.68 20.673,-67.474C25.449,-67.267 14.924,-41.209 13.641,-33.609C12.357,-26.01 25.131,-6.377 25.131,-6.377C25.131,-6.377 22.887,0 12.695,-1.227C2.504,-2.455 -17.229,-31.788 -18.014,-34.468C-18.799,-37.146 -29.365,-50.603 -21.208,-57.009C-13.051,-63.412 0,-73.656 0,-73.656" style="fill:rgb(118,75,52);fill-rule:nonzero;"/>
                    </g>
                    <g transform="matrix(1,0,0,1,-58.0549,-715.044)">
                        <path d="M0,60.45C0,60.45 -4.508,48.83 -12.135,41.633C-19.76,34.438 -21.096,20.983 -21.096,20.983L3.229,-0.091C3.229,-0.091 14.149,1.224 18.953,7.343C23.754,13.459 37.196,39.818 34.078,44.243C30.963,48.67 9.961,60.541 9.961,60.541L0,60.45Z" style="fill:rgb(118,75,52);fill-rule:nonzero;"/>
                    </g>
                    <g transform="matrix(1,0,0,1,-4.30325,-695.722)">
                        <path d="M0,51.663C0,51.663 -0.986,44.53 -7.766,33.373C-14.546,22.216 -13.987,5.297 -11.452,2.647C-8.916,0 8.641,1.376 14.291,3.534C19.94,5.692 43.311,35.461 43.311,35.461C43.311,35.461 27.379,42.036 21.934,44.334C16.485,46.632 0,51.663 0,51.663" style="fill:rgb(118,75,52);fill-rule:nonzero;"/>
                    </g>
                    <g transform="matrix(1,0,0,1,-218.127,-623.916)">
                        <path d="M0,29.071C-3.176,30.904 -16.078,33.782 -21.637,30.895C-27.198,28.01 -20.109,-3.263 -20.109,-3.263L-1.471,-4.711C-1.471,-4.711 12.236,19.465 12.844,23.6C13.454,27.736 0,29.071 0,29.071" style="fill:rgb(118,75,52);fill-rule:nonzero;"/>
                    </g>
                    <g transform="matrix(1,0,0,1,-213.685,-667.707)">
                        <path d="M0,39.053C0,39.053 -30.16,16.587 -25.907,11.93C-21.654,7.273 -8.02,-4.749 -8.02,-4.749C-8.02,-4.749 0.805,-4.426 3.716,-4.073C6.629,-3.723 6.006,19.835 5.391,24.932C4.779,30.027 5.705,43.802 0,39.053" style="fill:rgb(118,75,52);fill-rule:nonzero;"/>
                    </g>
                    <g transform="matrix(1,0,0,1,-22.1489,-563.251)">
                        <path d="M0,-29.025C0,-29.025 25.193,-27.931 30.67,-25.741C36.147,-23.55 46.004,-21.359 42.172,-17.525C38.337,-13.692 29.574,-11.5 27.932,-6.572C26.288,-1.644 22.455,0 16.432,-3.834C10.406,-7.668 -4.381,-20.263 -4.381,-20.263L0,-29.025Z" style="fill:rgb(118,75,52);fill-rule:nonzero;"/>
                    </g>
                    <g transform="matrix(1,0,0,1,-1.33644,-610.898)">
                        <path d="M0,-19.717C0,-19.717 -7.668,7.667 -3.285,10.953C1.096,14.238 18.62,18.621 23.55,20.263C28.479,21.905 38.884,23.551 43.266,13.689C47.647,3.833 61.887,-8.215 55.861,-18.622C49.838,-29.028 46.552,-43.268 39.432,-39.433C32.312,-35.6 0,-19.717 0,-19.717" style="fill:rgb(118,75,52);fill-rule:nonzero;"/>
                    </g>
                    <g transform="matrix(1,0,0,1,66.028,-662.933)">
                        <path d="M0,29.575C-1.289,27.641 -13.146,13.145 -8.764,6.573C-4.383,0 15.881,-7.119 19.716,-3.284C23.549,0.548 30.669,24.098 30.669,24.098C30.669,24.098 24.644,36.694 19.715,36.147C14.785,35.599 2.189,32.862 0,29.575" style="fill:rgb(118,75,52);fill-rule:nonzero;"/>
                    </g>
                    <g transform="matrix(1,0,0,1,103.267,-673.336)">
                        <path d="M0,39.979C0,39.979 -9.856,11.5 -8.214,9.856C-6.57,8.215 4.932,-2.191 14.788,2.189C24.646,6.573 25.195,22.454 22.457,27.383C19.719,32.313 18.621,38.883 13.692,40.526C8.765,42.168 3.285,42.17 0,39.979" style="fill:rgb(118,75,52);fill-rule:nonzero;"/>
                    </g>
                    <g transform="matrix(1,0,0,1,-91.1555,-398.404)">
                        <path d="M0,-51.482C0,-51.482 -15.881,-52.029 -23.55,-46.551C-31.216,-41.076 -32.312,-31.218 -26.836,-23.55C-21.358,-15.882 -13.69,0.547 -9.856,-3.287C-6.024,-7.121 4.929,-36.695 4.93,-39.98C4.93,-43.265 0,-51.482 0,-51.482" style="fill:rgb(118,75,52);fill-rule:nonzero;"/>
                    </g>
                    <g transform="matrix(1,0,0,1,271.646,-324.212)">
                        <path d="M0,-72.397C0,-72.397 -5.394,-68.853 -9.809,-64.472C-14.218,-60.091 -21.001,-50.943 -22,-47.383C-22.998,-43.824 -25.527,-36.479 -22.595,-29.571C-19.664,-22.662 -8.34,-9.276 -6.453,-6.311C-4.569,-3.35 -5.281,3.85 3.597,2.593C12.469,1.335 22.713,-1.126 27.353,-4.977C31.993,-8.826 38.839,-14.866 36.902,-25.334C34.972,-35.807 22.922,-58.288 18.01,-62.477C13.093,-66.666 4.639,-76.247 0,-72.397" style="fill:rgb(118,75,52);fill-rule:nonzero;"/>
                    </g>
                    <g transform="matrix(1,0,0,1,280.908,-366.135)">
                        <path d="M0,-33.777C0,-33.777 18.752,-19.151 20.78,-14.369C22.809,-9.585 32.23,5.232 34.875,8.503C37.514,11.774 54.17,18.505 56.376,16.315C58.582,14.123 60.723,8.824 56.422,3.122C52.124,-2.58 42.844,-15.577 40.75,-23.469C38.656,-31.364 38.029,-46.149 29.924,-48.981C21.825,-51.817 18.489,-52.282 12.111,-49.578C5.734,-46.872 -1.274,-38.255 0,-33.777" style="fill:rgb(118,75,52);fill-rule:nonzero;"/>
                    </g>
                    <g transform="matrix(1,0,0,1,269.777,-404.269)">
                        <path d="M0,0.297C0,0.297 -5.33,6.95 -16.119,14.041C-26.911,21.127 -31.936,27.023 -45.193,23.865C-58.446,20.707 -66.695,16.057 -70.606,8.305C-74.523,0.561 -75.391,-10.361 -71.445,-11.406C-67.503,-12.457 -64.104,-8.882 -57.659,-8.477C-51.216,-8.075 -43.549,-10.699 -38.914,-14.548C-34.275,-18.398 -30.906,-26.726 -22.805,-23.892C-14.704,-21.057 -5.859,-13.521 -2.464,-9.943C0.936,-6.368 0,0.297 0,0.297" style="fill:rgb(118,75,52);fill-rule:nonzero;"/>
                    </g>
                    <g transform="matrix(0.986511,-0.163688,-0.163688,-0.986514,280.222,-421.472)">
                        <path d="M-5.616,-0.074C-5.616,-0.074 -40.221,32.557 -39.042,39.971C-37.861,47.382 -36.524,73.836 -5.616,68.825C25.289,63.813 36.38,32.632 21.303,21.274C6.227,9.912 8.799,-0.752 -5.616,-0.074" style="fill:rgb(118,75,52);fill-rule:nonzero;"/>
                    </g>
                    <g transform="matrix(1,0,0,1,236.15,-322.084)">
                        <path d="M0,-48.803C0,-48.803 -20.052,-59.111 -29.491,-48.833C-38.928,-38.561 -45.902,-18.037 -35.175,-7.536C-24.447,2.964 -6.282,10.308 5.781,7.698C17.847,5.089 29.445,5.812 20.246,-8.472C11.049,-22.758 2.123,-49.704 0,-48.803" style="fill:rgb(118,75,52);fill-rule:nonzero;"/>
                    </g>
                    <g transform="matrix(1,0,0,1,255.256,-260.624)">
                        <path d="M0,-47.495C0,-47.495 5.139,-22.079 7.314,-15.475C9.487,-8.874 20.808,4.511 20.808,4.511L60.77,2.611C60.77,2.611 65.844,-16.474 64.571,-20.956C63.297,-25.432 45.26,-47.257 41.777,-49.544C38.297,-51.831 10.629,-52.006 10.629,-52.006L0,-47.495Z" style="fill:rgb(118,75,52);fill-rule:nonzero;"/>
                    </g>
                    <g transform="matrix(1,0,0,1,242.58,-229.953)">
                        <path d="M0,-74.045C0,-74.045 -34.277,-72.043 -38.301,-69.708C-42.328,-67.374 -48.608,-49.655 -48.239,-47.305C-47.87,-44.953 -38.365,-10.73 -38.365,-10.73C-38.365,-10.73 -7.471,0 0.502,-3.383C8.473,-6.764 19.729,-17.189 20.119,-19.232C20.502,-21.278 14.143,-43.667 14.143,-43.667L9.921,-71.353L0,-74.045Z" style="fill:rgb(118,75,52);fill-rule:nonzero;"/>
                    </g>
                    <g transform="matrix(1,0,0,1,309.209,-295.125)">
                        <path d="M0,-27.735C0,-27.735 5.588,-42.65 11.128,-44.371C16.666,-46.097 27.733,-45.145 29.553,-45.291C31.374,-45.437 49.654,-27.477 51.314,-25.045C52.973,-22.613 47.967,-0.42 41.878,5.927C35.79,12.273 21.439,18.362 21.439,18.362C21.439,18.362 0.854,-12.418 -0.888,-13.559C-2.629,-14.705 -4.209,-22.028 0,-27.735" style="fill:rgb(118,75,52);fill-rule:nonzero;"/>
                    </g>
                    <g transform="matrix(0.507699,0.861534,0.861533,-0.5077,296.065,-448.153)">
                        <path d="M18.185,-6.357C16,-7.112 -3.892,11.698 -1.416,17.199C1.054,22.691 12.312,24.122 18.185,24.507C24.057,24.898 37.191,18.505 36.392,16.863C35.592,15.223 23.065,-4.673 18.185,-6.357" style="fill:rgb(118,75,52);fill-rule:nonzero;"/>
                    </g>
                    <g transform="matrix(1,0,0,1,181.404,-241.128)">
                        <path d="M0,-85.833C0,-85.833 15.351,-74.783 20.425,-73.174C25.498,-71.564 6.605,-46.613 3.014,-38.816C-0.577,-31.023 7.443,-6.204 7.443,-6.204C7.443,-6.204 3.179,0 -7.422,-4.286C-18.021,-8.57 -30.697,-45.841 -30.762,-48.947C-30.825,-52.059 -38.267,-69.6 -27.637,-74.107C-17.008,-78.616 0,-85.833 0,-85.833" style="fill:rgb(118,75,52);fill-rule:nonzero;"/>
                    </g>
                    <g transform="matrix(1,0,0,1,423.99,-238.04)">
                        <path d="M0,71.793C0,71.793 5.783,68.92 10.688,65.099C15.594,61.279 23.418,53.006 24.838,49.59C26.255,46.177 29.641,39.187 27.557,31.975C25.474,24.765 15.828,10.125 14.316,6.957C12.799,3.788 14.36,-3.272 5.399,-3.092C-3.561,-2.902 -14.027,-1.68 -19.092,1.589C-24.157,4.853 -31.676,10.035 -31.011,20.661C-30.341,31.283 -21.064,55.047 -16.689,59.794C-12.313,64.539 -5.067,75.065 0,71.793" style="fill:rgb(118,75,52);fill-rule:nonzero;"/>
                    </g>
                    <g transform="matrix(1,0,0,1,414.399,-206.293)">
                        <path d="M0,42.222C0,42.222 -16.866,25.459 -18.308,20.466C-19.754,15.474 -27.338,-0.362 -29.568,-3.928C-31.799,-7.487 -47.528,-16.162 -49.984,-14.249C-52.436,-12.34 -55.195,-7.335 -51.611,-1.158C-48.019,5.017 -40.359,19.029 -39.227,27.114C-38.091,35.201 -39.234,49.96 -31.529,53.737C-23.826,57.522 -20.571,58.384 -13.914,56.459C-7.262,54.534 0.729,46.819 0,42.222" style="fill:rgb(118,75,52);fill-rule:nonzero;"/>
                    </g>
                    <g transform="matrix(1,0,0,1,424.963,-150.897)">
                        <path d="M0,-7.817C0,-7.817 6.091,-13.784 17.647,-19.532C29.212,-25.276 34.905,-30.529 47.686,-25.809C60.472,-21.091 68.101,-15.484 71.062,-7.324C74.024,0.833 73.577,11.781 69.536,12.35C65.491,12.917 62.548,8.963 56.199,7.791C49.849,6.621 41.925,8.311 36.858,11.577C31.793,14.848 27.457,22.712 19.752,18.926C12.05,15.148 4.169,6.605 1.224,2.647C-1.726,-1.306 0,-7.817 0,-7.817" style="fill:rgb(118,75,52);fill-rule:nonzero;"/>
                    </g>
                    <g transform="matrix(-0.999006,0.0445584,0.0445583,0.999007,415.262,-70.4187)">
                        <path d="M-6.081,-72.292C-6.081,-72.292 -40.687,-39.662 -39.506,-32.247C-38.327,-24.835 -36.99,1.621 -6.081,-3.394C24.823,-8.404 35.913,-39.585 20.837,-50.946C5.76,-62.304 8.336,-72.971 -6.081,-72.292" style="fill:rgb(118,75,52);fill-rule:nonzero;"/>
                    </g>
                    <g transform="matrix(1,0,0,1,453.796,-96.9185)">
                        <path d="M0,-24.452C0,-24.452 9.289,-46.372 26.598,-40.555C43.904,-34.738 47.157,-33.878 51.189,-38.648C55.22,-43.42 69.376,-54.726 69.984,-38.074C70.591,-21.421 53.826,18.285 39.329,24.279C24.834,30.274 6.492,22.954 1.955,17.657C-2.582,12.357 6.412,-2.266 6.066,-11.782C5.719,-21.295 -3.156,-18.731 0,-24.452" style="fill:rgb(118,75,52);fill-rule:nonzero;"/>
                    </g>
                    <g transform="matrix(1,0,0,1,462.31,-232.845)">
                        <path d="M0,45.307C0,45.307 18.681,57.937 29.277,48.864C39.876,39.788 49.253,20.251 39.856,8.544C30.464,-3.166 13.307,-12.63 1.013,-11.481C-11.275,-10.337 -22.706,-12.439 -15.277,2.847C-7.854,18.128 -2.217,45.946 0,45.307" style="fill:rgb(118,75,52);fill-rule:nonzero;"/>
                    </g>
                    <g transform="matrix(-0.401241,-0.91597,-0.91597,0.401242,362.335,-136.641)">
                        <path d="M-11.439,-27.506C-13.622,-28.258 -33.512,-9.445 -31.042,-3.95C-28.565,1.549 -17.31,2.973 -11.439,3.361C-5.562,3.746 7.569,-2.648 6.772,-4.29C5.972,-5.931 -6.561,-25.819 -11.439,-27.506" style="fill:rgb(118,75,52);fill-rule:nonzero;"/>
                    </g>
                    <g transform="matrix(1,0,0,1,370.491,-213.118)">
                        <path d="M0,59.333C0,59.333 4.609,35.764 -10.667,20.348C-25.941,4.931 -37.471,-3.759 -39.529,-2.563C-41.588,-1.365 -53.414,20.082 -55.684,30.955C-57.945,41.829 -60.814,63.092 -46.703,62.016C-32.587,60.942 -1.737,61.639 0,59.333" style="fill:rgb(118,75,52);fill-rule:nonzero;"/>
                    </g>
                    <g transform="matrix(1,0,0,1,354.76,-82.7145)">
                        <path d="M0,-56.905C0,-56.905 -0.192,-43.024 4.676,-32.413C9.543,-21.8 5.309,-7.355 5.309,-7.355L-28.596,4.25C-28.596,4.25 -39.322,-1.663 -41.729,-9.987C-44.135,-18.301 -47.01,-51.128 -41.945,-54.393C-36.88,-57.664 -10.243,-61.155 -10.243,-61.155L0,-56.905Z" style="fill:rgb(118,75,52);fill-rule:nonzero;"/>
                    </g>
                    <g transform="matrix(1,0,0,1,303.662,-117.551)">
                        <path d="M0,-55.376C0,-55.376 -1.959,-47.599 0.384,-33.251C2.729,-18.904 -4.91,-1.668 -8.632,0.009C-12.354,1.685 -29.908,-7.062 -34.839,-11.649C-39.772,-16.234 -51.479,-56.723 -51.479,-56.723C-51.479,-56.723 -32.284,-56.861 -25.702,-56.961C-19.118,-57.061 0,-55.376 0,-55.376" style="fill:rgb(118,75,52);fill-rule:nonzero;"/>
                    </g>
                    <g transform="matrix(1,0,0,1,343.693,-258.275)">
                        <path d="M0,39.338C0,39.338 -25.552,27.695 -30.294,23.148C-35.031,18.597 -44.294,12.225 -38.739,9.864C-33.18,7.509 -23.216,8.902 -19.467,4.5C-15.712,0.097 -11.066,0 -6.448,6.474C-1.828,12.943 8.183,32.12 8.183,32.12L0,39.338Z" style="fill:rgb(118,75,52);fill-rule:nonzero;"/>
                    </g>
                    <g transform="matrix(1,0,0,1,306.208,-244.056)">
                        <path d="M0,56.016C0,56.016 19.342,30.944 16.191,25.722C13.038,20.501 -3.229,8.662 -7.629,4.91C-12.034,1.156 -22.092,-4.883 -30.729,3.468C-39.364,11.817 -59.094,18.314 -57.219,31.573C-55.343,44.828 -57.89,60.899 -48.94,59.912C-39.988,58.927 0,56.016 0,56.016" style="fill:rgb(118,75,52);fill-rule:nonzero;"/>
                    </g>
                    <g transform="matrix(1,0,0,1,235.518,-198.604)">
                        <path d="M0,-14.722C0.525,-12.19 6.713,7.726 -0.552,12.682C-7.818,17.637 -31.71,16.532 -34.069,10.975C-36.426,5.421 -33.951,-21.868 -33.951,-21.868C-33.951,-21.868 -22.477,-32.359 -17.612,-29.735C-12.752,-27.112 -0.891,-19.03 0,-14.722" style="fill:rgb(118,75,52);fill-rule:nonzero;"/>
                    </g>
                    <g transform="matrix(1,0,0,1,197.07,-194.025)">
                        <path d="M0,-34.845C0,-34.845 -1.711,-1.328 -4.091,-0.318C-6.472,0.695 -22.688,6.639 -31.036,-1.997C-39.387,-10.636 -33.326,-27.265 -28.44,-31.211C-23.554,-35.157 -19.684,-41.484 -13.91,-41.124C-8.132,-40.761 -2.479,-38.478 0,-34.845" style="fill:rgb(118,75,52);fill-rule:nonzero;"/>
                    </g>
                    <g transform="matrix(1,0,0,1,-122.777,-223.224)">
                        <path d="M0,-39.798L-87.676,-39.001L-85.953,-11.191L-16.307,-11.986L-16.892,-26.525L-76.025,-26.652L-75.826,-24.464L-18.62,-23.548L-18.62,-15.825L-83.869,-15.075L-85.111,-35.163L-2.315,-35.913L-2.315,-2.704L-100.168,-2.704L-102.289,-38.817L-103.595,-38.627L-102.206,0L-0.386,-0.772L0,-39.798Z" style="fill:rgb(118,75,52);fill-rule:nonzero;"/>
                    </g>
                    <g transform="matrix(1,0,0,1,-20.4917,-222.065)">
                        <path d="M0,-40.959L-81.074,-38.756L-80.977,-12.348L-11.218,-13.146L-11.218,-28.601L-70.938,-27.811L-70.735,-22.275L-15.199,-24.707L-15.199,-16.984L-78.666,-16.236L-78.681,-36.322L-1.776,-37.986L-2.316,-3.863L-94.804,-6.823L-94.648,-40.302L-96.268,-39.873L-97.338,0L0,0L0,-40.959Z" style="fill:rgb(118,75,52);fill-rule:nonzero;"/>
                    </g>
                    <g transform="matrix(1,0,0,1,91.8937,-222.065)">
                        <path d="M0,-41.592L-88.524,-40.162L-88.089,-12.092L-17.155,-11.717L-16.199,-28.713L-78.68,-27.811L-78.523,-23.95L-19.467,-24.707L-19.467,-16.985L-85.776,-17.125L-85.96,-36.324L-3.162,-37.072L-3.547,-5.539L-101.017,-3.863L-103.136,-39.976L-104.905,-40.302L-103.113,0L-0.849,0L0,-41.592Z" style="fill:rgb(118,75,52);fill-rule:nonzero;"/>
                    </g>
                    <g transform="matrix(1,0,0,1,193.098,-222.066)">
                        <path d="M0,-45.453L-80.766,-40.162L-81.92,-12.49L-10.984,-13.145L-10.984,-28.6L-70.705,-27.81L-70.686,-23.95L-13.298,-24.707L-13.298,-16.984L-78.432,-16.236L-78.448,-36.324L-2.083,-37.072L-3.24,-6.054L-93.491,-5.539L-92.256,-40.302L-96.033,-39.873L-97.105,0L-0.772,-1.931L0.23,-40.959L0,-45.453Z" style="fill:rgb(118,75,52);fill-rule:nonzero;"/>
                    </g>
                    <g transform="matrix(1,0,0,1,305.331,-222.065)">
                        <path d="M0,-40.957L-87.675,-40.162L-85.953,-12.35L-16.307,-13.145L-16.307,-28.601L-76.026,-27.811L-76.008,-23.95L-18.618,-24.707L-18.618,-16.984L-83.867,-16.236L-85.11,-36.324L-2.314,-37.072L-2.314,-3.863L-100.168,-3.863L-102.287,-39.976L-104.593,-39.6L-102.265,0L0,0L0,-40.957Z" style="fill:rgb(118,75,52);fill-rule:nonzero;"/>
                    </g>
                    <g transform="matrix(1,0,0,1,323.822,140.775)">
                        <path d="M0,58.854L17.503,58.854L18.751,0.849L3.758,0L0,58.854Z" style="fill:rgb(118,75,52);fill-rule:nonzero;"/>
                    </g>
                    <g transform="matrix(0,-1,-1,0,386.573,175.218)">
                        <path d="M-25.248,32.755L32.755,32.755L32.755,27.754L-22.732,25.248L-25.248,32.755Z" style="fill:rgb(118,75,52);fill-rule:nonzero;"/>
                    </g>
                    <g transform="matrix(0.0683946,-0.997661,-0.997654,-0.0683948,405.395,180.794)">
                        <path d="M-17.937,35.433L36.833,35.433L36.271,19.094L-16.655,16.727L-17.937,35.433Z" style="fill:rgb(118,75,52);fill-rule:nonzero;"/>
                    </g>
                    <g transform="matrix(-0.736072,-0.676903,-0.676902,0.736072,435.947,148.981)">
                        <path d="M-23.316,40.513L11.466,40.513L8.592,2.466L-22.399,12.803L-23.316,40.513Z" style="fill:rgb(118,75,52);fill-rule:nonzero;"/>
                    </g>
                    <g transform="matrix(0.0237075,-0.999717,-0.999717,-0.0237076,490.619,180.626)">
                        <path d="M-16.519,36.888L36.46,36.888L37.773,16.915L-15.319,21.897L-16.519,36.888Z" style="fill:rgb(118,75,52);fill-rule:nonzero;"/>
                    </g>
                    <g transform="matrix(1,0,0,1,293.492,-626.427)">
                        <path d="M0,-0.004L14.837,-15.192L31.233,-0.004L14.154,15.805L0,-0.004ZM14.837,-18.74L-3.903,-0.004L14.837,18.736L33.573,-0.004L14.837,-18.74Z" style="fill:rgb(166,85,37);fill-rule:nonzero;"/>
                    </g>
                    <g transform="matrix(1,0,0,1,257.637,-662.63)">
                        <path d="M0,0.857L15.636,-15.542L32.037,0.857L15.636,16.048L0,0.857ZM15.636,-17.878L-3.103,0.857L15.636,18.735L34.376,0.857L15.636,-17.878Z" style="fill:rgb(166,85,37);fill-rule:nonzero;"/>
                    </g>
                    <g transform="matrix(1,0,0,1,294.237,-662.588)">
                        <path d="M0,0.776L14.096,-13.986L27.992,0.776L14.096,15.533L0,0.776ZM14.096,-16.09L-2.768,0.776L14.096,16.866L30.959,0.776L14.096,-16.09Z" style="fill:rgb(166,85,37);fill-rule:nonzero;"/>
                    </g>
                    <g transform="matrix(1,0,0,1,48.1878,-661.76)">
                        <path d="M0,-0.006L14.718,-16.405L31.12,-0.006L14.718,16.395L0,-0.006ZM14.718,-18.741L-2.335,-0.006L14.718,18.735L33.457,-0.006L14.718,-18.741Z" style="fill:rgb(166,85,37);fill-rule:nonzero;"/>
                    </g>
                    <g transform="matrix(1,0,0,1,83.9944,-663.085)">
                        <path d="M0,1.248L13.919,-12.889L28.679,1.248L13.919,16.006L0,1.248ZM13.919,-15.619L-2.947,1.248L13.919,16.867L29.942,1.248L13.919,-15.619Z" style="fill:rgb(166,85,37);fill-rule:nonzero;"/>
                    </g>
                    <g transform="matrix(1,0,0,1,188.316,-697.108)">
                        <path d="M0,0.003L14.758,-14.759L29.518,0.003L14.758,14.763L0,0.003ZM14.758,-16.863L-1.187,0.003L14.758,16.866L31.618,0.003L14.758,-16.863Z" style="fill:rgb(166,85,37);fill-rule:nonzero;"/>
                    </g>
                    <g transform="matrix(1,0,0,1,221.674,-697.108)">
                        <path d="M0,0.003L16.402,-16.399L34.103,0.003L16.402,16.401L0,0.003ZM16.402,-18.737L-2.333,0.003L16.402,18.74L35.138,0.003L16.402,-18.737Z" style="fill:rgb(166,85,37);fill-rule:nonzero;"/>
                    </g>
                    <g transform="matrix(1,0,0,1,258.596,-698.647)">
                        <path d="M0,1.456L15.039,-13.581L29.521,1.456L14.762,16.217L0,1.456ZM14.762,-16.865L-0.609,1.456L14.762,18.321L31.625,1.456L14.762,-16.865Z" style="fill:rgb(166,85,37);fill-rule:nonzero;"/>
                    </g>
                    <g transform="matrix(1,0,0,1,80.84,-697.108)">
                        <path d="M0,0.003L17.117,-16.399L33.52,0.003L17.117,16.401L0,0.003ZM17.117,-18.737L-1.621,0.003L17.117,18.74L35.856,0.003L17.117,-18.737Z" style="fill:rgb(166,85,37);fill-rule:nonzero;"/>
                    </g>
                    <g transform="matrix(1,0,0,1,151.808,-698.729)">
                        <path d="M0,1.62L16.404,-14.782L32.806,1.62L15.725,17.118L0,1.62ZM16.551,-18.737L-2.334,1.62L16.404,20.357L34.322,1.62L16.862,-18.737L16.551,-18.737Z" style="fill:rgb(166,85,37);fill-rule:nonzero;"/>
                    </g>
                    <g transform="matrix(1,0,0,1,-377.209,-298.629)">
                        <path d="M0,-72.975L36.49,-36.487L0,2.898L-36.488,-36.487L0,-72.975ZM41.689,-36.487L0,-78.175L-41.687,-36.487L0,5.2L41.689,-36.487Z" style="fill:rgb(166,85,37);fill-rule:nonzero;"/>
                    </g>
                    <g transform="matrix(1,0,0,1,-377.209,-136.849)">
                        <path d="M0,-78.459L36.49,-41.969L0,-3.249L-36.488,-41.969L0,-78.459ZM41.689,-41.969L0,-81.413L-41.687,-41.969L0,2.954L41.689,-41.969Z" style="fill:rgb(166,85,37);fill-rule:nonzero;"/>
                    </g>
                    <g transform="matrix(1,0,0,1,-377.209,-608.767)">
                        <path d="M0,-76.166L36.49,-38.081L0,-1.594L-36.488,-38.081L0,-76.166ZM41.689,-38.081L0,-79.771L-41.687,-38.081L0,3.605L41.689,-38.081Z" style="fill:rgb(166,85,37);fill-rule:nonzero;"/>
                    </g>
                    <g transform="matrix(1,0,0,1,-377.209,-535.691)">
                        <path d="M0,-65.681L32.841,-32.841L0,0.001L-32.841,-32.841L0,-65.681ZM37.521,-32.841L0,-70.361L-37.52,-32.841L0,4.68L37.521,-32.841Z" style="fill:rgb(166,85,37);fill-rule:nonzero;"/>
                    </g>
                    <g transform="matrix(1,0,0,1,-377.209,-455.88)">
                        <path d="M0,-71.162L36.49,-34.669L0,1.818L-34.482,-36.181L0,-71.162ZM45.287,-34.341L0,-76.36L-41.687,-34.669L0,5.198L45.287,-33.653L45.287,-34.341Z" style="fill:rgb(166,85,37);fill-rule:nonzero;"/>
                    </g>
                    <g transform="matrix(1,0,0,1,31.5123,-657.87)">
                        <path d="M0,0L-17.235,19.344L-36.581,0L-17.235,-19.345L0,0ZM-17.235,20.962L4.864,0L-17.235,-20.962L-39.335,0L-17.235,20.962Z" style="fill:rgb(166,85,37);fill-rule:nonzero;"/>
                    </g>
                    <g transform="matrix(1,0,0,1,-8.70378,-616.189)">
                        <path d="M0,0L-18.366,19.346L-34.982,0L-18.366,-19.342L0,0ZM-18.366,22.102L3.734,0L-18.366,-22.102L-37.053,0L-18.366,22.102Z" style="fill:rgb(166,85,37);fill-rule:nonzero;"/>
                    </g>
                    <g transform="matrix(1,0,0,1,-50.1418,-615.175)">
                        <path d="M0,-1.017L-18.444,18.329L-37.788,-1.017L-18.444,-18.932L0,-1.017ZM-18.444,21.085L3.658,-1.017L-18.444,-22.102L-40.544,-1.017L-18.444,21.085Z" style="fill:rgb(166,85,37);fill-rule:nonzero;"/>
                    </g>
                    <g transform="matrix(1,0,0,1,-7.72612,-574.502)">
                        <path d="M0,-0.001L-19.344,19.345L-40.224,-0.001L-19.344,-19.345L0,-0.001ZM-19.344,22.101L2.757,-0.001L-19.344,-22.102L-41.444,-0.001L-19.344,22.101Z" style="fill:rgb(166,85,37);fill-rule:nonzero;"/>
                    </g>
                    <g transform="matrix(1,0,0,1,-90.5863,-574.502)">
                        <path d="M0,-0.001L-19.345,19.345L-39.873,-0.001L-19.345,-19.345L0,-0.001ZM-19.345,22.101L1.566,-0.001L-19.345,-22.102L-43.162,-0.001L-19.345,22.101Z" style="fill:rgb(166,85,37);fill-rule:nonzero;"/>
                    </g>
                    <g transform="matrix(1,0,0,1,55.4234,-154.289)">
                        <path d="M0,-35.064L19.623,-17.475L-0.105,2.144L-19.729,-17.588L0,-35.064ZM21.273,-17.471L0.016,-40.011L-21.371,-17.592L-0.113,4.947L21.273,-17.471Z" style="fill:rgb(166,85,37);fill-rule:nonzero;"/>
                    </g>
                    <g transform="matrix(1,0,0,1,55.3061,-112.053)">
                        <path d="M0,-35.424L17.657,-17.662L-0.1,-0.005L-17.764,-17.763L0,-35.424ZM20.183,-17.655L0.008,-37.944L-20.285,-17.771L-0.108,2.52L20.183,-17.655Z" style="fill:rgb(166,85,37);fill-rule:nonzero;"/>
                    </g>
                    <g transform="matrix(1,0,0,1,55.186,-69.8282)">
                        <path d="M0,-35.419L17.656,-17.659L-0.096,-1.457L-16.452,-19.211L0,-35.419ZM20.183,-17.651L0.006,-37.941L-20.282,-17.767L-0.108,2.522L20.183,-17.651Z" style="fill:rgb(166,85,37);fill-rule:nonzero;"/>
                    </g>
                    <g transform="matrix(1,0,0,1,55.066,-27.6842)">
                        <path d="M0,-35.597L18.171,-17.744L-0.105,1.876L-19.019,-18.668L0,-35.597ZM22.43,-17.732L0.014,-40.28L-22.533,-17.861L-0.114,4.683L22.43,-17.732Z" style="fill:rgb(166,85,37);fill-rule:nonzero;"/>
                    </g>
                    <g transform="matrix(1,0,0,1,103.486,-424.206)">
                        <path d="M0,-34.523L17.654,-16.763L-0.102,0.891L-16.23,-16.822L0,-34.523ZM20.182,-16.758L0.007,-37.049L-20.288,-16.873L-0.333,2.526L20.182,-16.758Z" style="fill:rgb(166,85,37);fill-rule:nonzero;"/>
                    </g>
                    <g transform="matrix(1,0,0,1,103.237,-378.243)">
                        <path d="M0,-38.018L19.748,-20.439L0.023,-0.82L-19.603,-20.551L-0.373,-38.018L0,-38.018ZM22.556,-20.431L-0.245,-40.001L-22.406,-20.559L0.014,1.983L22.556,-20.431Z" style="fill:rgb(166,85,37);fill-rule:nonzero;"/>
                    </g>
                    <g transform="matrix(1,0,0,1,97.8184,-153.994)">
                        <path d="M0,-35.41L17.66,-17.657L-0.101,0.003L-17.233,-17.755L0,-35.41ZM20.186,-17.649L0.009,-37.937L-20.28,-17.764L-0.107,2.527L20.186,-17.649Z" style="fill:rgb(166,85,37);fill-rule:nonzero;"/>
                    </g>
                    <g transform="matrix(1,0,0,1,97.7018,-114.438)">
                        <path d="M0,-33.889L19.626,-15.152L-0.102,1.695L-19.729,-15.264L0,-33.889ZM22.43,-15.143L0.012,-37.686L-22.532,-15.271L-0.106,3.797L22.43,-15.143Z" style="fill:rgb(166,85,37);fill-rule:nonzero;"/>
                    </g>
                    <g transform="matrix(1,0,0,1,97.5113,-28.4451)">
                        <path d="M0,-33.826L17.662,-16.864L-0.098,-0.242L-17.755,-16.964L0,-33.826ZM20.185,-16.857L0.008,-37.144L-19.352,-16.97L-0.107,3.318L20.185,-16.857Z" style="fill:rgb(166,85,37);fill-rule:nonzero;"/>
                    </g>
                    <g transform="matrix(1,0,0,1,97.9419,-194.639)">
                        <path d="M0,-38.504L19.623,-18.769L-0.11,0.458L-19.732,-18.88L0,-38.504ZM22.428,-18.76L0.008,-41.305L-22.534,-18.889L-0.117,2.801L22.428,-18.76Z" style="fill:rgb(166,85,37);fill-rule:nonzero;"/>
                    </g>
                    <g transform="matrix(1,0,0,1,140.214,-152.709)">
                        <path d="M0,-36.516L17.661,-18.759L-0.102,-1.101L-17.757,-18.861L0,-36.516ZM20.184,-18.753L0.006,-37.938L-20.282,-18.869L-0.106,1.422L20.184,-18.753Z" style="fill:rgb(166,85,37);fill-rule:nonzero;"/>
                    </g>
                    <g transform="matrix(1,0,0,1,140.099,-109.85)">
                        <path d="M0,-39.351L19.623,-19.619L-0.113,1.564L-19.728,-19.73L0,-39.351ZM22.428,-19.611L0.008,-42.155L-22.531,-19.739L-0.117,2.804L22.428,-19.611Z" style="fill:rgb(166,85,37);fill-rule:nonzero;"/>
                    </g>
                    <g transform="matrix(1,0,0,1,140.075,-67.6987)">
                        <path d="M0,-37.209L17.986,-19.113L-0.102,-1.79L-17.76,-19.546L0,-37.209ZM21.927,-19.435L0.001,-37.943L-20.281,-19.555L-0.107,0.734L21.927,-19.435Z" style="fill:rgb(166,85,37);fill-rule:nonzero;"/>
                    </g>
                    <g transform="matrix(1,0,0,1,139.862,-22.609)">
                        <path d="M0,-42.307L19.623,-22.574L-0.116,-1.749L-19.73,-22.685L0,-42.307ZM22.427,-22.566L0.004,-43.901L-22.535,-22.694L-0.123,1.594L22.427,-22.566Z" style="fill:rgb(166,85,37);fill-rule:nonzero;"/>
                    </g>
                    <g transform="matrix(1,0,0,1,141.121,-323.33)">
                        <path d="M0,-35.42L18.691,-17.658L-0.102,0L-17.905,-16.471L0,-35.42ZM20.184,-17.654L0.006,-37.942L-19.355,-16.588L-0.109,2.522L20.184,-17.654Z" style="fill:rgb(166,85,37);fill-rule:nonzero;"/>
                    </g>
                    <g transform="matrix(1,0,0,1,140.581,-277.09)">
                        <path d="M0,-41.077L19.62,-20.482L-0.116,-0.86L-19.732,-20.593L0,-41.077ZM22.423,-20.473L0.003,-43.02L-22.539,-20.601L-0.123,1.943L22.423,-20.473Z" style="fill:rgb(166,85,37);fill-rule:nonzero;"/>
                    </g>
                    <g transform="matrix(1,0,0,1,-91.2065,-690.824)">
                        <path d="M0,40.075L-18.9,19.007L1.325,1.311L20.346,20.038L0,40.075ZM-21.83,20.038L-0.002,41.869L25.039,20.038L-0.002,-1.794L-21.83,20.038Z" style="fill:rgb(166,85,37);fill-rule:nonzero;"/>
                    </g>
                    <g transform="matrix(1,0,0,1,-132.377,-689.899)">
                        <path d="M0,36.258L-19.107,19.112L0,0.005L19.108,19.112L0,36.258ZM-21.83,19.112L0,38.979L21.831,19.112L0,-2.721L-21.83,19.112Z" style="fill:rgb(166,85,37);fill-rule:nonzero;"/>
                    </g>
                    <g transform="matrix(0.896445,-0.443157,-0.443155,-0.896447,-134.465,-316.438)">
                        <path d="M-5.227,9.234L54.488,9.234L39.518,22.367L-20.194,22.374L-5.227,9.234Z" style="fill:rgb(166,85,37);fill-rule:nonzero;"/>
                    </g>
                    <g transform="matrix(0.896541,-0.442962,-0.44296,-0.896544,-137.398,-309.24)">
                        <path d="M0.594,10.588L60.301,10.588L45.334,-2.54L-14.376,-2.543L0.594,10.588Z" style="fill:rgb(166,85,37);fill-rule:nonzero;"/>
                    </g>
                    <g transform="matrix(0.605542,-0.795813,-0.795808,-0.605544,-179.708,-263.958)">
                        <path d="M-14.05,15.212L45.66,15.212L30.69,28.341L-29.02,28.346L-14.05,15.212Z" style="fill:rgb(166,85,37);fill-rule:nonzero;"/>
                    </g>
                    <g transform="matrix(0.605482,-0.795861,-0.795856,-0.605484,-178.878,-250.197)">
                        <path d="M-3.604,20.396L56.11,20.396L41.136,7.265L-18.568,7.269L-3.604,20.396Z" style="fill:rgb(166,85,37);fill-rule:nonzero;"/>
                    </g>
                    <g transform="matrix(0.246119,-0.96924,-0.969235,-0.24612,-206.826,-203.039)">
                        <path d="M-23.228,16.732L36.479,16.732L21.516,29.862L-38.195,29.863L-23.228,16.732Z" style="fill:rgb(166,85,37);fill-rule:nonzero;"/>
                    </g>
                    <g transform="matrix(0.246147,-0.969233,-0.969228,-0.246147,-196.665,-187.331)">
                        <path d="M-10.505,26.635L49.207,26.635L34.237,13.505L-25.47,13.512L-10.505,26.635Z" style="fill:rgb(166,85,37);fill-rule:nonzero;"/>
                    </g>
                    <g transform="matrix(-0.00768624,-0.999972,-0.999966,0.00768626,-218.106,-133.169)">
                        <path d="M-29.114,15.758L30.603,15.758L15.631,28.891L-44.08,28.885L-29.114,15.758Z" style="fill:rgb(166,85,37);fill-rule:nonzero;"/>
                    </g>
                    <g transform="matrix(-0.00782098,-0.999972,-0.999966,0.00782105,-200.967,-120.177)">
                        <path d="M-15.985,28.987L43.726,28.987L28.762,15.855L-30.95,15.86L-15.985,28.987Z" style="fill:rgb(166,85,37);fill-rule:nonzero;"/>
                    </g>
                    <g transform="matrix(-0.896458,-0.443124,-0.443122,0.896461,182.787,-359.964)">
                        <path d="M-39.526,22.365L20.193,22.365L5.22,9.233L-54.49,9.228L-39.526,22.365Z" style="fill:rgb(166,85,37);fill-rule:nonzero;"/>
                    </g>
                    <g transform="matrix(-0.896548,-0.442942,-0.44294,0.896551,164.851,-336.798)">
                        <path d="M-45.336,-2.541L14.374,-2.541L-0.59,10.588L-60.303,10.588L-45.336,-2.541Z" style="fill:rgb(166,85,37);fill-rule:nonzero;"/>
                    </g>
                    <g transform="matrix(-0.997199,-0.0747599,-0.0747601,0.997199,89.9156,-368.42)">
                        <path d="M-44.19,14.783L15.521,14.783L0.554,1.654L-59.157,1.648L-44.19,14.783Z" style="fill:rgb(166,85,37);fill-rule:nonzero;"/>
                    </g>
                    <g transform="matrix(-0.997199,-0.0747268,-0.0747263,0.997206,86.6921,-338.551)">
                        <path d="M-45.171,-11.435L14.54,-11.435L-0.427,1.697L-60.139,1.69L-45.171,-11.435Z" style="fill:rgb(166,85,37);fill-rule:nonzero;"/>
                    </g>
                    <g transform="matrix(-0.605531,-0.79582,-0.795822,0.605533,269.365,-303.576)">
                        <path d="M-30.689,28.346L29.02,28.346L14.054,15.218L-45.659,15.212L-30.689,28.346Z" style="fill:rgb(166,85,37);fill-rule:nonzero;"/>
                    </g>
                    <g transform="matrix(-0.605409,-0.795916,-0.795911,0.60541,243.233,-296.824)">
                        <path d="M-41.141,7.271L18.569,7.271L3.597,20.402L-56.11,20.39L-41.141,7.271Z" style="fill:rgb(166,85,37);fill-rule:nonzero;"/>
                    </g>
                    <g transform="matrix(-0.246119,-0.96924,-0.969235,0.24612,317.474,-212.842)">
                        <path d="M-21.51,29.866L38.197,29.866L23.233,16.732L-36.477,16.73L-21.51,29.866Z" style="fill:rgb(166,85,37);fill-rule:nonzero;"/>
                    </g>
                    <g transform="matrix(-0.246084,-0.969247,-0.969249,0.246084,294.796,-220.219)">
                        <path d="M-34.243,13.506L25.468,13.506L10.498,26.637L-49.209,26.626L-34.243,13.506Z" style="fill:rgb(166,85,37);fill-rule:nonzero;"/>
                    </g>
                    <g transform="matrix(0.00768624,-0.999972,-0.999966,-0.00768626,327.713,-119.348)">
                        <path d="M-15.636,28.892L44.081,28.892L29.109,15.757L-30.602,15.762L-15.636,28.892Z" style="fill:rgb(166,85,37);fill-rule:nonzero;"/>
                    </g>
                    <g transform="matrix(0.00783775,-0.999972,-0.999966,-0.00783775,310.982,-132.6)">
                        <path d="M-28.759,15.861L30.952,15.861L15.987,28.993L-43.725,28.986L-28.759,15.861Z" style="fill:rgb(166,85,37);fill-rule:nonzero;"/>
                    </g>
                    <g transform="matrix(1,0,0,1,-29.0347,-422.767)">
                        <path d="M0,532.923C0,532.923 46.959,534.125 52.775,530.981C58.593,527.841 60.225,521.12 60.225,521.12C60.225,521.12 52.12,509.339 60.225,511.49C69.771,514.026 84.891,518.297 101.136,518.968C124.993,519.954 123.65,516.542 132.717,516.761C150.286,517.19 145.091,521.186 154.434,521.517C162.212,521.789 186.953,516.611 195.439,516.761C208.144,516.988 211.313,512.963 219.456,510.324C233.03,505.924 237.995,489.519 245.107,479.466C252.211,469.411 259.451,445.14 266.563,434.458C268.111,432.133 276.643,412.082 277.606,407.414C281.06,390.651 278.138,374.535 276.625,369.617C274.687,363.334 267.589,355.697 262.415,353.185C257.25,350.671 242.386,341.238 239.798,338.73C237.214,336.214 237.214,334.959 234.626,331.812C232.041,328.672 222.989,319.876 217.175,317.357C211.354,314.847 200.37,319.248 197.141,314.847C193.909,310.449 188.552,284.987 191.139,271.163C193.723,257.329 204.727,222.166 205.428,206.066C206.651,177.928 206.644,179.456 198.968,157.381C194.7,145.109 178.246,125.722 175.013,126.974C171.784,128.234 177.366,137.832 178.011,140.346C178.658,142.861 186.345,170.569 186.345,180.702C186.345,203.372 185.761,206.75 185.114,211.777C184.471,216.807 170.634,265.2 170.634,265.2C170.634,265.2 168.698,214.922 166.114,208.633C163.531,202.353 156.413,186.638 155.769,181.609C155.133,176.582 149.31,128.818 148.015,115.624C146.721,102.424 140.263,67.23 137.028,59.063C133.794,50.889 131.209,45.857 136.378,30.152C141.557,14.44 152.541,-0.645 150.598,-3.784C148.663,-6.931 111.952,-3.276 106.133,-3.276C100.318,-3.276 75.757,-2.938 69.935,-2.938C64.122,-2.938 58.555,-0.728 54.678,-0.728C50.802,-0.728 47.286,-2.728 52.456,5.446C57.625,13.617 56.879,30.152 57.527,32.664C58.172,35.177 43.307,17.578 37.49,13.183C31.675,8.786 11.142,6.269 1.446,12.557C-8.249,18.838 -23.765,29.528 -32.164,47.754C-32.164,47.754 -28.286,55.289 -25.703,59.063C-23.118,62.826 -44.445,62.826 -45.739,69.111C-47.032,75.405 -46.383,81.058 -44.445,84.203C-42.507,87.34 -34.101,98.652 -32.164,102.424C-30.228,106.197 -33.458,148.929 -34.749,157.105C-36.041,165.274 -43.801,187.893 -50.906,201.096C-58.017,214.296 -79.353,253.89 -80.644,264.567C-81.933,275.252 -86.111,311.959 -86.111,314.469C-86.111,316.985 -87.481,341.369 -87.481,341.369C-90.584,344.69 -103.574,350.745 -111.524,356.641C-116.626,360.424 -115.221,365.408 -119.57,368.735C-122.555,371.021 -126.34,371.591 -128.123,373.185C-132.702,377.303 -136.708,387.98 -148.413,396.097C-156.361,401.6 -159.201,410.685 -159.79,413.543C-161.087,419.831 -163.993,415.281 -155.592,439.163C-147.183,463.048 -95.65,526.641 -89.192,527.898C-82.729,529.151 -64.813,536.252 -58.349,536.877C-51.885,537.505 -38.768,539.854 0,532.923" style="fill:rgb(126,92,60);fill-rule:nonzero;"/>
                    </g>
                    <g transform="matrix(1,0,0,1,157.281,-284.521)">
                        <path d="M0,126.782C-0.718,126.566 -1.437,126.339 -2.165,126.076C-8.842,123.678 -9.741,117.985 -13.108,113.892C-9.744,103.341 -2.711,77.979 -1.942,72.381C4.383,26.239 -9.12,0 -2.878,9.946C1.861,17.485 7.84,41.522 8.18,44.779C9.21,54.803 10.902,77.475 9.607,92.559C8.509,105.391 4.186,111.966 0,126.782" style="fill:rgb(63,42,46);fill-rule:nonzero;"/>
                    </g>
                    <g transform="matrix(1,0,0,1,245.368,-294.194)">
                        <path d="M0,265.661C-4.278,252.401 -14.805,240.661 -26.092,230.84C-28.354,228.876 -32.863,232.082 -33.436,229.989C-34.14,227.439 -35.921,221.985 -35.921,221.985C-35.921,221.985 -43.033,223.484 -45.99,221.147C-48.646,219.036 -50.386,216.955 -52.287,216.44C-53.16,216.208 -57.746,223.961 -58.794,224.551C-60.397,225.448 -58.532,217.578 -60.353,216.698C-63.227,215.312 -66.125,212.28 -68.238,209.415C-68.238,209.415 -70.824,212.762 -72.982,214.858C-75.133,216.955 -85.746,215.806 -87.904,212.878C-90.059,209.942 -93.932,205.33 -93.932,205.33C-93.932,205.33 -93.072,218.742 -90.487,225.026C-87.904,231.31 -90.059,245.138 -90.487,250.162C-90.918,255.192 -86.178,261.477 -87.044,268.18C-87.904,274.883 -90.487,285.355 -88.768,288.293C-87.044,291.222 -85.32,291.222 -83.594,291.642C-81.871,292.062 -79.283,300.863 -80.149,302.534C-81.01,304.216 -84.888,311.755 -84.888,313.847C-84.888,315.947 -82.729,324.737 -82.729,324.737C-82.729,324.737 -74.979,328.929 -72.818,329.772C-70.671,330.608 -62.916,329.772 -62.916,329.772L-52.138,322.649C-52.138,322.649 -48.693,313.429 -48.261,311.755C-47.835,310.075 -47.835,303.375 -44.81,303.796C-41.796,304.216 -37.484,305.469 -37.484,308.821C-37.484,312.175 -38.777,316.363 -41.796,318.876C-44.81,321.39 -62.916,336.474 -62.916,336.474C-62.916,336.474 -68.514,345.694 -72.391,347.787C-76.268,349.88 -76.268,346.945 -76.268,349.88C-76.268,352.816 -73.682,355.327 -73.682,355.327C-73.682,355.327 -83.594,360.773 -87.904,362.446C-92.211,364.125 -96.517,364.545 -98.247,368.313C-99.963,372.087 -93.047,369.536 -91.32,369.536C-89.596,369.536 -84.452,369.989 -80.576,368.313C-76.7,366.64 -75.834,363.286 -73.252,365.804C-70.671,368.313 -68.081,367.898 -73.252,371.667C-78.424,375.437 -81.992,375.889 -79.896,377.242C-77.801,378.597 -63.89,375.647 -69.219,376.807C-74.551,377.969 -62.876,376.336 -57.281,372.938C-51.683,369.536 -47.835,364.543 -46.106,360.773C-44.381,357.003 -34.475,337.311 -33.18,333.96C-31.889,330.608 -18.957,317.62 -17.236,310.075C-15.511,302.534 -12.93,300.439 -9.909,297.088C-6.893,293.74 1.678,270.864 0,265.661M-95.663,225.026C-96.951,218.324 -99.54,218.742 -99.54,218.742C-98.247,221.255 -99.963,234.247 -101.261,242.623C-102.55,251.003 -106.431,248.069 -108.588,246.395C-110.738,244.72 -108.588,217.484 -108.588,215.811C-108.588,214.135 -112.031,209.942 -112.031,208.268C-112.031,206.588 -108.588,207.429 -107.292,206.588C-106,205.757 -106,200.723 -106,200.723C-108.158,203.236 -118.932,207.429 -124.961,207.015C-130.989,206.588 -140.039,204.079 -141.333,200.723C-142.624,197.373 -139.18,200.303 -137.024,201.143C-134.868,201.981 -130.562,201.143 -124.961,199.469C-119.359,197.792 -119.784,200.723 -115.05,199.469C-110.31,198.21 -109.016,193.602 -109.016,193.602C-109.016,193.602 -118.498,194.438 -123.665,194.438C-128.839,194.438 -137.456,194.438 -140.471,192.345C-143.492,190.252 -140.904,188.998 -137.888,188.998C-134.874,188.998 -120.216,190.252 -112.031,188.58C-103.848,186.898 -106.431,182.712 -106.431,182.712C-106.431,182.712 -109.016,183.546 -111.168,183.972C-113.327,184.384 -118.932,184.806 -124.531,184.806C-130.129,184.806 -124.961,182.712 -123.665,181.87C-122.374,181.034 -112.463,179.776 -108.588,178.521C-104.708,177.262 -106.861,176.005 -108.158,175.166C-109.449,174.33 -112.463,176.005 -116.77,177.682C-121.084,179.357 -123.665,178.521 -127.978,178.521C-132.283,178.521 -131.853,176.429 -133.576,176.429C-135.303,176.429 -138.314,177.262 -142.195,177.262C-146.074,177.262 -141.333,175.588 -138.746,172.652C-136.162,169.722 -134.005,172.652 -128.839,173.493C-123.665,174.33 -109.878,170.976 -109.878,170.976L-109.878,161.762C-109.878,158.411 -109.449,152.96 -111.605,151.704C-113.755,150.449 -115.478,139.556 -115.478,136.621C-115.478,133.685 -118.066,130.34 -118.066,128.249C-118.066,126.15 -114.616,124.474 -115.05,122.379C-115.478,120.282 -117.206,119.861 -117.206,119.861L-115.478,117.767C-113.755,115.675 -112.031,113.576 -113.755,111.483C-115.478,109.39 -118.498,109.808 -118.498,109.808L-113.327,108.554L-113.327,107.3C-113.327,106.035 -123.234,99.757 -124.531,98.915C-125.818,98.075 -128.41,98.915 -130.129,99.757C-131.853,100.59 -134.005,103.105 -134.005,103.105C-134.005,103.105 -125.818,105.195 -127.114,105.619C-128.41,106.033 -146.505,107.71 -146.074,109.386C-145.642,111.064 -125.818,108.554 -125.818,108.554C-125.818,108.554 -125.395,110.224 -125.395,112.324C-125.395,114.417 -139.612,116.095 -139.612,118.603C-139.612,121.119 -125.818,119.023 -123.665,120.282C-121.513,121.539 -129.269,122.379 -133.146,124.051C-137.024,125.728 -146.074,134.108 -147.795,136.201C-149.518,138.299 -142.195,137.459 -139.18,139.556C-136.165,141.65 -143.492,146.679 -145.642,147.932C-147.795,149.191 -147.368,157.576 -149.518,160.919C-151.681,164.272 -155.121,164.692 -155.988,167.626C-156.845,170.563 -155.988,171.399 -152.536,170.136C-149.091,168.882 -142.624,168.882 -142.624,168.882C-143.056,171.399 -150.813,182.286 -152.966,183.966C-155.121,185.64 -155.121,195.692 -156.417,197.792C-157.703,199.885 -158.571,213.292 -153.827,218.742C-149.091,224.186 -153.827,232.565 -153.827,232.565C-153.827,232.565 -142.624,236.34 -137.456,237.178C-132.283,238.013 -127.543,234.247 -120.651,232.147C-113.755,230.053 -113.327,230.469 -113.327,232.983C-113.327,235.505 -124.098,238.852 -130.562,240.11C-137.024,241.362 -150.382,238.013 -155.55,236.759C-160.725,235.505 -163.309,253.095 -161.586,255.61C-159.864,258.127 -152.103,258.127 -152.103,258.127L-146.936,254.353L-146.505,255.61C-146.074,256.868 -147.368,260.642 -147.368,260.642C-147.368,260.642 -145.211,261.477 -142.624,261.477C-140.039,261.477 -127.114,259.382 -121.509,259.803C-115.908,260.223 -121.509,259.803 -126.682,262.315C-131.853,264.832 -137.888,264.832 -143.492,263.991C-149.091,263.149 -149.091,263.991 -149.091,263.991C-149.091,263.991 -151.243,271.53 -151.243,275.305C-151.243,279.076 -152.103,279.908 -154.26,277.819C-156.417,275.725 -154.695,271.119 -154.695,268.18C-154.695,265.246 -153.827,263.991 -154.26,262.315C-154.69,260.642 -155.988,261.9 -158.571,263.991C-161.155,266.085 -162.451,265.661 -166.327,264.832C-170.203,263.991 -176.234,261.9 -179.256,263.149C-182.269,264.414 -181.142,271.231 -184.429,271.951C-191.962,273.613 -190.583,283.801 -195.191,288.344C-200.674,293.74 -213.296,288.932 -213.296,288.932C-216.742,296.475 -229.665,294.576 -229.665,294.576C-230.526,304.634 -230.095,310.496 -227.08,312.175C-224.066,313.847 -221.914,312.175 -216.312,310.913C-210.709,309.656 -208.982,312.175 -208.982,314.685C-208.982,317.2 -222.773,326.841 -221.477,328.929C-220.19,331.027 -211.141,325.997 -206.403,327.259C-201.663,328.515 -208.125,329.351 -212.003,331.027C-215.878,332.702 -227.512,335.637 -228.378,338.566C-229.238,341.501 -224.926,344.852 -221.477,346.945C-218.032,349.04 -220.617,356.587 -217.173,360.353C-213.725,364.125 -194.768,369.153 -192.611,370.408C-190.453,371.667 -170.203,381.301 -165.466,381.725C-160.725,382.14 -146.074,377.533 -141.333,375.858C-136.589,374.18 -127.978,377.116 -125.395,377.116C-122.805,377.116 -115.478,373.342 -112.031,369.993C-108.588,366.64 -91.779,354.907 -89.629,349.464C-87.471,344.016 -87.904,318.876 -88.768,314.267C-89.629,309.656 -89.629,295.413 -91.779,291.644C-93.932,287.87 -106.861,283.265 -106.431,277.4C-106,271.536 -101.261,270.695 -103.417,269.023C-105.571,267.342 -110.31,271.536 -111.605,268.18C-112.892,264.832 -109.449,261.056 -105.571,258.961C-101.698,256.868 -96.088,254.77 -95.229,250.162C-94.37,245.557 -94.365,231.733 -95.663,225.026M-162.878,-17.554C-164.172,-19.656 -179.686,-12.529 -202.091,13.029C-224.498,38.586 -222.773,75.455 -218.468,93.891C-214.154,112.324 -211.855,134.38 -209.269,141.922C-209.269,141.922 -202.721,136.807 -197.98,129.684C-193.244,122.564 -192.46,120.136 -193.751,114.272C-195.051,108.4 -191.75,112.324 -193.47,107.3C-195.191,102.27 -203.382,56.181 -201.663,51.572C-199.936,46.966 -196.488,24.755 -187.87,13.029C-179.256,1.294 -161.586,-15.463 -162.878,-17.554M-208.615,-58.06C-209.569,-62.143 -211.269,-69.337 -213.052,-76.379C-214.504,-74.554 -215.97,-72.664 -216.854,-70.638C-218.621,-66.581 -218.98,-64.63 -218.743,-62.375C-216.791,-54.689 -213.296,-35.47 -213.296,-26.779C-213.296,-17.137 -213.725,0.879 -213.725,0.879C-213.725,0.879 -208.156,0.112 -205.573,-6.591C-202.985,-13.293 -206.463,-48.841 -208.615,-58.06M-223.752,-25.828C-227.194,-23.315 -231.377,-25.409 -231.377,-25.409C-231.377,-25.409 -234.822,-21.222 -236.116,-18.702C-237.406,-16.193 -251.629,-10.321 -251.629,-10.321C-251.629,-10.321 -254.253,4.025 -249.522,2.762C-241.048,0.489 -238.325,2.304 -256.794,13.14C-258.374,14.061 -269.134,18.329 -266.527,19.538C-259.698,22.712 -257.773,28.974 -255.935,27.385C-251.463,23.493 -255.935,45.4 -255.935,45.4C-255.935,45.4 -249.367,52.071 -245.059,51.229C-240.754,50.391 -232.629,73.269 -232.629,73.269C-232.629,73.269 -231.721,36.155 -226.557,31.548C-221.378,26.939 -229.112,28.484 -221.501,20.324C-215.266,13.634 -223.752,-25.828 -223.752,-25.828M-232.334,-111.428C-235.896,-116.615 -239.68,-115.551 -248.712,-118.128C-256.035,-118.968 -249.571,-109.333 -248.712,-107.656C-247.847,-105.985 -236.215,-100.535 -234.06,-102.21C-231.905,-103.891 -236.24,-105.255 -235.783,-106.822C-235.322,-108.383 -230.609,-108.911 -232.334,-111.428M-264.936,-108.401C-268.258,-108.646 -273.556,-110.5 -275.711,-108.821C-277.867,-107.138 -281.203,-105.089 -283.9,-103.372C-286.6,-101.657 -280.02,-97.508 -280.02,-97.508C-280.02,-97.508 -275.027,-94.784 -271.83,-95.407C-268.639,-96.042 -271.83,-102.53 -271.83,-102.53C-271.83,-102.53 -261.617,-108.157 -264.936,-108.401M-286.12,197.278C-284.932,199.989 -303.839,203.473 -303.839,203.473C-303.839,203.473 -293.136,211.966 -306.28,213.782C-319.429,215.591 -318.054,225.837 -318.054,225.837C-318.054,225.837 -354.403,236.158 -339.717,236.158C-325.025,236.158 -322.93,240.465 -321.765,242.733C-320.594,244.999 -326.193,266.086 -322.693,269.709C-319.195,273.34 -310.138,291.304 -318.764,288.581C-327.394,285.861 -334.386,292.208 -339.983,295.384C-345.58,298.559 -344.881,296.516 -350.939,294.022C-357.005,291.528 -329.492,309.455 -329.492,309.455L-329.492,315.462C-329.492,315.462 -332.051,316.369 -333.455,314.326C-334.853,312.286 -336.251,308.43 -336.251,308.43C-336.251,308.43 -335.784,315.683 -338.115,318.635C-340.449,321.581 -326.213,328.801 -325.516,331.518C-324.813,334.242 -326.68,334.468 -332.977,333.789C-339.271,333.107 -344.165,331.293 -344.165,331.293C-344.165,331.293 -334.606,338.095 -332.042,338.777C-329.479,339.454 -340.202,343.086 -335.303,346.028C-330.408,348.977 -329.479,350.564 -329.013,354.194C-328.542,357.819 -323.414,360.767 -320.621,360.996C-317.822,361.22 -315.256,368.927 -311.293,369.38C-307.326,369.838 -302.896,371.875 -295.438,369.38C-287.973,366.889 -268.384,346.936 -266.057,346.028C-264.551,345.444 -264.023,345.708 -263.835,345.972L-264.762,343.532C-264.762,343.532 -264.193,343.99 -262.56,341.269C-260.929,338.548 -256.029,334.242 -255.328,331.747C-254.632,329.25 -252.537,333.334 -252.537,333.334C-252.537,333.334 -252.303,326.078 -251.136,323.131C-249.97,320.184 -245.769,314.292 -247.173,310.435C-248.568,306.582 -251.136,301.143 -249.27,297.512C-247.404,293.886 -245.306,298.193 -244.142,288.218C-242.973,278.243 -249.738,271.893 -248.335,264.414C-246.936,256.93 -237.143,240.153 -233.879,234.031C-232.26,230.988 -230.774,219.134 -227.818,210.677C-224.821,202.107 -219.459,194.008 -218.988,195.259C-218.06,197.751 -215.688,206.141 -215.688,209.544C-215.688,212.944 -216.86,219.067 -216.86,219.067C-216.86,219.067 -219.661,215.442 -219.661,213.856C-219.661,212.265 -221.755,220.203 -220.361,225.642C-218.956,231.083 -220.121,235.388 -221.987,237.662C-223.332,239.29 -216.251,234.708 -216.251,234.708C-216.251,234.708 -212.052,222.921 -211.587,219.292C-211.122,215.669 -212.196,198.667 -212.894,197.301C-213.592,195.943 -221.52,182.792 -221.987,177.805C-222.453,172.817 -248.966,185.439 -249.667,183.399C-250.364,181.36 -261.393,195.986 -263.956,191.68C-266.518,187.372 -290.629,187.002 -286.12,197.278M5.169,271.956C3.442,280.336 -0.252,295.887 -11.38,311.124C-21.752,325.331 -41.366,367.061 -49.554,373.344C-57.738,379.635 -64.589,381.333 -68.471,381.751C-72.347,382.166 -94.365,383.82 -97.813,384.239C-101.261,384.659 -116.486,390.036 -124.243,387.522C-126.178,386.89 -124.342,381.623 -126.539,381.505C-133.146,381.155 -138.852,384.725 -139.818,384.725C-141.112,384.725 -165.035,389.267 -173.651,388.012C-179.949,387.092 -188.162,384.617 -194.493,383.346C-196.591,383.099 -198.604,382.842 -200.483,382.563C-200.5,382.563 -200.525,382.561 -200.541,382.561C-201.789,382.561 -203.85,382.186 -206.329,381.588C-221.362,378.812 -227.584,375.359 -227.584,375.359C-227.584,375.359 -214.897,387.331 -219.797,392.431C-224.692,397.535 -238.531,396.431 -245.178,396.09C-251.823,395.748 -259.412,399.989 -278.997,401.348C-290.22,402.128 -300.821,403.112 -312.193,403.189C-312.352,403.199 -312.498,403.21 -312.665,403.221C-317.709,403.553 -322.6,403.266 -327.464,402.658C-331.34,402.359 -335.303,401.969 -339.503,401.348C-341.905,400.996 -344.507,400.148 -347.229,398.936C-349.959,398.336 -352.711,397.732 -355.534,397.163C-362.702,395.719 -369.209,395.385 -374.623,389.475C-392.083,370.419 -423.58,328.819 -429.995,310.589C-438.396,286.708 -435.49,291.258 -434.193,284.969C-433.604,282.112 -430.765,273.027 -422.816,267.524C-411.111,259.406 -407.105,248.729 -402.526,244.611C-400.743,243.018 -396.958,242.447 -393.974,240.161C-389.624,236.834 -391.029,231.851 -385.928,228.068C-377.978,222.171 -364.987,216.116 -361.885,212.795C-361.885,212.795 -360.515,188.411 -360.515,185.895C-360.515,183.386 -356.336,146.679 -355.047,135.993C-353.756,125.316 -332.42,85.723 -325.31,72.522C-318.204,59.319 -310.444,36.7 -309.152,28.531C-307.861,20.355 -304.631,-22.376 -306.567,-26.15C-308.504,-29.921 -316.91,-41.234 -318.849,-44.37C-320.786,-47.516 -321.436,-53.168 -320.143,-59.463C-318.849,-65.747 -297.521,-65.747 -300.106,-69.511C-302.689,-73.284 -308.602,-82.642 -308.602,-82.642C-310.825,-91.281 -284.722,-111.655 -275.027,-117.944C-265.33,-124.233 -241.098,-121.843 -235.281,-117.452C-232.345,-115.231 -226.118,-108.198 -220.501,-101.484C-221.664,-107.878 -222.641,-117.326 -224.566,-121.31C-227.396,-127.173 -226.729,-126.208 -225.404,-129.054C-224.16,-131.725 -212.318,-134.485 -212.318,-134.485C-212.318,-134.485 -206.146,-134.408 -190.109,-134.429C-178.898,-134.445 -173.099,-131.776 -173.099,-131.776C-173.099,-131.776 -183.01,-128.846 -181.287,-126.333C-179.562,-123.811 -172.235,-122.14 -169.654,-122.14C-167.067,-122.14 -163.187,-125.489 -161.898,-128.002C-160.602,-130.515 -158.851,-133.521 -156.267,-133.942C-153.681,-134.358 -152.816,-136.041 -151.959,-133.521C-151.096,-131.007 -152.853,-123.397 -148.533,-122.978C-144.229,-122.562 -139.918,-124.233 -137.762,-127.172C-135.608,-130.097 -133.534,-136.71 -131.166,-136.936C-121.275,-137.892 -121.977,-135.341 -121.977,-135.341C-121.673,-132.619 -123.926,-123.936 -129.745,-114.507C-135.559,-105.075 -140.819,-79.556 -139.526,-75.152L-146.113,-75.516C-146.113,-75.516 -151.888,-80.819 -154.477,-80.819C-157.06,-80.819 -166.111,-79.568 -166.757,-77.053C-167.407,-74.542 -159.86,-74.96 -158.571,-74.96C-157.277,-74.96 -153.399,-73.284 -152.966,-72.024C-152.536,-70.771 -160.295,-70.346 -162.018,-69.934C-163.738,-69.511 -167.188,-69.094 -167.188,-69.094C-167.188,-69.094 -155.984,-68.259 -152.103,-67.833C-148.227,-67.416 -145.211,-62.811 -146.074,-59.872C-146.074,-59.872 -156.417,-65.323 -158.571,-64.066C-160.725,-62.811 -166.322,-60.713 -166.322,-60.713C-166.322,-60.713 -159,-58.622 -155.984,-57.781C-152.966,-56.941 -143.056,-55.686 -143.056,-55.686C-143.056,-55.686 -134.005,-49.819 -131.425,-4.152C-128.834,41.515 -124.961,51.993 -124.961,51.993C-124.961,51.993 -122.805,57.018 -137.456,58.277C-137.456,58.277 -141.333,61.206 -150.813,61.206C-150.813,61.206 -150.382,65.399 -146.074,66.235C-141.768,67.077 -134.005,64.975 -131.425,66.654C-128.834,68.334 -121.943,71.261 -123.665,72.099C-125.393,72.94 -129.262,70.427 -129.262,70.427C-129.262,70.427 -127.978,75.034 -125.818,75.034C-123.665,75.034 -120.651,74.614 -119.359,75.87C-118.066,77.126 -122.801,77.544 -122.374,79.225C-121.943,80.904 -115.908,80.059 -115.908,80.059C-115.908,80.059 -116.343,83.832 -113.755,85.516C-111.168,87.186 -109.016,112.741 -109.016,112.741C-109.016,112.741 -108.8,117.002 -108.476,123.005C-107.445,123.913 -106.109,125.136 -104.485,126.722C-100.521,130.573 -101.687,131.254 -99.535,133.692C-97.382,136.132 -92.131,138.961 -90.726,139.186C-89.331,139.413 -89.217,140.978 -83.731,143.493C-81.558,144.491 -91.194,143.042 -93.063,141.922C-94.925,140.801 -97.096,141.743 -97.895,149.732C-98.015,150.894 -99.122,155.853 -100.696,139.87C-100.826,138.54 -100.86,142.211 -102.619,143.27C-103.8,143.973 -105.948,144.187 -107.253,144.013C-106.601,154.248 -105.933,162.884 -105.571,162.179C-105.457,161.964 -105.364,161.307 -105.275,160.345L-101.918,179.111C-104.443,165.971 -98.156,202.863 -96.791,196.545C-95.017,188.355 -93.337,183.608 -91.622,180.023C-91.622,180.023 -91.615,180.013 -91.615,180.01C-89.012,174.586 -86.318,171.81 -83.065,163.818C-83.065,163.813 -83.059,163.811 -83.059,163.811C-81.332,162.133 -75.375,184.182 -72.782,185.439C-70.202,186.696 -57.56,183.768 -56.698,185.439C-55.837,187.117 -35.578,203.238 -32.563,204.917C-29.543,206.588 -3.551,229.748 0.328,236.453C4.204,243.152 6.896,263.572 5.169,271.956" style="fill:rgb(63,42,46);fill-rule:nonzero;"/>
                    </g>
                    <g transform="matrix(3.84266,0,0,-3.84205,-399.313,184.059)">
                        <g transform="matrix(1,0,0,1,56.289,211.916)">
                            <text x="0px" y="0px" style="font-family:'AbrahamLincoln', 'Abraham Lincoln';font-size:60.129px;fill:white;">K</text>
                        </g>
                        <g transform="matrix(1,0,0,1,81.603,211.916)">
                            <g>
                                <text x="0px" y="0px" style="font-family:'AbrahamLincoln', 'Abraham Lincoln';font-size:60.129px;fill:white;">E</text>
                                <g transform="matrix(1,0,0,1,20.564,0)">
                                    <text x="0px" y="0px" style="font-family:'AbrahamLincoln', 'Abraham Lincoln';font-size:60.129px;fill:white;">N<tspan x="24.412px 45.157px " y="0px 0px ">YA</tspan></text>
                                </g>
                            </g>
                        </g>
                    </g>
                </g>
            </g>
        </g>
    </g>
</svg>
