<?xml version="1.0" encoding="UTF-8" standalone="no"?>
<!DOCTYPE svg PUBLIC "-//W3C//DTD SVG 1.1//EN" "http://www.w3.org/Graphics/SVG/1.1/DTD/svg11.dtd">
<svg width="100%" height="100%" viewBox="0 0 1263 1263" version="1.1" xmlns="http://www.w3.org/2000/svg" xmlns:xlink="http://www.w3.org/1999/xlink" xml:space="preserve" xmlns:serif="http://www.serif.com/" style="fill-rule:evenodd;clip-rule:evenodd;stroke-linejoin:round;stroke-miterlimit:2;">
    <g transform="matrix(5.56944,0,0,5.56944,1025.66,1262.99)">
        <path d="M0,-226.771L-5.142,-223.802L-5.142,-226.771L-19.26,-226.771L-19.26,-223.802L-24.402,-226.771L-110.406,-226.771L-115.548,-223.802L-115.548,-226.771L-129.666,-226.771L-129.666,-223.802L-134.808,-226.771L-146.093,-226.771L-151.234,-223.802L-151.234,-226.771L-165.354,-226.771L-165.354,-223.802L-170.495,-226.771L-184.158,-226.771L-184.158,0L-159.613,0L-163.955,-7.521L-152.634,-7.521L-156.976,0L-87.457,0L-91.799,-7.521L-80.478,-7.521L-84.821,0L-13.519,0L-17.862,-7.521L-6.541,-7.521L-10.883,0L42.613,0L42.613,-226.771L0,-226.771ZM-17.862,-222.402L-6.541,-222.402L-12.202,-212.599L-17.862,-222.402ZM-128.267,-222.402L-116.947,-222.402L-122.607,-212.599L-128.267,-222.402ZM-163.955,-222.402L-152.634,-222.402L-158.294,-212.599L-163.955,-222.402ZM23.486,-210.639L29.146,-200.834L17.825,-200.834L23.486,-210.639ZM-86.138,-210.639L-80.478,-200.834L-91.799,-200.834L-86.138,-210.639ZM-122.607,-210.639L-116.947,-200.834L-128.267,-200.834L-122.607,-210.639ZM-158.294,-210.639L-152.634,-200.834L-163.955,-200.834L-158.294,-210.639ZM30.545,-199.435L40.349,-193.774L30.545,-188.114L30.545,-199.435ZM6.623,-193.774L16.427,-199.435L16.427,-188.114L6.623,-193.774ZM-79.08,-199.435L-69.276,-193.774L-79.08,-188.114L-79.08,-199.435ZM-103.002,-193.774L-93.198,-199.435L-93.198,-188.114L-103.002,-193.774ZM-115.548,-199.435L-105.744,-193.774L-115.548,-188.114L-115.548,-199.435ZM-139.47,-193.774L-129.666,-199.435L-129.666,-188.114L-139.47,-193.774ZM-151.234,-199.435L-141.431,-193.774L-151.234,-188.114L-151.234,-199.435ZM-175.157,-193.774L-165.354,-199.435L-165.354,-188.114L-175.157,-193.774ZM17.825,-186.716L29.146,-186.716L23.486,-176.911L17.825,-186.716ZM-91.799,-186.716L-80.478,-186.716L-86.138,-176.911L-91.799,-186.716ZM-128.267,-186.716L-116.947,-186.716L-122.607,-176.911L-128.267,-186.716ZM-163.955,-186.716L-152.634,-186.716L-158.294,-176.911L-163.955,-186.716ZM-12.202,-174.758L-6.541,-164.954L-17.862,-164.954L-12.202,-174.758ZM-50.452,-174.758L-44.791,-164.954L-56.113,-164.954L-50.452,-174.758ZM-86.138,-174.758L-80.478,-164.954L-91.799,-164.954L-86.138,-174.758ZM-122.607,-174.758L-116.947,-164.954L-128.267,-164.954L-122.607,-174.758ZM-158.294,-174.758L-152.634,-164.954L-163.955,-164.954L-158.294,-174.758ZM-5.142,-163.555L4.662,-157.895L-5.142,-152.235L-5.142,-163.555ZM-29.064,-157.895L-19.26,-163.555L-19.26,-152.235L-29.064,-157.895ZM-43.393,-163.555L-33.588,-157.895L-43.393,-152.235L-43.393,-163.555ZM-67.315,-157.895L-57.51,-163.555L-57.51,-152.235L-67.315,-157.895ZM-103.002,-157.895L-93.198,-163.555L-93.198,-152.235L-103.002,-157.895ZM-139.47,-157.895L-129.666,-163.555L-129.666,-152.235L-139.47,-157.895ZM-151.234,-163.555L-141.431,-157.895L-151.234,-152.235L-151.234,-163.555ZM-175.157,-157.895L-165.354,-163.555L-165.354,-152.235L-175.157,-157.895ZM-17.862,-150.835L-6.541,-150.835L-12.202,-141.032L-17.862,-150.835ZM-56.113,-150.835L-44.791,-150.835L-50.452,-141.032L-56.113,-150.835ZM-91.799,-150.835L-80.478,-150.835L-86.138,-141.032L-91.799,-150.835ZM-12.202,-139.071L-6.541,-129.267L-17.862,-129.267L-12.202,-139.071ZM-86.138,-139.071L-80.478,-129.267L-91.799,-129.267L-86.138,-139.071ZM-29.064,-122.207L-19.26,-127.868L-19.26,-116.547L-29.064,-122.207ZM-79.08,-127.868L-69.276,-122.207L-79.08,-116.547L-79.08,-127.868ZM-103.002,-122.207L-93.198,-127.868L-93.198,-116.547L-103.002,-122.207ZM-115.548,-127.868L-105.744,-122.207L-115.548,-116.547L-115.548,-127.868ZM-17.862,-115.149L-6.541,-115.149L-12.202,-105.344L-17.862,-115.149ZM-91.799,-115.149L-80.478,-115.149L-86.138,-105.344L-91.799,-115.149ZM-12.202,-103.01L-6.541,-93.207L-17.862,-93.207L-12.202,-103.01ZM-86.139,-103.01L-80.478,-93.207L-91.799,-93.207L-86.139,-103.01ZM-122.607,-103.01L-116.947,-93.207L-128.267,-93.207L-122.607,-103.01ZM6.623,-86.148L16.427,-91.807L16.427,-80.487L6.623,-86.148ZM-5.142,-91.807L4.662,-86.148L-5.142,-80.487L-5.142,-91.807ZM-29.064,-86.148L-19.26,-91.807L-19.26,-80.487L-29.064,-86.148ZM-67.315,-86.148L-57.51,-91.807L-57.51,-80.487L-67.315,-86.148ZM-79.08,-91.807L-69.276,-86.148L-79.08,-80.487L-79.08,-91.807ZM-103.003,-86.148L-93.198,-91.807L-93.198,-80.487L-103.003,-86.148ZM-115.548,-91.807L-105.744,-86.148L-115.548,-80.487L-115.548,-91.807ZM-139.471,-86.148L-129.666,-91.807L-129.666,-80.487L-139.471,-86.148ZM-151.234,-91.807L-141.431,-86.148L-151.234,-80.487L-151.234,-91.807ZM17.825,-79.088L29.146,-79.088L23.485,-69.285L17.825,-79.088ZM-17.862,-79.088L-6.541,-79.088L-12.202,-69.285L-17.862,-79.088ZM-56.113,-79.088L-44.791,-79.088L-50.452,-69.285L-56.113,-79.088ZM-91.799,-79.088L-80.478,-79.088L-86.139,-69.285L-91.799,-79.088ZM-128.267,-79.088L-116.947,-79.088L-122.607,-69.285L-128.267,-79.088ZM23.485,-67.323L29.146,-57.519L17.825,-57.519L23.485,-67.323ZM-12.202,-67.323L-6.541,-57.519L-17.862,-57.519L-12.202,-67.323ZM-50.452,-67.323L-44.791,-57.519L-56.113,-57.519L-50.452,-67.323ZM-86.139,-67.323L-80.478,-57.519L-91.799,-57.519L-86.139,-67.323ZM-122.607,-67.323L-116.947,-57.519L-128.267,-57.519L-122.607,-67.323ZM-158.294,-67.323L-152.634,-57.519L-163.955,-57.519L-158.294,-67.323ZM6.623,-50.46L16.427,-56.121L16.427,-44.8L6.623,-50.46ZM-5.142,-56.121L4.662,-50.46L-5.142,-44.8L-5.142,-56.121ZM-29.064,-50.46L-19.26,-56.121L-19.26,-44.8L-29.064,-50.46ZM-43.393,-56.121L-33.588,-50.46L-43.393,-44.8L-43.393,-56.121ZM-67.315,-50.46L-57.51,-56.121L-57.51,-44.8L-67.315,-50.46ZM-79.08,-56.121L-69.276,-50.46L-79.08,-44.8L-79.08,-56.121ZM-139.471,-50.46L-129.666,-56.121L-129.666,-44.8L-139.471,-50.46ZM-151.234,-56.121L-141.431,-50.46L-151.234,-44.8L-151.234,-56.121ZM17.825,-43.401L29.146,-43.401L23.485,-33.597L17.825,-43.401ZM-17.862,-43.401L-6.541,-43.401L-12.202,-33.597L-17.862,-43.401ZM-56.113,-43.401L-44.791,-43.401L-50.452,-33.597L-56.113,-43.401ZM-91.799,-43.401L-80.478,-43.401L-86.139,-33.597L-91.799,-43.401ZM-163.955,-43.401L-152.634,-43.401L-158.294,-33.597L-163.955,-43.401ZM23.485,-31.444L29.146,-21.639L17.825,-21.639L23.485,-31.444ZM-12.202,-31.444L-6.541,-21.639L-17.862,-21.639L-12.202,-31.444ZM-158.294,-31.444L-152.634,-21.639L-163.955,-21.639L-158.294,-31.444ZM6.623,-14.58L16.427,-20.24L16.427,-8.92L6.623,-14.58ZM-5.142,-20.24L4.662,-14.58L-5.142,-8.92L-5.142,-20.24ZM-29.064,-14.58L-19.26,-20.24L-19.26,-8.92L-29.064,-14.58ZM-79.08,-20.24L-69.276,-14.58L-79.08,-8.92L-79.08,-20.24ZM-151.234,-20.24L-141.431,-14.58L-151.234,-8.92L-151.234,-20.24ZM-175.157,-14.58L-165.353,-20.24L-165.353,-8.92L-175.157,-14.58Z" style="fill:rgb(102,95,99);fill-rule:nonzero;"/>
    </g>
    <g transform="matrix(5.56944,0,0,5.56944,1187.99,877.119)">
        <path d="M0,-9.804L-11.321,-9.804L-5.661,0L0,-9.804Z" style="fill:rgb(156,126,124);fill-rule:nonzero;"/>
    </g>
    <g transform="matrix(5.56944,0,0,5.56944,1117.15,814.728)">
        <path d="M0,-11.321L-9.804,-5.661L0,0L0,-11.321Z" style="fill:rgb(156,126,124);fill-rule:nonzero;"/>
    </g>
    <g transform="matrix(5.56944,0,0,5.56944,957.704,743.886)">
        <path d="M0,-9.804L-5.661,0L5.661,0L0,-9.804Z" style="fill:rgb(156,126,124);fill-rule:nonzero;"/>
    </g>
    <g transform="matrix(5.56944,0,0,5.56944,989.231,877.119)">
        <path d="M0,-9.804L-11.321,-9.804L-5.661,0L0,-9.804Z" style="fill:rgb(156,126,124);fill-rule:nonzero;"/>
    </g>
    <g transform="matrix(5.56944,0,0,5.56944,997.02,814.728)">
        <path d="M0,-11.321L0,0L9.804,-5.661L0,-11.321Z" style="fill:rgb(156,126,124);fill-rule:nonzero;"/>
    </g>
    <g transform="matrix(5.56944,0,0,5.56944,918.391,814.728)">
        <path d="M0,-11.321L-9.804,-5.661L0,0L0,-11.321Z" style="fill:rgb(156,126,124);fill-rule:nonzero;"/>
    </g>
    <g transform="matrix(5.56944,0,0,5.56944,1156.46,942.646)">
        <path d="M0,-9.805L-5.66,0L5.661,0L0,-9.805Z" style="fill:rgb(156,126,124);fill-rule:nonzero;"/>
    </g>
    <g transform="matrix(5.56944,0,0,5.56944,1187.99,1075.88)">
        <path d="M0,-9.805L-11.321,-9.805L-5.661,0L0,-9.805Z" style="fill:rgb(156,126,124);fill-rule:nonzero;"/>
    </g>
    <g transform="matrix(5.56944,0,0,5.56944,1117.15,1013.48)">
        <path d="M0,-11.321L-9.804,-5.66L0,0L0,-11.321Z" style="fill:rgb(156,126,124);fill-rule:nonzero;"/>
    </g>
    <g transform="matrix(5.56944,0,0,5.56944,957.704,942.646)">
        <path d="M0,-9.805L-5.661,0L5.661,0L0,-9.805Z" style="fill:rgb(156,126,124);fill-rule:nonzero;"/>
    </g>
    <g transform="matrix(5.56944,0,0,5.56944,989.231,1075.88)">
        <path d="M0,-9.805L-11.321,-9.805L-5.661,0L0,-9.805Z" style="fill:rgb(156,126,124);fill-rule:nonzero;"/>
    </g>
    <g transform="matrix(5.56944,0,0,5.56944,997.02,1013.48)">
        <path d="M0,-11.321L0,0L9.804,-5.66L0,-11.321Z" style="fill:rgb(156,126,124);fill-rule:nonzero;"/>
    </g>
    <g transform="matrix(5.56944,0,0,5.56944,918.391,1013.48)">
        <path d="M0,-11.321L-9.804,-5.66L0,0L0,-11.321Z" style="fill:rgb(156,126,124);fill-rule:nonzero;"/>
    </g>
    <g transform="matrix(5.56944,0,0,5.56944,1156.46,1142.48)">
        <path d="M0,-9.805L-5.66,0L5.661,0L0,-9.805Z" style="fill:rgb(156,126,124);fill-rule:nonzero;"/>
    </g>
    <g transform="matrix(5.56944,0,0,5.56944,1117.15,1213.31)">
        <path d="M0,-11.32L-9.804,-5.66L0,0L0,-11.32Z" style="fill:rgb(156,126,124);fill-rule:nonzero;"/>
    </g>
    <g transform="matrix(5.56944,0,0,5.56944,957.704,1142.48)">
        <path d="M0,-9.805L-5.661,0L5.661,0L0,-9.805Z" style="fill:rgb(156,126,124);fill-rule:nonzero;"/>
    </g>
    <g transform="matrix(2.7846,4.82335,4.82335,-2.7846,960.081,1204.27)">
        <path d="M-0.426,-6.783L8.258,-6.783L9.576,-4.499L5.234,3.022L-0.426,-6.783Z" style="fill:rgb(156,126,124);fill-rule:nonzero;"/>
    </g>
    <g transform="matrix(5.56944,0,0,5.56944,997.02,1213.31)">
        <path d="M0,-11.32L0,0L9.804,-5.66L0,-11.32Z" style="fill:rgb(156,126,124);fill-rule:nonzero;"/>
    </g>
    <g transform="matrix(5.56944,0,0,5.56944,918.391,1213.31)">
        <path d="M0,-11.32L-9.804,-5.66L0,0L0,-11.32Z" style="fill:rgb(156,126,124);fill-rule:nonzero;"/>
    </g>
    <g transform="matrix(5.56944,0,0,5.56944,776.198,877.119)">
        <path d="M0,-9.804L-11.321,-9.804L-5.661,0L0,-9.804Z" style="fill:rgb(156,126,124);fill-rule:nonzero;"/>
    </g>
    <g transform="matrix(5.56944,0,0,5.56944,705.358,814.728)">
        <path d="M0,-11.321L-9.805,-5.661L0,0L0,-11.321Z" style="fill:rgb(156,126,124);fill-rule:nonzero;"/>
    </g>
    <g transform="matrix(5.56944,0,0,5.56944,545.912,743.886)">
        <path d="M0,-9.804L-5.661,0L5.661,0L0,-9.804Z" style="fill:rgb(156,126,124);fill-rule:nonzero;"/>
    </g>
    <g transform="matrix(5.56944,0,0,5.56944,577.439,877.119)">
        <path d="M0,-9.804L-11.321,-9.804L-5.661,0L0,-9.804Z" style="fill:rgb(156,126,124);fill-rule:nonzero;"/>
    </g>
    <g transform="matrix(5.56944,0,0,5.56944,585.228,814.728)">
        <path d="M0,-11.321L0,0L9.804,-5.661L0,-11.321Z" style="fill:rgb(156,126,124);fill-rule:nonzero;"/>
    </g>
    <g transform="matrix(5.56944,0,0,5.56944,506.599,814.728)">
        <path d="M0,-11.321L-9.805,-5.661L0,0L0,-11.321Z" style="fill:rgb(156,126,124);fill-rule:nonzero;"/>
    </g>
    <g transform="matrix(5.56944,0,0,5.56944,744.671,942.646)">
        <path d="M0,-9.805L-5.661,0L5.661,0L0,-9.805Z" style="fill:rgb(156,126,124);fill-rule:nonzero;"/>
    </g>
    <g transform="matrix(5.56944,0,0,5.56944,776.198,1075.88)">
        <path d="M0,-9.805L-11.321,-9.805L-5.661,0L0,-9.805Z" style="fill:rgb(156,126,124);fill-rule:nonzero;"/>
    </g>
    <g transform="matrix(5.56944,0,0,5.56944,783.985,1013.48)">
        <path d="M0,-11.321L0,0L9.805,-5.66L0,-11.321Z" style="fill:rgb(156,126,124);fill-rule:nonzero;"/>
    </g>
    <g transform="matrix(5.56944,0,0,5.56944,705.358,1013.48)">
        <path d="M0,-11.321L-9.805,-5.66L0,0L0,-11.321Z" style="fill:rgb(156,126,124);fill-rule:nonzero;"/>
    </g>
    <g transform="matrix(5.56944,0,0,5.56944,545.912,942.646)">
        <path d="M0,-9.805L-5.661,0L5.661,0L0,-9.805Z" style="fill:rgb(156,126,124);fill-rule:nonzero;"/>
    </g>
    <g transform="matrix(5.56944,0,0,5.56944,577.439,1075.88)">
        <path d="M0,-9.805L-11.321,-9.805L-5.661,0L0,-9.805Z" style="fill:rgb(156,126,124);fill-rule:nonzero;"/>
    </g>
    <g transform="matrix(5.56944,0,0,5.56944,585.228,1013.48)">
        <path d="M0,-11.321L0,0L9.804,-5.66L0,-11.321Z" style="fill:rgb(156,126,124);fill-rule:nonzero;"/>
    </g>
    <g transform="matrix(5.56944,0,0,5.56944,342.807,743.886)">
        <path d="M0,-9.804L-5.66,0L5.66,0L0,-9.804Z" style="fill:rgb(156,126,124);fill-rule:nonzero;"/>
    </g>
    <g transform="matrix(5.56944,0,0,5.56944,374.331,877.119)">
        <path d="M0,-9.804L-11.32,-9.804L-5.66,0L0,-9.804Z" style="fill:rgb(156,126,124);fill-rule:nonzero;"/>
    </g>
    <g transform="matrix(5.56944,0,0,5.56944,382.122,814.728)">
        <path d="M0,-11.321L0,0L9.804,-5.661L0,-11.321Z" style="fill:rgb(156,126,124);fill-rule:nonzero;"/>
    </g>
    <g transform="matrix(5.56944,0,0,5.56944,303.493,814.728)">
        <path d="M0,-11.321L-9.805,-5.661L0,0L0,-11.321Z" style="fill:rgb(156,126,124);fill-rule:nonzero;"/>
    </g>
    <g transform="matrix(5.56944,0,0,5.56944,183.365,814.728)">
        <path d="M0,-11.321L0,0L9.804,-5.661L0,-11.321Z" style="fill:rgb(156,126,124);fill-rule:nonzero;"/>
    </g>
    <g transform="matrix(5.56944,0,0,5.56944,342.807,942.646)">
        <path d="M0,-9.805L-5.66,0L5.66,0L0,-9.805Z" style="fill:rgb(156,126,124);fill-rule:nonzero;"/>
    </g>
    <g transform="matrix(5.56944,0,0,5.56944,303.493,1013.48)">
        <path d="M0,-11.321L-9.805,-5.66L0,0L0,-11.321Z" style="fill:rgb(156,126,124);fill-rule:nonzero;"/>
    </g>
    <g transform="matrix(5.56944,0,0,5.56944,144.048,942.646)">
        <path d="M0,-9.805L-5.66,0L5.66,0L0,-9.805Z" style="fill:rgb(156,126,124);fill-rule:nonzero;"/>
    </g>
    <g transform="matrix(5.56944,0,0,5.56944,175.572,1075.88)">
        <path d="M0,-9.805L-11.321,-9.805L-5.66,0L0,-9.805Z" style="fill:rgb(156,126,124);fill-rule:nonzero;"/>
    </g>
    <g transform="matrix(5.56944,0,0,5.56944,183.365,1013.48)">
        <path d="M0,-11.321L0,0L9.804,-5.66L0,-11.321Z" style="fill:rgb(156,126,124);fill-rule:nonzero;"/>
    </g>
    <g transform="matrix(2.7846,4.82335,4.82335,-2.7846,548.29,1204.27)">
        <path d="M-0.426,-6.783L8.258,-6.783L9.576,-4.499L5.234,3.022L-0.426,-6.783Z" style="fill:rgb(156,126,124);fill-rule:nonzero;"/>
    </g>
    <g transform="matrix(5.56944,0,0,5.56944,585.228,1213.31)">
        <path d="M0,-11.32L0,0L9.804,-5.66L0,-11.32Z" style="fill:rgb(156,126,124);fill-rule:nonzero;"/>
    </g>
    <g transform="matrix(5.56944,0,0,5.56944,144.048,1142.48)">
        <path d="M0,-9.805L-5.66,0L5.66,0L0,-9.805Z" style="fill:rgb(156,126,124);fill-rule:nonzero;"/>
    </g>
    <g transform="matrix(2.7846,4.82335,4.82335,-2.7846,146.422,1204.27)">
        <path d="M-0.426,-6.783L8.258,-6.783L9.576,-4.499L5.234,3.022L-0.426,-6.783Z" style="fill:rgb(156,126,124);fill-rule:nonzero;"/>
    </g>
    <g transform="matrix(5.56944,0,0,5.56944,183.365,1213.31)">
        <path d="M0,-11.32L0,0L9.804,-5.66L0,-11.32Z" style="fill:rgb(156,126,124);fill-rule:nonzero;"/>
    </g>
    <g transform="matrix(5.56944,0,0,5.56944,104.735,1213.31)">
        <path d="M0,-11.32L-9.804,-5.66L0,0L0,-11.32Z" style="fill:rgb(156,126,124);fill-rule:nonzero;"/>
    </g>
    <g transform="matrix(5.56944,0,0,5.56944,175.574,78.9357)">
        <path d="M0,-9.804L-11.321,-9.804L-5.661,0L0,-9.804Z" style="fill:rgb(156,126,124);fill-rule:nonzero;"/>
    </g>
    <g transform="matrix(5.56944,0,0,5.56944,76.0987,16.5401)">
        <path d="M0,-2.969L5.141,0L5.141,-2.969L0,-2.969Z" style="fill:rgb(156,126,124);fill-rule:nonzero;"/>
    </g>
    <g transform="matrix(5.56944,0,0,5.56944,183.367,16.5401)">
        <path d="M0,-2.969L0,0L5.141,-2.969L0,-2.969Z" style="fill:rgb(156,126,124);fill-rule:nonzero;"/>
    </g>
    <g transform="matrix(5.56944,0,0,5.56944,374.331,78.9357)">
        <path d="M0,-9.804L-11.32,-9.804L-5.66,0L0,-9.804Z" style="fill:rgb(156,126,124);fill-rule:nonzero;"/>
    </g>
    <g transform="matrix(5.56944,0,0,5.56944,274.854,16.5401)">
        <path d="M0,-2.969L5.142,0L5.142,-2.969L0,-2.969Z" style="fill:rgb(156,126,124);fill-rule:nonzero;"/>
    </g>
    <g transform="matrix(5.56944,0,0,5.56944,382.123,16.5401)">
        <path d="M0,-2.969L0,0L5.142,-2.969L0,-2.969Z" style="fill:rgb(156,126,124);fill-rule:nonzero;"/>
    </g>
    <g transform="matrix(5.56944,0,0,5.56944,144.048,144.463)">
        <path d="M0,-9.805L-5.661,0L5.661,0L0,-9.805Z" style="fill:rgb(156,126,124);fill-rule:nonzero;"/>
    </g>
    <g transform="matrix(5.56944,0,0,5.56944,175.574,277.696)">
        <path d="M0,-9.805L-11.321,-9.805L-5.661,0L0,-9.805Z" style="fill:rgb(156,126,124);fill-rule:nonzero;"/>
    </g>
    <g transform="matrix(5.56944,0,0,5.56944,104.733,215.3)">
        <path d="M0,-11.321L-9.804,-5.66L0,0L0,-11.321Z" style="fill:rgb(156,126,124);fill-rule:nonzero;"/>
    </g>
    <g transform="matrix(5.56944,0,0,5.56944,183.365,215.3)">
        <path d="M0,-11.321L0,0L9.804,-5.66L0,-11.321Z" style="fill:rgb(156,126,124);fill-rule:nonzero;"/>
    </g>
    <g transform="matrix(5.56944,0,0,5.56944,342.807,144.463)">
        <path d="M0,-9.805L-5.66,0L5.66,0L0,-9.805Z" style="fill:rgb(156,126,124);fill-rule:nonzero;"/>
    </g>
    <g transform="matrix(5.56944,0,0,5.56944,374.331,277.696)">
        <path d="M0,-9.805L-11.32,-9.805L-5.66,0L0,-9.805Z" style="fill:rgb(156,126,124);fill-rule:nonzero;"/>
    </g>
    <g transform="matrix(5.56944,0,0,5.56944,303.493,215.3)">
        <path d="M0,-11.321L-9.804,-5.66L0,0L0,-11.321Z" style="fill:rgb(156,126,124);fill-rule:nonzero;"/>
    </g>
    <g transform="matrix(5.56944,0,0,5.56944,382.123,215.3)">
        <path d="M0,-11.321L0,0L9.804,-5.66L0,-11.321Z" style="fill:rgb(156,126,124);fill-rule:nonzero;"/>
    </g>
    <g transform="matrix(5.56944,0,0,5.56944,545.915,144.463)">
        <path d="M0,-9.805L-5.661,0L5.66,0L0,-9.805Z" style="fill:rgb(156,126,124);fill-rule:nonzero;"/>
    </g>
    <g transform="matrix(5.56944,0,0,5.56944,577.439,277.696)">
        <path d="M0,-9.805L-11.321,-9.805L-5.66,0L0,-9.805Z" style="fill:rgb(156,126,124);fill-rule:nonzero;"/>
    </g>
    <g transform="matrix(5.56944,0,0,5.56944,506.599,215.3)">
        <path d="M0,-11.321L-9.804,-5.66L0,0L0,-11.321Z" style="fill:rgb(156,126,124);fill-rule:nonzero;"/>
    </g>
    <g transform="matrix(5.56944,0,0,5.56944,585.23,215.3)">
        <path d="M0,-11.321L0,0L9.804,-5.66L0,-11.321Z" style="fill:rgb(156,126,124);fill-rule:nonzero;"/>
    </g>
    <g transform="matrix(5.56944,0,0,5.56944,144.048,344.294)">
        <path d="M0,-9.805L-5.661,0L5.661,0L0,-9.805Z" style="fill:rgb(156,126,124);fill-rule:nonzero;"/>
    </g>
    <g transform="matrix(5.56944,0,0,5.56944,104.733,415.129)">
        <path d="M0,-11.32L-9.804,-5.66L0,0L0,-11.32Z" style="fill:rgb(156,126,124);fill-rule:nonzero;"/>
    </g>
    <g transform="matrix(5.56944,0,0,5.56944,183.365,415.129)">
        <path d="M0,-11.32L0,0L9.804,-5.66L0,-11.32Z" style="fill:rgb(156,126,124);fill-rule:nonzero;"/>
    </g>
    <g transform="matrix(5.56944,0,0,5.56944,342.807,344.294)">
        <path d="M0,-9.805L-5.66,0L5.66,0L0,-9.805Z" style="fill:rgb(156,126,124);fill-rule:nonzero;"/>
    </g>
    <g transform="matrix(5.56944,0,0,5.56944,303.493,415.129)">
        <path d="M0,-11.32L-9.804,-5.66L0,0L0,-11.32Z" style="fill:rgb(156,126,124);fill-rule:nonzero;"/>
    </g>
    <g transform="matrix(5.56944,0,0,5.56944,382.123,613.889)">
        <path d="M0,-11.321L0,0L9.804,-5.66L0,-11.321Z" style="fill:rgb(156,126,124);fill-rule:nonzero;"/>
    </g>
    <g transform="matrix(5.56944,0,0,5.56944,545.915,344.294)">
        <path d="M0,-9.805L-5.661,0L5.66,0L0,-9.805Z" style="fill:rgb(156,126,124);fill-rule:nonzero;"/>
    </g>
    <g transform="matrix(5.56944,0,0,5.56944,577.439,477.526)">
        <path d="M0,-9.804L-11.321,-9.804L-5.66,0L0,-9.804Z" style="fill:rgb(156,126,124);fill-rule:nonzero;"/>
    </g>
    <g transform="matrix(5.56944,0,0,5.56944,506.599,415.129)">
        <path d="M0,-11.32L-9.804,-5.66L0,0L0,-11.32Z" style="fill:rgb(156,126,124);fill-rule:nonzero;"/>
    </g>
    <g transform="matrix(5.56944,0,0,5.56944,744.671,344.294)">
        <path d="M0,-9.805L-5.661,0L5.661,0L0,-9.805Z" style="fill:rgb(156,126,124);fill-rule:nonzero;"/>
    </g>
    <g transform="matrix(5.56944,0,0,5.56944,776.2,477.526)">
        <path d="M0,-9.804L-11.322,-9.804L-5.661,0L0,-9.804Z" style="fill:rgb(156,126,124);fill-rule:nonzero;"/>
    </g>
    <g transform="matrix(5.56944,0,0,5.56944,705.358,415.129)">
        <path d="M0,-11.32L-9.804,-5.66L0,0L0,-11.32Z" style="fill:rgb(156,126,124);fill-rule:nonzero;"/>
    </g>
    <g transform="matrix(5.56944,0,0,5.56944,783.987,415.129)">
        <path d="M0,-11.32L0,0L9.804,-5.66L0,-11.32Z" style="fill:rgb(156,126,124);fill-rule:nonzero;"/>
    </g>
    <g transform="matrix(5.56944,0,0,5.56944,545.915,543.053)">
        <path d="M0,-9.805L-5.661,0L5.66,0L0,-9.805Z" style="fill:rgb(156,126,124);fill-rule:nonzero;"/>
    </g>
    <g transform="matrix(5.56944,0,0,5.56944,577.439,676.286)">
        <path d="M0,-9.805L-11.321,-9.805L-5.66,0L0,-9.805Z" style="fill:rgb(156,126,124);fill-rule:nonzero;"/>
    </g>
    <g transform="matrix(5.56944,0,0,5.56944,506.599,613.889)">
        <path d="M0,-11.321L-9.804,-5.66L0,0L0,-11.321Z" style="fill:rgb(156,126,124);fill-rule:nonzero;"/>
    </g>
    <g transform="matrix(5.56944,0,0,5.56944,585.23,613.889)">
        <path d="M0,-11.321L0,0L9.804,-5.66L0,-11.321Z" style="fill:rgb(156,126,124);fill-rule:nonzero;"/>
    </g>
    <g transform="matrix(5.56944,0,0,5.56944,989.231,78.9357)">
        <path d="M0,-9.804L-11.321,-9.804L-5.661,0L0,-9.804Z" style="fill:rgb(156,126,124);fill-rule:nonzero;"/>
    </g>
    <g transform="matrix(5.56944,0,0,5.56944,889.753,16.5401)">
        <path d="M0,-2.969L5.142,0L5.142,-2.969L0,-2.969Z" style="fill:rgb(156,126,124);fill-rule:nonzero;"/>
    </g>
    <g transform="matrix(5.56944,0,0,5.56944,997.021,16.5401)">
        <path d="M0,-2.969L0,0L5.142,-2.969L0,-2.969Z" style="fill:rgb(156,126,124);fill-rule:nonzero;"/>
    </g>
    <g transform="matrix(5.56944,0,0,5.56944,1156.46,144.463)">
        <path d="M0,-9.805L-5.661,0L5.661,0L0,-9.805Z" style="fill:rgb(156,126,124);fill-rule:nonzero;"/>
    </g>
    <g transform="matrix(5.56944,0,0,5.56944,1187.99,277.696)">
        <path d="M0,-9.805L-11.321,-9.805L-5.661,0L0,-9.805Z" style="fill:rgb(156,126,124);fill-rule:nonzero;"/>
    </g>
    <g transform="matrix(5.56944,0,0,5.56944,1117.15,215.3)">
        <path d="M0,-11.321L-9.804,-5.66L0,0L0,-11.321Z" style="fill:rgb(156,126,124);fill-rule:nonzero;"/>
    </g>
    <g transform="matrix(5.56944,0,0,5.56944,1195.78,215.3)">
        <path d="M0,-11.321L0,0L9.804,-5.66L0,-11.321Z" style="fill:rgb(156,126,124);fill-rule:nonzero;"/>
    </g>
    <g transform="matrix(5.56944,0,0,5.56944,957.704,344.294)">
        <path d="M0,-9.805L-5.66,0L5.661,0L0,-9.805Z" style="fill:rgb(156,126,124);fill-rule:nonzero;"/>
    </g>
    <g transform="matrix(5.56944,0,0,5.56944,989.231,477.526)">
        <path d="M0,-9.804L-11.321,-9.804L-5.661,0L0,-9.804Z" style="fill:rgb(156,126,124);fill-rule:nonzero;"/>
    </g>
    <g transform="matrix(5.56944,0,0,5.56944,918.391,415.129)">
        <path d="M0,-11.32L-9.804,-5.66L0,0L0,-11.32Z" style="fill:rgb(156,126,124);fill-rule:nonzero;"/>
    </g>
    <g transform="matrix(5.56944,0,0,5.56944,997.02,415.129)">
        <path d="M0,-11.32L0,0L9.804,-5.66L0,-11.32Z" style="fill:rgb(156,126,124);fill-rule:nonzero;"/>
    </g>
    <g transform="matrix(5.56944,0,0,5.56944,957.704,543.053)">
        <path d="M0,-9.805L-5.66,0L5.661,0L0,-9.805Z" style="fill:rgb(156,126,124);fill-rule:nonzero;"/>
    </g>
    <g transform="matrix(5.56944,0,0,5.56944,989.231,676.286)">
        <path d="M0,-9.805L-11.321,-9.805L-5.661,0L0,-9.805Z" style="fill:rgb(156,126,124);fill-rule:nonzero;"/>
    </g>
    <g transform="matrix(5.56944,0,0,5.56944,918.391,613.889)">
        <path d="M0,-11.321L-9.804,-5.66L0,0L0,-11.321Z" style="fill:rgb(156,126,124);fill-rule:nonzero;"/>
    </g>
    <g transform="matrix(5.56944,0,0,5.56944,669.369,712.938)">
        <path d="M0,0.07L0.019,0.018L0.014,0L0,0.07Z" style="fill:rgb(143,145,145);fill-rule:nonzero;"/>
    </g>
    <g transform="matrix(5.56944,0,0,5.56944,341.328,314.392)">
        <path d="M0,62.679C-0.076,65.532 -2.43,67.828 -5.324,67.827C-6.798,67.827 -8.126,67.235 -9.091,66.276C-10.055,65.316 -10.649,63.997 -10.649,62.536C-10.65,59.674 -8.359,57.336 -5.496,57.249L-5.529,56.149C-8.982,56.255 -11.748,59.073 -11.749,62.536C-11.749,66.067 -8.872,68.927 -5.324,68.927C-1.836,68.927 1.006,66.162 1.1,62.708L0,62.679ZM114.843,7.995C117.721,8.072 120.027,10.413 120.026,13.284C120.026,14.746 119.432,16.065 118.467,17.025C117.501,17.984 116.172,18.577 114.7,18.577C111.814,18.577 109.466,16.294 109.378,13.455L108.278,13.49C108.387,16.927 111.222,19.676 114.7,19.677C118.246,19.677 121.126,16.817 121.126,13.284C121.126,9.81 118.34,6.988 114.873,6.895L114.843,7.995ZM112.952,-0.003C113.027,-2.855 115.38,-5.148 118.276,-5.148C119.749,-5.147 121.078,-4.556 122.043,-3.597C123.008,-2.638 123.602,-1.319 123.603,0.143C123.604,3.003 121.311,5.341 118.448,5.429L118.482,6.529C121.934,6.422 124.702,3.605 124.703,0.143C124.703,-1.622 123.981,-3.223 122.819,-4.378C121.657,-5.533 120.047,-6.248 118.276,-6.248C114.787,-6.248 111.944,-3.485 111.852,-0.032L112.952,-0.003ZM-4.595,57.36L42.331,57.36L42.331,56.26L-4.595,56.26L-4.595,57.36ZM-21.173,55.874L12.502,55.874L12.502,54.774L-21.173,54.774L-21.173,55.874ZM2.951,7.213C1.602,7.205 0.257,6.688 -0.773,5.666C-1.813,4.631 -2.331,3.28 -2.331,1.925C-2.331,0.569 -1.813,-0.781 -0.773,-1.815C0.258,-2.841 1.602,-3.357 2.951,-3.366L2.945,-4.466C1.32,-4.457 -0.308,-3.83 -1.549,-2.595C-2.803,-1.35 -3.432,0.29 -3.431,1.925C-3.432,3.56 -2.802,5.2 -1.549,6.446C-0.307,7.678 1.32,8.304 2.945,8.313L2.951,7.213ZM41.437,7.995L113.95,7.995L113.95,6.895L41.437,6.895L41.437,7.995ZM64.549,6.532L127.221,6.532L127.221,5.432L64.549,5.432L64.549,6.532ZM-11.166,8.321L10.635,8.321L10.635,7.221L-11.166,7.221L-11.166,8.321Z" style="fill:rgb(178,144,66);fill-rule:nonzero;"/>
    </g>
    <g transform="matrix(5.56944,0,0,5.56944,625.534,913.93)">
        <path d="M0,-14.917L0.065,-14.896C-0.895,-14.622 -2.185,-14.342 -4.011,-14.237C-9.597,-13.93 -9.766,-10.197 -10.178,-8.457C-10.59,-6.722 -5.697,-0.664 -5.697,-0.664C-4.991,0.221 -4.948,-2.117 -4.948,-2.117L-5.356,-3.848C-5.356,-3.848 -4.416,-3.932 -4.515,-4.365C-4.617,-4.794 -4.887,-4.959 -5.251,-5.559C-5.621,-6.153 -5.911,-7.955 -5.616,-7.479C-5.321,-7.001 -4.435,-5.565 -3.587,-5.267C-2.74,-4.963 -3.149,-5.216 -2.894,-5.865C-2.638,-6.519 -3.01,-7.264 -3.306,-7.748C-3.6,-8.225 -3.899,-10.846 -3.557,-10.56C-3.215,-10.278 -2.663,-8.31 -1.714,-7.572C-0.766,-6.838 -1.714,-7.572 -1.65,-8.275C-1.587,-8.974 -1.291,-10.64 -1.073,-10.282C-0.85,-9.923 -0.379,-8.895 -0.379,-8.895C-0.379,-8.895 0.283,-9.959 0.178,-10.39C0.08,-10.824 0.896,-12.976 0.896,-12.976C0.896,-12.976 1.247,-11.874 1.134,-10.98C1.024,-10.089 2.092,-11.572 2.092,-11.572L2.834,-13.841C2.834,-13.841 3.049,-12.158 3.102,-11.533C3.159,-10.908 4.261,-11.26 4.261,-11.26C4.261,-11.26 4.902,-12.823 3.8,-14.474C3.151,-14.748 1.835,-15.138 0,-14.917" style="fill:rgb(178,144,66);fill-rule:nonzero;"/>
    </g>
    <g transform="matrix(5.56944,0,0,5.56944,548.134,691.575)">
        <path d="M0,13.123C0.596,13.637 1.853,14.315 2.184,14.726C3.954,15.995 5.38,17.285 5.383,18.533C5.394,21.534 3.149,26.732 3.149,26.732C3.149,26.732 6.222,20.884 9.225,21.476C10.876,21.798 11.728,22.967 13.749,23.644C15.134,24.014 16.726,24.45 18.179,24.197C19.105,23.75 19.677,23.027 20.812,21.762C25.594,16.441 28.163,13.778 28.163,13.778C28.163,13.778 23.732,13.237 18.622,13.427C14.39,13.582 12.381,14.84 10.183,15.987C9.396,16.401 8.35,14.711 12.872,11.915C16.219,9.854 19.529,5.877 20.475,1.588C20.35,1.904 18.827,2.476 18.662,2.728C17.006,4.902 14.651,7.636 13.452,8.757L11.358,10.713C11.358,10.713 13.464,5.123 12.209,1.895C10.948,-1.331 10.878,-4.171 10.878,-4.171C10.878,-4.171 13.499,1.15 13.687,2.072C13.871,2.997 14.86,-6.331 15.461,-6.932C16.054,-7.534 14.798,4.009 15.034,5.161C15.167,5.825 16.693,3.805 18.225,2.183C19.266,0.859 20.618,-0.193 20.659,-0.074C20.921,-1.799 20.839,-3.532 20.261,-5.147C18.029,-11.419 17.128,-13.609 17.128,-13.609C17.128,-13.609 13.869,-10.214 11.257,-6.321C8.434,-2.113 6.214,4.314 6.732,7.453C7.25,10.587 7.07,12.063 7.07,12.063C7.07,12.063 5.877,6.347 0.12,3.871C-3.27,2.413 -4.289,1.084 -5.027,0.617C-5.107,1.329 -5.449,4.82 -5.018,7.504C-4.304,9.087 -1.324,11.99 0,13.123M16.363,17.018C19.457,16.87 22.871,16.535 22.871,16.535C22.871,16.535 20.616,18.437 17.987,18.491C15.355,18.547 13.324,19.502 13.324,19.502C13.324,19.502 17.62,20.845 18.636,20.52C19.651,20.196 20.379,21.207 18.703,21.63C17.027,22.048 13.93,20.997 10.461,18.701C10.461,18.701 13.272,17.168 16.363,17.018M-1.996,5.262C-1.996,5.262 3.267,6.355 4.8,9.766C6.337,13.173 6.805,15.182 6.805,15.182C6.805,15.182 1.57,13.746 -1.142,8.491C-1.142,8.491 2.626,11.172 4.042,12.008C3.562,10.942 1.532,6.731 -1.164,5.814C-4.262,4.76 -1.996,5.262 -1.996,5.262" style="fill:rgb(143,145,145);fill-rule:nonzero;"/>
    </g>
    <g transform="matrix(5.56944,0,0,5.56944,464.905,777.977)">
        <path d="M0,-4.286C0,-4.286 1.61,-5.117 3.487,-5.599C5.365,-6.085 6.202,-5.636 5.448,-5.29C4.695,-4.945 0.913,-3.675 0.913,-3.675L1.853,-3.205C1.853,-3.205 4.055,-4.349 5.546,-4.418C7.034,-4.489 9.937,-3.179 7.497,-3.488C5.057,-3.796 2.835,-3.047 2.835,-3.047L3.573,-2.786L4.875,-3.126C6.173,-3.464 8.518,-2.082 7.87,-1.794C7.219,-1.508 4.307,-1.507 4.307,-1.507C4.307,-1.507 5.206,-0.816 6.134,-0.281C7.06,0.257 8.095,0.112 10.185,0.673C12.271,1.239 15.203,4.35 15.203,4.35C15.203,4.35 16.573,2.077 16.535,0.863C16.512,0.213 15.866,-0.539 15.063,-1.299L15.184,-1.22C12.36,-3.219 10.883,-4.141 10.122,-5.758C9.898,-6.232 9.641,-6.632 9.377,-6.923C8.995,-7.174 8.565,-7.404 8.073,-7.598C5.436,-8.636 -0.764,-4.877 -0.764,-4.877L0,-4.286Z" style="fill:rgb(178,144,66);fill-rule:nonzero;"/>
    </g>
    <g transform="matrix(5.56944,0,0,5.56944,393.302,699.254)">
        <path d="M0,9.487L-0.203,8.404C-0.203,8.404 -0.538,6.014 -0.42,5.386C-0.35,5.013 0.146,4.284 0.444,3.814C0.39,4.569 0.689,6.128 0.521,7.196C0.302,8.559 0.605,9.585 0.605,9.585L1.523,8.598C1.523,8.598 1.383,7.642 1.342,7.32C1.298,7.006 1.354,5.846 1.711,4.976C2.07,4.103 2.994,3.85 3.464,4.531C3.934,5.204 2.817,5.456 2.546,6.656C2.278,7.863 2.211,8.784 2.211,8.784L3.548,8.451C3.548,8.451 3.16,7.222 3.113,6.748C3.064,6.275 3.693,4.351 4.599,4.029C5.506,3.704 4.881,4.694 4.341,6.141C3.802,7.589 4.142,8.388 4.142,8.388L5.154,8.316C5.154,8.316 5.136,8.001 5.252,7.71C5.365,7.416 5.007,6.35 5.699,4.886C6.387,3.421 7.984,3.785 7.76,3.874C7.537,3.961 6.592,5.2 6.125,6.424C5.66,7.65 6.338,8.272 6.338,8.272L7.118,7.926C7.118,7.926 7.37,6.181 8.211,5.281C9.055,4.387 10.57,4.315 10.57,4.315C10.57,4.315 10.15,4.83 9.274,5.451C8.397,6.075 8.374,8.205 8.374,8.205L9.284,8.349C9.284,8.349 9.865,7.119 10.263,6.254C10.657,5.39 12.293,5.559 12.008,5.882C11.72,6.21 10.659,8.567 10.659,8.567L11.461,9.319L11.898,8.528C12.334,7.741 14.449,6.675 16.06,5.843C17.669,5.007 16.852,3.789 15.258,2.537C13.67,1.285 13.608,2.653 11.359,1.63C9.111,0.604 4.27,-0.771 2.477,0.169C0.682,1.096 -1.811,3.246 -1.723,5.179C-1.635,7.117 -0.495,10.258 -0.495,10.258L0,9.487Z" style="fill:rgb(178,144,66);fill-rule:nonzero;"/>
    </g>
    <g transform="matrix(5.56944,0,0,5.56944,323.8,732.171)">
        <path d="M0,11.591C1.145,12.241 6.028,10.68 6.028,10.68L5.6,10.145C5.6,10.145 1.31,10.554 1.547,10.127C1.784,9.694 3.02,9.272 4.281,9.158C5.541,9.046 6.364,9.334 6.364,9.334L6.402,9.107C6.402,9.107 3.935,8.404 3.97,8.176C4.007,7.949 5.668,7.823 6.46,7.949L7.254,8.075L7.652,7.825C7.652,7.825 5.285,6.75 4.865,6.45C4.447,6.15 4.965,6.22 6.248,6.272C7.529,6.33 8.179,7.134 8.179,7.134L8.75,6.992C8.75,6.992 7.067,5.789 6.396,5.135C5.722,4.485 5.474,4.136 6.05,4.149C6.627,4.162 7.667,5.573 7.989,5.699C8.308,5.827 8.949,6.7 8.949,6.7L9.646,5.963C9.646,5.963 7.478,4.217 7.642,3.663C7.808,3.105 8.28,3.566 8.791,4.273C9.304,4.977 9.752,5.59 9.752,5.59L11.188,4.962C11.188,4.962 9.221,2.16 8.71,1.149C8.201,0.133 5.726,-0.65 4.589,0.495C3.452,1.636 2.715,5.642 1.597,6.63C0.479,7.622 -1.149,10.944 0,11.591" style="fill:rgb(178,144,66);fill-rule:nonzero;"/>
    </g>
    <g transform="matrix(5.56944,0,0,5.56944,372.488,816.639)">
        <path d="M0,9.636L-0.574,8.845C-0.574,8.845 -1.024,11.575 -1.625,10.932C-2.223,10.296 -0.771,8.503 -0.875,8.176C-0.975,7.848 -2.138,9.998 -2.138,9.998C-2.138,9.998 -2.179,8.512 -1.779,7.72L-1.378,6.929C-1.378,6.929 -3.713,9.825 -3.919,8.936C-4.119,8.047 -1.942,6.065 -1.942,6.065L-2.54,5.423C-2.54,5.423 -4.677,8.272 -4.692,7.57C-4.712,6.868 -2.972,4.514 -2.972,4.514L-2.893,4.042C-2.893,4.042 -5.448,7.061 -5.858,6.451C-6.261,5.848 -3.536,3.864 -3.536,3.864L-3.379,2.876C-3.379,2.876 -6.581,5.403 -6.734,4.915C-6.891,4.424 -3.762,2.115 -3.762,2.115C-3.762,2.115 -3.416,1.784 -3.757,1.652C-4.096,1.518 -6.256,3.354 -6.335,2.874C-6.416,2.398 -3.439,0.921 -3.4,0.619C-3.362,0.313 -5.909,1.156 -5.744,0.636C-5.589,0.114 -3.147,-0.707 -3.254,-1.538C-3.357,-2.368 -3.014,-2.604 -3.014,-2.604C-3.014,-2.604 -5.622,-0.823 -6.438,-0.253C-7.253,0.32 -8.674,0.792 -8.874,2.395C-9.082,3.996 -10.291,7.15 -7.33,8.629C-4.368,10.114 -4.115,10.463 -2.932,11.349C-1.75,12.24 -0.192,11.941 0,9.636" style="fill:rgb(178,144,66);fill-rule:nonzero;"/>
    </g>
    <g transform="matrix(5.56944,0,0,5.56944,551.448,813.695)">
        <path d="M0,0.942C0.057,0.796 -1.204,-0.026 -1.461,-0.376C-1.713,-0.73 -2.357,-2.075 -3.692,-3.461C-5.028,-4.846 -8.15,-5.172 -8.15,-5.172L-7.701,-3.704C-7.701,-3.704 -4.686,-2.601 -4.111,-1.886C-3.538,-1.172 -7.49,-2.576 -7.49,-2.576L-7.154,-1.28C-7.154,-1.28 -4.509,-0.779 -4.012,-0.472C-3.516,-0.155 -7.169,-0.195 -7.169,-0.195L-7.236,0.227C-7.236,0.227 -6.781,0.802 -6.465,0.774C-6.15,0.747 -3.532,0.929 -3.733,1.211C-3.934,1.486 -7.42,1.401 -7.42,1.401L-7.489,2.308C-7.489,2.308 -3.598,2.316 -3.768,2.898C-3.935,3.478 -7.496,2.865 -7.496,2.865L-7.691,3.614C-7.691,3.614 -4.585,3.64 -5.053,4.035C-5.513,4.427 -7.862,4.676 -7.862,4.676L-8.122,5.335C-4.666,6.114 -2.918,3.437 -2.252,3.138C-1.58,2.837 -0.056,1.092 0,0.942" style="fill:rgb(178,144,66);fill-rule:nonzero;"/>
    </g>
    <g transform="matrix(5.56944,0,0,5.56944,495.829,775.817)">
        <path d="M0,1.806C-0.798,0.976 -1.526,0.629 -1.526,0.629C-1.526,0.629 -0.327,3.387 -0.842,3.191C-1.354,2.992 -2.909,0.097 -2.909,0.097C-2.909,0.097 -2.376,3.064 -2.795,2.76C-3.215,2.461 -3.359,0.418 -3.678,-0.025C-3.994,-0.463 -3.416,2.74 -4.085,2.557C-4.758,2.372 -4.82,-0.672 -4.82,-0.672L-5.939,1.989C-5.939,1.989 -5.766,-0.588 -6.034,-0.861C-6.3,-1.137 -6.226,1.349 -7.218,1.199C-8.204,1.046 -6.436,-2.242 -7.027,-2.456C-7.613,-2.67 -8.949,-0.328 -9.312,-0.146C-9.677,0.038 -8.008,-2.031 -8.153,-2.637C-8.302,-3.247 -10.192,-0.141 -10.627,-0.356C-11.06,-0.569 -8.889,-3.472 -9.468,-3.733C-10.048,-3.989 -11.651,-0.45 -12.119,-0.592C-12.588,-0.737 -11.302,-4.02 -11.302,-4.02L-12.126,-4.149C-12.126,-4.149 -13.208,-0.381 -13.975,-0.885C-14.743,-1.389 -12.851,-3.736 -12.851,-3.736C-12.851,-3.736 -16.976,-3.002 -16.47,-1.281C-15.963,0.442 -14.168,0.882 -13.043,1.138C-11.914,1.396 -10.437,2.873 -9.447,3.493C-8.455,4.121 -8.398,5.22 -5.545,4.895C-2.693,4.568 0.415,5.296 1.151,5.955C1.151,5.955 0.802,2.633 0,1.806" style="fill:rgb(178,144,66);fill-rule:nonzero;"/>
    </g>
    <g transform="matrix(5.56944,0,0,5.56944,358.714,788.017)">
        <path d="M0,6.528C0,6.528 0.842,9.228 1.383,8.532C1.921,7.841 2.958,7.1 3.819,6.368C4.684,5.634 6.125,5.317 7.111,4.775C8.097,4.232 11.371,2.034 11.686,2.352C11.686,2.352 11.769,0.687 10.448,0.169C9.132,-0.351 7.491,-1.936 6.551,-2.316C5.615,-2.7 4.137,-2.7 4.137,-2.7C4.137,-2.7 7.417,-0.842 7.336,-0.317C7.255,0.207 4.465,-1.324 3.958,-1.561C3.449,-1.794 2.389,-1.496 2.389,-1.496C2.389,-1.496 6.677,0.196 6.494,0.476C6.312,0.759 1.728,-0.749 1.451,-0.477C1.175,-0.211 1.018,0.113 1.018,0.113C1.018,0.113 4.805,0.835 4.635,1.233C4.462,1.631 0.862,1.061 0.862,1.061L0.758,1.746C0.758,1.746 3.979,2.33 3.996,2.644C4.018,2.961 0.538,3.113 0.538,3.113L0.337,4.4C0.337,4.4 3.961,3.575 3.488,3.968C3.02,4.361 0.251,4.932 0.251,4.932L0.117,5.783C0.117,5.783 2.707,4.855 2.385,5.426C2.058,5.998 0,6.528 0,6.528" style="fill:rgb(178,144,66);fill-rule:nonzero;"/>
    </g>
    <g transform="matrix(5.56944,0,0,5.56944,496.999,810.375)">
        <path d="M0,5.842C0.558,5.776 0.514,3.59 0.493,2.732C0.476,1.873 -0.285,1.751 -0.886,0.958C-1.484,0.162 -2.417,0.481 -2.417,0.481C-2.417,0.481 -0.857,2.909 -1.272,3.074C-1.684,3.24 -3.178,-0.028 -3.178,-0.028L-4.337,0.33C-4.337,0.33 -3.293,3.065 -3.811,3.386C-4.328,3.705 -5.002,0.227 -5.002,0.227L-6.446,0.388C-6.446,0.388 -4.988,2.954 -5.554,3.096C-6.12,3.24 -7.815,0.173 -7.815,0.173L-9.321,-0.07C-8.963,3.22 -5.048,4.81 -4.469,5.138C-3.883,5.462 -0.555,5.912 0,5.842" style="fill:rgb(178,144,66);fill-rule:nonzero;"/>
    </g>
    <g transform="matrix(5.56944,0,0,5.56944,424.521,831.448)">
        <path d="M0,-4.535L-1.198,-4.26C-1.198,-4.26 0.965,-2.203 0.579,-1.721C0.192,-1.234 -2.311,-3.669 -2.311,-3.669L-3.053,-2.372C-3.053,-2.372 -0.722,-1.381 -0.822,-1.085C-0.922,-0.791 -2.463,-1.189 -3.122,-1.452C-3.782,-1.711 -4.257,-1.163 -4.343,-0.853C-4.43,-0.544 -2.01,0.357 -1.051,0.346C-0.089,0.339 3.775,0.187 3.956,-0.485C4.14,-1.154 2.225,-4.103 2.225,-4.103L0.691,-4.892C0.691,-4.892 1.965,-2.121 1.878,-1.926C1.798,-1.738 0,-4.535 0,-4.535" style="fill:rgb(178,144,66);fill-rule:nonzero;"/>
    </g>
    <g transform="matrix(5.56944,0,0,5.56944,456.356,848.568)">
        <path d="M0,5.978C1.123,5.765 3.401,3.174 3.678,2.907C3.952,2.638 4.078,1.338 3.98,1.001C3.879,0.663 3.36,-0.022 2.753,-0.119C2.149,-0.212 0.495,-0.088 0.253,-0.047C0.253,-0.047 0.761,1.665 0.4,2.952C0.043,4.239 -2.724,5.004 -2.429,5.594C-2.135,6.185 -1.124,6.19 0,5.978" style="fill:rgb(178,144,66);fill-rule:nonzero;"/>
    </g>
    <g transform="matrix(1.32962,-5.4084,-5.4084,-1.32962,442.521,845.312)">
        <path d="M-2,-2.199C-0.404,-1.906 0.211,-1.053 -0.081,-0.258C-0.081,-0.258 -0.787,2.223 -2,2.199C-3.212,2.172 -4.224,2.302 -4.315,0.604C-4.403,-1.089 -3.593,-2.485 -2,-2.199" style="fill:rgb(178,144,66);fill-rule:nonzero;"/>
    </g>
    <g transform="matrix(-2.00542,5.19586,5.19586,2.00542,422.054,846.369)">
        <path d="M1.78,-1.571C3.274,-1.567 2.877,1.02 2.877,1.02L1.78,0.628C0.685,0.236 -0.939,1.015 -0.939,1.015C-0.552,0.496 0.289,-1.578 1.78,-1.571" style="fill:rgb(178,144,66);fill-rule:nonzero;"/>
    </g>
    <g transform="matrix(1.82412,5.26225,5.26225,-1.82412,408.866,871.66)">
        <path d="M1.748,-0.183C2.461,0.334 3.292,2.54 3.107,3.171C2.921,3.803 2.549,4.247 1.748,3.899C0.953,3.55 -0.283,0.904 -0.283,0.904C-1.735,-1.561 1.038,-0.698 1.748,-0.183" style="fill:rgb(178,144,66);fill-rule:nonzero;"/>
    </g>
    <g transform="matrix(5.56944,0,0,5.56944,406.337,860.188)">
        <path d="M0,-2.823C0.078,-4.366 -2.235,-5.486 -2.235,-5.486L-3.212,-5.196C-3.212,-5.196 -1.31,-3.34 -1.594,-2.76C-1.875,-2.183 -3.682,-4.65 -3.682,-4.65L-4.57,-4.366C-4.57,-4.366 -2.538,-1.974 -3.059,-1.639C-3.579,-1.302 -5.146,-3.957 -5.146,-3.957L-5.717,-2.775C-5.717,-2.775 -3.233,-0.535 -3.337,0.116C-3.443,0.768 -6.097,-2.464 -6.097,-2.464C-6.097,-2.464 -6.591,-1.92 -6.555,-1.66C-6.517,-1.399 -4.057,2.216 -2.418,2.437C-0.777,2.663 -1.91,0.455 -2,-0.181C-2.093,-0.819 -0.08,-1.28 0,-2.823" style="fill:rgb(178,144,66);fill-rule:nonzero;"/>
    </g>
    <g transform="matrix(5.56944,0,0,5.56944,500.342,862.134)">
        <path d="M0,7.208C3.197,5.69 4.295,0.73 4.201,-0.15C4.107,-1.031 -0.057,-1.746 -0.057,-1.746C-0.948,-1.924 -1.079,-0.588 -1.079,-0.588L1.727,0.73C1.727,0.73 1.368,1.044 1.061,0.996C0.761,0.949 -1.598,0.321 -1.598,0.321L-2.56,1.299C-2.56,1.299 -0.225,2.735 -0.177,2.944C-0.132,3.152 -3.288,1.94 -3.288,1.94L-3.592,2.404C-3.592,2.404 -2.083,4.157 -1.94,4.84C-1.801,5.526 -5.174,4.051 -5.174,4.051L-5.98,4.2C-5.98,4.2 -4.954,5.101 -4.014,6.028C-3.071,6.953 -8.106,4.851 -8.106,4.851C-7.053,9.132 -3.194,8.725 0,7.208" style="fill:rgb(178,144,66);fill-rule:nonzero;"/>
    </g>
    <g transform="matrix(5.56944,0,0,5.56944,443.156,887.32)">
        <path d="M0,4.713C1.264,3.048 0.603,0.92 0.603,0.92C0.603,0.92 0.081,3.637 -0.313,3.187C-0.707,2.734 -0.926,1.156 -0.926,1.156L-1.665,1.041C-1.665,1.041 -0.766,3.113 -1.211,2.966C-1.654,2.818 -2.247,1.178 -2.453,1.031L-2.655,0.883C-2.655,0.883 -1.77,3.346 -2.362,3.248C-2.954,3.157 -3.563,1.271 -3.563,1.271L-3.928,1.134C-3.928,1.134 -3.823,3.562 -4.218,2.956C-4.613,2.35 -4.791,1.001 -4.791,1.001L-5.293,0.581C-5.293,0.581 -4.392,3.398 -5.079,2.818C-5.762,2.241 -6.005,0.469 -6.005,0.469L-6.6,0.166C-6.6,0.166 -6.197,2.518 -6.852,1.74C-7.504,0.957 -7.433,0.124 -7.433,0.124L-7.745,-0.484C-7.745,-0.484 -7.338,1.854 -8.071,1.576C-8.805,1.292 -8.871,-0.737 -8.871,-0.737L-9.273,-0.879C-9.273,-0.879 -9.1,2.199 -9.624,1.329C-10.149,0.461 -9.266,-1.224 -10.438,-1.665C-10.438,-1.665 -11.924,-0.675 -11.531,0.554C-11.137,1.784 -9.822,3.314 -8.347,3.314C-6.869,3.314 -6.082,3.749 -4.841,4.256C-3.594,4.766 -1.262,6.378 0,4.713" style="fill:rgb(178,144,66);fill-rule:nonzero;"/>
    </g>
    <g transform="matrix(5.56944,0,0,5.56944,478.235,938.009)">
        <path d="M0,-3.936C0,-3.936 0.045,-1.282 -0.396,-1.431C-0.841,-1.574 -0.549,-4.41 -0.549,-4.41L-2.765,-5.151C-3.307,-1.737 -0.895,1.215 -0.895,1.215C2.646,-1.493 1.277,-4.041 1.277,-4.041L0,-3.936Z" style="fill:rgb(143,145,145);fill-rule:nonzero;"/>
    </g>
    <g transform="matrix(5.56944,0,0,5.56944,518.371,955.898)">
        <path d="M0,-10.515C0.976,-9.419 1.982,-6.233 1.639,-6.521C1.295,-6.809 -0.496,-9.74 -0.496,-9.74L-1.085,-9.043C0.393,-7.16 0.868,-5.088 0.513,-5.302C0.157,-5.514 -2.12,-9.205 -2.12,-9.205L-2.696,-8.609C-1.391,-7.404 -1.165,-5.07 -1.126,-4.192C-2.004,-5.163 -3.888,-7.967 -3.888,-7.967L-4.646,-8.087C-4.646,-8.087 -3.254,-4.105 -2.479,-3.125C-1.7,-2.148 2.041,0 2.041,0C2.041,0 3.449,-4.675 3.222,-7.437C2.993,-10.196 0,-10.515 0,-10.515M-0.729,-3.864C-0.613,-3.866 -0.555,-3.869 -0.729,-3.864" style="fill:rgb(143,145,145);fill-rule:nonzero;"/>
    </g>
    <g transform="matrix(5.56944,0,0,5.56944,554.956,878.286)">
        <path d="M0,0.358C-0.941,-1.059 -3.06,-2.615 -3.708,-2.748C-4.677,-2.951 -4.921,-2.941 -4.921,-2.941L-5.067,-2.022C-5.067,-2.022 -1.626,-0.167 -1.479,0.367C-1.33,0.907 -4.783,-0.4 -4.783,-0.4L-4.969,-0.187C-4.969,-0.187 -1.384,0.751 -1.028,1.463C-0.675,2.176 -4.502,1.265 -4.901,0.849C-5.301,0.429 -5.656,1.698 -5.656,1.698C-5.656,1.698 -3.344,3.309 -1.881,2.916C-0.42,2.529 2.235,1.98 2.235,1.98C2.235,1.98 0.945,1.772 0,0.358" style="fill:rgb(143,145,145);fill-rule:nonzero;"/>
    </g>
    <g transform="matrix(5.56944,0,0,5.56944,723.342,955.841)">
        <path d="M0,7.328C0,7.328 1.327,7.334 1.925,6.971C2.522,6.599 3.118,6.232 3.926,5.405C4.735,4.573 4.998,2.596 4.998,2.596C4.998,2.596 3.602,2.469 2.424,2.702C1.246,2.932 0.344,2 -1.689,1.112C-3.726,0.223 -3.531,0.268 -4.91,-0.364C-6.29,-0.999 -6.429,-0.422 -7.413,-0.143C-8.395,0.13 -9.231,0.651 -11.248,1.395C-13.263,2.146 -14.019,1.453 -15.029,1.419C-16.038,1.386 -17.024,1.664 -17.521,2.462C-18.018,3.259 -15.096,6.208 -14.556,6.732C-14.14,7.143 -14.014,3.597 -14.014,3.597L-12.99,6.597C-12.99,6.597 -11.657,7.422 -11.049,7.871C-10.444,8.327 -8.557,6.832 -8.557,6.832L-8.612,4.063L-8.28,5.674C-8.28,5.674 -8.031,6.342 -7.739,6.821C-7.441,7.301 -7.002,5.874 -7.002,5.874L-6.772,4.904C-6.544,3.942 -6.323,4.301 -5.844,4C-5.365,3.71 -5.715,4.752 -5.852,5.327C-5.987,5.911 -5.889,6.342 -5.454,6.239C-5.023,6.138 -5.454,6.239 -5.197,5.585C-4.942,4.933 -4.894,4.739 -4.089,3.912C-3.282,3.082 -4.089,3.912 -4.078,4.732C-4.067,5.55 -4.611,6.544 -4.388,6.9C-4.17,7.258 -2.654,5.17 -2.654,5.17L-2.834,5.944C-3.021,6.716 -3.321,7.564 -3.321,7.564L-1.209,5.103L-2.07,7.452L1.503,4.42L0.368,5.784L0,7.328Z" style="fill:rgb(178,144,66);fill-rule:nonzero;"/>
    </g>
    <g transform="matrix(5.56944,0,0,5.56944,745.696,921.112)">
        <path d="M0,6.969C0.864,6.764 2.452,4.791 3.317,2.444C4.178,0.097 1.514,0.585 0.278,0.192C-0.95,-0.199 -4.2,0.152 -5.525,0.142C-6.849,0.134 -8.832,3.341 -8.832,3.341C-8.825,4.157 -8.035,3.834 -7.692,4.123C-7.35,4.406 -4.989,2.617 -4.989,2.617L-6.294,4.247L-4.918,4.882L-2.457,2.708L-2.357,3.142C-2.256,3.572 -4.69,5.242 -4.472,5.598C-4.251,5.961 -2.896,6.279 -2.896,6.279L-0.949,4.086L-0.821,4.835L-2.456,6.995C-2.456,6.995 -0.865,7.168 0,6.969" style="fill:rgb(178,144,66);fill-rule:nonzero;"/>
    </g>
    <g transform="matrix(5.56944,0,0,5.56944,651.738,935.723)">
        <path d="M0,-4.558C0.294,-4.079 2.097,-4.364 2.097,-4.364L0.93,-3.316C0.93,-3.316 1.139,-1.632 1.647,-1.615C2.153,-1.595 3.882,-2.005 3.882,-2.005C3.029,-0.982 2.164,-0.776 2.164,-0.776C2.164,-0.776 2.423,0.715 3.213,0.392C4.005,0.065 5.711,-0.655 5.711,-0.655L3.971,1.079C3.971,1.079 5.469,1.64 6.875,0.44C8.286,-0.757 9.883,-1.904 9.752,-2.655C9.625,-3.399 6.91,-4.86 6.403,-4.873C5.894,-4.894 2.004,-6.123 0.993,-6.159C-0.019,-6.198 -0.292,-5.037 0,-4.558" style="fill:rgb(178,144,66);fill-rule:nonzero;"/>
    </g>
    <g transform="matrix(5.56944,0,0,5.56944,605.342,890.135)">
        <path d="M0,9.917C0.627,9.867 5.437,9.369 5.437,9.369L1.338,10.745C1.338,10.745 2.338,12.106 4.26,11.745C6.185,11.386 6.44,10.73 7.454,10.77C7.454,10.77 10.529,12.006 10.864,10.147C11.204,8.29 6.032,2.576 4.751,0.224C3.467,-2.117 1.442,-2.189 1.094,-1.152C0.746,-0.111 1.915,0.984 1.915,0.984L0.269,0.185L0.041,1.152C0.041,1.152 1.069,2.826 1.992,3.244C1.992,3.244 0.282,3.15 -0.118,2.237C-0.118,2.237 -1.094,3.333 -0.604,3.857C-0.116,4.382 2.206,4.931 2.206,4.931C2.206,4.931 -0.061,5.007 -0.592,4.678L-1.329,5.624L2.182,6.763L-0.544,6.629L-1.203,7.695C-1.203,7.695 1.906,7.922 2.364,8.133L2.825,8.343L-0.185,8.546C-0.185,8.546 -0.625,9.97 0,9.917" style="fill:rgb(178,144,66);fill-rule:nonzero;"/>
    </g>
    <g transform="matrix(2.69097,4.87621,4.87621,-2.69097,676.699,882.023)">
        <path d="M1.592,-0.791C2.725,-0.878 4.59,1.179 4.59,1.179C4.59,1.179 2.191,1.346 1.592,2.161C0.992,2.977 0.102,3.918 0.03,2.504C-0.044,1.1 0.465,-0.706 1.592,-0.791" style="fill:rgb(178,144,66);fill-rule:nonzero;"/>
    </g>
    <g transform="matrix(-5.5626,-0.275933,-0.275933,5.5626,715.287,901.271)">
        <path d="M1.21,-4.923C3.849,-4.3 3.548,-2.127 3.548,-2.127C3.552,0.093 1.21,0.527 1.21,0.527C1.21,0.527 -0.421,0.427 -1.578,-0.366C-2.736,-1.163 -1.429,-5.545 1.21,-4.923" style="fill:rgb(178,144,66);fill-rule:nonzero;"/>
    </g>
    <g transform="matrix(5.56944,0,0,5.56944,724.515,907.246)">
        <path d="M0,-6.347C-0.11,-5.453 1.141,-3.423 1.421,-2.436C1.699,-1.455 0.558,-0.09 0.558,-0.09C-0.103,0.979 2.173,1.717 3.062,1.828C3.956,1.938 5.215,0.503 5.828,-0.373C6.443,-1.245 3.284,-5.567 2.28,-6.927C1.277,-8.285 0.108,-7.236 0,-6.347" style="fill:rgb(178,144,66);fill-rule:nonzero;"/>
    </g>
    <g transform="matrix(5.56944,0,0,5.56944,686.127,865.724)">
        <path d="M0,-1.238C-1.193,-0.503 -0.293,0.427 0.795,0.584C1.877,0.739 5.079,0.573 5.436,0.352L5.83,-0.879C5.83,-0.879 5,-1.686 4.184,-1.679C3.364,-1.671 1.191,-1.977 0,-1.238" style="fill:rgb(178,144,66);fill-rule:nonzero;"/>
    </g>
    <g transform="matrix(5.56944,0,0,5.56944,676.251,855.634)">
        <path d="M0,-6.583C-1.939,-5.716 -2.827,-5.007 -2.665,-3.947C-2.509,-2.892 -2.982,-2.598 -2.454,-2.266C-1.923,-1.937 -0.652,-2.554 -0.652,-2.554L-0.274,-3.282L0.03,-1.982C0.03,-1.982 0.574,-2.978 0.709,-3.556L0.847,-4.139C0.847,-4.139 1.474,-4.197 1.482,-3.376C1.491,-2.554 1.381,-1.666 1.815,-1.766C2.249,-1.866 2.423,-3.461 2.423,-3.461C2.423,-3.461 2.551,-2.709 2.773,-2.355C2.994,-1.996 3.377,-1.906 3.592,-2.363L3.802,-2.826L4.462,-3.892C4.462,-3.892 5.117,-3.636 4.861,-2.981L4.602,-2.33L5.706,-2.68L6.582,-2.066L6.593,-1.243L7.382,-1.567C7.382,-1.567 7.512,-2.965 7.999,-2.442C8.486,-1.917 8.156,-1.382 8.156,-1.382L8.45,-0.908L9.498,-1.881L9.985,-1.359C9.985,-1.359 9.048,0.868 10.229,0.64C10.229,0.64 11.378,0.093 11.552,-1.498C11.722,-3.089 11.271,-4.626 10.854,-5.03C10.446,-5.436 7.572,-5.81 6.292,-6.011C5.014,-6.212 3.93,-6.37 3.277,-6.624C2.623,-6.883 1.938,-7.451 0,-6.583" style="fill:rgb(178,144,66);fill-rule:nonzero;"/>
    </g>
    <g transform="matrix(5.56944,0,0,5.56944,759.304,906.708)">
        <path d="M0,-5.479C0,-5.479 0.831,-4.674 1.362,-4.343C1.895,-4.014 3.027,-4.054 2.43,-3.682C1.831,-3.312 1.116,-2.872 1.116,-2.872L1.082,-1.86L2.718,-1.879L0.658,-0.937L1.299,0.643L4.219,0.826L1.045,1.296C1.045,1.296 1.459,3.847 2.355,3.957C2.355,3.957 7.4,4.64 7.884,3.02C8.37,1.4 9.36,-2.342 7.544,-5.019C5.731,-7.696 1.1,-10.119 -1.035,-9.3L-3.164,-8.478C-3.164,-8.478 -1.226,-7.2 0.009,-6.805C1.238,-6.414 0,-5.479 0,-5.479" style="fill:rgb(178,144,66);fill-rule:nonzero;"/>
    </g>
    <g transform="matrix(5.56944,0,0,5.56944,669.106,895.86)">
        <path d="M0,-8.397C-2.191,-8.199 -6.384,-6.436 -6.301,-5.499C-6.215,-4.561 -3.328,-4.695 -3.328,-4.695C-3.328,-4.695 -6.069,-4.324 -6.011,-3.699C-5.958,-3.074 -6.336,-2.345 -5.705,-2.402C-5.083,-2.458 -2.895,-2.654 -2.895,-2.654C-2.895,-2.654 -5.58,-1.658 -5.357,-1.3C-5.135,-0.941 -3.021,-1.255 -3.021,-1.255L-4.549,0.017C-4.549,0.017 -2.955,0.191 0.098,-0.212C0.098,-0.212 0.384,-0.551 0.304,-2.815C0.232,-5.078 0.223,-5.894 0.598,-6.62C0.97,-7.348 2.189,-8.588 0,-8.397" style="fill:rgb(178,144,66);fill-rule:nonzero;"/>
    </g>
    <g transform="matrix(5.56944,0,0,5.56944,800.407,1041.05)">
        <path d="M0,-4.786L-0.581,-7.068C-0.581,-7.068 -5.254,-5.013 -6.872,-5.5C-8.491,-5.989 -12.738,-7.064 -13.742,-6.546C-14.311,-6.252 -14.24,-6.22 -14.24,-6.22L-11.404,-4.024C-11.404,-4.024 -14.774,-5.741 -15.454,-6.311C-16.134,-6.882 -16.706,-6.202 -16.706,-6.202C-16.706,-6.202 -14.623,-3.357 -13.17,-2.605C-13.17,-2.605 -17.091,-4.149 -18.006,-5.893L-19.611,-5.564C-19.611,-5.564 -17.503,-2.411 -15.11,-1.738C-15.11,-1.738 -18.102,-2.037 -20.506,-5.672L-21.37,-5.469C-21.37,-5.469 -17.085,2.282 -12.97,1.728C-8.861,1.17 -5.227,-1.232 -3.144,-1.865C-1.054,-2.49 0.581,-2.509 0,-4.786" style="fill:rgb(178,144,66);fill-rule:nonzero;"/>
    </g>
    <g transform="matrix(5.56944,0,0,5.56944,611.193,987.798)">
        <path d="M0,11.208C3.506,14.486 8.628,11.826 8.628,11.826C8.628,11.826 11.695,14.385 13.678,13.326C15.664,12.266 16.178,10.963 14.439,8.406C12.7,5.851 11.668,4.178 11.668,4.178L9.643,4.102C9.643,4.102 10.285,5.685 10.979,7.076C11.673,8.464 11.155,7.628 11.155,7.628C11.155,7.628 8.845,5.753 8.894,4.235C8.894,4.235 7.31,2.737 7.232,3.939C7.148,5.143 7.997,7.59 7.997,7.59C7.997,7.59 6.729,6.067 6.78,4.55C6.835,3.032 5.16,1.918 5.052,2.81C4.939,3.704 5.033,7.604 5.033,7.604C5.033,7.604 3.988,6.435 4.213,5.47C4.446,4.504 4.857,2.763 4.607,2.093C4.359,1.421 3.376,1.7 3.193,2.471C3.008,3.24 2.655,5.608 2.655,5.608C2.655,5.608 1.649,4.25 2.113,3.135C2.582,2.022 3.463,1.313 3.144,0.521C2.822,-0.271 2.57,-0.942 1.837,0.005C1.101,0.957 0.931,4.693 0.931,4.693C0.931,4.693 0.135,2.869 0.368,1.905C0.596,0.937 2.68,-1.833 1.265,-1.451C0.62,-1.282 -1.008,0.268 -1.437,0.77C-2.182,2.286 -1.9,5.451 -1.9,5.451L-2.237,1.695C-2.237,1.695 -1.667,0.492 -1.583,0.388C-1.027,-0.312 -0.692,-0.753 -0.337,-1.013C0.197,-1.697 0.906,-2.207 0.87,-2.368C0.766,-2.799 0.474,-3.278 -0.843,-2.463C-2.158,-1.653 -7.301,4.38 0,11.208" style="fill:rgb(178,144,66);fill-rule:nonzero;"/>
    </g>
    <g transform="matrix(5.56944,0,0,5.56944,742.709,933.503)">
        <path d="M0,12.163C0,12.163 6.239,12.113 7.748,11.35C9.252,10.584 11.986,9.399 11.986,9.399L12.784,7.744C12.784,7.744 12.264,4.765 10.968,2.93C9.671,1.089 8.501,0 7.516,0.272C6.531,0.55 5.354,0.78 5.354,0.78L7.961,3.134C7.961,3.134 5.615,2.271 5.318,1.792L4.712,3.486C4.712,3.486 8.514,5.102 7.815,5.041C7.115,4.975 4.724,4.304 4.724,4.304L4.685,5.318L5.166,5.632L7.162,6.926L4.083,7.009L5.802,7.928L3.567,8.314L2.904,9.385C2.904,9.385 7.634,10.096 5.905,10.507C4.173,10.911 3.265,9.163 1.977,10.286C0.692,11.407 -0.845,11.866 0,12.163" style="fill:rgb(178,144,66);fill-rule:nonzero;"/>
    </g>
    <g transform="matrix(5.56944,0,0,5.56944,606.706,915.853)">
        <path d="M0,9.443C1.12,8.585 -0.646,7.86 -0.646,7.86C-0.646,7.86 -2.946,8.949 -3.167,8.588C-3.39,8.227 -2.671,7.787 -1.956,7.343C-1.236,6.903 -1.35,5.653 -1.35,5.653L-2.543,6.391L-5.166,6.687L-5.737,5.226C-5.737,5.226 -2.342,5.109 -1.865,4.815C-1.384,4.519 -2.211,3.714 -2.211,3.714L-4.121,3.568L-1.94,2.552L-5.713,1.249L-6.183,0.215L-2.289,1.448C-2.289,1.448 -2.953,0.372 -6.766,-2.061C-10.577,-4.494 -9.54,1.466 -8.755,4.608C-7.971,7.756 -8.732,10.539 -8.012,12.238C-7.288,13.937 -5.398,13.262 -3.843,12.305C-2.288,11.349 0,9.443 0,9.443" style="fill:rgb(178,144,66);fill-rule:nonzero;"/>
    </g>
    <g transform="matrix(5.56944,0,0,5.56944,816.137,925.833)">
        <path d="M0,-5.476C0,-5.476 -1.541,-3.701 -0.845,-3.635C-0.143,-3.57 3.646,-2.776 3.646,-2.776C3.646,-2.776 -0.984,-3.057 -0.809,-2.504C-0.631,-1.953 2.416,-1.028 2.416,-1.028C2.416,-1.028 -1.304,-1.703 -1.293,-0.884C-1.28,-0.065 -2.026,0.062 -1.226,0.556C-1.226,0.556 2.209,0.252 3.914,-0.464C5.617,-1.187 7.752,-2.006 7.752,-2.006C7.752,-2.006 4.113,-6.032 0,-5.476" style="fill:rgb(143,145,145);fill-rule:nonzero;"/>
    </g>
    <g transform="matrix(5.56944,0,0,5.56944,801.788,849.147)">
        <path d="M0,4.108C0.457,4.32 1.489,3.85 2.084,3.483C2.68,3.114 5.316,1.49 5.316,1.49C5.316,1.49 5.368,2.117 4.529,2.634C3.691,3.147 2.02,4.18 1.81,4.64C1.601,5.103 1.608,5.921 1.608,5.921L3.4,4.812L5.222,4.024C5.222,4.024 5.233,4.839 4.397,5.356C3.562,5.874 1.018,7.109 2.017,7.648C2.017,7.648 6.36,6.126 7.587,4.377C8.819,2.63 9.129,0.459 9.239,-0.434C9.349,-1.328 9.469,-3.54 7.037,-3.201C4.609,-2.861 -1.152,0.37 -2.054,1.582C-2.054,1.582 -0.461,3.897 0,4.108" style="fill:rgb(143,145,145);fill-rule:nonzero;"/>
    </g>
    <g transform="matrix(5.56944,0,0,5.56944,773.728,822.037)">
        <path d="M0,4.823L0.845,2.982L1.141,3.457L0.921,5.244L2.422,5.808C2.422,5.808 4.295,3.497 2.193,-0.985C2.193,-0.985 -3.451,2.169 -3.257,4.357L0,4.823Z" style="fill:rgb(143,145,145);fill-rule:nonzero;"/>
    </g>
    <g transform="matrix(5.56944,0,0,5.56944,807.643,1080.12)">
        <path d="M0,-9.968L-1.212,-8.723L2.378,-6.644C2.378,-6.644 0.788,-6.818 1.007,-6.461C1.227,-6.105 3.062,-3.933 3.062,-3.933L-1.263,-7.208L0.219,-3.997L-2.636,-7.021C-2.636,-7.021 -4.228,-7.193 -4.337,-6.304C-4.337,-6.304 -1.14,-2.99 2.585,-1.495L6.313,0C6.313,0 6.29,-3.78 5.038,-5.813C3.786,-7.841 0,-9.968 0,-9.968" style="fill:rgb(143,145,145);fill-rule:nonzero;"/>
    </g>
    <g transform="matrix(5.56944,0,0,5.56944,808.974,1047.36)">
        <path d="M0,-6.379C-1.527,-5.108 1.839,-3.273 1.839,-3.273L6.794,-2.316C6.794,-2.316 2.547,-2.472 3.272,-2.095C4,-1.717 6.557,-0.025 6.557,-0.025C10.126,0.416 12.203,-3.179 12.203,-3.179C6.837,-6.795 0,-6.379 0,-6.379" style="fill:rgb(143,145,145);fill-rule:nonzero;"/>
    </g>
    <g transform="matrix(5.56944,0,0,5.56944,710.803,1088.64)">
        <path d="M0,0.71C0.309,-1.238 0.091,-3.965 0.091,-3.965C0.091,-3.965 -1.903,-3.723 -3.516,-3.39C-5.125,-3.058 -7.193,-2.936 -7.193,-2.936C-7.163,-2.726 -7.13,-2.528 -7.077,-2.325C-5.858,2.816 0.798,4.675 0.798,4.675C0.798,4.675 -0.291,2.547 0,0.71" style="fill:rgb(143,145,145);fill-rule:nonzero;"/>
    </g>
    <g transform="matrix(5.56944,0,0,5.56944,661.571,1146.45)">
        <path d="M0,-14.116C-0.929,-15.356 -1.4,-14.243 -2.07,-13.996C-2.74,-13.748 -1.599,-10.823 -1.01,-9.864C-0.417,-8.908 0.871,-5.745 0.871,-5.745L-1.029,-7.216L-0.378,-3.49C-0.378,-3.49 -1.556,-5.4 -1.778,-5.76C-1.997,-6.12 -2.597,-7.893 -2.597,-7.893L-2.746,-3.848C-2.746,-3.848 -3.674,-5.087 -3.972,-5.567C-4.264,-6.043 -3.473,-8.511 -3.245,-9.476C-3.014,-10.441 -2.925,-12.975 -3.293,-13.573C-3.662,-14.166 -5.918,-13.275 -5.918,-13.275C-5.918,-13.275 -5.506,-9.399 -5.5,-8.582C-5.489,-7.762 -5.031,-4.086 -3.882,-2.486C-2.729,-0.888 1.05,1.24 1.05,1.24C1.05,1.24 1.824,-0.72 2.564,-2.998C3.308,-5.269 2.715,-8.369 1.908,-9.684C1.096,-10.996 0,-14.116 0,-14.116" style="fill:rgb(143,145,145);fill-rule:nonzero;"/>
    </g>
    <g transform="matrix(5.56944,0,0,5.56944,600.557,1078.66)">
        <path d="M0,0.357L-0.847,0.055L2.561,-2.708L0.251,-4.583C0.251,-4.583 -2.251,-4.363 -4.629,-2.066C-7.008,0.225 -2.489,3.545 -0.412,4.243C1.667,4.94 3.001,3.617 3.071,1.596C3.144,-0.429 4.091,-1.839 4.091,-1.839L2.858,-2.232L0,0.357Z" style="fill:rgb(143,145,145);fill-rule:nonzero;"/>
    </g>
    <g transform="matrix(-5.24602,1.87029,1.87029,5.24602,562.656,699.394)">
        <path d="M-0.675,1.348C-0.675,1.348 -1.795,-0.088 -3.797,-0.296C-3.797,-0.296 -2.902,1.822 -0.675,2.798C-0.675,2.798 2.217,1.522 2.589,0.685C2.589,0.685 0.242,0.15 -0.675,1.348" style="fill:rgb(143,145,145);fill-rule:nonzero;"/>
    </g>
    <g transform="matrix(-2.48674,-4.98346,-4.98346,2.48674,542.718,678.045)">
        <path d="M-1.899,-4.997C-1.899,-4.997 -4.337,-3.614 -4.792,-2.233C-4.792,-2.233 -3.628,0.04 -1.899,0.579C-1.899,0.579 -1.936,-1.215 -3.01,-2.204C-3.01,-2.204 -1.613,-3.687 -1.899,-4.997" style="fill:rgb(143,145,145);fill-rule:nonzero;"/>
    </g>
    <g transform="matrix(-2.51753,-4.96797,-4.96797,2.51753,537.407,661.373)">
        <path d="M-2.335,-5.239C-2.335,-5.239 -4.181,-2.802 -4.364,-1.41C-4.425,-0.948 -2.335,0.986 -2.335,0.986C-2.335,0.986 -2.039,-0.341 -3.46,-1.515C-3.46,-1.515 -1.763,-2.625 -2.335,-5.239" style="fill:rgb(143,145,145);fill-rule:nonzero;"/>
    </g>
    <g transform="matrix(-1.38628,-5.39416,-5.39416,1.38628,706.719,801.339)">
        <path d="M0.286,1.017C0.286,1.017 -0.967,-0.589 -3.209,-0.818C-3.209,-0.818 -2.204,1.55 0.286,2.64C0.286,2.64 3.522,1.21 3.941,0.275C3.941,0.275 1.314,-0.326 0.286,1.017" style="fill:rgb(143,145,145);fill-rule:nonzero;"/>
    </g>
    <g transform="matrix(5.18924,-2.0225,-2.0225,-5.18924,739.12,803.021)">
        <path d="M-1.197,-0.553C-1.197,-0.553 -3.924,0.992 -4.434,2.541C-4.434,2.541 -3.132,5.083 -1.197,5.687C-1.197,5.687 -1.235,3.674 -2.44,2.572C-2.44,2.572 -0.878,0.909 -1.197,-0.553" style="fill:rgb(143,145,145);fill-rule:nonzero;"/>
    </g>
    <g transform="matrix(5.56944,0,0,5.56944,682.515,699.805)">
        <path d="M0,1.473C0.556,0.02 -0.154,-0.947 -2.249,-0.333C-2.249,-0.333 -3.354,0.334 -2.627,1.503C-2.055,2.42 -0.362,2.42 0,1.473" style="fill:rgb(143,145,145);fill-rule:nonzero;"/>
    </g>
    <g transform="matrix(5.56944,0,0,5.56944,665.101,720.825)">
        <path d="M0,2.093C0.592,2.601 2.482,2.381 2.418,1.031C2.357,-0.268 1.152,-0.508 -0.021,0.014C-0.021,0.014 -1.149,1.117 0,2.093" style="fill:rgb(143,145,145);fill-rule:nonzero;"/>
    </g>
    <g transform="matrix(5.56944,0,0,5.56944,448.459,935.623)">
        <path d="M0,-2.35C-1.593,-2.544 -2.036,-1.103 -1.477,-0.455C-0.917,0.194 0.181,0.148 0.525,-0.753C0.965,-1.906 0,-2.35 0,-2.35" style="fill:rgb(143,145,145);fill-rule:nonzero;"/>
    </g>
    <g transform="matrix(-5.54032,-0.568862,-0.568862,5.54032,417.295,954.275)">
        <path d="M2.118,-7.177C2.232,-4.896 0.816,-3.394 0.816,-3.394C2.318,-2.578 2.118,0.147 2.118,0.147C1.119,-0.128 -0.807,-3.146 -0.807,-3.146C-0.1,-5.808 2.118,-7.177 2.118,-7.177" style="fill:rgb(143,145,145);fill-rule:nonzero;"/>
    </g>
    <g transform="matrix(-5.51915,-0.746761,-0.746761,5.51915,394.845,942.086)">
        <path d="M2.392,-6.099C2.716,-4.618 1.134,-2.934 1.134,-2.934C2.354,-1.815 2.392,0.218 2.392,0.218C0.433,-0.392 -0.886,-2.967 -0.886,-2.967C-0.366,-4.532 2.392,-6.099 2.392,-6.099" style="fill:rgb(143,145,145);fill-rule:nonzero;"/>
    </g>
    <g transform="matrix(-1.34239,5.40525,5.40525,1.34239,364.069,912.941)">
        <path d="M0.421,1.729C2.254,-0.026 4.018,0.586 4.018,0.586C4.018,0.586 1.047,3.136 0.421,2.978C-1.451,2.509 -4.485,-0.397 -4.485,-0.397C-0.825,-0.767 0.421,1.729 0.421,1.729" style="fill:rgb(143,145,145);fill-rule:nonzero;"/>
    </g>
    <g transform="matrix(5.56944,0,0,5.56944,588.781,1042.32)">
        <path d="M0,1.661C0.868,1.36 0.665,0.095 0.102,-0.216C-0.457,-0.529 -1.691,-0.069 -1.654,0.66C-1.576,2.19 0,1.661 0,1.661" style="fill:rgb(143,145,145);fill-rule:nonzero;"/>
    </g>
    <g transform="matrix(5.56944,0,0,5.56944,585.79,1030.85)">
        <path d="M0,-0.102C-0.006,-1.181 -0.791,-1.513 -1.866,-0.968C-2.941,-0.424 -1.929,1.007 -1.929,1.007C-1.33,1.411 0.007,0.976 0,-0.102" style="fill:rgb(143,145,145);fill-rule:nonzero;"/>
    </g>
    <g transform="matrix(5.56944,0,0,5.56944,552.11,995.501)">
        <path d="M0,0.017C-0.219,1.359 1.071,1.433 1.071,1.433C1.071,1.433 2.611,0.881 1.904,-0.266C1.195,-1.416 0.137,-0.814 0,0.017" style="fill:rgb(143,145,145);fill-rule:nonzero;"/>
    </g>
    <g transform="matrix(5.56944,0,0,5.56944,530.529,850.825)">
        <path d="M0,-0.82C-0.6,0.245 0.349,1.091 1.313,1.152C2.28,1.211 3.01,-0.604 2.049,-1.214C0.755,-2.031 0,-0.82 0,-0.82" style="fill:rgb(143,145,145);fill-rule:nonzero;"/>
    </g>
    <g transform="matrix(5.56944,0,0,5.56944,389.351,583.994)">
        <path d="M0,-37.308L-5.262,-1.592L-5.309,-1.126C-5.448,-0.799 -5.634,-0.659 -5.868,-0.611L-7.081,-0.283L-7.734,-0.141L-8.294,0L-8.387,0L-9.236,-5.6L-14.189,-37.285L-10.222,-37.291L-9.278,-31.318L-5.693,-7.754L-5.277,-10.553L-1.307,-37.305L0,-37.308Z" style="fill:white;fill-rule:nonzero;"/>
    </g>
    <g transform="matrix(5.56944,0,0,5.56944,447.052,576.259)">
        <path d="M0,-34.582L0.025,-19.18L5.064,-20.447L5.066,-19.141L0.027,-17.873L0.057,0.05L6.732,0.04L6.734,1.347L0.059,1.358L-1.715,1.36L-3.908,1.364L-3.969,-35.93L-1.775,-35.933L-0.002,-35.936L6.673,-35.946L6.675,-34.592L0,-34.582Z" style="fill:white;fill-rule:nonzero;"/>
    </g>
    <g transform="matrix(5.56944,0,0,5.56944,592.918,392.389)">
        <path d="M0,31.528C0.141,32.602 0.189,33.395 0.563,33.628L-2.89,34.474C-3.216,34.334 -3.45,34.055 -3.591,33.542L-3.921,31.395C-4.298,29.39 -4.957,25.608 -6.09,18.283C-6.512,17.116 -6.792,16.744 -8.052,16.978L-8.239,17.027C-8.752,17.167 -9.126,17.168 -9.545,17.308L-9.52,32.711C-9.519,33.131 -9.706,33.364 -10.125,33.506L-11.338,33.833L-11.992,33.975L-12.832,34.21L-13.484,34.351L-13.545,-2.942L-10.745,-2.946L-7.571,-2.905C-4.957,-2.91 -3.415,-2.073 -2.481,-1.374L-2.061,-1.094L-1.92,-1.001C-0.191,0.35 -0.235,2.077 -0.229,5.904L-0.218,12.391L-0.218,12.532C-0.214,14.912 -1.754,15.195 -4.227,15.946C-4.273,15.994 -4.319,15.994 -4.413,15.994L-4.179,16.085C-3.292,16.411 -2.591,16.923 -2.215,19.117C-1.46,23.596 -0.942,26.628 -0.565,28.636L0,31.528ZM-9.547,16.048L-6.888,15.483C-4.648,14.966 -4.182,14.218 -4.186,12.351L-4.205,0.169C-4.582,-1.556 -6.169,-1.834 -7.383,-1.833L-9.576,-1.829L-9.547,16.048Z" style="fill:white;fill-rule:nonzero;"/>
    </g>
    <g transform="matrix(5.56944,0,0,5.56944,699.969,568.702)">
        <path d="M0,-31.946C0.327,-31.713 0.514,-31.386 0.515,-30.92L0.556,-5.856L0.559,-3.428L0.563,-1.048C0.565,-0.581 0.378,-0.255 0.052,-0.02L-0.974,0.682C-1.72,1.196 -2.326,1.571 -2.839,1.899L-2.886,1.946C-4.145,2.694 -4.892,2.881 -5.965,2.882C-7.039,2.885 -7.785,2.7 -9.047,1.955L-9.047,1.908L-9.094,1.908C-9.608,1.583 -10.215,1.211 -10.916,0.699L-11.944,0C-12.318,-0.234 -12.505,-0.56 -12.506,-1.026L-12.554,-30.898C-12.555,-31.364 -12.369,-31.693 -11.996,-31.927L-11.25,-32.441C-8.499,-34.312 -7.473,-34.827 -6.026,-34.83C-4.486,-34.831 -3.644,-34.321 -0.795,-32.458L0,-31.946ZM-3.404,-0.856L-3.41,-4.309L-3.412,-5.803L-3.453,-31.1C-3.457,-33.34 -5.044,-33.759 -6.024,-33.757C-7.004,-33.755 -8.591,-33.331 -8.587,-31.091L-8.538,-0.846C-8.534,1.394 -6.946,1.766 -5.966,1.764C-4.986,1.762 -3.4,1.385 -3.404,-0.856" style="fill:white;fill-rule:nonzero;"/>
    </g>
    <g transform="matrix(5.56944,0,0,5.56944,823.143,583.339)">
        <path d="M0,-37.317L0.054,-3.897L0.054,-3.711L0.058,-1.61L0.012,-1.144C-0.127,-0.817 -0.361,-0.677 -0.594,-0.629L-1.76,-0.301L-2.413,-0.159L-2.973,-0.018L-3.067,-0.018L-12.128,-32.35C-12.362,-33.143 -12.597,-33.656 -12.924,-33.843L-12.868,-0.003L-14.175,0L-14.234,-36.127L-14.236,-37.247L-14.236,-37.294L-12.929,-37.296C-11.435,-37.299 -9.335,-37.255 -8.443,-34.082L-1.26,-8.656L-1.307,-37.314L0,-37.317Z" style="fill:white;fill-rule:nonzero;"/>
    </g>
    <g transform="matrix(5.56944,0,0,5.56944,911.221,439.653)">
        <path d="M0,13.987L-6.859,15.726L-8.429,25.764L-9.829,25.765L-4.427,-9.856L-4.334,-10.371C-4.241,-10.605 -4.055,-10.744 -3.775,-10.884L-2.561,-11.167L-1.395,-11.495L-0.742,-11.636L-0.182,-11.778L-0.089,-11.778L0.902,-5.524L5.947,25.741L1.886,25.747L0,13.987ZM-0.236,12.681L-3.35,-7.944L-6.628,14.324L-0.236,12.681Z" style="fill:white;fill-rule:nonzero;"/>
    </g>
    <g transform="matrix(5.56944,0,0,5.56944,418.153,303.552)">
        <path d="M0,-10.29L-0.006,-13.963C-0.008,-15.27 -0.906,-15.514 -1.478,-15.514C-2.077,-15.512 -2.975,-15.266 -2.972,-13.959L-2.944,3.675C-2.942,4.981 -2.043,5.198 -1.445,5.197C-0.873,5.197 0.025,4.977 0.023,3.671L0.018,0.787L0.399,0.676L0.915,0.567L1.297,0.457L1.977,0.292L2.003,0.265L2.085,0.292C2.276,0.429 2.358,0.564 2.359,0.756L2.363,3.558C2.363,3.831 2.255,4.021 2.037,4.156L1.466,4.566C1.031,4.866 0.678,5.085 0.379,5.275L0.352,5.275L0.352,5.302C-0.382,5.739 -0.871,5.849 -1.443,5.849C-2.069,5.85 -2.505,5.743 -3.268,5.309L-3.268,5.282C-3.567,5.092 -3.921,4.875 -4.357,4.575L-4.957,4.168C-5.147,4.059 -5.284,3.87 -5.284,3.57L-5.313,-13.847C-5.313,-14.092 -5.204,-14.31 -4.987,-14.445L-4.552,-14.746C-2.893,-15.838 -2.35,-16.137 -1.479,-16.139C-0.581,-16.14 -0.091,-15.842 1.571,-14.755L2.007,-14.457C2.225,-14.321 2.334,-14.104 2.335,-13.859L2.341,-9.777C2.342,-9.532 2.26,-9.396 2.069,-9.314L0.709,-8.985L0,-10.29Z" style="fill:white;fill-rule:nonzero;"/>
    </g>
    <g transform="matrix(5.56944,0,0,5.56944,480.215,251.654)">
        <path d="M0,8.154L-3.999,9.168L-4.914,15.02L-5.731,15.021L-2.58,-5.748L-2.527,-6.047C-2.472,-6.184 -2.363,-6.265 -2.201,-6.348L-1.493,-6.512L-0.813,-6.703L-0.432,-6.786L-0.106,-6.867L-0.052,-6.867L0.526,-3.222L3.467,15.006L1.1,15.01L0,8.154ZM-0.137,7.392L-1.953,-4.633L-3.864,8.35L-0.137,7.392Z" style="fill:white;fill-rule:nonzero;"/>
    </g>
    <g transform="matrix(5.56944,0,0,5.56944,532.371,330.764)">
        <path d="M0,-20.162L0.018,-9.304L3.065,-10.098L3.066,-9.309L0.019,-8.541L0.034,0.792L-2.306,0.796L-2.342,-20.948L-1.036,-20.95L-0.001,-20.952L3.863,-20.958L3.865,-20.169L0,-20.162Z" style="fill:white;fill-rule:nonzero;"/>
    </g>
    <g transform="matrix(5.56944,0,0,5.56944,584.957,330.678)">
        <path d="M0,-20.162L0.018,-9.304L3.065,-10.098L3.066,-9.309L0.019,-8.541L0.034,0.792L-2.306,0.796L-2.342,-20.947L-1.036,-20.95L-0.001,-20.951L3.863,-20.958L3.865,-20.168L0,-20.162Z" style="fill:white;fill-rule:nonzero;"/>
    </g>
    <g transform="matrix(5.56944,0,0,5.56944,637.393,304.098)">
        <path d="M0,-15.405L0.015,-6.425L2.952,-7.164L2.954,-6.402L0.016,-5.663L0.033,4.787L3.925,4.781L3.926,5.543L0.034,5.549L-1,5.551L-2.306,5.553L-2.342,-16.191L-1.036,-16.193L-0.001,-16.194L3.89,-16.201L3.892,-15.411L0,-15.405ZM0.921,-17.91L-1.261,-20.954L0.725,-20.958L1.711,-17.911L0.921,-17.91Z" style="fill:white;fill-rule:nonzero;"/>
    </g>
    <g transform="matrix(5.56944,0,0,5.56944,933.149,394.366)">
        <path d="M0,-1.982L-1.583,-1.982L-1.583,-1.722L-0.928,-1.722L-0.928,0L-0.64,0L-0.64,-1.722L0,-1.722L0,-1.982ZM2.535,-1.982L2.102,-1.982L1.482,-0.462L0.861,-1.982L0.414,-1.982L0.414,0L0.702,0L0.702,-1.665L0.712,-1.665L1.381,0L1.568,0L2.237,-1.665L2.246,-1.665L2.246,0L2.535,0L2.535,-1.982Z" style="fill:white;fill-rule:nonzero;"/>
    </g>
</svg>
