<?xml version="1.0" encoding="UTF-8" standalone="no"?>
<!DOCTYPE svg PUBLIC "-//W3C//DTD SVG 1.1//EN" "http://www.w3.org/Graphics/SVG/1.1/DTD/svg11.dtd">
<svg width="100%" height="100%" viewBox="0 0 1263 1263" version="1.1" xmlns="http://www.w3.org/2000/svg" xmlns:xlink="http://www.w3.org/1999/xlink" xml:space="preserve" xmlns:serif="http://www.serif.com/" style="fill-rule:evenodd;clip-rule:evenodd;">
    <g transform="matrix(5.56944,0,0,5.56944,0,0.00556944)">
        <g>
            <clipPath id="_clip1">
                <rect x="-0" y="-0.001" width="226.773" height="226.773"/>
            </clipPath>
            <g clip-path="url(#_clip1)">
                <rect x="0" y="0" width="226.771" height="226.771" style="fill:rgb(208,182,134);"/>
                <g transform="matrix(1,0,0,1,197.742,-14.6999)">
                    <path d="M0,64.606C0,64.606 3.678,56.209 1.475,52.107C-0.728,48.006 -7.937,54.033 0,64.606M-24.969,42.243C-30.607,45.739 -32.046,58.715 -32.046,58.715C-14.722,51.32 -19.33,38.748 -24.969,42.243M-9.153,45.083C-12.647,48.161 -12.129,57.313 -12.129,57.313C-1.002,50.171 -5.655,42.006 -9.153,45.083M3.103,61.122C3.636,67.738 14.527,74.944 14.527,74.944C15.86,56.159 2.57,54.511 3.103,61.122M-7.966,58.426C-11.45,61.518 -10.902,70.664 -10.902,70.664C0.199,63.49 -4.479,55.34 -7.966,58.426M-20.573,-1.107C-22.132,-5.651 -31.059,-8.768 -31.059,-8.768C-28.639,4.658 -19.02,3.442 -20.573,-1.107M-40.557,-5.592C-35.869,7.215 -26.601,4.364 -28.909,0.152C-31.228,-4.058 -40.557,-5.592 -40.557,-5.592M-7.518,13.55C-7.518,13.55 5.642,16.437 10.929,12.083C16.212,7.728 5.444,-0.937 -7.518,13.55M-1.972,47.546C-1.972,47.546 5.935,34.605 3.246,27.382C0.552,20.162 -12.619,28.433 -1.972,47.546M-19.69,29.889C-19.69,29.889 -6.739,28.208 -3.346,22.508C0.045,16.807 -12.614,12.433 -19.69,29.889M-47.742,47.655C-52.359,48.267 -57.028,56.151 -57.028,56.151C-43.808,56.42 -43.129,47.048 -47.742,47.655M-25.358,22.476C-6.416,18.108 -8.817,4.499 -15.176,7.027C-21.541,9.558 -25.358,22.476 -25.358,22.476M-37.312,7.267C-44.056,6.088 -54.076,15.098 -54.076,15.098C-35.652,21.29 -30.566,8.442 -37.312,7.267M-39.5,36.847C-45.557,32.079 -60.293,35.656 -60.293,35.656C-45.346,51.631 -33.448,41.613 -39.5,36.847M-41.728,2.173C-44.377,-5.325 -59.201,-10.338 -59.201,-10.338C-54.981,11.836 -39.078,9.671 -41.728,2.173M-32.947,9.361C-32.947,9.361 -23.638,11.007 -20.057,7.803C-16.476,4.598 -24.278,-1.165 -32.947,9.361M-29.655,11.483C-36.416,12.547 -42.986,24.312 -42.986,24.312C-23.552,24.222 -22.892,10.419 -29.655,11.483M-28.363,31.402C-32.45,29.171 -40.871,32.789 -40.871,32.789C-30.357,40.801 -24.277,33.632 -28.363,31.402M-22.211,26.022C-25.856,23.123 -34.77,25.237 -34.77,25.237C-25.79,34.942 -18.568,28.926 -22.211,26.022M-13.938,31.111C-18.668,35.763 -17.21,48.742 -17.21,48.742C-1.946,37.707 -9.211,26.462 -13.938,31.111M-17.784,35.341C-15.795,31.132 -24.931,28.918 -28.71,41.588C-28.71,41.588 -19.774,39.553 -17.784,35.341M-45.414,54.663C-26.63,53.257 -26.931,39.866 -33.396,41.356C-39.864,42.846 -45.414,54.663 -45.414,54.663" style="fill:rgb(217,195,154);fill-rule:nonzero;"/>
                </g>
                <g transform="matrix(1,0,0,1,-17.0693,295.093)">
                    <path d="M0,-68.762C0,-68.762 -3.459,-56.914 0.191,-51.819C3.84,-46.721 12.426,-56.019 0,-68.762M15.594,-44.275C19.726,-48.991 17.457,-61.119 17.457,-61.119C3.831,-49.664 11.457,-39.562 15.594,-44.275M11.705,-61.883C15.823,-66.613 13.515,-78.733 13.515,-78.733C-0.071,-67.239 7.583,-57.162 11.705,-61.883M5.58,-46.323C5.58,-46.323 -2.744,-27.677 2.096,-18.499C6.938,-9.323 23.096,-22.641 5.58,-46.323M32.288,-25.805C32.288,-25.805 15.284,-21.329 11.739,-13.133C8.192,-4.93 25.851,-1.276 32.288,-25.805M41.133,-16.89C16.599,-7.785 22.15,9.971 30.206,5.496C38.268,1.02 41.133,-16.89 41.133,-16.89M55.134,-42.875C57.003,-37.109 68.199,-32.999 68.199,-32.999C65.421,-49.978 53.266,-48.639 55.134,-42.875M43.606,-29.322C49.449,-27.052 60.069,-33.339 60.069,-33.339C44.646,-42.219 37.763,-31.597 43.606,-29.322M36.318,-21.078C41.685,-17.838 53.224,-22.201 53.224,-22.201C39.559,-33.603 30.955,-24.327 36.318,-21.078M24.395,-26.447C29.908,-33.476 25.719,-50.551 25.719,-50.551C7.245,-33.182 18.888,-19.422 24.395,-26.447M28.8,-32.758C26.871,-26.792 39.451,-25.417 42.309,-42.986C42.309,-42.986 30.732,-38.726 28.8,-32.758" style="fill:rgb(217,195,154);fill-rule:nonzero;"/>
                </g>
                <g transform="matrix(1,0,0,1,14.0569,239.892)">
                    <path d="M0,-33.533C-24.435,-17.928 -14.262,0 -6.59,-6.733C1.094,-13.467 0,-33.533 0,-33.533" style="fill:rgb(217,195,154);fill-rule:nonzero;"/>
                </g>
                <g transform="matrix(1,0,0,1,-1.4063,199.331)">
                    <path d="M0,-62.28C0,-62.28 -6.232,-58.537 -6.69,-54.874C-7.148,-51.212 0.281,-51.8 0,-62.28M5.882,-36.359C11.133,-36.032 18.019,-43.762 18.019,-43.762C3.423,-46.932 0.633,-36.687 5.882,-36.359M-3.041,-45.454C0.631,-45.841 4.496,-51.997 4.496,-51.997C-5.977,-52.486 -6.716,-45.071 -3.041,-45.454M-3.606,-61.452C-0.913,-65.975 -4.649,-75.632 -4.649,-75.632C-14.133,-64.097 -6.295,-56.932 -3.606,-61.452M2.315,-54.627C5.986,-55.028 9.83,-61.194 9.83,-61.194C-0.641,-61.65 -1.356,-54.232 2.315,-54.627M-16.855,-10.346C-17.933,-6.692 -13.591,-0.579 -13.591,-0.579C-8.994,-10.371 -15.772,-14 -16.855,-10.346M-5.992,1.727C-3.145,-8.707 -10.447,-11.117 -10.888,-7.334C-11.32,-3.547 -5.992,1.727 -5.992,1.727M-6.555,-50.344C-6.555,-50.344 -17.607,-45.603 -19.184,-39.7C-20.755,-33.794 -8.442,-33.098 -6.555,-50.344M-3.201,-30.794C-3.201,-30.794 -12.347,-35.65 -17.158,-33.522C-21.967,-31.392 -15.789,-22.753 -3.201,-30.794M23.093,-29.407C26.359,-27.684 32.997,-30.638 32.997,-30.638C24.571,-36.881 19.831,-31.132 23.093,-29.407M-2.189,-8.078C1.632,-4.221 12.246,-5.448 12.246,-5.448C3.174,-17.908 -6.011,-11.933 -2.189,-8.078M12.803,-26.201C14.531,-20.337 25.702,-15.888 25.702,-15.888C23.368,-33.078 11.077,-32.06 12.803,-26.201M-1.671,-2.757C-3.399,3.306 3.885,13.352 3.885,13.352C11.334,-2.923 0.058,-8.821 -1.671,-2.757M-4.049,-11.435C-4.049,-11.435 -9.314,-16.772 -13.101,-16.343C-16.887,-15.914 -14.486,-8.608 -4.049,-11.435M-5.205,-14.319C-0.345,-11.903 9.304,-16.496 9.304,-16.496C-3.305,-25.356 -10.067,-16.734 -5.205,-14.319M3.101,-27.792C4.721,-24.473 11.826,-22.948 11.826,-22.948C8.704,-32.954 1.484,-31.108 3.101,-27.792M-3.346,-27.135C-2.32,-23.589 4.416,-20.864 4.416,-20.864C3.063,-31.262 -4.368,-30.686 -3.346,-27.135M-6.359,-34.223C-1.165,-35.06 3.848,-44.123 3.848,-44.123C-11.087,-43.992 -11.55,-33.387 -6.359,-34.223M-1.931,-35.194C-5.149,-33.385 -0.257,-27.761 8.001,-34.22C8.001,-34.22 1.289,-37.004 -1.931,-35.194M24.804,-35.007C12.011,-42.719 6.061,-33.922 10.926,-31.918C15.791,-29.914 24.804,-35.007 24.804,-35.007" style="fill:rgb(217,195,154);fill-rule:nonzero;"/>
                </g>
                <g transform="matrix(1,0,0,1,32.5991,138.963)">
                    <path d="M0,17.635C-20.02,-4.531 -36.499,8.859 -28.352,15.505C-20.201,22.166 0,17.635 0,17.635" style="fill:rgb(217,195,154);fill-rule:nonzero;"/>
                </g>
                <g transform="matrix(1,0,0,1,225.457,128.577)">
                    <path d="M0,104.968C0,104.968 9.637,97.257 9.574,90.989C9.516,84.721 -2.852,87.4 0,104.968M-15.778,62.684C-24.687,63.324 -34.518,77.896 -34.518,77.896C-9.239,79.918 -6.867,62.043 -15.778,62.684M1.302,75.966C-4.79,77.452 -9.9,88.685 -9.9,88.685C7.834,87.135 7.394,74.486 1.302,75.966M5.878,102.758C2.373,110.978 10.846,126.381 10.846,126.381C24.19,104.818 9.376,94.54 5.878,102.758M-5.63,92.615C-11.719,94.119 -16.791,105.367 -16.791,105.367C0.933,103.763 0.456,91.118 -5.63,92.615M16.587,13.76C17.574,7.365 8.881,-1.935 8.881,-1.935C3.363,15.584 15.594,20.153 16.587,13.76M-4.43,-4.093C-6.854,14.11 5.981,16.51 5.86,10.042C5.731,3.572 -4.43,-4.093 -4.43,-4.093M22.981,39.399C22.981,39.399 36.864,51.076 45.889,49.193C54.911,47.305 47.496,30.24 22.981,39.399M8.322,83.396C8.322,83.396 25.846,72.914 27.157,62.621C28.465,52.329 7.588,53.948 8.322,83.396M-1.753,51.259C-1.753,51.259 14.736,57.363 22.346,52.69C29.961,48.013 17.606,34.877 -1.753,51.259M-46.31,54.886C-52.198,52.725 -62.695,59.208 -62.695,59.208C-47.103,67.798 -40.428,57.053 -46.31,54.886M-3.873,38.88C21.44,45.52 27.095,27.798 17.93,26.833C8.76,25.866 -3.873,38.88 -3.873,38.88M-8.606,13.269C-15.909,7.642 -33.49,12.117 -33.49,12.117C-15.401,31.025 -1.301,18.888 -8.606,13.269M-29.723,47.16C-33.959,37.686 -53.768,32.733 -53.768,32.733C-45.94,61.129 -25.49,56.63 -29.723,47.16M-10.682,4.432C-9.151,-6.162 -23.684,-21.413 -23.684,-21.413C-32.529,7.659 -12.219,15.025 -10.682,4.432M-4.716,18.493C-4.716,18.493 5.353,26.282 11.626,24.702C17.901,23.123 12.209,11.369 -4.716,18.493M-2.116,23.087C-10.844,20.124 -26.039,30.038 -26.039,30.038C-2.811,42.088 6.61,26.047 -2.116,23.087M-13.039,47.636C-16.517,42.421 -28.82,41.467 -28.82,41.467C-21.299,57.595 -9.563,52.855 -13.039,47.636M-2.337,45.074C-4.87,39.338 -16.82,36.282 -16.82,36.282C-12.186,53.465 0.187,50.814 -2.337,45.074M4.338,56.317C-4.212,58.904 -10.592,75.287 -10.592,75.287C14.508,71.683 12.882,53.731 4.338,56.317M-2.892,58.954C2.113,55.178 -7.394,46.825 -19.825,59.566C-19.825,59.566 -7.902,62.729 -2.892,58.954M-47.921,64.699C-24.649,74.778 -16.629,58.628 -25.267,56.355C-33.909,54.085 -47.921,64.699 -47.921,64.699" style="fill:rgb(217,195,154);fill-rule:nonzero;"/>
                </g>
                <g transform="matrix(1,0,0,1,232.368,158.515)">
                    <path d="M0,69.103C0,69.103 6.269,63.906 6.159,59.772C6.049,55.638 -2.08,57.543 0,69.103M-10.888,41.387C-16.758,41.911 -23.079,51.635 -23.079,51.635C-6.38,52.68 -5.019,40.863 -10.888,41.387M0.529,49.955C-3.472,51.004 -6.715,58.471 -6.715,58.471C4.967,57.247 4.533,48.909 0.529,49.955M3.853,67.576C1.636,73.036 7.398,83.106 7.398,83.106C15.957,68.727 6.067,62.115 3.853,67.576M-3.856,61.017C-7.853,62.079 -11.072,69.556 -11.072,69.556C0.603,68.297 0.145,59.96 -3.856,61.017M9.907,8.743C10.486,4.514 4.646,-1.524 4.646,-1.524C1.205,10.097 9.324,12.973 9.907,8.743M-4.161,-2.795C-5.553,9.242 2.942,10.679 2.791,6.415C2.63,2.147 -4.161,-2.795 -4.161,-2.795M14.416,25.584C14.416,25.584 23.708,33.132 29.64,31.784C35.57,30.436 30.485,19.265 14.416,25.584M5.246,54.778C5.246,54.778 16.687,47.663 17.435,40.857C18.18,34.052 4.426,35.36 5.246,54.778M-1.767,33.69C-1.767,33.69 9.181,37.529 14.149,34.361C19.119,31.19 10.819,22.664 -1.767,33.69M-31.119,36.59C-35.027,35.23 -41.877,39.624 -41.877,39.624C-31.498,45.117 -27.214,37.951 -31.119,36.59M-3.304,25.548C13.468,29.641 16.998,17.884 10.942,17.352C4.881,16.819 -3.304,25.548 -3.304,25.548M-6.72,8.706C-11.6,5.077 -23.148,8.229 -23.148,8.229C-10.999,20.498 -1.835,12.33 -6.72,8.706M-20.263,31.303C-23.165,25.103 -36.29,22.059 -36.29,22.059C-30.803,40.703 -17.365,37.503 -20.263,31.303M-8.188,2.901C-7.297,-4.107 -17.058,-14.003 -17.058,-14.003C-22.562,5.277 -9.081,9.905 -8.188,2.901M-4.091,12.109C-4.091,12.109 2.64,17.134 6.759,16.019C10.88,14.906 6.992,7.217 -4.091,12.109M-2.325,15.108C-8.116,13.253 -18.028,19.966 -18.028,19.966C-2.567,27.653 3.465,16.964 -2.325,15.108M-9.253,31.429C-11.606,28.026 -19.732,27.537 -19.732,27.537C-14.587,38.093 -6.899,34.832 -9.253,31.429M-2.223,29.616C-3.958,25.863 -11.877,23.98 -11.877,23.98C-8.624,35.264 -0.492,33.373 -2.223,29.616M2.309,36.958C-3.303,38.762 -7.326,49.643 -7.326,49.643C9.194,46.979 7.918,35.153 2.309,36.958M-2.431,38.778C0.828,36.233 -5.538,30.83 -13.594,39.374C-13.594,39.374 -5.692,41.327 -2.431,38.778M-32.071,43.082C-16.604,49.465 -11.496,38.72 -17.22,37.319C-22.947,35.918 -32.071,43.082 -32.071,43.082" style="fill:rgb(217,195,154);fill-rule:nonzero;"/>
                </g>
                <g transform="matrix(1,0,0,1,193.317,234.109)">
                    <path d="M0,3.248C27.482,13.197 35.563,-5.945 25.47,-7.942C15.369,-9.949 0,3.248 0,3.248" style="fill:rgb(217,195,154);fill-rule:nonzero;"/>
                </g>
                <g transform="matrix(1,0,0,1,191.412,227.365)">
                    <path d="M0,-15.661C31.826,10.348 51.472,-11.283 39.012,-18.638C26.543,-26.009 0,-15.661 0,-15.661" style="fill:rgb(217,195,154);fill-rule:nonzero;"/>
                </g>
                <g transform="matrix(1,0,0,1,22.7725,11.9324)">
                    <path d="M0,-8.136C5.889,-9.643 10.706,-20.594 10.706,-20.594C-6.466,-18.882 -5.888,-6.628 0,-8.136M-13.046,-14.962C-9.148,-16.694 -7.086,-24.837 -7.086,-24.837C-18.774,-21.648 -16.946,-13.234 -13.046,-14.962M-10.422,-26.951C-6.526,-28.695 -4.492,-36.842 -4.492,-36.842C-16.166,-33.621 -14.314,-25.21 -10.422,-26.951M-18.646,-19.086C-18.646,-19.086 -29.11,-9.945 -28.743,-2.895C-28.372,4.156 -14.587,0.544 -18.646,-19.086M-8.008,1.212C-8.008,1.212 -19.789,-0.877 -24.318,3.176C-28.851,7.229 -18.986,14.528 -8.008,1.212M21.391,-6.613C25.594,-5.88 31.838,-11.492 31.838,-11.492C20.357,-15.357 17.19,-7.349 21.391,-6.613M1.183,25.823C6.756,28.706 17.986,23.581 17.986,23.581C3.584,13.11 -4.389,22.946 1.183,25.823M11.219,0.57C15.202,6.399 29.067,7.319 29.067,7.319C20.386,-10.747 7.237,-5.258 11.219,0.57M-4.351,20.036C1.852,20.962 10.825,12.482 10.825,12.482C-6.189,7.227 -10.554,19.108 -4.351,20.036M-0.013,2.271C2.949,5.342 11.304,4.493 11.304,4.493C4.315,-5.397 -2.971,-0.802 -0.013,2.271M-6.868,5.284C-4.476,8.818 3.896,9.419 3.896,9.419C-1.288,-1.528 -9.252,1.747 -6.868,5.284M-12.7,-1.435C-7.286,-4.204 -4.999,-15.95 -4.999,-15.95C-21.371,-10.494 -18.108,1.332 -12.7,-1.435M-8.177,-4.078C-11.071,-0.942 -3.692,3.501 3.088,-6.539C3.088,-6.539 -5.28,-7.211 -8.177,-4.078M21.28,-13.379C4.476,-17.307 1.062,-5.522 7.122,-5.049C13.185,-4.573 21.28,-13.379 21.28,-13.379" style="fill:rgb(217,195,154);fill-rule:nonzero;"/>
                </g>
                <g transform="matrix(1,0,0,1,1.7874,123.107)">
                    <path d="M0,-64.188C0,-64.188 -6.685,-60.756 -7.408,-57.006C-8.134,-53.261 -0.43,-53.36 0,-64.188M4.289,-37.047C9.682,-36.346 17.317,-43.85 17.317,-43.85C2.476,-48.121 -1.107,-37.743 4.289,-37.047M-4.293,-47.041C-0.477,-47.189 3.933,-53.271 3.933,-53.271C-6.838,-54.495 -8.107,-46.895 -4.293,-47.041M-3.777,-63.581C-0.688,-68.061 -3.878,-78.282 -3.878,-78.282C-14.455,-67.032 -6.858,-59.102 -3.777,-63.581M1.863,-56.135C5.676,-56.295 10.066,-62.392 10.066,-62.392C-0.703,-63.584 -1.952,-55.98 1.863,-56.135M-20.953,-11.774C-22.317,-8.078 -18.258,-1.474 -18.258,-1.474C-12.843,-11.26 -19.586,-15.469 -20.953,-11.774M-10.576,1.425C-6.923,-9.142 -14.293,-12.129 -15.005,-8.256C-15.712,-4.379 -10.576,1.425 -10.576,1.425M-21.66,-27.849C-21.66,-27.849 -28.53,-36.501 -34.143,-36.467C-39.756,-36.435 -37.399,-25.355 -21.66,-27.849M-7.581,-52.325C-7.581,-52.325 -19.307,-48.196 -21.339,-42.212C-23.364,-36.229 -10.713,-34.665 -7.581,-52.325M-5.464,-31.926C-5.464,-31.926 -14.564,-37.568 -19.673,-35.703C-24.782,-33.836 -19.001,-24.5 -5.464,-31.926M21.563,-28.692C24.815,-26.686 31.864,-29.284 31.864,-29.284C23.601,-36.299 18.316,-30.697 21.563,-28.692M-5.7,-24.284C-20,-31.314 -25.522,-21.426 -20.171,-19.738C-14.817,-18.048 -5.7,-24.284 -5.7,-24.284M-5.981,-8.428C-2.306,-4.184 8.727,-4.723 8.727,-4.723C0.225,-18.199 -9.659,-12.666 -5.981,-8.428M10.729,-26.09C12.108,-19.925 23.327,-14.568 23.327,-14.568C22.1,-32.46 9.352,-32.256 10.729,-26.09M-5.812,-2.903C-8.011,3.235 -1.188,14.094 -1.188,14.094C7.616,-2.18 -3.611,-9.036 -5.812,-2.903M-7.669,-12.018C-7.669,-12.018 -12.733,-17.884 -16.667,-17.703C-20.604,-17.521 -18.631,-9.817 -7.669,-12.018M-8.664,-15.072C-3.816,-12.246 6.455,-16.321 6.455,-16.321C-5.945,-26.326 -13.51,-17.897 -8.664,-15.072M0.831,-28.397C2.273,-24.865 9.499,-22.803 9.499,-22.803C6.966,-33.339 -0.611,-31.933 0.831,-28.397M-5.865,-28.164C-5.048,-24.435 1.711,-21.164 1.711,-21.164C1.028,-31.98 -6.676,-31.897 -5.865,-28.164M-8.486,-35.685C-3.069,-36.191 2.724,-45.194 2.724,-45.194C-12.692,-46.087 -13.9,-35.176 -8.486,-35.685M-3.854,-36.382C-7.297,-34.737 -2.637,-28.597 6.327,-34.694C6.327,-34.694 -0.407,-38.027 -3.854,-36.382M23.714,-34.352C11.049,-43.184 4.304,-34.521 9.184,-32.117C14.066,-29.716 23.714,-34.352 23.714,-34.352" style="fill:rgb(217,195,154);fill-rule:nonzero;"/>
                </g>
                <g transform="matrix(1,0,0,1,66.9265,119.421)">
                    <path d="M0,-9.333C8.565,-4.122 27.041,-11.058 27.041,-11.058C5.224,-29.349 -8.568,-14.542 0,-9.333M-6.985,-32.594C-0.448,-29.99 11.535,-36.942 11.535,-36.942C-5.699,-47.058 -13.52,-35.202 -6.985,-32.594M10.185,-43.317C16.734,-40.73 28.689,-47.722 28.689,-47.722C11.431,-57.784 3.644,-45.903 10.185,-43.317M-8.575,-43.953C-8.575,-43.953 -31.423,-45.763 -39.318,-37.2C-47.207,-28.638 -27.056,-16.539 -8.575,-43.953M-20.261,-8.005C-20.261,-8.005 -31.376,-24.312 -41.38,-24.984C-51.388,-25.66 -48.626,-5.609 -20.261,-8.005M22.861,17.662C26.842,23.467 40.659,24.364 40.659,24.364C31.986,6.361 18.888,11.856 22.861,17.662M-38.703,31.209C-35.681,41.109 -16.688,48.451 -16.688,48.451C-20.936,19.385 -41.731,21.319 -38.703,31.209M2.659,13.94C0.375,25.361 15.273,42.779 15.273,42.779C26.58,11.708 4.947,2.523 2.659,13.94M-38.254,18.008C-32.195,26.397 -11.848,27.207 -11.848,27.207C-25.259,1.075 -44.311,9.621 -38.254,18.008M-12.293,2.651C-12.503,9.684 -1.87,18.563 -1.87,18.563C1.74,-1.086 -12.078,-4.383 -12.293,2.651M-23.748,-1.964C-25.164,4.93 -16.22,15.502 -16.22,15.502C-9.282,-3.235 -22.326,-8.856 -23.748,-1.964M-22.545,-16.593C-13.039,-13.397 3.455,-24.237 3.455,-24.237C-21.852,-37.265 -32.045,-19.783 -22.545,-16.593M-14.214,-14.302C-21.25,-14.104 -17.985,-0.276 1.674,-3.847C1.674,-3.847 -7.178,-14.496 -14.214,-14.302M30.717,9.731C15.98,-14.625 -1.861,-5.066 4.566,2.629C10.996,10.329 30.717,9.731 30.717,9.731" style="fill:rgb(217,195,154);fill-rule:nonzero;"/>
                </g>
                <g transform="matrix(1,0,0,1,162.522,96.8001)">
                    <path d="M0,6.752C-4.928,9.975 -5.92,21.525 -5.92,21.525C9.291,14.582 4.928,3.526 0,6.752M14.098,8.93C11.066,11.737 11.722,19.849 11.722,19.849C21.441,13.268 17.133,6.124 14.098,8.93M15.442,20.744C12.415,23.563 13.099,31.669 13.099,31.669C22.796,25.063 18.467,17.93 15.442,20.744M20.523,10.959C20.523,10.959 27.259,-0.697 24.716,-7.046C22.169,-13.396 10.66,-5.77 20.523,10.959M4.418,-4.326C4.418,-4.326 15.875,-6.096 18.759,-11.228C21.648,-16.363 10.319,-19.969 4.418,-4.326M-20.092,12.048C-24.176,12.691 -28.145,19.789 -28.145,19.789C-16.408,19.741 -16.008,11.408 -20.092,12.048M-11.709,-24.018C-17.721,-24.917 -26.415,-16.704 -26.415,-16.704C-9.933,-11.608 -5.699,-23.123 -11.709,-24.018M-13.011,2.278C-18.488,-1.82 -31.488,1.674 -31.488,1.674C-17.876,15.523 -7.537,6.376 -13.011,2.278M-4.824,-20.442C-10.802,-19.351 -16.377,-8.768 -16.377,-8.768C0.868,-9.271 1.154,-21.532 -4.824,-20.442M-3.245,-2.795C-6.922,-4.684 -14.317,-1.292 -14.317,-1.292C-4.813,5.59 0.429,-0.903 -3.245,-2.795M2.099,-7.702C-1.2,-10.195 -9.065,-8.126 -9.065,-8.126C-0.886,0.289 5.392,-5.204 2.099,-7.702M9.549,-3.365C5.452,0.867 7.028,12.353 7.028,12.353C20.334,2.228 13.642,-7.595 9.549,-3.365M6.228,0.473C7.901,-3.308 -0.255,-5.073 -3.33,6.253C-3.33,6.253 4.553,4.252 6.228,0.473M-17.873,18.217C-1.236,16.562 -1.792,4.687 -7.497,6.149C-13.205,7.61 -17.873,18.217 -17.873,18.217" style="fill:rgb(217,195,154);fill-rule:nonzero;"/>
                </g>
                <g transform="matrix(1,0,0,1,27.3597,180.976)">
                    <path d="M0,12.248C7.918,11.927 17.042,-0.727 17.042,-0.727C-5.325,-3.214 -7.922,12.573 0,12.248ZM-14.784,-0.003C-9.34,-1.154 -4.497,-10.974 -4.497,-10.974C-20.27,-10.086 -20.227,1.141 -14.784,-0.003ZM-8.177,-14.579C-2.732,-15.746 2.075,-25.581 2.075,-25.581C-13.69,-24.647 -13.614,-13.419 -8.177,-14.579ZM-20.804,-6.785C-20.804,-6.785 -36.634,2.027 -38.083,11.12C-39.526,20.211 -20.964,19.352 -20.804,-6.785ZM-12.755,21.995C-12.755,21.995 -27.211,16.128 -34.089,20.064C-40.974,23.999 -30.377,35.99 -12.755,21.995ZM26.867,20.007C32.029,22.084 41.517,16.626 41.517,16.626C27.925,8.576 21.71,17.925 26.867,20.007ZM11.969,25.909C15.066,33.453 30.506,37.829 30.506,37.829C25.05,15.331 8.875,18.365 11.969,25.909ZM-2.846,25.519C0.096,30.24 10.983,31.429 10.983,31.429C4.755,16.916 -5.782,20.795 -2.846,25.519ZM-12.406,27.496C-10.319,32.655 0.197,35.697 0.197,35.697C-3.44,20.327 -14.488,22.338 -12.406,27.496ZM-18.019,17.34C-10.362,15.283 -4.253,0.925 -4.253,0.925C-26.614,3.431 -25.67,19.401 -18.019,17.34ZM-11.532,15.201C-16.077,18.413 -7.872,26.083 3.503,15.126C3.503,15.126 -6.986,11.993 -11.532,15.201ZM28.566,11.349C8.2,1.768 0.644,15.872 8.242,18.123C15.846,20.377 28.566,11.349 28.566,11.349Z" style="fill:none;fill-rule:nonzero;stroke:rgb(217,195,154);stroke-width:0.95px;"/>
                </g>
                <g transform="matrix(1,0,0,1,170.691,213.92)">
                    <path d="M0,4.342C-3.257,-0.508 -14.728,-1.357 -14.728,-1.357C-7.66,13.654 3.258,9.195 0,4.342ZM-1.993,18.357C-4.815,15.379 -12.855,16.128 -12.855,16.128C-6.212,25.696 0.826,21.335 -1.993,18.357ZM-3.932,24.756C-3.932,24.756 7.713,31.301 13.984,28.702C20.252,26.102 12.551,14.773 -3.932,24.756ZM-5.493,-15.529C-6.178,-19.573 -13.269,-23.426 -13.269,-23.426C-13.082,-11.785 -4.81,-11.486 -5.493,-15.529ZM4.286,-8.618C8.287,-14.103 4.666,-26.959 4.666,-26.959C-8.916,-13.289 0.282,-3.14 4.286,-8.618ZM9.434,1.012C11.266,-2.658 7.812,-9.957 7.812,-9.957C1.096,-0.446 7.6,4.677 9.434,1.012ZM14.365,6.254C16.8,2.954 14.654,-4.827 14.654,-4.827C6.403,3.387 11.928,9.552 14.365,6.254ZM10.152,13.7C5.903,9.683 -5.474,11.383 -5.474,11.383C4.728,24.464 14.396,17.709 10.152,13.7ZM6.304,10.448C10.074,12.063 11.73,3.95 0.456,1.032C0.456,1.032 2.535,8.829 6.304,10.448ZM-11.587,-13.256C-9.748,3.235 2.028,2.541 0.509,-3.101C-1.008,-8.748 -11.587,-13.256 -11.587,-13.256Z" style="fill:none;fill-rule:nonzero;stroke:rgb(217,195,154);stroke-width:0.95px;"/>
                </g>
                <g transform="matrix(1,0,0,1,51.8783,34.524)">
                    <path d="M0,-5.122C3.368,-1.218 13.506,-1.692 13.506,-1.692C5.721,-14.091 -3.371,-9.025 0,-5.122ZM0.257,-17.61C3.046,-15.301 10.008,-16.81 10.008,-16.81C3.173,-24.484 -2.529,-19.918 0.257,-17.61ZM10.355,-20.143C13.152,-17.842 20.106,-19.374 20.106,-19.374C13.251,-27.024 7.562,-22.443 10.355,-20.143ZM1.275,-23.42C1.275,-23.42 -9.62,-27.916 -14.837,-24.973C-20.051,-22.03 -12.102,-12.924 1.275,-23.42ZM-10.126,-7.674C-10.126,-7.674 -12.986,-17.41 -17.776,-19.32C-22.566,-21.233 -24.385,-10.984 -10.126,-7.674ZM6.922,11.702C7.952,15.172 14.572,17.794 14.572,17.794C13.173,7.614 5.895,8.234 6.922,11.702ZM-25.348,8.602C-25.432,13.924 -17.298,20.519 -17.298,20.519C-14.784,5.623 -25.266,3.283 -25.348,8.602ZM-2.377,6.689C-5.3,11.917 -0.761,22.794 -0.761,22.794C9.683,9.376 0.547,1.462 -2.377,6.689ZM-23.041,2.212C-21.402,7.276 -11.573,10.888 -11.573,10.888C-14.007,-4.019 -24.68,-2.849 -23.041,2.212ZM-7.91,-1.201C-9.124,2.21 -5.324,8.234 -5.324,8.234C-0.452,-0.811 -6.693,-4.608 -7.91,-1.201ZM-12.787,-5.269C-14.569,-2.119 -11.862,4.468 -11.862,4.468C-5.506,-3.604 -11.001,-8.417 -12.787,-5.269ZM-9.885,-12.237C-5.738,-9.172 4.046,-11.869 4.046,-11.869C-6.279,-22.244 -14.031,-15.3 -9.885,-12.237ZM-6.171,-9.8C-9.646,-10.815 -10.232,-3.532 -0.047,-2.172C-0.047,-2.172 -2.697,-8.783 -6.171,-9.8ZM12.018,9.063C8.657,-5.187 -1.585,-3.328 0.343,1.454C2.273,6.239 12.018,9.063 12.018,9.063Z" style="fill:none;fill-rule:nonzero;stroke:rgb(217,195,154);stroke-width:0.95px;"/>
                </g>
                <g transform="matrix(1,0,0,1,46.8121,133.126)">
                    <path d="M0,-4.457C3.847,2.472 19.253,4.932 19.253,4.932C11.419,-16.165 -3.85,-11.387 0,-4.457ZM4.298,-23.171C7.771,-18.826 18.722,-18.914 18.722,-18.914C10.839,-32.605 0.828,-27.518 4.298,-23.171ZM7.648,-31.597C7.648,-31.597 -7.339,-41.775 -16.113,-38.981C-24.883,-36.182 -15.771,-19.99 7.648,-31.597ZM-14.44,-11.468C-14.44,-11.468 -15.698,-27.019 -22.307,-31.392C-28.918,-35.773 -34.864,-20.917 -14.44,-11.468ZM5.15,23.028C5.613,28.575 14.757,34.595 14.757,34.595C15.837,18.835 4.689,17.488 5.15,23.028ZM-42.447,8.26C-44.24,16.243 -34.063,28.714 -34.063,28.714C-25.615,7.084 -40.658,0.281 -42.447,8.26ZM-7.274,12.571C-13.31,19.526 -9.887,37.318 -9.887,37.318C10.033,20.394 -1.237,5.623 -7.274,12.571ZM-36.975,-0.635C-36.093,7.499 -22.43,16.013 -22.43,16.013C-21.424,-7.184 -37.855,-8.766 -36.975,-0.635ZM-13.132,-1.033C-16.028,3.718 -12.195,13.977 -12.195,13.977C-2.03,1.889 -10.235,-5.78 -13.132,-1.033ZM-19.197,-8.683C-22.867,-4.499 -20.856,6.261 -20.856,6.261C-8.761,-3.898 -15.526,-12.862 -19.197,-8.683ZM-12.649,-18.262C-7.367,-12.35 8.203,-13.346 8.203,-13.346C-4.089,-32.194 -17.929,-24.17 -12.649,-18.262ZM-7.822,-13.431C-12.734,-16.046 -15.897,-5.27 -0.995,-0.033C-0.995,-0.033 -2.912,-10.812 -7.822,-13.431ZM13.647,20.653C13.05,-1.844 -2.947,-2.253 -1.541,5.546C-0.135,13.352 13.647,20.653 13.647,20.653Z" style="fill:none;fill-rule:nonzero;stroke:rgb(217,195,154);stroke-width:0.95px;"/>
                </g>
                <g transform="matrix(1,0,0,1,187.663,-36.872)">
                    <path d="M0,8.786C-4.269,15.463 0.885,30.188 0.885,30.188C15.727,13.27 4.269,2.105 0,8.786ZM18.507,3.676C16.336,8.798 21.616,18.391 21.616,18.391C29.917,4.949 20.686,-1.442 18.507,3.676ZM26.68,17.437C24.519,22.568 29.833,32.14 29.833,32.14C38.09,18.679 28.84,12.313 26.68,17.437ZM27.514,2.621C27.514,2.621 29.349,-15.404 22.722,-21.795C16.093,-28.183 6.173,-12.47 27.514,2.621ZM-0.692,-7.251C-0.692,-7.251 12.394,-15.747 13.102,-23.64C13.816,-31.539 -2.083,-29.712 -0.692,-7.251ZM-21.739,26.377C-26.399,29.421 -27.351,40.325 -27.351,40.325C-12.972,33.787 -17.081,23.339 -21.739,26.377ZM-31.357,-22.521C-39.234,-20.307 -45.373,-5.426 -45.373,-5.426C-22.326,-8.269 -23.486,-24.738 -31.357,-22.521ZM-18.441,10.476C-27.427,8.468 -41.457,19.935 -41.457,19.935C-17.1,29.422 -9.457,12.486 -18.441,10.476ZM-20.931,-21.932C-27.669,-17.292 -28.67,-1.225 -28.67,-1.225C-7.78,-11.361 -14.195,-26.57 -20.931,-21.932ZM-9.253,-1.143C-14.808,-1.432 -22.015,6.814 -22.015,6.814C-6.549,10.015 -3.699,-0.847 -9.253,-1.143ZM-5.402,-10.115C-10.827,-11.355 -19.34,-4.472 -19.34,-4.472C-4.656,1.342 0.018,-8.869 -5.402,-10.115ZM6.138,-8.904C3.443,-1.447 11.719,11.78 11.719,11.78C22.463,-7.991 8.826,-16.356 6.138,-8.904ZM4.179,-2.36C4.147,-7.925 -6.839,-5.587 -4.365,10.012C-4.365,10.012 4.207,3.204 4.179,-2.36ZM-15.613,32.725C3.901,21.51 -3.339,7.24 -9.535,12.183C-15.735,17.127 -15.613,32.725 -15.613,32.725Z" style="fill:none;fill-rule:nonzero;stroke:rgb(217,195,154);stroke-width:0.95px;"/>
                </g>
                <g transform="matrix(1,0,0,1,229.465,1.6875)">
                    <path d="M0,23.127C-7.883,22.316 -18.718,33.541 -18.718,33.541C3.065,39.192 7.886,23.936 0,23.127ZM12.885,37.361C7.334,37.723 1.14,46.754 1.14,46.754C16.877,48.125 18.436,37.005 12.885,37.361ZM17.877,44.932C17.877,44.932 34.802,38.468 37.532,29.674C40.257,20.881 21.763,19.086 17.877,44.932ZM14.013,15.3C14.013,15.3 27.486,23.168 34.855,20.252C42.231,17.338 33.452,3.959 14.013,15.3ZM-25.486,11.618C-30.299,8.824 -40.469,12.876 -40.469,12.876C-28.165,22.781 -20.678,14.412 -25.486,11.618ZM13.866,-18.959C8.348,-24.998 -7.704,-23.791 -7.704,-23.791C5.196,-4.483 19.386,-12.924 13.866,-18.959ZM-9.801,7.415C-12.047,-1.515 -28.597,-8.891 -28.597,-8.891C-26.12,17.13 -7.557,16.343 -9.801,7.415ZM18.029,-9.38C10.854,-13.312 -3.949,-6.982 -3.949,-6.982C14.499,7.12 25.2,-5.449 18.029,-9.38ZM4.708,10.4C2.47,5.305 -8.136,2.576 -8.136,2.576C-4.042,17.83 6.942,15.491 4.708,10.4ZM14.454,9.804C13.123,4.4 3.148,-0.11 3.148,-0.11C4.556,15.622 15.778,15.206 14.454,9.804ZM18.56,20.656C10.689,21.603 2.594,34.94 2.594,34.94C25.084,35.649 26.427,19.707 18.56,20.656ZM11.835,21.849C16.791,19.318 9.765,10.556 -3.058,19.779C-3.058,19.779 6.878,24.376 11.835,21.849ZM-28.401,19.944C-9.612,32.333 -0.121,19.449 -7.321,16.138C-14.526,12.823 -28.401,19.944 -28.401,19.944Z" style="fill:none;fill-rule:nonzero;stroke:rgb(217,195,154);stroke-width:0.95px;"/>
                </g>
                <g transform="matrix(1,0,0,1,4.7789,101.9)">
                    <path d="M0,-8.136C5.889,-9.643 10.706,-20.594 10.706,-20.594C-6.466,-18.882 -5.888,-6.628 0,-8.136M-13.046,-14.962C-9.148,-16.695 -7.086,-24.837 -7.086,-24.837C-18.774,-21.648 -16.946,-13.234 -13.046,-14.962M-10.422,-26.951C-6.526,-28.695 -4.492,-36.842 -4.492,-36.842C-16.166,-33.621 -14.314,-25.21 -10.422,-26.951M-18.646,-19.086C-18.646,-19.086 -29.11,-9.944 -28.743,-2.895C-28.372,4.156 -14.587,0.543 -18.646,-19.086M-8.008,1.213C-8.008,1.213 -19.789,-0.877 -24.318,3.176C-28.851,7.229 -18.986,14.527 -8.008,1.213M21.392,-6.613C25.594,-5.88 31.838,-11.492 31.838,-11.492C20.357,-15.357 17.19,-7.349 21.392,-6.613M1.183,25.823C6.756,28.706 17.986,23.581 17.986,23.581C3.584,13.109 -4.389,22.946 1.183,25.823M11.219,0.57C15.202,6.399 29.067,7.319 29.067,7.319C20.386,-10.747 7.237,-5.257 11.219,0.57M-4.351,20.036C1.852,20.962 10.825,12.481 10.825,12.481C-6.189,7.227 -10.554,19.108 -4.351,20.036M-0.013,2.271C2.949,5.342 11.304,4.493 11.304,4.493C4.315,-5.397 -2.971,-0.802 -0.013,2.271M-6.868,5.284C-4.476,8.818 3.896,9.419 3.896,9.419C-1.288,-1.527 -9.252,1.747 -6.868,5.284M-12.7,-1.435C-7.286,-4.204 -4.999,-15.95 -4.999,-15.95C-21.371,-10.494 -18.108,1.332 -12.7,-1.435M-8.177,-4.078C-11.071,-0.942 -3.692,3.501 3.088,-6.539C3.088,-6.539 -5.28,-7.211 -8.177,-4.078M21.28,-13.38C4.476,-17.307 1.062,-5.522 7.122,-5.049C13.185,-4.573 21.28,-13.38 21.28,-13.38" style="fill:rgb(217,195,154);fill-rule:nonzero;"/>
                </g>
                <g transform="matrix(1,0,0,1,20.8402,55.4367)">
                    <path d="M0,-3.769C3.09,1.464 14.95,3.032 14.95,3.032C8.511,-12.979 -3.094,-9.002 0,-3.769M2.911,-18.202C5.661,-14.943 14.055,-15.236 14.055,-15.236C7.729,-25.569 0.162,-21.463 2.911,-18.202M15.155,-19.031C17.917,-15.776 26.307,-16.099 26.307,-16.099C19.954,-26.41 12.396,-22.283 15.155,-19.031M5.306,-24.731C5.306,-24.731 -6.394,-32.227 -13.061,-29.904C-19.727,-27.578 -12.41,-15.352 5.306,-24.731M-11.215,-8.847C-11.215,-8.847 -12.498,-20.743 -17.655,-23.96C-22.813,-27.183 -27.065,-15.672 -11.215,-8.847M4.51,17.196C4.979,21.438 12.113,25.866 12.113,25.866C12.617,13.762 4.043,12.957 4.51,17.196M-32.279,6.851C-33.491,13.007 -25.433,22.358 -25.433,22.358C-19.401,5.606 -31.073,0.697 -32.279,6.851M-5.228,9.435C-9.713,14.887 -6.724,28.458 -6.724,28.458C8.199,15.076 -0.744,3.983 -5.228,9.435M-28.268,-0.079C-27.425,6.136 -16.776,12.383 -16.776,12.383C-16.481,-5.421 -29.11,-6.295 -28.268,-0.079M-9.999,-0.875C-12.12,2.827 -8.972,10.613 -8.972,10.613C-1.427,1.138 -7.875,-4.572 -9.999,-0.875M-14.805,-6.616C-17.531,-3.333 -15.77,4.876 -15.77,4.876C-6.707,-3.16 -12.076,-9.894 -14.805,-6.616M-9.982,-14.093C-5.812,-9.668 6.105,-10.752 6.105,-10.752C-3.705,-24.948 -14.15,-18.512 -9.982,-14.093M-6.183,-10.489C-10.001,-12.391 -12.207,-4.064 -0.672,-0.358C-0.672,-0.358 -2.364,-8.58 -6.183,-10.489M10.977,15.199C10.054,-2.033 -2.215,-2.02 -0.977,3.931C0.261,9.885 10.977,15.199 10.977,15.199" style="fill:rgb(217,195,154);fill-rule:nonzero;"/>
                </g>
                <g transform="matrix(1,0,0,1,176.01,-3.46031)">
                    <path d="M0,9.09C-4.375,14.376 -1.499,27.575 -1.499,27.575C13.044,14.603 4.373,3.799 0,9.09ZM16.448,6.65C14.038,10.824 17.565,19.627 17.565,19.627C26.116,8.951 18.858,2.483 16.448,6.65ZM22.015,19.342C19.617,23.523 23.173,32.31 23.173,32.31C31.691,21.612 24.413,15.165 22.015,19.342ZM24.299,6.696C24.299,6.696 27.778,-8.602 22.756,-14.795C17.735,-20.984 7.549,-8.527 24.299,6.696ZM1.098,-4.767C1.098,-4.767 13.242,-10.687 14.684,-17.397C16.13,-24.109 2.276,-24.216 1.098,-4.767ZM-20.54,21.913C-24.866,24.036 -26.836,33.306 -26.836,33.306C-13.789,29.207 -16.217,19.792 -20.54,21.913ZM-24.976,-17.093C-29.623,-16.383 -34.166,-8.326 -34.166,-8.326C-20.821,-8.332 -20.329,-17.807 -24.976,-17.093ZM-16.029,8.594C-23.537,5.92 -36.806,14.293 -36.806,14.293C-16.876,25.019 -8.518,11.271 -16.029,8.594ZM-14.745,-19.522C-21.026,-16.244 -23.584,-2.541 -23.584,-2.541C-4.558,-9.049 -8.468,-22.798 -14.745,-19.522ZM-6.901,-0.421C-11.649,-1.255 -18.712,5.07 -18.712,5.07C-5.757,9.454 -2.162,0.418 -6.901,-0.421ZM-2.647,-7.725C-7.18,-9.364 -15.221,-4.348 -15.221,-4.348C-3.215,2.198 1.881,-6.082 -2.647,-7.725ZM7.142,-5.467C4.04,0.658 9.755,12.9 9.755,12.9C21.076,-2.957 10.239,-11.587 7.142,-5.467ZM4.769,-0.049C5.327,-4.836 -4.358,-3.986 -3.882,9.68C-3.882,9.68 4.205,4.736 4.769,-0.049ZM-15.945,28.015C2.009,20.436 -2.707,7.409 -8.552,11.002C-14.404,14.599 -15.945,28.015 -15.945,28.015Z" style="fill:none;fill-rule:nonzero;stroke:rgb(255,212,120);stroke-width:0.95px;"/>
                </g>
                <g transform="matrix(1,0,0,1,40.6305,246.656)">
                    <path d="M0,-4.307C6.348,-4.645 13.536,-14.892 13.536,-14.892C-4.433,-16.656 -6.35,-3.964 0,-4.307ZM-16.887,-19.361C-16.887,-19.361 -29.494,-12.126 -30.561,-4.818C-31.628,2.491 -16.744,1.611 -16.887,-19.361ZM-10.132,3.646C-10.132,3.646 -21.79,-0.912 -27.266,2.316C-32.748,5.545 -24.123,15.054 -10.132,3.646ZM21.632,1.638C25.795,3.255 33.349,-1.224 33.349,-1.224C22.364,-7.54 17.474,0.023 21.632,1.638ZM10.392,5.194C12.632,10.457 23.503,13.387 23.503,13.387C19.472,-2.345 8.153,-0.07 10.392,5.194ZM-2.146,6.367C0.263,10.125 9.008,10.967 9.008,10.967C3.861,-0.611 -4.551,2.611 -2.146,6.367ZM-9.795,8.054C-8.067,12.171 0.399,14.502 0.399,14.502C-2.678,2.21 -11.519,3.938 -9.795,8.054ZM-14.402,-0.033C-8.282,-1.766 -3.53,-13.345 -3.53,-13.345C-21.441,-11.105 -20.518,1.698 -14.402,-0.033ZM-9.222,-1.819C-12.834,0.806 -6.172,6.874 2.839,-2.033C2.839,-2.033 -5.607,-4.439 -9.222,-1.819ZM22.905,-5.323C6.469,-12.799 0.552,-1.407 6.673,0.32C12.794,2.049 22.905,-5.323 22.905,-5.323Z" style="fill:none;fill-rule:nonzero;stroke:rgb(255,212,120);stroke-width:0.95px;"/>
                </g>
                <g transform="matrix(1,0,0,1,69.6104,19.9206)">
                    <path d="M0,9.076C-6.622,13.43 -7.924,28.977 -7.924,28.977C12.529,19.586 6.623,4.72 0,9.076ZM18.982,11.963C14.908,15.752 15.817,26.665 15.817,26.665C28.879,17.779 23.058,8.179 18.982,11.963ZM20.828,27.86C16.762,31.663 17.708,42.57 17.708,42.57C30.739,33.649 24.89,24.064 20.828,27.86ZM27.635,14.674C27.635,14.674 36.665,-1.033 33.222,-9.572C29.776,-18.108 14.31,-7.811 27.635,14.674ZM5.912,-5.848C5.912,-5.848 21.325,-8.264 25.192,-15.182C29.066,-22.101 13.807,-26.92 5.912,-5.848ZM-27.024,16.266C-32.52,17.143 -37.84,26.711 -37.84,26.711C-22.043,26.61 -21.532,15.393 -27.024,16.266ZM-15.855,-32.301C-23.95,-33.494 -35.626,-22.413 -35.626,-22.413C-13.424,-15.604 -7.764,-31.113 -15.855,-32.301ZM-17.526,3.095C-24.911,-2.405 -42.397,2.339 -42.397,2.339C-24.032,20.938 -10.143,8.596 -17.526,3.095ZM-6.576,-27.509C-14.621,-26.023 -22.09,-11.761 -22.09,-11.761C1.118,-12.492 1.466,-28.996 -6.576,-27.509ZM-4.396,-3.763C-9.351,-6.295 -19.295,-1.708 -19.295,-1.708C-6.48,7.527 0.554,-1.228 -4.396,-3.763ZM2.779,-10.383C-1.667,-13.73 -12.247,-10.92 -12.247,-10.92C-1.212,0.38 7.221,-7.034 2.779,-10.383ZM12.821,-4.57C7.319,1.139 9.478,16.591 9.478,16.591C27.353,2.924 18.317,-10.276 12.821,-4.57ZM8.364,0.606C10.605,-4.489 -0.379,-6.837 -4.486,8.415C-4.486,8.415 6.118,5.698 8.364,0.606ZM-24.021,24.561C-1.63,22.284 -2.418,6.302 -10.09,8.287C-17.769,10.272 -24.021,24.561 -24.021,24.561Z" style="fill:none;fill-rule:nonzero;stroke:rgb(255,212,120);stroke-width:0.95px;"/>
                </g>
                <g transform="matrix(1,0,0,1,219.528,50.9477)">
                    <path d="M0,2.97C-2.311,-4.182 -16.197,-9.291 -16.197,-9.291C-12.768,11.775 2.315,10.123 0,2.97ZM-7.423,19.6C-9.862,14.917 -20.069,12.997 -20.069,12.997C-15.238,27.179 -4.993,24.278 -7.423,19.6ZM-22.424,17.276C-24.876,12.601 -35.086,10.716 -35.086,10.716C-30.216,24.879 -19.977,21.948 -22.424,17.276ZM-12.086,26.827C-12.086,26.827 -0.001,39.04 8.675,38.045C17.348,37.049 11.833,20.309 -12.086,26.827ZM12.155,12.138C12.155,12.138 10.478,26.84 15.828,32.118C21.179,37.405 29.429,24.669 12.155,12.138ZM0.238,-23.55C0.823,-28.795 -6.583,-36.07 -6.583,-36.07C-10.472,-21.605 -0.346,-18.308 0.238,-23.55ZM41.828,-1.095C44.959,-8.195 37.77,-21.662 37.77,-21.662C25.949,-3.08 38.703,6.005 41.828,-1.095ZM9.887,-11.545C16.776,-16.91 16.848,-34.093 16.848,-34.093C-4.787,-21.992 2.996,-6.183 9.887,-11.545ZM35.106,6.182C35.774,-1.547 24.62,-11.973 24.62,-11.973C19.437,9.431 34.44,13.909 35.106,6.182ZM12.847,2.19C16.411,-1.705 14.722,-11.951 14.722,-11.951C3.051,-2.563 9.283,6.075 12.847,2.19ZM17.091,10.418C21.271,7.194 21.37,-3.185 21.37,-3.185C8.257,4.055 12.909,13.634 17.091,10.418ZM9.246,18.132C5.412,11.664 -9.261,9.741 -9.261,9.741C-1.272,29.529 13.077,24.596 9.246,18.132ZM5.637,12.753C9.729,16.084 14.644,6.637 1.737,-0.963C1.737,-0.963 1.548,9.416 5.637,12.753ZM-8.103,-22.896C-11.664,-1.85 3.145,1.459 3.264,-6.056C3.385,-13.576 -8.103,-22.896 -8.103,-22.896Z" style="fill:none;fill-rule:nonzero;stroke:rgb(255,212,120);stroke-width:0.95px;"/>
                </g>
                <g transform="matrix(1,0,0,1,51.9979,142.836)">
                    <path d="M0,-6.073C4.488,0.46 20.058,1.445 20.058,1.445C10.254,-18.812 -4.49,-12.606 0,-6.073ZM2.501,-25.11C6.372,-21.114 17.265,-22.243 17.265,-22.243C8.115,-35.123 -1.365,-29.109 2.501,-25.11ZM18.357,-27.278C22.242,-23.291 33.128,-24.457 33.128,-24.457C23.944,-37.305 14.48,-31.262 18.357,-27.278ZM5.036,-33.816C5.036,-33.816 -10.851,-42.525 -19.319,-38.91C-27.783,-35.292 -17.175,-20.037 5.036,-33.816ZM-15.041,-11.681C-15.041,-11.681 -17.77,-27.042 -24.765,-30.768C-31.761,-34.5 -36.269,-19.147 -15.041,-11.681ZM7.737,20.799C8.725,26.276 18.4,31.4 18.4,31.4C17.978,15.61 6.752,15.327 7.737,20.799ZM-41.047,10.618C-42.075,18.735 -30.759,30.185 -30.759,30.185C-24.402,7.849 -40.024,2.505 -41.047,10.618ZM-5.624,11.57C-10.972,19.065 -5.875,36.452 -5.875,36.452C12.348,17.713 -0.275,4.078 -5.624,11.57ZM-36.445,1.244C-34.794,9.257 -20.384,16.435 -20.384,16.435C-21.587,-6.753 -38.094,-6.766 -36.445,1.244ZM-12.748,-1.418C-15.178,3.587 -10.39,13.436 -10.39,13.436C-1.418,0.438 -10.314,-6.418 -12.748,-1.418ZM-19.511,-8.456C-22.768,-3.944 -19.743,6.577 -19.743,6.577C-8.669,-4.685 -16.254,-12.965 -19.511,-8.456ZM-13.903,-18.614C-8.084,-13.229 7.321,-15.701 7.321,-15.701C-6.706,-33.296 -19.72,-23.993 -13.903,-18.614ZM-8.638,-14.264C-13.777,-16.4 -15.902,-5.372 -0.569,-1.575C-0.569,-1.575 -3.502,-12.122 -8.638,-14.264ZM15.97,17.629C13.238,-4.711 -2.724,-3.599 -0.583,4.031C1.556,11.669 15.97,17.629 15.97,17.629Z" style="fill:none;fill-rule:nonzero;stroke:rgb(255,212,120);stroke-width:0.95px;"/>
                </g>
                <g transform="matrix(0.99999,0,0,1,170.618,38.011)">
                    <text x="0px" y="0px" style="font-family:'Menlo-Regular', 'Menlo', monospace;font-size:29.817px;fill:rgb(255,212,120);">80</text>
                </g>
                <g transform="matrix(-1,0,0,1,188.813,52.3299)">
                    <circle cx="0" cy="-25.929" r="25.929" style="fill:none;stroke:rgb(255,212,120);stroke-width:1.58px;"/>
                </g>
                <g transform="matrix(1,0,0,1,173.483,17.475)">
                    <text x="0px" y="0px" style="font-family:'Helvetica';font-size:6.135px;fill:rgb(255,212,120);">VER.</text>
                </g>
                <g transform="matrix(1,0,0,1,184.689,101.483)">
                    <text x="0px" y="0px" style="font-family:'Helvetica';font-size:4.81px;fill:rgb(63,42,46);">™</text>
                </g>
                <g transform="matrix(1,0,0,1,36.0408,159.328)">
                    <path d="M0,-33.515C0,-33.515 6.794,-33.427 10.702,-33.16C14.612,-32.894 20.989,-33.305 22.777,-33.666C24.902,-34.094 29.532,-35.472 31.096,-36.498C32.662,-37.524 35.475,-39.806 38.65,-40.222C41.824,-40.64 43.911,-41.099 47.242,-39.986C50.571,-38.871 52.262,-37.606 53.197,-36.48C54.132,-35.353 55.379,-33.888 55.74,-32.022C56.099,-30.157 56.795,-25.774 56.795,-25.774L57.559,-23.13C57.559,-23.13 59.412,-25.886 60.8,-27.899C62.187,-29.912 66.62,-37.244 67.758,-38.508C68.898,-39.767 76.613,-50.236 79.062,-51.553C81.51,-52.87 91.473,-59.654 91.803,-59.748C92.135,-59.846 97.438,-61.809 97.981,-61.787C98.525,-61.765 99.109,-60 99.172,-58.909C99.237,-57.817 98.019,-54.6 98.019,-54.6L97.054,-52.244C97.054,-52.244 97.444,-48.417 97.084,-47.561C96.721,-46.705 95.837,-43.691 95.503,-43.488C95.168,-43.283 94.003,-41.369 94.003,-41.369C94.003,-41.369 93.533,-37.797 92.523,-37.075C91.515,-36.354 91.593,-32.867 91.357,-32.44C91.123,-32.014 90.184,-30.309 90.184,-30.309L89.787,-28.584C89.787,-28.584 93.631,-32.13 95.101,-33.487C96.57,-34.843 100.369,-37.196 101.146,-37.599C101.924,-38.004 107.033,-40.519 107.184,-38.88C107.338,-37.241 105.983,-33.376 105.522,-32.743C105.061,-32.106 103.478,-30.647 103.478,-30.647C103.478,-30.647 103.248,-27.607 102.347,-26.881C101.448,-26.155 100.307,-24.896 100.307,-24.896C100.307,-24.896 98.952,-20.921 98.177,-20.625C97.403,-20.331 97.136,-19.143 96.24,-18.526C95.346,-17.91 93.683,-17.213 93.683,-17.213C93.683,-17.213 93.111,-13.752 92.21,-13.028C91.309,-12.3 89.313,-11.401 89.313,-11.401C89.313,-11.401 88.1,-8.294 87.42,-7.667C86.743,-7.041 84.973,-6.35 84.534,-6.259C84.094,-6.167 82.57,-6.119 82.57,-6.119C82.57,-6.119 81.503,-3.985 80.607,-3.368C80.607,-3.368 87.648,2.696 87.969,2.817C88.29,2.939 97.674,8.527 99.17,9.238C100.666,9.954 111.008,14.948 111.651,15.191C112.294,15.433 119.437,19.204 121.133,20.362C122.829,21.518 124.45,21.801 123.433,22.742C122.415,23.681 118.031,24.378 117.384,24.241C116.736,24.107 111.431,23.348 111.431,23.348C111.431,23.348 114.684,26.416 111.605,27.165C108.527,27.911 107.874,27.884 107.122,27.636C106.37,27.391 103.065,25.625 103.065,25.625C103.065,25.625 101.761,28.294 100.27,27.47C98.78,26.648 96.97,25.595 96.97,25.595C96.97,25.595 97.434,27.574 95.374,27.383C93.313,27.19 90.56,25.229 90.56,25.229C90.56,25.229 91.012,27.534 88.844,27.339C86.673,27.14 84.183,26.824 83.87,26.486C83.558,26.147 78.807,22.469 78.807,22.469C78.807,22.469 71.04,20.636 68.466,19.662C65.894,18.685 57.84,15.856 56.99,15.386C56.137,14.917 47.979,6.64 46.261,3.306C44.546,-0.029 41.624,-5.917 40.951,-8.121C40.278,-10.326 36.596,-16.244 36.291,-16.801C35.987,-17.359 31.729,-25.15 30.672,-25.954C29.616,-26.759 28.243,-27.794 25.873,-28.434C23.503,-29.073 17.537,-30.096 12.111,-30.532C6.685,-30.968 2.599,-31.49 -0.205,-31.916C-1.41,-32.099 -0.992,-33.228 0,-33.515" style="fill:rgb(220,221,222);fill-rule:nonzero;"/>
                </g>
                <g transform="matrix(1,0,0,1,67.298,129.155)">
                    <path d="M0,1.231L0.472,1.659C0.472,1.659 1.046,1.601 1.46,1.454C1.874,1.307 1.371,-0.428 1.371,-0.428L0.713,-0.291C0.713,-0.291 1.254,0.465 0.909,0.942C0.564,1.417 0,1.231 0,1.231" style="fill:rgb(63,42,46);fill-rule:nonzero;"/>
                </g>
                <g transform="matrix(1,0,0,1,124.425,138.214)">
                    <path d="M0,-4.332C0,-4.332 1.064,-2.41 0.684,-1.12C0.306,0.172 -0.795,1.189 -0.795,1.189C-0.795,1.189 -0.437,2.428 -0.968,3.468C-1.501,4.509 -3.2,6.155 -3.2,6.155C-3.2,6.155 -3.796,8.826 -4.078,9.714C-4.358,10.599 -5.057,13.757 -5.057,13.757C-5.057,13.757 -1.331,12.517 -0.341,10.188C0.652,7.862 0.674,9.332 1.624,8.063C2.571,6.794 4.063,4.244 4.063,4.244L4.338,3.518C4.338,3.518 6.137,3.427 6.917,2.315C7.697,1.204 8.436,-0.971 8.436,-0.971C8.436,-0.971 9.357,-1.505 10.229,-2.858C11.099,-4.212 11.751,-6.226 11.751,-6.226C11.751,-6.226 13.412,-6.896 13.695,-7.864C13.98,-8.832 14.208,-10.455 14.208,-10.455C14.208,-10.455 16.379,-11.675 17.122,-13.85C17.862,-16.025 19.333,-18.089 15.661,-16.113C15.661,-16.113 17.004,-14.997 15.892,-13.736C14.779,-12.474 12.746,-10.678 12.746,-10.678C12.746,-10.678 13.214,-8.046 12.544,-7.665C11.876,-7.283 10.54,-6.603 10.54,-6.603C10.54,-6.603 10.29,-4.409 8.853,-3.24C7.42,-2.074 5.754,-1.242 5.098,-1.187L4.565,-1.306C4.557,-1.309 4.549,-1.312 4.539,-1.316C4.2,-1.812 3.89,-2.542 4.422,-3.132C5.067,-3.849 5.55,-4.356 5.55,-4.547C6.832,-5.093 8.856,-5.911 9.052,-6.09C9.306,-6.325 9.566,-6.722 9.566,-6.722C9.566,-6.722 5.252,-5.018 4.082,-4.329C3.45,-3.96 2.841,-3.495 2.412,-3.144C2.231,-3.629 2.33,-4.426 2.928,-5.023C3.289,-5.384 4.767,-6.494 5.712,-7.258C6.845,-7.875 8.331,-8.658 8.755,-8.879C9.339,-9.182 11.758,-10.473 11.758,-10.473C11.758,-10.473 7.54,-9.091 6.789,-8.712C6.58,-8.607 6.051,-8.225 5.401,-7.732C5.046,-7.651 4.704,-7.585 4.413,-7.535C5.289,-8.172 10.866,-12.632 10.866,-12.632L15.464,-15.305C15.464,-15.305 15.308,-15.473 14.399,-15.185C13.488,-14.893 8.221,-11.839 7.713,-11.37C7.203,-10.901 1.295,-6.075 0,-4.332" style="fill:rgb(63,42,46);fill-rule:nonzero;"/>
                </g>
                <g transform="matrix(-0.425483,-0.904967,-0.904967,0.425483,110.438,133.153)">
                    <path d="M-5.119,-8.064C-5.119,-8.064 -3.854,-2.1 -4.188,-0.086C-4.521,1.926 -5.119,3.25 -5.119,3.25L-5.354,-4.447L-5.119,-8.064Z" style="fill:rgb(63,42,46);fill-rule:nonzero;"/>
                </g>
                <g transform="matrix(1,0,0,1,87.9733,150.949)">
                    <path d="M0,0.835C0.185,1.218 0.925,1.747 1.394,1.806C2.589,1.955 2.986,1.458 3.137,1.358C3.198,1.317 3.45,1.105 3.721,0.87C3.721,0.87 4.119,0.139 4.082,0.138C2.315,0.064 0.684,-1.12 0.684,-1.12C0.684,-1.12 0.576,0.274 0,0.835" style="fill:rgb(63,42,46);fill-rule:nonzero;"/>
                </g>
                <g transform="matrix(1,0,0,1,82.3478,153.103)">
                    <path d="M0,-2.688C0,-2.688 -0.977,-2.196 -1.857,-2.153C-1.703,-1.75 -1.349,-0.723 -0.797,-0.447C0.099,0 0.697,-0.099 1.145,-0.248C1.443,-0.348 1.874,-0.82 2.232,-0.993C1.998,-1.13 1.742,-1.3 1.427,-1.514C1,-1.805 0,-2.688 0,-2.688" style="fill:rgb(63,42,46);fill-rule:nonzero;"/>
                </g>
                <g transform="matrix(-0.095771,-0.995403,-0.995403,0.095771,86.4038,150.353)">
                    <path d="M-1.616,-1.07C-1.616,-1.07 -0.915,-0.038 -0.338,0.257C-0.338,0.257 -1.083,0.829 -1.616,1.53C-1.616,1.53 -2.198,0.686 -2.194,0.185C-2.192,-0.315 -1.789,-0.803 -1.616,-1.07" style="fill:rgb(63,42,46);fill-rule:nonzero;"/>
                </g>
                <g transform="matrix(1,0,0,1,83.742,154.257)">
                    <path d="M0,-0.855C-0.273,-0.74 -0.672,-0.682 -1.094,-0.691C-0.847,-0.39 0.291,0.91 1.394,0.689C2.638,0.441 2.936,-0.256 2.986,-0.406C3.026,-0.525 3.034,-1.085 3.036,-1.306C2.097,-1.099 1.654,-1.402 0.986,-1.765C0.781,-1.483 0.404,-1.023 0,-0.855" style="fill:rgb(63,42,46);fill-rule:nonzero;"/>
                </g>
                <g transform="matrix(0.451408,0.892318,0.892318,-0.451408,86.3694,153.194)">
                    <path d="M1.853,-1.526C1.853,-1.526 4.428,0.15 3.982,1.387C3.681,2.224 2.612,2.915 1.853,3.332C1.625,2.659 0.68,2.165 0.062,1.645C0.441,1.504 1.714,-0.9 1.853,-1.526" style="fill:rgb(63,42,46);fill-rule:nonzero;"/>
                </g>
                <g transform="matrix(1,0,0,1,80.7541,149.545)">
                    <path d="M0,5.6C0.354,5.325 0.831,4.308 1.016,3.89C0.813,3.833 -0.396,2.386 -0.417,1.706C-1.213,1.696 -2.169,1.297 -3.008,-0.148C-3.008,-0.148 -1.549,3.497 -0.807,5.627C-0.506,5.714 -0.191,5.748 0,5.6" style="fill:rgb(63,42,46);fill-rule:nonzero;"/>
                </g>
                <g transform="matrix(1,0,0,1,85.136,157.436)">
                    <path d="M0,-1.843C0,-1.843 -2.34,-1.694 -3.037,-3.535C-3.037,-3.535 -3.336,-2.44 -3.883,-1.941C-4.431,-1.445 -4.779,-1.345 -4.779,-1.345L-3.933,0.198C-3.933,0.198 -0.747,1.692 0,-1.843" style="fill:rgb(63,42,46);fill-rule:nonzero;"/>
                </g>
                <g transform="matrix(1,0,0,1,83.6917,157.683)">
                    <path d="M0,0.698C0,0.698 1.344,2.291 3.037,1.992C4.729,1.694 5.028,0.898 5.128,0.448C5.227,0.001 5.277,-0.447 5.277,-0.447C5.277,-0.447 3.037,-0.547 2.091,-1.593C2.091,-1.593 1.394,0.001 0,0.698" style="fill:rgb(63,42,46);fill-rule:nonzero;"/>
                </g>
                <g transform="matrix(0.313789,-0.949494,-0.949494,-0.313789,84.9739,157.642)">
                    <path d="M-1.775,-2.854C-1.775,-2.854 -3.126,-1.622 -1.386,1.364C-1.386,1.364 -1.792,2.592 -1.775,3.175C-1.775,3.175 -4.712,0.003 -4.84,-0.72C-4.84,-0.72 -4.012,-3.383 -1.775,-2.854" style="fill:rgb(63,42,46);fill-rule:nonzero;"/>
                </g>
                <g transform="matrix(0.458965,0.888456,0.888456,-0.458965,91.8568,150.779)">
                    <path d="M1.56,-2.263C4.014,-1.85 4.269,0.595 3.948,1.602C3.626,2.608 1.56,2.724 1.56,2.724C1.897,1.429 0.882,0.439 0.882,0.439C1.895,-0.42 1.56,-2.263 1.56,-2.263" style="fill:rgb(63,42,46);fill-rule:nonzero;"/>
                </g>
                <g transform="matrix(-0.889461,0.457012,0.457012,0.889461,94.5765,157.062)">
                    <path d="M2.194,-4.514C2.194,-4.514 3.19,-2.899 4.263,-2.555C4.263,-2.555 3.572,-0.743 2.194,-0.483C0.816,-0.224 -0.363,-0.234 -1.031,-2.184C-1.031,-2.184 1.175,-2.142 2.194,-4.514" style="fill:rgb(63,42,46);fill-rule:nonzero;"/>
                </g>
                <g transform="matrix(1,0,0,1,90.1137,162.165)">
                    <path d="M0,3.534C2.091,2.191 1.941,0.249 1.941,0.249C1.941,0.249 0.398,0.647 -0.796,0.199C-1.991,-0.25 -2.539,-1.345 -2.539,-1.345C-2.539,-1.345 -3.136,0.348 -4.182,0.597C-5.227,0.846 -5.476,0.896 -5.476,0.896C-5.476,0.896 -4.529,2.49 -4.032,2.837C-3.534,3.186 -2.091,4.879 0,3.534" style="fill:rgb(63,42,46);fill-rule:nonzero;"/>
                </g>
                <g transform="matrix(1,0,0,1,93.8103,151.187)">
                    <path d="M0,-2.066C0,-2.066 -0.462,-0.722 -0.809,-0.373C-0.809,-0.373 1.356,0 1.73,-1.668C1.73,-1.668 0.498,-1.469 0,-2.066" style="fill:rgb(63,42,46);fill-rule:nonzero;"/>
                </g>
                <g transform="matrix(0.579301,-0.815114,-0.815114,-0.579301,98.9065,150.015)">
                    <path d="M-1.068,-0.476C0.516,-0.817 0.955,0.716 1.008,1.242C1.008,1.242 -0.26,1.564 -1.068,2.7C-1.068,2.7 -2.199,2.231 -2.65,2.308C-2.65,2.308 -2.653,-0.137 -1.068,-0.476" style="fill:rgb(63,42,46);fill-rule:nonzero;"/>
                </g>
                <g transform="matrix(0.892844,-0.45037,-0.45037,-0.892844,97.0697,157.621)">
                    <path d="M-0.539,-0.049C0.485,-0.008 1.702,0.911 1.328,2.049C1.328,2.049 0.259,2.029 -0.539,2.99C-0.539,2.99 -1.279,1.635 -2.46,1.283C-2.46,1.283 -1.563,-0.091 -0.539,-0.049" style="fill:rgb(63,42,46);fill-rule:nonzero;"/>
                </g>
                <g transform="matrix(1,0,0,1,152.827,103.113)">
                    <path d="M0,77.721C-1.797,77.729 -8.124,76.739 -8.771,76.552C-9.416,76.362 -12.162,75.599 -12.162,75.599C-12.316,75.523 -12.599,75.333 -12.952,75.077C-11.603,76.616 -9.634,78.849 -8.66,79.902C-7.745,80.895 -7.802,80.918 -8.319,81.55C-8.833,82.182 -9.779,81.326 -10.422,81.056C-11.064,80.784 -14.831,79.083 -15.634,78.643C-15.78,78.562 -16.246,78.248 -16.906,77.788C-16.798,78.006 -16.706,78.258 -16.688,78.518C-16.638,79.256 -16.183,80.171 -16.441,80.486C-16.698,80.804 -17.836,80.678 -18.238,80.498C-18.638,80.318 -21.334,78.333 -21.334,78.333L-23.291,76.211L-21.308,77.679C-21.308,77.679 -19.526,79.612 -18.516,79.888C-18.443,79.729 -18.312,79.328 -18.703,79.015C-19.201,78.616 -21.294,76.675 -21.541,76.375C-21.79,76.077 -23.433,74.784 -23.084,74.882C-22.736,74.982 -20.196,77.572 -19.648,77.919C-19.1,78.268 -18.107,78.816 -18.555,78.169C-19.003,77.521 -20.196,76.525 -19.648,76.626C-19.1,76.724 -18.256,77.919 -17.956,77.97C-17.764,78.001 -17.47,77.972 -17.285,77.946L-17.327,77.494C-20.396,75.355 -26.43,71.023 -26.43,71.023L-23.873,72.432C-23.873,72.432 -21.093,74.341 -20.691,74.519C-20.291,74.699 -16.959,77.119 -16.403,77.55C-15.849,77.982 -13.681,78.883 -12.402,79.587C-12.402,79.587 -15.318,77.373 -15.914,76.975C-16.513,76.576 -18.107,74.785 -19.1,73.987C-20.097,73.19 -18.107,74.185 -16.911,75.381C-15.716,76.576 -13.525,78.366 -13.227,78.069C-12.929,77.77 -13.253,77.957 -13.651,77.559C-14.048,77.16 -15.829,75.765 -15.829,75.765C-15.829,75.765 -14.821,76.066 -14.621,76.365C-14.423,76.663 -10.675,79.799 -10.178,79.799C-9.926,79.799 -10.029,79.351 -10.94,78.316C-11.111,78.1 -11.56,77.335 -11.784,77.073C-12.968,75.691 -13.315,75.356 -13.953,74.342C-15.227,73.394 -16.812,72.183 -17.639,71.704C-18.996,70.912 -27.224,68.458 -28.735,67.417C-30.551,66.167 -30.376,66.301 -35.03,63.574C-35.03,63.574 -28.115,66.219 -26.505,66.773C-24.893,67.328 -13.919,73.183 -13.462,73.422C-10.903,74.75 -9.445,75.052 -8.394,75.341C-8.012,75.446 -7.372,75.692 -6.618,75.961C-6.648,75.858 -6.69,75.71 -6.755,75.48C-6.956,74.785 -9.742,73.987 -10.539,73.588C-11.335,73.19 -10.937,72.793 -10.241,73.091C-9.542,73.391 -6.854,74.584 -5.659,75.381C-4.466,76.178 -1.179,76.975 -1.179,76.975C-1.176,76.991 -1.178,77.003 -1.176,77.019C0.121,77.117 0.833,77.346 0.833,77.346C0.833,77.346 1.797,77.709 0,77.721M-22.256,80.906C-22.995,81.039 -23.814,81.087 -24.128,80.749C-24.44,80.413 -28.427,78.047 -28.427,78.047L-26.739,78.686C-26.739,78.686 -24.994,79.98 -24.426,80.085C-24.426,80.085 -23.583,79.563 -24.977,78.666C-26.37,77.77 -29.159,75.281 -29.556,74.883C-29.955,74.483 -27.764,75.48 -27.465,75.78C-27.167,76.077 -24.578,78.667 -24.279,78.469C-24.119,78.36 -23.959,78.024 -23.846,77.736C-24.174,77.303 -28.499,73.714 -28.499,73.714L-32.521,70.208L-34.133,69.652C-34.133,69.652 -32.631,68.895 -29.622,71.219C-26.613,73.548 -25.045,75.162 -24.806,75.334C-24.569,75.508 -22.379,77.881 -22.256,78.867C-22.131,79.849 -21.515,80.774 -22.256,80.906M-28.161,81.568C-28.282,82.542 -31.65,81.019 -32.534,80.656C-33.417,80.295 -33.926,78.721 -33.926,78.721C-33.926,78.721 -32.025,80.188 -31.873,80.437C-31.802,80.553 -31.385,80.647 -30.861,80.712C-30.765,80.613 -30.765,80.445 -31.05,80.159C-31.747,79.464 -32.643,79.064 -32.643,78.566C-32.643,78.069 -31.349,79.064 -30.951,79.464C-30.552,79.861 -29.854,80.758 -29.657,80.36C-29.463,79.976 -30.01,78.671 -30.407,77.684C-30.875,77.126 -31.342,76.589 -31.544,76.368C-32.013,75.86 -34.475,74.128 -34.475,74.128C-34.475,74.128 -33.504,74.333 -32.868,74.764C-32.232,75.201 -29.787,77.337 -29.472,77.595L-28.533,78.616C-28.533,78.616 -28.039,80.592 -28.161,81.568M-36.026,75.625C-36.559,75.426 -37.636,75.034 -38.069,75.231C-38.617,75.48 -37.77,75.43 -37.124,75.929C-36.805,76.174 -36.536,76.419 -36.367,76.604C-36.406,76.707 -36.445,76.805 -36.48,76.896C-36.958,76.839 -37.952,76.7 -38.352,76.693L-38.578,76.657C-38.578,76.657 -42.368,75.444 -45.126,75.007C-45.209,74.992 -45.3,74.974 -45.385,74.957L-41.367,74.911C-41.367,74.911 -37.035,74.841 -36.791,74.852C-36.697,74.855 -36.229,74.654 -35.692,74.41C-35.786,74.826 -35.902,75.237 -36.026,75.625M-48.805,74.012L-52.119,71.324C-51.095,71.498 -50.125,71.665 -49.974,71.707C-49.651,71.801 -44.522,72.173 -44.522,72.173C-44.522,72.173 -45.265,70.346 -45.98,69.827C-46.134,69.715 -46.681,69.318 -47.441,68.768L-46.356,69.079C-46.356,69.079 -45.058,69.199 -43.752,69.313C-43.017,69.746 -40.806,71.051 -40.099,71.508C-39.88,71.904 -39.215,72.543 -39.215,72.543C-39.215,72.543 -41.056,71.846 -41.705,71.747C-42.351,71.648 -43.397,71.697 -43.198,71.846C-42.999,71.996 -41.256,72.543 -40.558,72.643C-39.862,72.742 -38.916,73.04 -39.064,73.439C-39.215,73.838 -40.011,73.539 -40.658,73.588C-41.306,73.639 -42.948,73.539 -43.297,73.938C-43.393,74.047 -43.065,74.134 -42.551,74.203C-43.018,74.249 -43.404,74.295 -43.548,74.337C-43.918,74.442 -45.156,74.74 -45.762,74.884C-46.708,74.684 -47.764,74.365 -48.805,74.012M-53.587,72.216C-54.383,71.93 -55.608,71.426 -56.603,71.012L-56.928,70.126C-55.948,70.445 -54.81,70.815 -54.677,70.866L-50.402,73.439C-51.744,72.937 -52.919,72.456 -53.587,72.216M-61.17,64.678C-62.238,64.563 -62.718,63.983 -62.886,63.718C-62.46,63.867 -61.476,64.154 -60.324,64.081C-59.85,64.051 -59.331,63.867 -58.828,63.56C-57.999,63.769 -56.707,64.096 -56.54,64.131C-56.425,64.154 -55.706,64.091 -54.976,63.992L-54.438,64.915C-54.438,64.915 -49.996,68.197 -49.282,68.717C-49.079,68.864 -48.774,69.114 -48.442,69.398C-48.917,69.369 -49.369,69.398 -49.221,69.606C-48.972,69.954 -48.275,70.204 -48.325,70.402C-48.375,70.603 -49.919,69.905 -50.366,69.805C-50.814,69.707 -52.059,68.909 -52.557,69.008C-53.054,69.108 -51.811,69.704 -50.964,70.104C-50.479,70.333 -49.717,70.675 -49.153,70.926L-50.268,70.882C-50.268,70.882 -51.606,70.56 -53.118,70.189C-53.486,69.828 -54.426,68.913 -55.096,68.361C-55.942,67.665 -56.59,67.067 -56.34,67.565C-56.092,68.063 -55.295,68.81 -55.295,68.81C-55.295,68.81 -56.042,69.008 -56.54,68.859C-56.83,68.772 -57.353,68.634 -57.742,68.534L-59.038,66.351C-58.463,65.712 -58.012,64.904 -58.132,63.98C-58.132,63.98 -59.776,64.826 -61.17,64.678M-53.537,55.384C-53.385,55.472 -53.2,55.568 -52.976,55.668C-51.024,56.907 -47.243,59.4 -46.643,59.921C-46.463,60.077 -46.208,60.292 -45.925,60.529C-46.122,60.503 -46.303,60.489 -46.433,60.496C-46.925,60.519 -48.275,59.998 -48.275,59.898C-48.274,59.798 -51.362,59.003 -51.212,59.351C-51.063,59.7 -48.375,60.546 -48.176,60.695C-47.977,60.844 -46.433,61.342 -46.185,61.69C-45.936,62.038 -46.483,61.74 -47.081,61.74C-47.678,61.74 -50.814,61.043 -50.317,61.491C-50.142,61.647 -49.482,61.845 -48.697,62.038C-50.648,61.759 -52.883,61.4 -53.556,61.274C-53.767,61.236 -53.96,61.214 -54.142,61.204C-54.524,60.106 -54.942,58.905 -55.187,58.207C-54.94,57.73 -54.84,57.074 -54.996,56.163C-54.996,56.163 -55.002,56.049 -55.012,55.884L-53.537,55.384ZM-54.916,51.284C-54.893,51.265 -54.871,51.253 -54.847,51.236C-54.513,50.977 -54.268,50.73 -54.087,50.499L-52.993,50.52L-51.76,51.141C-51.76,51.141 -48.652,53.062 -48.095,53.413C-48.006,53.467 -47.827,53.579 -47.598,53.725C-48.242,53.71 -48.96,53.716 -49.371,53.774C-50.068,53.874 -47.628,54.422 -47.081,54.571C-46.851,54.633 -46.043,54.929 -45.181,55.251C-44.214,55.869 -43.324,56.446 -43.08,56.636C-42.526,57.065 -42.013,56.513 -42.013,56.513C-42.013,56.513 -45.828,53.911 -46.94,53.131C-48.052,52.351 -50.841,50.607 -50.841,50.607L-46.881,50.173C-46.746,50.294 -46.622,50.416 -46.509,50.538C-46.087,50.995 -44.179,52.389 -42.216,53.762C-42.426,53.674 -42.639,53.594 -42.849,53.525C-44.392,53.028 -43.198,54.322 -42.351,54.72C-41.504,55.119 -40.558,55.766 -41.006,55.766C-41.455,55.766 -41.753,55.916 -41.256,56.264C-40.893,56.518 -39.696,57.272 -39.067,57.665L-38.539,59.03C-39.109,58.527 -39.599,58.108 -39.787,57.99C-40.345,57.645 -42.291,57.319 -42.291,57.319C-42.291,57.319 -40.938,58.192 -40.217,58.545C-40.095,58.607 -39.95,58.708 -39.796,58.836C-39.975,58.919 -40.106,59.061 -40.011,59.25C-39.812,59.649 -39.613,59.898 -39.812,59.848C-40.011,59.799 -41.705,58.952 -42.301,58.852C-42.899,58.753 -44.342,58.654 -43.994,59.003C-43.645,59.35 -42.003,59.548 -41.405,59.698C-40.808,59.848 -40.907,60.147 -41.256,60.246C-41.604,60.346 -42.351,60.147 -42.65,60.346C-42.845,60.476 -41.426,60.606 -40.419,60.681L-43.511,60.686C-43.822,60.424 -44.116,60.19 -44.36,60.013C-45.277,59.345 -47.706,57.55 -48.767,56.762C-47.757,56.968 -46.886,57.136 -46.616,57.227C-46.051,57.415 -42.933,57.048 -42.933,57.048C-43.145,56.998 -43.386,56.953 -43.642,56.912C-43.654,56.9 -43.659,56.888 -43.685,56.883C-43.856,56.856 -47.279,55.865 -47.628,55.667C-47.976,55.468 -49.371,55.268 -49.371,55.268C-49.371,55.268 -48.574,56.014 -47.841,56.54C-47.833,56.546 -47.821,56.55 -47.814,56.556C-48.034,56.54 -48.206,56.523 -48.301,56.506C-48.759,56.425 -51.67,55.447 -52.784,55.069L-54.916,51.284ZM-34.128,41.155C-34.128,41.155 -33.81,40.919 -33.349,40.576C-33.159,41.015 -33.054,41.706 -33.376,42.736C-34.031,44.832 -35.098,46.995 -35.098,46.995C-35.098,46.995 -37.839,46.838 -39.737,47.236C-39.615,47.02 -42.046,47.715 -42.6,47.9C-43.198,48.099 -44.491,47.104 -44.99,47.004C-45.317,46.939 -44.613,45.757 -44.091,44.953C-42.845,44.107 -40.373,42.477 -39.066,42.099C-37.332,41.596 -34.128,41.155 -34.128,41.155M-38.124,52.731C-38.766,52.215 -39.449,51.716 -40.17,51.281C-40.489,51.089 -40.792,50.888 -41.089,50.685C-41.006,50.603 -40.908,50.519 -40.79,50.44C-39.867,49.822 -40.671,47.506 -38.878,47.578C-37.084,47.651 -35.285,47.558 -35.285,47.558C-35.285,47.558 -35.503,51.008 -38.124,52.731M-41.15,69.533C-40.66,69.552 -39.395,68.542 -39.395,68.542C-39.395,68.542 -40.333,67.673 -41.165,66.932C-41.167,66.928 -41.172,66.922 -41.175,66.918C-39.982,66.972 -37.047,67.114 -35.723,67.286C-35.733,67.587 -35.741,67.928 -35.742,68.296C-36.264,68.282 -37.102,68.262 -37.821,68.262C-38.966,68.262 -37.672,68.81 -37.372,69.108C-37.074,69.407 -36.775,69.954 -37.124,70.553C-37.472,71.15 -38.317,70.003 -39.215,69.905C-39.643,69.857 -39.057,70.412 -38.331,71.005L-41.185,69.532C-41.173,69.532 -41.16,69.532 -41.15,69.533M-38.019,60.671C-38.019,60.673 -38.016,60.676 -38.016,60.676L-38.116,60.676L-38.019,60.671ZM-37.186,62.333L-38.127,61.546L-37.532,61.483C-37.423,61.752 -37.306,62.035 -37.186,62.333M-53.712,62.431C-53.068,62.624 -51.757,63 -51.098,63.089C-50.203,63.209 -45.472,63.315 -43.842,63.38C-42.211,63.445 -40.809,63.096 -40.809,63.096C-40.809,63.096 -41.263,62.67 -41.872,62.116L-41.167,61.856L-38.357,61.571L-37.233,63.485L-36.33,64.608C-36.833,64.435 -37.412,64.222 -37.77,64.029C-38.517,63.631 -38.965,63.781 -38.717,64.081C-38.469,64.378 -36.626,65.027 -36.626,65.424C-36.626,65.823 -38.019,65.076 -38.916,64.976C-39.812,64.875 -40.558,64.727 -40.16,65.076C-39.762,65.424 -37.173,65.774 -36.725,65.922C-36.276,66.072 -36.925,66.171 -37.721,66.27C-38.517,66.37 -39.613,65.524 -39.562,66.171C-39.541,66.456 -38.858,66.568 -38.104,66.603L-41.242,66.859C-41.785,66.376 -42.267,65.958 -42.391,65.891C-42.711,65.714 -45.328,63.812 -45.328,63.812L-46.487,64.173L-44.986,65.458L-43.844,66.225C-43.987,66.196 -44.127,66.173 -44.243,66.171C-44.637,66.163 -45.338,65.823 -45.039,66.171C-44.741,66.519 -44.144,66.868 -43.957,67.117C-43.771,67.365 -44.322,67.365 -44.84,67.365C-45.36,67.364 -47.429,66.27 -46.785,67.067C-46.29,67.676 -43.173,68.227 -41.736,68.452L-42.008,68.517C-42.008,68.517 -44.287,68.344 -44.613,68.332C-44.939,68.319 -46.954,67.666 -47.277,67.571C-47.487,67.508 -49.866,66.522 -51.483,65.845C-52.491,65.115 -53.456,64.418 -54.204,63.875C-53.67,63.781 -53.267,63.674 -53.303,63.582C-53.329,63.516 -53.491,63.058 -53.712,62.431M-29.461,61.1C-28.737,61.378 -22.996,64.79 -22.996,64.79C-22.996,64.79 -26.522,63.178 -27.809,62.637C-29.23,62.04 -29.234,61.991 -36.066,56.835L-41.461,51.629C-41.463,51.593 -41.463,51.557 -41.462,51.519L-39.534,52.758C-39.534,52.758 -30.184,60.827 -29.461,61.1M-11.71,70.473C-10.888,70.993 -1.458,75.456 -1.458,75.456C-1.458,75.456 0.696,76.687 0.285,76.753C-0.284,76.841 -1.753,76.67 -1.335,76.443C-1.213,76.375 -1.296,76.244 -1.515,76.068C-2.27,75.869 -3.366,75.65 -3.768,75.43C-4.317,75.132 -7.103,73.688 -7.253,73.439C-7.403,73.19 -5.859,74.185 -5.459,74.236C-5.291,74.257 -5.288,74.15 -5.336,74.021C-7.406,73.045 -10.674,71.681 -12.299,70.936C-14.064,70.132 -20.04,66.461 -20.04,66.461C-20.04,66.461 -12.533,69.95 -11.71,70.473M-58.237,43.696C-58.737,43.921 -59.639,44.047 -60.208,43.943C-60.575,43.876 -61.202,43.524 -61.6,43.284C-61.248,43.183 -60.99,43.094 -60.99,43.094L-59.949,41.586C-59.949,41.586 -58.745,42.124 -58.256,42.144C-57.984,42.154 -57.583,42.044 -57.278,41.944C-57.511,42.582 -57.908,43.546 -58.237,43.696M-63.02,42.849C-63.488,42.829 -64.343,42.002 -64.788,41.531C-64.08,41.287 -63.66,40.456 -63.66,40.456C-63.66,40.456 -63.034,41.136 -62.206,40.841C-61.683,40.655 -61.227,40.499 -60.919,40.352C-60.814,40.773 -60.733,41.447 -61.177,41.699C-61.847,42.08 -62.368,42.875 -63.02,42.849M-60.543,40.092C-60.369,39.854 -59.756,38.818 -59.756,38.818L-59.386,38.363C-59.097,38.941 -58.785,39.549 -58.501,40.09C-58.376,40.329 -58.224,40.574 -58.057,40.822C-58.37,40.994 -58.785,41.142 -59.192,41.043C-59.723,40.916 -60.343,40.504 -60.711,40.236C-60.638,40.187 -60.578,40.14 -60.543,40.092M-67.485,38.097C-67.657,38.334 -68.643,38.458 -69.617,38.338C-70.593,38.217 -70.89,37.472 -70.89,37.472C-69.489,37.2 -69.023,35.749 -69.023,35.749C-69.023,35.749 -68.384,36.102 -67.247,36.229C-67.115,36.245 -66.978,36.216 -66.84,36.162L-66.713,37.23C-66.713,37.23 -67.312,37.859 -67.485,38.097M-72.261,37.088C-72.732,37.209 -73.185,36.907 -73.488,36.622C-72.906,35.974 -72.601,35.36 -72.601,35.36L-72.54,33.894C-72.54,33.894 -71.241,34.932 -70.123,34.723L-70.219,35.048L-70.34,36.023C-70.34,36.023 -71.436,36.876 -72.261,37.088M-72.458,37.898C-72.458,37.898 -73.335,39.413 -74.079,39.628C-74.822,39.844 -75.999,38.654 -75.999,38.654C-75.999,38.654 -75.473,39.818 -75.819,40.294C-75.964,40.494 -76.391,40.524 -76.834,40.489C-77.159,39.689 -77.559,38.791 -77.983,37.922C-77.665,38.014 -77.146,38.089 -76.86,37.721C-76.428,37.165 -76.403,36.513 -76.403,36.513C-76.403,36.513 -74.383,37.463 -73.672,36.816L-72.776,37.721C-72.776,37.721 -72.668,37.725 -72.409,37.701L-72.458,37.898ZM-78.273,37.342C-78.631,36.645 -78.994,35.992 -79.328,35.47C-78.734,35.632 -78.077,35.793 -77.763,35.805C-77.529,35.816 -77.337,35.769 -77.161,35.675C-77.098,36.011 -76.968,37.18 -78.232,37.338C-78.247,37.341 -78.257,37.342 -78.273,37.342M-73.253,29.291C-73.702,30.255 -74.288,30.639 -74.777,30.619C-75.061,30.608 -75.801,30.329 -76.372,30.1C-75.957,29.897 -75.606,29.668 -75.543,29.363C-75.442,28.878 -75.26,28.395 -75.26,28.395C-75.26,28.395 -74.275,28.27 -73.718,27.965C-73.394,28.195 -72.955,28.648 -73.253,29.291M-80.206,18.178C-80.217,18.182 -80.225,18.186 -80.235,18.188C-80.217,18.181 -80.201,18.174 -80.185,18.166C-80.193,18.171 -80.199,18.174 -80.206,18.178M4.987,78.274C4.831,78.169 4.358,77.923 3.662,77.578C2.306,76.643 -1.506,75.016 -3.352,73.827C-5.661,72.347 -12.322,69.464 -16.078,67.439C-19.835,65.409 -22.174,64.661 -23.849,63.695C-25.525,62.729 -32.107,57.892 -33.301,57.11C-34.216,56.51 -35.898,54.53 -38.072,52.771C-37.647,52.647 -36.654,52.301 -36.185,51.687C-35.582,50.894 -34.731,50.029 -34.437,48.819C-34.144,47.605 -34.041,47.119 -34.041,47.119C-34.041,47.119 -32.739,43.169 -32.597,41.625C-32.528,40.881 -32.581,40.381 -32.656,40.058C-32.559,39.986 -32.46,39.912 -32.361,39.837C-31.435,39.14 -31.128,37.6 -31.115,37.273C-31.115,37.273 -32.113,37.725 -32.722,38.679C-33.334,39.635 -36.562,40.729 -38.289,41.067C-40.018,41.408 -43.276,43.235 -44.724,44.728C-44.831,44.84 -44.931,44.951 -45.029,45.06C-45.594,45.393 -46.18,45.735 -46.483,45.908C-47.18,46.307 -48.275,45.81 -48.275,44.912C-48.275,44.432 -47.96,43.751 -47.667,43.223C-45.613,41.706 -42.527,40.209 -41.257,39.723C-39.514,39.059 -33.243,37.432 -33.243,37.432C-33.243,37.432 -32.419,37.222 -31.587,36.847C-30.755,36.472 -30.855,34.917 -30.725,33.697C-30.595,32.477 -30.725,31.656 -30.725,31.656C-30.725,31.656 -29.013,29.683 -28.314,28.568C-27.616,27.453 -28.014,25.152 -28.014,25.152L-27.339,24.606C-27.339,24.606 -26.226,23.344 -25.704,22.549C-25.3,21.932 -25.613,19.615 -25.774,18.608C-25.229,18.068 -24.693,17.437 -24.496,16.882C-24.036,15.595 -23.863,13.315 -23.863,13.315C-23.863,13.315 -21.907,11.352 -21.378,10.394C-20.849,9.435 -20.411,6.677 -20.464,5.941C-20.496,5.478 -20.876,4.907 -21.156,4.544C-20.664,4.089 -20.112,3.395 -19.756,2.539C-19.124,1.012 -19.573,0.015 -19.634,-0.478C-19.634,-0.478 -19.717,1.561 -20.72,2.173C-21.726,2.786 -22.25,3.663 -22.25,3.663C-22.25,3.663 -28.075,6.368 -28.326,6.521C-28.578,6.675 -37.836,11.528 -39.627,13.415C-41.417,15.304 -47.194,22.909 -47.194,22.909L-50.774,30.686C-50.774,30.686 -50.696,32.811 -50.336,32.01C-49.977,31.209 -46.873,25.046 -45.904,23.288C-44.935,21.531 -40.795,16.062 -39.699,15.209C-38.603,14.355 -32.544,9.863 -31.379,9.337C-30.215,8.813 -22.476,5.206 -22.065,5.14C-21.926,5.119 -21.689,4.987 -21.417,4.768C-21.374,5.589 -21.345,7.109 -21.615,8.18C-22.005,9.715 -23.13,11.302 -23.382,11.538C-23.638,11.772 -24.061,12.164 -24.061,12.164C-24.061,12.164 -25.452,12.189 -26.782,12.789C-28.111,13.389 -31.788,15.446 -33.217,16.45C-34.646,17.453 -38.187,20.25 -38.187,20.25L-40.004,22.79C-40.004,22.79 -39.502,22.484 -38.315,21.389C-37.127,20.293 -34.069,17.314 -32.397,16.401C-30.729,15.488 -28.555,14.269 -28.144,14.204C-27.734,14.137 -24.921,13.192 -24.921,13.192C-24.921,13.192 -24.361,13.54 -24.817,14.665C-25.269,15.79 -26.985,17.845 -26.985,17.845C-26.985,17.845 -29.734,19.203 -31.64,19.86C-33.544,20.52 -41.257,25.516 -42.969,27.489C-44.681,29.461 -49.969,37.087 -49.969,37.087L-51.417,40.623C-51.417,40.623 -47.759,34.89 -47.073,34.101C-46.388,33.312 -41.287,26.251 -40.373,25.878C-39.461,25.507 -34.44,22.524 -33.698,22.309C-32.955,22.095 -28.871,20.054 -28.622,19.981C-28.439,19.93 -27.762,19.897 -27.425,19.883C-27.46,20.831 -27.629,22.173 -28.253,22.937C-29.283,24.201 -32.517,25.461 -34.096,26.131C-35.675,26.803 -43.017,32.712 -44.034,33.651C-45.051,34.591 -46.793,37.297 -46.793,37.297C-46.793,37.297 -42.458,33.062 -41.701,32.52C-40.945,31.98 -35.42,28.609 -34.419,28.078C-33.419,27.547 -29.412,25.422 -29.412,25.422L-29.359,26.076C-29.359,26.076 -29.238,27.143 -29.612,28.353C-29.988,29.562 -31.936,31.28 -31.936,31.28C-31.609,31.294 -31.428,34.894 -32.112,35.683C-32.796,36.472 -35.161,36.377 -35.661,36.602C-36.159,36.826 -38.72,37.539 -39.961,37.98C-41.204,38.421 -46.964,41.536 -48.151,42.63C-48.431,42.887 -48.695,43.207 -48.936,43.543C-49.218,43.718 -49.458,43.862 -49.57,43.917C-49.968,44.115 -51.063,44.216 -51.063,43.519C-51.063,42.822 -48.574,40.034 -48.574,40.034C-48.574,40.034 -47.279,38.241 -47.379,37.942C-47.48,37.645 -49.57,40.134 -50.366,40.93C-51.164,41.726 -52.159,43.32 -52.657,43.42C-53.154,43.519 -51.958,41.228 -51.958,41.228C-51.958,41.228 -53.253,43.32 -53.751,43.519C-54.25,43.718 -53.751,42.324 -53.253,40.83C-52.756,39.337 -46.582,29.381 -46.085,28.186C-45.587,26.991 -43.894,25.597 -43.894,25.597C-43.894,25.597 -44.79,25.995 -45.487,26.493C-46.185,26.991 -46.981,28.982 -48.375,31.473C-49.769,33.961 -53.253,39.337 -53.253,39.337C-53.44,39.446 -53.534,39.411 -53.572,39.296C-53.548,39.083 -53.522,38.86 -53.495,38.63C-53.154,37.414 -52.029,35.159 -51.76,34.757C-51.362,34.16 -51.163,32.566 -51.163,31.969C-51.163,31.372 -51.76,32.367 -52.059,33.165C-52.243,33.654 -52.162,32.296 -52.073,31.18C-51.94,30.758 -51.797,30.361 -51.643,29.998C-50.545,27.391 -48.41,22.248 -47.142,19.191C-44.957,16.124 -40.309,10.545 -36.211,7.674C-31.256,4.199 -22.46,-1.246 -20.138,-2.131C-20.138,-2.131 -19.418,-3.818 -19.725,-4.319C-20.032,-4.821 -33.003,2.985 -35.284,4.934C-37.569,6.884 -44.796,14.023 -46.694,16.561C-48.041,18.361 -52.559,25.417 -55.223,29.563C-57.179,32.254 -58.821,33.922 -59.577,34.956C-60.199,32.795 -60.711,30.623 -61.556,26.741C-62.866,20.728 -65.601,19.719 -66.704,18.696C-67.805,17.672 -71.529,16.869 -73.557,16.541C-75.586,16.215 -79.858,16.859 -81.877,18.329C-83.214,19.303 -85.752,20.731 -87.312,21.583C-88.466,21.983 -89.919,22.463 -91.112,22.821C-92.008,22.909 -97.502,23.454 -100.059,23.75C-102.436,24.026 -116.48,22.038 -116.81,23.649C-117.158,24.18 -115.41,24.033 -114.225,24.298C-113.037,24.564 -104.359,25.349 -102.95,25.513C-101.542,25.68 -92.446,26.916 -90.719,27.312C-89.355,27.626 -88.141,28.064 -87.475,28.245C-87.04,28.404 -86.582,28.586 -86.46,28.684C-86.211,28.883 -86.41,28.086 -86.61,27.787C-86.808,27.489 -86.759,27.04 -86.659,26.842C-86.559,26.642 -87.654,25.248 -88.651,25.497C-88.819,25.539 -89.115,25.574 -89.477,25.603C-89.73,25.581 -89.898,25.575 -89.898,25.575C-89.898,25.575 -92.182,25.457 -94.134,25.27C-96.086,25.083 -100.753,24.661 -99.553,24.601C-99.004,24.574 -97.86,24.281 -96.367,24.104C-94.873,24.104 -92.682,24.202 -92.682,24.202C-92.435,24.132 -89.165,23.63 -88.002,23.506C-86.62,23.358 -84.687,23.197 -83.939,22.902C-83.192,22.603 -80.779,21.709 -80.336,20.623C-80.259,20.438 -80.119,20.292 -79.948,20.174C-79.771,20.13 -79.572,20.087 -79.365,20.046C-79.929,20.776 -80.624,22.078 -79.766,22.918C-78.831,23.834 -77.544,23.545 -76.956,23.032C-75.994,22.192 -76.077,21.524 -76.423,21.056C-76.767,20.587 -76.716,21.81 -77.448,21.963C-77.774,22.03 -78.093,22.022 -78.349,21.966C-78.45,21.821 -78.975,21.301 -78.942,21.066C-78.936,21.024 -78.435,20.601 -78.394,20.569C-77.954,20.488 -77.418,20.854 -77.137,20.755C-76.795,20.634 -77.083,20.144 -77.258,19.894C-77.162,19.899 -77.067,19.896 -76.972,19.906C-76.345,20.443 -75.616,21.133 -75.361,21.478C-74.95,22.038 -74.649,22.704 -74.649,22.704C-74.649,22.704 -73.988,22.514 -72.911,22.774C-72.008,22.992 -68.453,25.451 -67.145,26.766C-67.055,26.889 -66.875,27.138 -66.637,27.468C-66.63,27.481 -66.625,27.487 -66.623,27.489C-65.707,28.76 -63.936,31.228 -62.883,32.697C-62.901,32.707 -62.921,32.719 -62.939,32.728C-63.439,32.951 -65.631,32.62 -65.631,32.62L-65.503,33.523C-65.503,33.523 -66.283,34.636 -66.532,34.708C-66.78,34.778 -67.529,35.157 -68.264,35.127C-68.68,35.109 -69.163,34.775 -69.501,34.488C-68.569,34.024 -68.028,33.339 -68.028,33.339L-67.709,31.711C-67.557,31.711 -67.441,31.646 -67.386,31.568C-67.212,31.331 -65.983,31.216 -65.983,31.216C-65.983,31.216 -64.844,31.344 -65.158,31.006C-65.469,30.666 -67.882,27.712 -70.123,26.56C-72.363,25.407 -74.478,23.201 -74.478,23.201C-74.478,23.201 -74.896,23.429 -75.073,23.748C-75.248,24.069 -75.004,24.078 -74.439,24.263C-73.875,24.449 -72.618,25.643 -71.744,26.251C-71.489,26.427 -71.201,26.72 -70.907,27.083C-71.083,27.213 -71.318,27.343 -71.626,27.397C-72.075,27.479 -72.854,27.605 -73.398,27.695C-73.361,27.63 -73.339,27.564 -73.346,27.492C-73.4,26.836 -73.548,26.422 -73.548,26.422C-73.548,26.422 -73.922,27.632 -74.657,27.602C-75.389,27.573 -75.797,27.556 -75.797,27.556L-76.251,28.681C-76.251,28.681 -76.127,29.667 -77.113,29.789C-78.097,29.913 -78.999,30.041 -78.999,30.041C-78.999,30.041 -77.803,30.741 -77.137,30.441C-77.004,30.383 -76.865,30.322 -76.726,30.261C-76.552,30.452 -76.332,30.661 -76.091,30.81C-75.534,31.16 -74.158,31.461 -73.821,31.229C-73.486,30.997 -72.729,30.456 -72.622,29.807C-72.513,29.158 -72.726,28.333 -72.726,28.333C-72.726,28.333 -71.753,28.536 -71.323,27.981C-71.126,27.728 -70.948,27.443 -70.809,27.205C-70.129,28.075 -69.423,29.297 -68.97,30.363C-68.781,30.804 -68.588,31.108 -68.403,31.318C-68.506,31.93 -68.744,32.903 -69.247,33.209C-69.878,33.594 -71.5,33.139 -72.013,32.98C-71.725,32.806 -71.513,32.709 -71.513,32.709C-71.513,32.709 -71.602,32.869 -70.692,32.58C-69.782,32.289 -69.191,31.823 -69.191,31.823L-68.97,30.363C-68.97,30.363 -70.492,31.688 -71.053,31.421C-71.614,31.154 -71.902,32.204 -71.902,32.204C-71.902,32.204 -72.678,33.235 -73.473,32.712C-74.268,32.19 -75.071,31.83 -75.071,31.83L-74.703,32.827C-74.703,32.827 -73.926,33.235 -73.27,33.374C-73.159,33.562 -73.078,33.899 -73.457,34.347C-74.058,35.057 -74.983,35.754 -75.303,35.578C-75.509,35.464 -76.116,35.235 -76.522,35.084C-76.435,34.973 -76.344,34.855 -76.248,34.724C-75.73,34.011 -75.841,32.699 -75.841,32.699L-76.457,33.817C-76.457,33.817 -77.302,34.518 -78.131,34.811C-78.612,34.982 -79.326,34.867 -79.843,34.74C-80.024,34.521 -80.277,34.221 -80.575,33.871C-80.146,33.687 -79.639,33.487 -79.383,33.455C-78.89,33.392 -78.352,32.19 -78.326,31.538C-78.299,30.885 -79.309,29.619 -79.309,29.619C-79.309,29.619 -78.951,30.86 -79.317,31.824C-79.682,32.79 -81.235,32.808 -81.235,32.808L-81.245,33.086C-81.539,32.744 -81.855,32.381 -82.177,32.008L-81.883,32.021C-81.883,32.021 -81.211,31.556 -81.026,30.994C-80.839,30.429 -81.475,29.995 -81.475,29.995C-81.475,29.995 -81.064,29.929 -80.393,29.467C-79.72,29.003 -80.333,27.999 -80.333,27.999L-81.051,27.563L-81.005,28.462C-80.962,29.362 -82.189,29.475 -82.189,29.475C-82.189,29.475 -82.131,30.051 -82.485,30.772C-82.631,31.064 -82.639,31.32 -82.597,31.523C-84.142,29.743 -85.695,27.975 -85.695,27.975L-86.255,27.707L-86.034,28.288L-85.965,28.617C-85.965,28.617 -83.573,32.062 -81.822,35.233C-80.071,38.407 -75.659,44.465 -75.659,44.465C-75.659,44.465 -75.807,44.052 -76.153,42.485C-75.498,42.43 -75.041,41.222 -75.041,41.222C-75.041,41.222 -73.322,41.129 -72.66,40.91C-71.998,40.693 -71.802,39.885 -71.368,39.247C-71.054,38.785 -71.196,37.961 -71.299,37.547C-71.284,37.542 -71.269,37.54 -71.254,37.538C-71.056,37.962 -70.677,38.811 -70.628,39.116C-70.563,39.524 -69.497,39.404 -68.843,39.431C-68.192,39.457 -66.952,39.099 -66.536,38.87C-66.118,38.643 -66.079,37.665 -66.209,36.842C-66.267,36.472 -66.413,36.201 -66.555,36.013C-65.581,35.374 -64.607,33.559 -64.607,33.559C-64.607,33.559 -63.882,33.834 -63.149,33.863C-62.809,33.877 -62.501,33.763 -62.232,33.602C-62.225,33.614 -62.219,33.622 -62.212,33.632C-61.724,34.811 -61.323,35.717 -61.138,35.986C-60.942,36.271 -60.544,36.6 -60.095,36.914C-59.984,37.147 -59.855,37.414 -59.712,37.705L-59.872,37.669C-59.872,37.669 -60.703,40.002 -61.673,39.802C-62.645,39.598 -64.354,39.448 -64.354,39.448C-64.354,39.448 -64.236,40.596 -65.457,40.466C-66.675,40.335 -67.723,39.967 -67.723,39.967C-67.723,39.967 -67.345,40.716 -66.542,41.075C-65.899,41.363 -65.672,41.626 -65.226,41.615C-65.408,42.065 -65.743,42.769 -66.129,42.969C-66.713,43.274 -68.019,43.302 -68.261,43.211C-68.502,43.118 -68.675,43.358 -67.962,43.876C-67.247,44.394 -65.926,44.04 -65.427,43.814C-64.929,43.589 -64.491,42.872 -64.491,42.872C-64.491,42.872 -63.948,43.548 -63.214,43.577C-62.933,43.589 -62.544,43.521 -62.169,43.43C-61.796,43.829 -60.695,44.919 -59.735,45.151C-60.23,45.314 -60.436,45.602 -61.016,45.788C-61.463,45.93 -61.828,45.824 -63.06,45.87C-64.123,45.908 -64.75,45.23 -64.75,45.23C-64.75,45.23 -65.174,45.62 -65.683,46.089C-66.192,46.561 -67.636,45.93 -68.516,45.486C-69.396,45.042 -69.751,43.723 -69.751,43.723C-69.751,43.723 -70.09,44.036 -71.256,44.561C-72.419,45.084 -74.67,44.179 -74.67,44.179C-74.457,45.004 -73.176,45.627 -72.039,45.754C-70.901,45.881 -69.875,44.778 -69.875,44.778C-69.875,44.778 -68.95,46.121 -68.879,46.371C-68.806,46.62 -66.874,47.266 -65.811,47.228C-64.747,47.189 -64.378,46.141 -64.378,46.141C-64.378,46.141 -62.077,47.102 -60.884,46.696C-59.804,46.328 -59.138,45.781 -59.138,45.781C-59.138,45.781 -58.326,45.896 -57.348,45.936C-56.368,45.975 -55.802,45.017 -55.704,44.613C-55.704,44.613 -56.751,45.306 -57.161,45.372C-57.442,45.417 -58.239,45.214 -58.721,45.078C-58.05,44.807 -57.771,44.145 -57.512,43.97C-57.306,43.826 -56.888,43.129 -56.601,42.618C-56.483,42.745 -56.365,42.865 -56.25,42.983C-56.22,43.036 -56.194,43.088 -56.173,43.125C-56.037,43.382 -55.851,43.602 -55.651,43.788C-55.527,43.99 -55.445,44.117 -55.445,44.117L-53.568,45.289L-53.272,46.1C-53.272,46.1 -51.707,46.967 -50.631,47.523C-51.29,47.578 -52.15,47.662 -52.358,47.75C-52.706,47.9 -51.76,48.198 -51.511,48.297C-51.263,48.398 -51.313,48.598 -52.009,48.598C-52.706,48.598 -52.657,48.897 -52.059,48.945C-51.462,48.995 -50.118,48.897 -49.769,48.945C-49.557,48.975 -49.163,49.171 -48.885,49.32L-53.638,49.297C-53.651,49.013 -53.752,48.845 -53.752,48.845L-53.902,48.448C-53.902,48.448 -55.295,49.542 -56.938,48.498C-56.938,48.498 -56.739,50.438 -57.784,51.236C-57.784,51.236 -56.782,52.354 -55.276,51.515L-55.295,51.683L-53.602,54.871L-54.085,54.966L-54.112,54.968C-54.149,54.95 -54.153,54.95 -54.118,54.966C-54.118,54.966 -54.112,54.972 -54.11,54.975L-55.055,55.365C-55.087,55.057 -55.132,54.742 -55.196,54.571C-55.196,54.571 -56.242,55.814 -59.179,54.87C-59.179,54.87 -60.124,56.014 -63.31,54.521C-63.31,54.521 -63.76,56.513 -65.053,56.961C-65.053,56.961 -63.66,59.053 -62.215,58.852C-60.771,58.654 -59.875,58.403 -59.577,57.608C-59.468,57.318 -59.367,56.984 -59.282,56.675C-59.368,57.494 -59.528,58.403 -59.825,58.952C-59.825,58.952 -58.88,59.5 -57.735,59.451C-57.098,59.423 -56.17,59.301 -55.557,58.705C-55.571,58.963 -55.572,59.248 -55.544,59.548C-55.512,59.868 -55.443,60.63 -55.387,61.27C-55.415,61.276 -55.434,61.282 -55.434,61.282L-55.382,61.321C-55.334,61.853 -55.295,62.288 -55.295,62.288L-58.108,63.016C-57.278,62.261 -56.603,61.149 -56.44,59.798C-56.44,59.798 -58.033,60.594 -60.025,59.798C-60.025,59.798 -59.975,61.292 -61.268,62.387C-62.234,63.204 -62.784,63.494 -63.002,63.588C-63.244,63.631 -64.64,63.872 -65.003,63.781L-61.021,67.863C-61.021,67.863 -60.057,67.379 -59.238,66.563L-59.128,67.116L-58.435,70.257L-59.134,70.032C-59.134,70.032 -58.671,70.705 -58.032,71.058C-57.392,71.409 -51.132,74.112 -47.742,75.066C-44.35,76.018 -40.532,76.665 -38.078,77.401C-37.454,77.588 -37.06,77.671 -36.816,77.69C-36.822,77.701 -36.824,77.709 -36.824,77.709C-36.27,78.139 -34.789,79.912 -33.276,80.873C-32.501,81.365 -31.575,81.798 -30.798,82.079C-30.741,82.141 -30.679,82.194 -30.609,82.231C-30.472,82.307 -30.187,82.351 -29.845,82.377C-29.568,82.44 -29.36,82.459 -29.256,82.424C-29.238,82.416 -29.216,82.407 -29.194,82.4C-28.328,82.404 -27.388,82.338 -27.292,82.312C-27.128,82.265 -26.883,81.62 -26.976,81.236C-27.07,80.849 -28.074,78.74 -28.074,78.74L-25.277,80.921C-25.277,80.921 -25.072,81.01 -24.779,81.14C-24.427,81.322 -23.955,81.541 -23.467,81.712C-23.044,81.898 -22.677,82.058 -22.549,82.119C-22.174,82.3 -21.467,82.273 -21.191,82.23C-20.919,82.185 -20.949,81.588 -20.949,81.588C-20.949,81.588 -21.101,81.292 -21.239,80.957C-21.207,80.508 -21.285,80.053 -21.396,79.661C-21.397,79.517 -21.405,79.391 -21.4,79.282C-21.399,79.222 -21.285,79.238 -21.118,79.297C-20.793,79.618 -20.385,79.994 -19.973,80.317C-19.364,80.797 -17.863,81.642 -16.904,81.857C-16.856,81.869 -16.816,81.873 -16.771,81.879C-16.672,81.923 -16.579,81.959 -16.5,81.982C-16.096,82.108 -15.144,82.092 -14.816,82.049C-14.488,82.011 -14.992,81.01 -15.14,80.676C-15.185,80.577 -15.274,80.422 -15.376,80.252C-15.447,79.925 -15.599,79.613 -15.824,79.369C-15.824,79.369 -11.964,81.512 -9.482,82.074C-8.932,82.199 -8.4,82.218 -7.929,82.158C-7.464,82.197 -7,82.231 -6.767,82.265C-6.28,82.339 -5.674,82.146 -5.238,82.11C-4.801,82.074 -5.363,81.18 -5.408,80.957C-5.454,80.741 -6.197,80.274 -6.722,79.816C-6.767,79.78 -6.833,79.73 -6.916,79.673C-6.996,79.608 -7.079,79.541 -7.173,79.474C-9.474,77.828 -11.232,76.862 -11.232,76.862C-11.232,76.862 -2.422,79.094 -1.107,78.901C0.033,78.733 1.27,79.248 2.613,78.839C4.26,78.801 5.514,78.625 4.987,78.274" style="fill:rgb(63,42,46);fill-rule:nonzero;"/>
                </g>
                <g transform="matrix(1,0,0,1,59.2275,85.6162)">
                    <path d="M0,-16.118L-5.671,2.388L-9.552,2.388L-15.223,-16.118L-16.416,-18.506L-10.297,-18.506L-10.596,-16.118L-7.611,-5.372L-7.462,-4.179L-7.313,-5.372L-4.328,-16.118L-4.626,-18.506L1.194,-18.506L0,-16.118Z" style="fill:white;fill-rule:nonzero;"/>
                </g>
                <g transform="matrix(1,0,0,1,59.2275,85.6162)">
                    <path d="M0,-16.118L-0.648,-16.317L-6.172,1.71L-9.05,1.71L-14.591,-16.37L-15.32,-17.828L-11.065,-17.828L-11.286,-16.068L-8.278,-5.239L-8.134,-4.095L-6.789,-4.095L-6.647,-5.238L-3.639,-16.067L-3.858,-17.828L0.097,-17.828L-0.631,-16.371L-0.648,-16.317L0,-16.118L0.606,-15.815L2.291,-19.184L-5.394,-19.184L-5.017,-16.169L-7.979,-5.507L-8.134,-4.263L-7.462,-4.179L-6.789,-4.263L-6.939,-5.456L-6.946,-5.506L-9.907,-16.169L-9.53,-19.184L-17.512,-19.184L-15.854,-15.866L-10.053,3.066L-5.17,3.066L0.648,-15.919L0,-16.118L0.606,-15.815L0,-16.118Z" style="fill:rgb(220,221,222);fill-rule:nonzero;"/>
                </g>
                <g transform="matrix(1,0,0,1,76.0895,67.1104)">
                    <path d="M0,20.894L-12.238,20.894L-11.641,18.506L-11.641,2.388L-12.238,0L-0.299,0L1.194,4.477L-1.493,3.582L-6.865,3.582L-7.164,3.881L-7.164,7.462L-6.865,7.761L-4.328,7.761L-2.09,7.014L-2.09,12.088L-4.328,11.342L-6.865,11.342L-7.164,11.641L-7.164,16.566L-6.716,17.014L-1.493,17.014L1.642,15.969L0,20.894Z" style="fill:white;fill-rule:nonzero;"/>
                </g>
                <g transform="matrix(1,0,0,1,76.0895,67.1104)">
                    <path d="M0,20.894L0,20.216L-11.37,20.216L-10.964,18.589L-10.964,2.304L-11.371,0.677L-0.787,0.677L0.122,3.405L-1.383,2.904L-7.146,2.904L-7.842,3.6L-7.842,7.743L-7.146,8.439L-4.219,8.439L-2.768,7.955L-2.768,11.148L-4.114,10.699L-4.219,10.665L-7.146,10.665L-7.643,11.162L-7.842,11.36L-7.842,16.846L-7.195,17.493L-6.997,17.692L-1.383,17.692L0.57,17.041L-0.643,20.68L0,20.894L0,20.216L0,20.894L0.643,21.108L2.713,14.898L-1.603,16.336L-6.435,16.336L-6.486,16.285L-6.486,11.922L-6.386,11.822L-6.865,11.342L-6.865,12.02L-4.438,12.02L-1.412,13.029L-1.412,6.074L-4.438,7.083L-6.585,7.083L-6.685,6.983L-7.164,7.462L-6.486,7.462L-6.486,4.161L-6.386,4.061L-6.865,3.582L-6.865,4.26L-1.603,4.26L2.266,5.548L0.19,-0.678L-13.107,-0.678L-12.319,2.471L-12.319,18.422L-13.107,21.572L0.489,21.572L0.643,21.108L0,20.894Z" style="fill:rgb(220,221,222);fill-rule:nonzero;"/>
                </g>
                <g transform="matrix(1,0,0,1,92.5025,67.1104)">
                    <path d="M0,20.894L-2.537,13.134L-3.134,12.835L-5.373,12.835L-5.671,13.134L-5.671,18.506L-5.074,20.894L-10.745,20.894L-10.149,18.506L-10.149,2.388L-10.745,0L1.493,0L5.074,3.582L5.074,8.656L1.791,11.939L4.03,18.058L5.671,20.894L0,20.894ZM0.299,5.522L-0.299,4.328L-1.791,3.582L-5.373,3.582L-5.671,3.881L-5.671,8.954L-5.373,9.253L-1.791,9.253L-0.299,8.507L0.299,7.313L0.299,5.522Z" style="fill:white;fill-rule:nonzero;"/>
                </g>
                <g transform="matrix(1,0,0,1,92.5025,67.1104)">
                    <path d="M0,20.894L0.644,20.683L-1.981,12.654L-2.831,12.229L-2.974,12.157L-5.653,12.157L-6.151,12.654L-6.349,12.853L-6.349,18.589L-5.943,20.216L-9.877,20.216L-9.471,18.589L-9.471,2.304L-9.877,0.677L1.211,0.677L4.396,3.863L4.396,8.376L1.006,11.766L3.414,18.346L4.496,20.216L0,20.216L0,20.894L0.644,20.683L0,20.894L0,21.572L6.847,21.572L4.646,17.77L2.576,12.113L5.752,8.937L5.752,3.301L1.773,-0.678L-11.613,-0.678L-10.826,2.471L-10.826,18.422L-11.613,21.572L-4.207,21.572L-4.994,18.422L-4.994,13.414L-4.894,13.314L-5.373,12.835L-5.373,13.513L-3.294,13.513L-3.094,13.613L-0.492,21.572L0,21.572L0,20.894ZM0.299,5.522L0.905,5.219L0.207,3.823L-1.63,2.904L-5.653,2.904L-6.151,3.401L-6.349,3.6L-6.349,9.235L-5.852,9.732L-5.653,9.93L-1.63,9.93L0.207,9.012L0.976,7.473L0.976,5.362L0.905,5.219L0.299,5.522L-0.379,5.522L-0.379,7.152L-0.804,8.002L-1.951,8.575L-5.092,8.575L-5.192,8.475L-5.671,8.954L-4.994,8.954L-4.994,4.161L-4.894,4.061L-5.373,3.582L-5.373,4.26L-1.951,4.26L-0.804,4.833L-0.308,5.825L0.299,5.522L-0.379,5.522L0.299,5.522Z" style="fill:rgb(220,221,222);fill-rule:nonzero;"/>
                </g>
                <g transform="matrix(1,0,0,1,113.244,67.1104)">
                    <path d="M0,20.894L0.298,18.506L-0.299,16.118L-0.597,15.82L-6.268,15.82L-6.567,16.118L-7.164,18.506L-6.865,20.894L-12.387,20.894L-11.193,18.506L-6.716,1.94L-7.164,0L0.896,0L0.447,1.94L4.925,18.506L6.119,20.894L0,20.894ZM-3.283,3.881L-3.433,2.985L-3.582,3.881L-5.522,11.939L-5.224,12.238L-1.642,12.238L-1.343,11.939L-3.283,3.881Z" style="fill:white;fill-rule:nonzero;"/>
                </g>
                <g transform="matrix(1,0,0,1,113.244,67.1104)">
                    <path d="M0,20.894L0.672,20.979L0.987,18.464L0.314,15.771L-0.118,15.34L-0.316,15.142L-6.549,15.142L-7.046,15.639L-7.179,15.771L-7.852,18.464L-7.633,20.216L-11.291,20.216L-10.556,18.749L-6.018,1.952L-6.312,0.677L0.043,0.677L-0.213,1.787L-0.252,1.953L4.288,18.748L5.022,20.216L0,20.216L0,20.894L0.672,20.979L0,20.894L0,21.572L7.216,21.572L5.562,18.264L1.146,1.927L1.747,-0.678L-8.017,-0.678L-7.415,1.927L-11.83,18.264L-13.484,21.572L-6.098,21.572L-6.476,18.547L-5.955,16.464L-5.789,16.299L-6.268,15.82L-6.268,16.497L-0.878,16.497L-0.778,16.597L-0.299,16.118L-0.956,16.282L-0.39,18.547L-0.768,21.572L0,21.572L0,20.894ZM-3.283,3.881L-2.615,3.769L-2.764,2.873L-4.101,2.874L-4.246,3.746L-6.27,12.149L-5.704,12.717L-5.505,12.916L-1.361,12.916L-0.595,12.15L-2.624,3.722L-3.283,3.881L-2.615,3.769L-3.283,3.881L-3.943,4.039L-2.091,11.729L-2.121,11.759L-1.642,12.238L-1.642,11.56L-4.943,11.56L-5.042,11.461L-5.522,11.939L-4.863,12.098L-2.917,4.016L-2.764,3.096L-3.433,2.985L-4.101,3.097L-3.952,3.992L-3.948,4.016L-3.943,4.039L-3.283,3.881Z" style="fill:rgb(220,221,222);fill-rule:nonzero;"/>
                </g>
                <g transform="matrix(1,0,0,1,138.463,85.6162)">
                    <path d="M0,-16.118L0,2.388L-3.88,2.388L-10.297,-10.447L-10.895,-11.939L-10.745,-10.447L-10.745,0L-10.149,2.388L-15.222,2.388L-14.626,0L-14.626,-16.118L-15.372,-18.506L-9.552,-18.506L-4.328,-8.059L-3.731,-6.566L-3.88,-8.059L-3.88,-16.118L-4.477,-18.506L0.597,-18.506L0,-16.118Z" style="fill:white;fill-rule:nonzero;"/>
                </g>
                <g transform="matrix(1,0,0,1,138.463,85.6162)">
                    <path d="M0,-16.118L-0.678,-16.118L-0.678,1.71L-3.461,1.71L-9.679,-10.724L-10.265,-12.191L-11.569,-11.872L-11.423,-10.412L-11.423,0.083L-11.016,1.71L-14.354,1.71L-13.948,0.083L-13.948,-16.221L-14.45,-17.828L-9.971,-17.828L-4.946,-7.78L-4.36,-6.315L-3.056,-6.634L-3.202,-8.092L-3.202,-16.201L-3.609,-17.828L-0.271,-17.828L-0.678,-16.201L-0.678,-16.118L0,-16.118L0.657,-15.954L1.465,-19.184L-5.346,-19.184L-4.558,-16.035L-4.558,-8.025L-4.405,-6.499L-3.731,-6.566L-3.101,-6.818L-3.709,-8.338L-9.133,-19.184L-16.294,-19.184L-15.304,-16.015L-15.304,-0.084L-16.09,3.066L-9.281,3.066L-10.067,-0.084L-10.067,-10.482L-10.22,-12.007L-10.895,-11.939L-11.524,-11.688L-10.916,-10.169L-4.299,3.066L0.678,3.066L0.678,-16.118L0,-16.118L0.657,-15.954L0,-16.118Z" style="fill:rgb(220,221,222);fill-rule:nonzero;"/>
                </g>
                <g transform="matrix(1,0,0,1,156.966,67.1104)">
                    <path d="M0,20.894L-11.641,20.894L-11.044,18.506L-11.044,2.388L-11.641,0L0,0L4.179,4.179L4.179,16.715L0,20.894ZM-0.597,5.821L-1.343,4.328L-2.836,3.582L-6.119,3.582L-6.417,3.881L-6.417,16.566L-5.97,17.014L-2.836,17.014L-1.343,16.267L-0.597,14.775L-0.597,5.821Z" style="fill:white;fill-rule:nonzero;"/>
                </g>
                <g transform="matrix(1,0,0,1,156.966,67.1104)">
                    <path d="M0,20.894L0,20.216L-10.773,20.216L-10.366,18.589L-10.366,2.305L-10.773,0.677L-0.281,0.677L3.501,4.46L3.501,16.435L-0.479,20.415L0,20.894L0,20.216L0,20.894L0.479,21.373L4.857,16.996L4.857,3.898L0.281,-0.678L-12.508,-0.678L-11.722,2.471L-11.722,18.422L-12.508,21.572L0.281,21.572L0.479,21.373L0,20.894ZM-0.597,5.821L0.009,5.517L-0.838,3.823L-2.675,2.904L-6.399,2.904L-6.897,3.401L-7.095,3.6L-7.095,16.846L-6.45,17.493L-6.251,17.692L-2.676,17.692L-0.838,16.772L0.081,14.935L0.081,5.66L0.009,5.517L-0.597,5.821L-1.275,5.821L-1.275,14.615L-1.848,15.762L-2.996,16.336L-5.689,16.336L-5.74,16.285L-5.74,4.161L-5.64,4.061L-6.119,3.582L-6.119,4.26L-2.996,4.26L-1.848,4.833L-1.203,6.124L-0.597,5.821L-1.275,5.821L-0.597,5.821Z" style="fill:rgb(220,221,222);fill-rule:nonzero;"/>
                </g>
                <g transform="matrix(1,0,0,1,177.408,67.1104)">
                    <path d="M0,20.894L0.299,18.506L-0.298,16.118L-0.597,15.82L-6.268,15.82L-6.567,16.118L-7.164,18.506L-6.865,20.894L-12.387,20.894L-11.193,18.506L-6.716,1.94L-7.164,0L0.896,0L0.448,1.94L4.925,18.506L6.119,20.894L0,20.894ZM-3.283,3.881L-3.433,2.985L-3.582,3.881L-5.522,11.939L-5.223,12.238L-1.642,12.238L-1.343,11.939L-3.283,3.881Z" style="fill:white;fill-rule:nonzero;"/>
                </g>
                <g transform="matrix(1,0,0,1,177.408,67.1104)">
                    <path d="M0,20.894L0.672,20.979L0.987,18.464L0.313,15.771L-0.316,15.142L-6.549,15.142L-7.046,15.639L-7.179,15.771L-7.852,18.464L-7.633,20.216L-11.29,20.216L-10.556,18.748L-6.018,1.953L-6.312,0.677L0.043,0.677L-0.213,1.787L-0.251,1.953L4.288,18.748L5.022,20.216L0,20.216L0,20.894L0.672,20.979L0,20.894L0,21.572L7.216,21.572L5.562,18.264L1.146,1.927L1.747,-0.678L-8.017,-0.678L-7.415,1.927L-11.83,18.264L-13.484,21.572L-6.098,21.572L-6.476,18.547L-5.955,16.465L-5.789,16.299L-6.268,15.82L-6.268,16.497L-0.878,16.497L-0.778,16.597L-0.298,16.118L-0.956,16.282L-0.39,18.547L-0.768,21.572L0,21.572L0,20.894ZM-3.283,3.881L-2.615,3.769L-2.764,2.873L-4.101,2.874L-4.246,3.746L-6.27,12.15L-5.504,12.916L-1.361,12.916L-0.595,12.15L-2.625,3.722L-3.283,3.881L-2.615,3.769L-3.283,3.881L-3.942,4.039L-2.091,11.729L-2.121,11.759L-1.642,12.238L-1.642,11.56L-4.943,11.56L-5.042,11.46L-5.522,11.939L-4.863,12.098L-2.917,4.014L-2.764,3.096L-3.433,2.985L-4.101,3.097L-3.952,3.992L-3.948,4.016L-3.942,4.039L-3.283,3.881Z" style="fill:rgb(220,221,222);fill-rule:nonzero;"/>
                </g>
                <g transform="matrix(1,0,0,1,146.344,116.795)">
                    <path d="M0,-18.711L2.228,-18.711C3.524,-18.711 4.405,-18.141 4.405,-16.716L4.405,-11.274C4.405,-10.211 3.602,-9.744 2.772,-9.693L2.772,-9.642C3.757,-9.589 4.535,-9.253 4.535,-7.904L4.535,-1.997C4.535,-0.596 3.679,0 2.513,0L0,0L0,-18.711ZM2.151,-10.004C3.11,-10.004 3.368,-10.678 3.368,-11.326L3.368,-16.767C3.368,-17.596 3.11,-17.934 2.099,-17.934L1.036,-17.934L1.036,-10.004L2.151,-10.004ZM1.036,-9.227L1.036,-0.778L2.099,-0.778C3.135,-0.778 3.498,-1.142 3.498,-1.918L3.498,-7.878C3.498,-8.812 3.057,-9.227 2.151,-9.227L1.036,-9.227Z" style="fill:rgb(63,42,46);fill-rule:nonzero;"/>
                </g>
                <g transform="matrix(1,0,0,1,155.179,116.795)">
                    <path d="M0,-18.711L1.036,-18.711L1.036,-0.778L3.757,-0.778L3.757,0L0,0L0,-18.711Z" style="fill:rgb(63,42,46);fill-rule:nonzero;"/>
                </g>
                <g transform="matrix(1,0,0,1,162.562,116.795)">
                    <path d="M0,-18.711L3.55,-18.711L3.55,-17.934L1.037,-17.934L1.037,-10.004L3.395,-10.004L3.395,-9.227L1.037,-9.227L1.037,-0.778L3.732,-0.778L3.732,0L0,0L0,-18.711Z" style="fill:rgb(63,42,46);fill-rule:nonzero;"/>
                </g>
                <g transform="matrix(1,0,0,1,169.946,116.795)">
                    <path d="M0,-18.711L1.555,-18.711L3.317,-6.634C3.524,-5.157 3.835,-3.034 4.172,-0.778L4.224,-0.778C4.094,-3.37 3.965,-5.779 3.965,-6.79L3.965,-18.711L5.001,-18.711L5.001,0L3.446,0L1.632,-11.922C1.477,-12.932 1.192,-15.473 0.907,-17.934L0.855,-17.934C0.907,-15.498 1.037,-13.113 1.037,-12.492L1.037,0L0,0L0,-18.711Z" style="fill:rgb(63,42,46);fill-rule:nonzero;"/>
                </g>
                <g transform="matrix(1,0,0,1,179.246,116.795)">
                    <path d="M0,-18.711L2.203,-18.711C3.732,-18.711 4.535,-18.115 4.535,-16.716L4.535,-1.997C4.535,-0.596 3.732,0 2.203,0L0,0L0,-18.711ZM2.099,-0.778C3.032,-0.778 3.498,-1.115 3.498,-1.918L3.498,-16.793C3.498,-17.596 3.032,-17.934 2.099,-17.934L1.037,-17.934L1.037,-0.778L2.099,-0.778Z" style="fill:rgb(63,42,46);fill-rule:nonzero;"/>
                </g>
            </g>
        </g>
    </g>
</svg>
